G04*
G04 #@! TF.GenerationSoftware,Altium Limited,Altium Designer,24.8.2 (39)*
G04*
G04 Layer_Physical_Order=2*
G04 Layer_Color=36540*
%FSLAX43Y43*%
%MOMM*%
G71*
G04*
G04 #@! TF.SameCoordinates,7EB9D47B-AFC8-475C-A275-96F075C7C5C9*
G04*
G04*
G04 #@! TF.FilePolarity,Positive*
G04*
G01*
G75*
%ADD142O,0.900X1.700*%
%ADD143O,1.200X2.000*%
%ADD145C,1.900*%
%ADD146R,1.900X1.900*%
%ADD147C,1.700*%
%ADD148C,0.850*%
%ADD149R,0.850X0.850*%
%ADD152C,0.900*%
%ADD153C,1.120*%
%ADD158C,0.600*%
G36*
X54316Y133348D02*
X54497Y133348D01*
X54854Y133301D01*
X55203Y133207D01*
X55536Y133069D01*
X55848Y132889D01*
X56135Y132669D01*
X56390Y132414D01*
X56609Y132128D01*
X56790Y131816D01*
X56928Y131482D01*
X57021Y131134D01*
X57068Y130776D01*
X57068Y130596D01*
Y125394D01*
X56941Y125377D01*
X56876Y125620D01*
X56685Y125950D01*
X56415Y126220D01*
X56085Y126411D01*
X55716Y126510D01*
X55334D01*
X54965Y126411D01*
X54635Y126220D01*
X54365Y125950D01*
X54174Y125620D01*
X54075Y125251D01*
Y124869D01*
X54174Y124500D01*
X54365Y124170D01*
X54635Y123900D01*
X54715Y123854D01*
Y123727D01*
X54635Y123680D01*
X54365Y123410D01*
X54174Y123080D01*
X54075Y122711D01*
Y122329D01*
X54174Y121960D01*
X54365Y121630D01*
X54635Y121360D01*
X54715Y121313D01*
Y121187D01*
X54635Y121140D01*
X54365Y120870D01*
X54174Y120540D01*
X54075Y120171D01*
Y119789D01*
X54174Y119420D01*
X54365Y119090D01*
X54635Y118820D01*
X54647Y118813D01*
X54614Y118690D01*
X54275D01*
Y117990D01*
X55525D01*
X56775D01*
Y118690D01*
X56436D01*
X56403Y118813D01*
X56415Y118820D01*
X56685Y119090D01*
X56876Y119420D01*
X56941Y119663D01*
X57068Y119646D01*
Y112451D01*
Y112279D01*
X57001Y111940D01*
X56869Y111621D01*
X56677Y111334D01*
X56433Y111090D01*
X56146Y110899D01*
X55827Y110767D01*
X55489Y110699D01*
X53918D01*
X53821Y110680D01*
X53738Y110625D01*
X53683Y110542D01*
X53663Y110444D01*
Y106308D01*
X53683Y106210D01*
X53738Y106128D01*
X53814Y106077D01*
X53818Y106048D01*
X53809Y105950D01*
X53440Y105851D01*
X53110Y105660D01*
X52840Y105390D01*
X52649Y105060D01*
X52550Y104691D01*
Y104309D01*
X52649Y103940D01*
X52840Y103610D01*
X53110Y103340D01*
X53190Y103294D01*
Y103166D01*
X53110Y103120D01*
X52840Y102850D01*
X52649Y102520D01*
X52550Y102151D01*
Y101769D01*
X52649Y101400D01*
X52840Y101070D01*
X53110Y100800D01*
X53440Y100609D01*
X53809Y100510D01*
X54191D01*
X54560Y100609D01*
X54890Y100800D01*
X55160Y101070D01*
X55207Y101150D01*
X55333D01*
X55380Y101070D01*
X55650Y100800D01*
X55980Y100609D01*
X56349Y100510D01*
X56731D01*
X57100Y100609D01*
X57430Y100800D01*
X57700Y101070D01*
X57746Y101150D01*
X57874D01*
X57920Y101070D01*
X58190Y100800D01*
X58520Y100609D01*
X58889Y100510D01*
X59271D01*
X59573Y100591D01*
X59700Y100507D01*
Y100483D01*
X59748Y100305D01*
X59840Y100145D01*
X59970Y100015D01*
X60130Y99923D01*
X60308Y99875D01*
X60492D01*
X60670Y99923D01*
X60830Y100015D01*
X60960Y100145D01*
X61052Y100305D01*
X61100Y100483D01*
Y100667D01*
X61097Y100678D01*
X61202Y100778D01*
X61455Y100710D01*
X61785D01*
X62102Y100795D01*
X62388Y100960D01*
X62620Y101192D01*
X62746Y101410D01*
X61620D01*
Y102510D01*
X62746D01*
X62620Y102728D01*
X62388Y102960D01*
X62102Y103125D01*
X61955Y103164D01*
Y103296D01*
X62102Y103335D01*
X62388Y103500D01*
X62620Y103732D01*
X62746Y103950D01*
X61620D01*
Y104500D01*
X61070D01*
Y105626D01*
X60852Y105500D01*
X60620Y105268D01*
X60539Y105127D01*
X60392D01*
X60240Y105390D01*
X59970Y105660D01*
X59640Y105851D01*
X59361Y105926D01*
X59377Y106053D01*
X96006Y106053D01*
X96187Y106053D01*
X96544Y106006D01*
X96893Y105912D01*
X97226Y105774D01*
X97538Y105594D01*
X97825Y105374D01*
X98080Y105119D01*
X98299Y104833D01*
X98480Y104521D01*
X98618Y104188D01*
X98711Y103839D01*
X98758Y103481D01*
X98758Y103301D01*
X98758Y86870D01*
Y86689D01*
X98711Y86332D01*
X98618Y85983D01*
X98480Y85650D01*
X98299Y85338D01*
X98080Y85051D01*
X97825Y84796D01*
X97538Y84577D01*
X97226Y84396D01*
X96893Y84258D01*
X96544Y84165D01*
X96187Y84118D01*
X96006D01*
X84506Y84118D01*
X84456D01*
X84364Y84156D01*
X84293Y84227D01*
X84255Y84320D01*
X84255Y85752D01*
X84252Y85765D01*
X84253Y85777D01*
X84244Y85874D01*
X84233Y85910D01*
X84226Y85946D01*
X84152Y86124D01*
X84097Y86207D01*
X83961Y86343D01*
X83878Y86398D01*
X83700Y86472D01*
X83663Y86479D01*
X83628Y86490D01*
X83531Y86499D01*
X83519Y86498D01*
X83506Y86501D01*
X74506Y86501D01*
X74494Y86498D01*
X74481Y86499D01*
X74385Y86490D01*
X74349Y86479D01*
X74313Y86472D01*
X74135Y86398D01*
X74052Y86343D01*
X73916Y86207D01*
X73916Y86207D01*
X73861Y86124D01*
X73787Y85946D01*
X73780Y85910D01*
X73769Y85874D01*
X73759Y85777D01*
X73761Y85765D01*
X73758Y85752D01*
X73758Y84320D01*
X73720Y84227D01*
X73649Y84156D01*
X73556Y84118D01*
X73506Y84118D01*
X73494Y84115D01*
X73481Y84117D01*
X73385Y84107D01*
X73349Y84096D01*
X73313Y84089D01*
X73135Y84015D01*
X73052Y83960D01*
X72916Y83824D01*
X72916Y83824D01*
X72861Y83741D01*
X72787Y83564D01*
X72780Y83527D01*
X72769Y83491D01*
X72759Y83395D01*
X72761Y83382D01*
X72758Y83370D01*
Y82700D01*
X64300D01*
X63900Y82300D01*
Y81600D01*
X72758D01*
Y61379D01*
X72761Y61367D01*
X72759Y61354D01*
X72769Y61258D01*
X72780Y61222D01*
X72787Y61185D01*
X72861Y61007D01*
X72916Y60925D01*
X72916Y60925D01*
X73052Y60789D01*
X73135Y60733D01*
X73313Y60660D01*
X73349Y60652D01*
X73385Y60642D01*
X73481Y60632D01*
X73494Y60633D01*
X73506Y60631D01*
X96006Y60631D01*
X96187Y60631D01*
X96544Y60584D01*
X96893Y60490D01*
X97226Y60352D01*
X97538Y60172D01*
X97825Y59952D01*
X98080Y59697D01*
X98299Y59411D01*
X98480Y59099D01*
X98618Y58765D01*
X98711Y58417D01*
X98758Y58059D01*
X98758Y57879D01*
X98758Y47131D01*
Y47057D01*
X98729Y46912D01*
X98673Y46775D01*
X98590Y46652D01*
X98486Y46547D01*
X98362Y46465D01*
X98226Y46408D01*
X98080Y46380D01*
X98006Y46380D01*
X91763D01*
X91666Y46360D01*
X91583Y46305D01*
X91528Y46222D01*
X91508Y46125D01*
Y33888D01*
X91528Y33791D01*
X91583Y33708D01*
X91666Y33653D01*
X91763Y33633D01*
X98006Y33633D01*
X98080D01*
X98226Y33604D01*
X98362Y33548D01*
X98486Y33465D01*
X98590Y33361D01*
X98673Y33237D01*
X98729Y33101D01*
X98758Y32955D01*
X98758Y32881D01*
X98758Y30301D01*
Y30121D01*
X98711Y29763D01*
X98618Y29415D01*
X98480Y29081D01*
X98299Y28769D01*
X98080Y28483D01*
X97825Y28228D01*
X97538Y28008D01*
X97226Y27828D01*
X96893Y27690D01*
X96544Y27596D01*
X96187Y27549D01*
X96006Y27549D01*
X53918Y27549D01*
X53821Y27530D01*
X53738Y27475D01*
X53683Y27392D01*
X53663Y27294D01*
Y23158D01*
X53683Y23060D01*
X53738Y22978D01*
X53821Y22922D01*
X53918Y22903D01*
X55317Y22903D01*
X55489Y22903D01*
X55827Y22836D01*
X56146Y22704D01*
X56433Y22512D01*
X56677Y22268D01*
X56869Y21981D01*
X57001Y21662D01*
X57068Y21324D01*
X57068Y21151D01*
X57068Y3006D01*
Y2826D01*
X57021Y2468D01*
X56928Y2120D01*
X56790Y1787D01*
X56609Y1474D01*
X56390Y1188D01*
X56135Y933D01*
X55848Y713D01*
X55536Y533D01*
X55203Y395D01*
X54854Y302D01*
X54497Y255D01*
X24008D01*
X21619Y283D01*
X19117Y389D01*
X16585Y594D01*
X14095Y919D01*
X11712Y1379D01*
X9490Y1982D01*
X7471Y2735D01*
X5688Y3638D01*
X4160Y4687D01*
X3240Y5514D01*
X2453Y6409D01*
X1800Y7365D01*
X1274Y8377D01*
X869Y9441D01*
X577Y10548D01*
X387Y11690D01*
X285Y12858D01*
X255Y14040D01*
X255Y119562D01*
X285Y120745D01*
X387Y121913D01*
X577Y123055D01*
X869Y124162D01*
X1274Y125226D01*
X1797Y126232D01*
X3246Y128094D01*
X4161Y128916D01*
X5689Y129965D01*
X7472Y130867D01*
X9491Y131620D01*
X11713Y132224D01*
X14096Y132683D01*
X16585Y133008D01*
X19118Y133213D01*
X21619Y133319D01*
X24008Y133348D01*
X54316Y133348D01*
D02*
G37*
%LPC*%
G36*
X24650Y132800D02*
X24400D01*
X24158Y132735D01*
X23942Y132610D01*
X23850Y132518D01*
X23758Y132610D01*
X23542Y132735D01*
X23300Y132800D01*
X23050D01*
X22808Y132735D01*
X22592Y132610D01*
X22415Y132433D01*
X22290Y132217D01*
X22225Y131975D01*
Y131725D01*
X22290Y131483D01*
X22415Y131267D01*
X22592Y131090D01*
X22808Y130965D01*
X23050Y130900D01*
X23300D01*
X23542Y130965D01*
X23758Y131090D01*
X23850Y131182D01*
X23942Y131090D01*
X24158Y130965D01*
X24400Y130900D01*
X24650D01*
X24892Y130965D01*
X25108Y131090D01*
X25285Y131267D01*
X25410Y131483D01*
X25441Y131598D01*
X25573D01*
X25598Y131505D01*
X25690Y131345D01*
X25820Y131215D01*
X25980Y131123D01*
X26158Y131075D01*
X26342D01*
X26520Y131123D01*
X26680Y131215D01*
X26806Y131341D01*
X26824Y131357D01*
X26944D01*
X26965Y131320D01*
X27095Y131190D01*
X27255Y131098D01*
X27433Y131050D01*
X27617D01*
X27795Y131098D01*
X27955Y131190D01*
X28085Y131320D01*
X28170Y131467D01*
X28237Y131476D01*
X28305Y131467D01*
X28390Y131320D01*
X28520Y131190D01*
X28680Y131098D01*
X28858Y131050D01*
X29042D01*
X29220Y131098D01*
X29380Y131190D01*
X29510Y131320D01*
X29602Y131480D01*
X29650Y131658D01*
Y131842D01*
X29602Y132020D01*
X29510Y132180D01*
X29380Y132310D01*
X29220Y132402D01*
X29042Y132450D01*
X28858D01*
X28680Y132402D01*
X28520Y132310D01*
X28390Y132180D01*
X28305Y132033D01*
X28237Y132024D01*
X28170Y132033D01*
X28085Y132180D01*
X27955Y132310D01*
X27795Y132402D01*
X27617Y132450D01*
X27433D01*
X27255Y132402D01*
X27095Y132310D01*
X26969Y132184D01*
X26951Y132168D01*
X26831D01*
X26810Y132205D01*
X26680Y132335D01*
X26520Y132427D01*
X26342Y132475D01*
X26158D01*
X25980Y132427D01*
X25820Y132335D01*
X25690Y132205D01*
X25598Y132045D01*
X25593Y132027D01*
X25461D01*
X25410Y132217D01*
X25285Y132433D01*
X25108Y132610D01*
X24892Y132735D01*
X24650Y132800D01*
D02*
G37*
G36*
X32642Y132725D02*
X32458D01*
X32280Y132677D01*
X32120Y132585D01*
X31990Y132455D01*
X31898Y132295D01*
X31850Y132117D01*
Y131933D01*
X31898Y131755D01*
X31990Y131595D01*
X32120Y131465D01*
X32280Y131373D01*
X32458Y131325D01*
X32642D01*
X32820Y131373D01*
X32980Y131465D01*
X33110Y131595D01*
X33202Y131755D01*
X33250Y131933D01*
Y132117D01*
X33202Y132295D01*
X33110Y132455D01*
X32980Y132585D01*
X32820Y132677D01*
X32642Y132725D01*
D02*
G37*
G36*
X30942Y132400D02*
X30758D01*
X30580Y132352D01*
X30420Y132260D01*
X30290Y132130D01*
X30198Y131970D01*
X30150Y131792D01*
Y131608D01*
X30198Y131430D01*
X30290Y131270D01*
X30420Y131140D01*
X30580Y131048D01*
X30758Y131000D01*
X30942D01*
X31120Y131048D01*
X31280Y131140D01*
X31410Y131270D01*
X31502Y131430D01*
X31550Y131608D01*
Y131792D01*
X31502Y131970D01*
X31410Y132130D01*
X31280Y132260D01*
X31120Y132352D01*
X30942Y132400D01*
D02*
G37*
G36*
X37567Y132150D02*
X37383D01*
X37205Y132102D01*
X37045Y132010D01*
X36915Y131880D01*
X36823Y131720D01*
X36775Y131542D01*
Y131358D01*
X36823Y131180D01*
X36915Y131020D01*
X37045Y130890D01*
X37205Y130798D01*
X37383Y130750D01*
X37567D01*
X37745Y130798D01*
X37905Y130890D01*
X38035Y131020D01*
X38127Y131180D01*
X38175Y131358D01*
Y131542D01*
X38127Y131720D01*
X38035Y131880D01*
X37905Y132010D01*
X37745Y132102D01*
X37567Y132150D01*
D02*
G37*
G36*
X43567Y132130D02*
X43383D01*
X43205Y132082D01*
X43045Y131990D01*
X42915Y131860D01*
X42823Y131700D01*
X42775Y131522D01*
Y131338D01*
X42823Y131160D01*
X42915Y131000D01*
X43045Y130870D01*
X43205Y130778D01*
X43383Y130730D01*
X43567D01*
X43745Y130778D01*
X43905Y130870D01*
X44035Y131000D01*
X44127Y131160D01*
X44175Y131338D01*
Y131522D01*
X44127Y131700D01*
X44035Y131860D01*
X43905Y131990D01*
X43745Y132082D01*
X43567Y132130D01*
D02*
G37*
G36*
X55567Y132000D02*
X55383D01*
X55205Y131952D01*
X55045Y131860D01*
X54915Y131730D01*
X54823Y131570D01*
X54775Y131392D01*
Y131208D01*
X54823Y131030D01*
X54915Y130870D01*
X55045Y130740D01*
X55205Y130648D01*
X55383Y130600D01*
X55567D01*
X55745Y130648D01*
X55905Y130740D01*
X56035Y130870D01*
X56127Y131030D01*
X56175Y131208D01*
Y131392D01*
X56127Y131570D01*
X56035Y131730D01*
X55905Y131860D01*
X55745Y131952D01*
X55567Y132000D01*
D02*
G37*
G36*
X49592D02*
X49408D01*
X49230Y131952D01*
X49070Y131860D01*
X48940Y131730D01*
X48848Y131570D01*
X48800Y131392D01*
Y131208D01*
X48848Y131030D01*
X48940Y130870D01*
X49070Y130740D01*
X49230Y130648D01*
X49408Y130600D01*
X49592D01*
X49770Y130648D01*
X49930Y130740D01*
X50060Y130870D01*
X50152Y131030D01*
X50200Y131208D01*
Y131392D01*
X50152Y131570D01*
X50060Y131730D01*
X49930Y131860D01*
X49770Y131952D01*
X49592Y132000D01*
D02*
G37*
G36*
X13442Y131950D02*
X13258D01*
X13080Y131902D01*
X12920Y131810D01*
X12790Y131680D01*
X12698Y131520D01*
X12650Y131342D01*
Y131158D01*
X12698Y130980D01*
X12790Y130820D01*
X12920Y130690D01*
X13080Y130598D01*
X13258Y130550D01*
X13442D01*
X13620Y130598D01*
X13780Y130690D01*
X13910Y130820D01*
X14002Y130980D01*
X14050Y131158D01*
Y131342D01*
X14002Y131520D01*
X13910Y131680D01*
X13780Y131810D01*
X13620Y131902D01*
X13442Y131950D01*
D02*
G37*
G36*
X19940Y131400D02*
X19710D01*
X19487Y131340D01*
X19288Y131225D01*
X19125Y131062D01*
X19010Y130863D01*
X18950Y130640D01*
Y130410D01*
X19010Y130187D01*
X19125Y129988D01*
X19288Y129825D01*
X19487Y129710D01*
X19710Y129650D01*
X19940D01*
X20163Y129710D01*
X20362Y129825D01*
X20525Y129988D01*
X20640Y130187D01*
X20700Y130410D01*
Y130640D01*
X20640Y130863D01*
X20525Y131062D01*
X20362Y131225D01*
X20163Y131340D01*
X19940Y131400D01*
D02*
G37*
G36*
X22592Y129900D02*
X22408D01*
X22230Y129852D01*
X22070Y129760D01*
X21940Y129630D01*
X21848Y129470D01*
X21800Y129292D01*
Y129108D01*
X21848Y128930D01*
X21940Y128770D01*
X22070Y128640D01*
X22230Y128548D01*
X22408Y128500D01*
X22592D01*
X22770Y128548D01*
X22930Y128640D01*
X23060Y128770D01*
X23152Y128930D01*
X23200Y129108D01*
Y129292D01*
X23152Y129470D01*
X23060Y129630D01*
X22930Y129760D01*
X22770Y129852D01*
X22592Y129900D01*
D02*
G37*
G36*
X33196Y129404D02*
X33012D01*
X32834Y129356D01*
X32674Y129264D01*
X32544Y129134D01*
X32451Y128974D01*
X32404Y128796D01*
Y128612D01*
X32451Y128434D01*
X32544Y128274D01*
X32674Y128144D01*
X32834Y128051D01*
X33012Y128004D01*
X33196D01*
X33374Y128051D01*
X33534Y128144D01*
X33664Y128274D01*
X33756Y128434D01*
X33804Y128612D01*
Y128796D01*
X33756Y128974D01*
X33664Y129134D01*
X33534Y129264D01*
X33374Y129356D01*
X33196Y129404D01*
D02*
G37*
G36*
X6380Y128805D02*
X6196D01*
X6018Y128758D01*
X5858Y128665D01*
X5728Y128535D01*
X5635Y128376D01*
X5588Y128198D01*
Y128013D01*
X5635Y127835D01*
X5728Y127676D01*
X5858Y127545D01*
X6018Y127453D01*
X6196Y127405D01*
X6380D01*
X6558Y127453D01*
X6718Y127545D01*
X6848Y127676D01*
X6940Y127835D01*
X6988Y128013D01*
Y128198D01*
X6940Y128376D01*
X6848Y128535D01*
X6718Y128665D01*
X6558Y128758D01*
X6380Y128805D01*
D02*
G37*
G36*
X18692Y128525D02*
X18508D01*
X18330Y128477D01*
X18170Y128385D01*
X18040Y128255D01*
X17948Y128095D01*
X17900Y127917D01*
Y127733D01*
X17948Y127555D01*
X18040Y127395D01*
X18170Y127265D01*
X18330Y127173D01*
X18508Y127125D01*
X18692D01*
X18870Y127173D01*
X19030Y127265D01*
X19160Y127395D01*
X19252Y127555D01*
X19300Y127733D01*
Y127917D01*
X19252Y128095D01*
X19160Y128255D01*
X19030Y128385D01*
X18870Y128477D01*
X18692Y128525D01*
D02*
G37*
G36*
X26892Y128900D02*
X26708D01*
X26530Y128852D01*
X26370Y128760D01*
X26240Y128630D01*
X26148Y128470D01*
X26100Y128292D01*
Y128108D01*
X26148Y127930D01*
X26240Y127770D01*
X26370Y127640D01*
X26530Y127548D01*
X26708Y127500D01*
X26725D01*
Y127408D01*
X26773Y127230D01*
X26865Y127070D01*
X26995Y126940D01*
X27155Y126848D01*
X27333Y126800D01*
X27517D01*
X27695Y126848D01*
X27855Y126940D01*
X27985Y127070D01*
X28077Y127230D01*
X28125Y127408D01*
Y127592D01*
X28077Y127770D01*
X27985Y127930D01*
X27855Y128060D01*
X27695Y128152D01*
X27517Y128200D01*
X27500D01*
Y128292D01*
X27452Y128470D01*
X27360Y128630D01*
X27230Y128760D01*
X27070Y128852D01*
X26892Y128900D01*
D02*
G37*
G36*
X24867Y127250D02*
X24683D01*
X24505Y127202D01*
X24345Y127110D01*
X24215Y126980D01*
X24123Y126820D01*
X24075Y126642D01*
Y126458D01*
X24123Y126280D01*
X24215Y126120D01*
X24345Y125990D01*
X24505Y125898D01*
X24683Y125850D01*
X24867D01*
X25045Y125898D01*
X25205Y125990D01*
X25335Y126120D01*
X25427Y126280D01*
X25475Y126458D01*
Y126642D01*
X25427Y126820D01*
X25335Y126980D01*
X25205Y127110D01*
X25045Y127202D01*
X24867Y127250D01*
D02*
G37*
G36*
X43892Y126500D02*
X43708D01*
X43530Y126452D01*
X43370Y126360D01*
X43240Y126230D01*
X43148Y126070D01*
X43100Y125892D01*
Y125708D01*
X43148Y125530D01*
X43240Y125370D01*
X43370Y125240D01*
X43530Y125148D01*
X43708Y125100D01*
X43892D01*
X44070Y125148D01*
X44230Y125240D01*
X44360Y125370D01*
X44452Y125530D01*
X44500Y125708D01*
Y125892D01*
X44452Y126070D01*
X44360Y126230D01*
X44230Y126360D01*
X44070Y126452D01*
X43892Y126500D01*
D02*
G37*
G36*
X47617Y126475D02*
X47433D01*
X47255Y126427D01*
X47095Y126335D01*
X46965Y126205D01*
X46873Y126045D01*
X46825Y125867D01*
Y125683D01*
X46873Y125505D01*
X46965Y125345D01*
X47095Y125215D01*
X47255Y125123D01*
X47433Y125075D01*
X47617D01*
X47795Y125123D01*
X47955Y125215D01*
X48085Y125345D01*
X48177Y125505D01*
X48225Y125683D01*
Y125867D01*
X48177Y126045D01*
X48085Y126205D01*
X47955Y126335D01*
X47795Y126427D01*
X47617Y126475D01*
D02*
G37*
G36*
X33958Y127625D02*
X33774D01*
X33596Y127578D01*
X33436Y127486D01*
X33306Y127355D01*
X33214Y127196D01*
X33166Y127018D01*
Y126833D01*
X33214Y126655D01*
X33306Y126496D01*
X33436Y126365D01*
X33596Y126273D01*
X33628Y126265D01*
X33638Y126248D01*
X33660Y126125D01*
X33565Y126030D01*
X33473Y125870D01*
X33425Y125692D01*
Y125508D01*
X33473Y125330D01*
X33565Y125170D01*
X33695Y125040D01*
X33855Y124948D01*
X34033Y124900D01*
X34217D01*
X34395Y124948D01*
X34555Y125040D01*
X34685Y125170D01*
X34777Y125330D01*
X34825Y125508D01*
Y125692D01*
X34777Y125870D01*
X34685Y126030D01*
X34555Y126160D01*
X34395Y126252D01*
X34364Y126261D01*
X34353Y126277D01*
X34332Y126401D01*
X34426Y126496D01*
X34519Y126655D01*
X34566Y126833D01*
Y127018D01*
X34519Y127196D01*
X34426Y127355D01*
X34296Y127486D01*
X34136Y127578D01*
X33958Y127625D01*
D02*
G37*
G36*
X11840Y126150D02*
X11610D01*
X11387Y126090D01*
X11188Y125975D01*
X11025Y125812D01*
X10910Y125613D01*
X10850Y125390D01*
Y125160D01*
X10910Y124937D01*
X11025Y124738D01*
X11188Y124575D01*
X11387Y124460D01*
X11610Y124400D01*
X11840D01*
X12063Y124460D01*
X12262Y124575D01*
X12425Y124738D01*
X12540Y124937D01*
X12600Y125160D01*
Y125390D01*
X12540Y125613D01*
X12425Y125812D01*
X12262Y125975D01*
X12063Y126090D01*
X11840Y126150D01*
D02*
G37*
G36*
X51692Y125400D02*
X51508D01*
X51330Y125352D01*
X51170Y125260D01*
X51040Y125130D01*
X50948Y124970D01*
X50900Y124792D01*
Y124608D01*
X50948Y124430D01*
X51040Y124270D01*
X51170Y124140D01*
X51330Y124048D01*
X51508Y124000D01*
X51692D01*
X51870Y124048D01*
X52030Y124140D01*
X52160Y124270D01*
X52252Y124430D01*
X52300Y124608D01*
Y124792D01*
X52252Y124970D01*
X52160Y125130D01*
X52030Y125260D01*
X51870Y125352D01*
X51692Y125400D01*
D02*
G37*
G36*
X8542Y124975D02*
X8358D01*
X8180Y124927D01*
X8020Y124835D01*
X7890Y124705D01*
X7798Y124545D01*
X7750Y124367D01*
Y124183D01*
X7798Y124005D01*
X7890Y123845D01*
X8020Y123715D01*
X8180Y123623D01*
X8358Y123575D01*
X8542D01*
X8720Y123623D01*
X8880Y123715D01*
X9010Y123845D01*
X9102Y124005D01*
X9150Y124183D01*
Y124367D01*
X9102Y124545D01*
X9010Y124705D01*
X8880Y124835D01*
X8720Y124927D01*
X8542Y124975D01*
D02*
G37*
G36*
X15042Y125975D02*
X14858D01*
X14680Y125927D01*
X14520Y125835D01*
X14390Y125705D01*
X14298Y125545D01*
X14250Y125367D01*
Y125183D01*
X14298Y125005D01*
X14390Y124845D01*
X14520Y124715D01*
X14639Y124646D01*
X14651Y124527D01*
X14644Y124503D01*
X14570Y124460D01*
X14440Y124330D01*
X14348Y124170D01*
X14300Y123992D01*
Y123808D01*
X14348Y123630D01*
X14440Y123470D01*
X14570Y123340D01*
X14730Y123248D01*
X14908Y123200D01*
X15092D01*
X15270Y123248D01*
X15430Y123340D01*
X15560Y123470D01*
X15652Y123630D01*
X15700Y123808D01*
Y123992D01*
X15652Y124170D01*
X15560Y124330D01*
X15430Y124460D01*
X15311Y124529D01*
X15299Y124648D01*
X15306Y124672D01*
X15380Y124715D01*
X15510Y124845D01*
X15602Y125005D01*
X15650Y125183D01*
Y125367D01*
X15602Y125545D01*
X15510Y125705D01*
X15380Y125835D01*
X15220Y125927D01*
X15042Y125975D01*
D02*
G37*
G36*
X2417Y124550D02*
X2233D01*
X2055Y124502D01*
X1895Y124410D01*
X1765Y124280D01*
X1673Y124120D01*
X1625Y123942D01*
Y123758D01*
X1673Y123580D01*
X1765Y123420D01*
X1895Y123290D01*
X2055Y123198D01*
X2233Y123150D01*
X2417D01*
X2595Y123198D01*
X2755Y123290D01*
X2885Y123420D01*
X2977Y123580D01*
X3025Y123758D01*
Y123942D01*
X2977Y124120D01*
X2885Y124280D01*
X2755Y124410D01*
X2595Y124502D01*
X2417Y124550D01*
D02*
G37*
G36*
X37267Y124000D02*
X37083D01*
X36905Y123952D01*
X36745Y123860D01*
X36615Y123730D01*
X36523Y123570D01*
X36475Y123392D01*
Y123208D01*
X36502Y123109D01*
X36393Y123025D01*
X36345Y123052D01*
X36167Y123100D01*
X35983D01*
X35805Y123052D01*
X35645Y122960D01*
X35515Y122830D01*
X35423Y122670D01*
X35375Y122492D01*
Y122308D01*
X35423Y122130D01*
X35515Y121970D01*
X35645Y121840D01*
X35805Y121748D01*
X35983Y121700D01*
X36167D01*
X36345Y121748D01*
X36505Y121840D01*
X36585Y121920D01*
X36736Y121939D01*
X36759Y121932D01*
X36905Y121848D01*
X37083Y121800D01*
X37267D01*
X37445Y121848D01*
X37605Y121940D01*
X37735Y122070D01*
X37827Y122230D01*
X37875Y122408D01*
Y122592D01*
X37827Y122770D01*
X37752Y122900D01*
X37827Y123030D01*
X37875Y123208D01*
Y123392D01*
X37827Y123570D01*
X37735Y123730D01*
X37605Y123860D01*
X37445Y123952D01*
X37267Y124000D01*
D02*
G37*
G36*
X24048Y123925D02*
X23864D01*
X23686Y123877D01*
X23526Y123785D01*
X23396Y123655D01*
X23304Y123495D01*
X23256Y123317D01*
Y123133D01*
X23304Y122955D01*
X23396Y122795D01*
X23526Y122665D01*
X23686Y122573D01*
X23864Y122525D01*
X24048D01*
X24226Y122573D01*
X24386Y122665D01*
X24516Y122795D01*
X24608Y122955D01*
X24656Y123133D01*
Y123317D01*
X24608Y123495D01*
X24516Y123655D01*
X24386Y123785D01*
X24226Y123877D01*
X24048Y123925D01*
D02*
G37*
G36*
X46367Y123350D02*
X46183D01*
X46005Y123302D01*
X45845Y123210D01*
X45715Y123080D01*
X45623Y122920D01*
X45575Y122742D01*
Y122558D01*
X45623Y122380D01*
X45715Y122220D01*
X45845Y122090D01*
X46005Y121998D01*
X46183Y121950D01*
X46367D01*
X46545Y121998D01*
X46705Y122090D01*
X46835Y122220D01*
X46927Y122380D01*
X46975Y122558D01*
Y122742D01*
X46927Y122920D01*
X46835Y123080D01*
X46705Y123210D01*
X46545Y123302D01*
X46367Y123350D01*
D02*
G37*
G36*
X22217Y122125D02*
X22033D01*
X21855Y122077D01*
X21695Y121985D01*
X21565Y121855D01*
X21473Y121695D01*
X21425Y121517D01*
Y121333D01*
X21473Y121155D01*
X21565Y120995D01*
X21695Y120865D01*
X21855Y120773D01*
X22033Y120725D01*
X22217D01*
X22395Y120773D01*
X22555Y120865D01*
X22685Y120995D01*
X22777Y121155D01*
X22825Y121333D01*
Y121517D01*
X22777Y121695D01*
X22685Y121855D01*
X22555Y121985D01*
X22395Y122077D01*
X22217Y122125D01*
D02*
G37*
G36*
X7967Y121925D02*
X7783D01*
X7605Y121877D01*
X7445Y121785D01*
X7315Y121655D01*
X7223Y121495D01*
X7175Y121317D01*
Y121133D01*
X7223Y120955D01*
X7315Y120795D01*
X7445Y120665D01*
X7605Y120573D01*
X7783Y120525D01*
X7967D01*
X8145Y120573D01*
X8305Y120665D01*
X8435Y120795D01*
X8527Y120955D01*
X8575Y121133D01*
Y121317D01*
X8527Y121495D01*
X8435Y121655D01*
X8305Y121785D01*
X8145Y121877D01*
X7967Y121925D01*
D02*
G37*
G36*
X19642Y121400D02*
X19458D01*
X19280Y121352D01*
X19120Y121260D01*
X18990Y121130D01*
X18898Y120970D01*
X18850Y120792D01*
Y120608D01*
X18898Y120430D01*
X18990Y120270D01*
X19120Y120140D01*
X19280Y120048D01*
X19458Y120000D01*
X19642D01*
X19820Y120048D01*
X19980Y120140D01*
X20110Y120270D01*
X20202Y120430D01*
X20250Y120608D01*
Y120792D01*
X20202Y120970D01*
X20110Y121130D01*
X19980Y121260D01*
X19820Y121352D01*
X19642Y121400D01*
D02*
G37*
G36*
X25417Y119900D02*
X25233D01*
X25055Y119852D01*
X24895Y119760D01*
X24765Y119630D01*
X24673Y119470D01*
X24625Y119292D01*
Y119108D01*
X24673Y118930D01*
X24765Y118770D01*
X24895Y118640D01*
X25055Y118548D01*
X25233Y118500D01*
X25417D01*
X25595Y118548D01*
X25755Y118640D01*
X25885Y118770D01*
X25977Y118930D01*
X26025Y119108D01*
Y119292D01*
X25977Y119470D01*
X25885Y119630D01*
X25755Y119760D01*
X25595Y119852D01*
X25417Y119900D01*
D02*
G37*
G36*
X22192Y119498D02*
X22008D01*
X21830Y119450D01*
X21670Y119358D01*
X21540Y119228D01*
X21448Y119068D01*
X21400Y118890D01*
Y118706D01*
X21448Y118528D01*
X21540Y118368D01*
X21670Y118238D01*
X21830Y118146D01*
X22008Y118098D01*
X22192D01*
X22370Y118146D01*
X22530Y118238D01*
X22660Y118368D01*
X22752Y118528D01*
X22800Y118706D01*
Y118890D01*
X22752Y119068D01*
X22660Y119228D01*
X22530Y119358D01*
X22370Y119450D01*
X22192Y119498D01*
D02*
G37*
G36*
X20499Y119468D02*
X20314D01*
X20136Y119421D01*
X19977Y119329D01*
X19846Y119198D01*
X19754Y119039D01*
X19707Y118861D01*
Y118676D01*
X19754Y118498D01*
X19846Y118339D01*
X19977Y118208D01*
X20136Y118116D01*
X20314Y118068D01*
X20499D01*
X20677Y118116D01*
X20836Y118208D01*
X20967Y118339D01*
X21059Y118498D01*
X21107Y118676D01*
Y118861D01*
X21059Y119039D01*
X20967Y119198D01*
X20836Y119329D01*
X20677Y119421D01*
X20499Y119468D01*
D02*
G37*
G36*
X24537Y118063D02*
X24353D01*
X24175Y118015D01*
X24015Y117923D01*
X23969Y117876D01*
X23855Y117810D01*
X23695Y117902D01*
X23517Y117950D01*
X23333D01*
X23155Y117902D01*
X22995Y117810D01*
X22865Y117680D01*
X22773Y117520D01*
X22725Y117342D01*
Y117158D01*
X22773Y116980D01*
X22865Y116820D01*
X22995Y116690D01*
X23155Y116598D01*
X23333Y116550D01*
X23422D01*
X23448Y116455D01*
X23540Y116295D01*
X23670Y116165D01*
X23830Y116073D01*
X24008Y116025D01*
X24137D01*
X24195Y115954D01*
X24215Y115918D01*
X24218Y115903D01*
X24175Y115742D01*
Y115558D01*
X24223Y115380D01*
X24315Y115220D01*
X24445Y115090D01*
X24605Y114998D01*
X24783Y114950D01*
X24967D01*
X25145Y114998D01*
X25305Y115090D01*
X25435Y115220D01*
X25527Y115380D01*
X25575Y115558D01*
Y115577D01*
X25745Y115623D01*
X25905Y115715D01*
X26035Y115845D01*
X26127Y116005D01*
X26175Y116183D01*
Y116367D01*
X26127Y116545D01*
X26035Y116705D01*
X25905Y116835D01*
X25745Y116927D01*
X25567Y116975D01*
X25383D01*
X25205Y116927D01*
X25121Y116879D01*
X25028Y116972D01*
X25097Y117092D01*
X25145Y117270D01*
Y117455D01*
X25097Y117633D01*
X25005Y117792D01*
X24875Y117923D01*
X24715Y118015D01*
X24537Y118063D01*
D02*
G37*
G36*
X44192Y119100D02*
X44008D01*
X43830Y119052D01*
X43670Y118960D01*
X43540Y118830D01*
X43448Y118670D01*
X43400Y118492D01*
Y118308D01*
X43448Y118130D01*
X43540Y117970D01*
X43670Y117840D01*
X43830Y117748D01*
X44008Y117700D01*
X44192D01*
X44370Y117748D01*
X44530Y117840D01*
X44660Y117970D01*
X44752Y118130D01*
X44800Y118308D01*
Y118492D01*
X44752Y118670D01*
X44660Y118830D01*
X44530Y118960D01*
X44370Y119052D01*
X44192Y119100D01*
D02*
G37*
G36*
X30892Y117325D02*
X30708D01*
X30530Y117277D01*
X30370Y117185D01*
X30312Y117127D01*
X30255Y117185D01*
X30095Y117277D01*
X29917Y117325D01*
X29733D01*
X29555Y117277D01*
X29395Y117185D01*
X29388Y117177D01*
X29380Y117185D01*
X29220Y117277D01*
X29042Y117325D01*
X28858D01*
X28680Y117277D01*
X28520Y117185D01*
X28462Y117127D01*
X28405Y117185D01*
X28245Y117277D01*
X28067Y117325D01*
X27883D01*
X27705Y117277D01*
X27545Y117185D01*
X27415Y117055D01*
X27323Y116895D01*
X27275Y116717D01*
Y116533D01*
X27323Y116355D01*
X27415Y116195D01*
X27545Y116065D01*
X27705Y115973D01*
X27883Y115925D01*
X28067D01*
X28245Y115973D01*
X28405Y116065D01*
X28462Y116123D01*
X28520Y116065D01*
X28680Y115973D01*
X28858Y115925D01*
X29042D01*
X29220Y115973D01*
X29380Y116065D01*
X29388Y116073D01*
X29395Y116065D01*
X29555Y115973D01*
X29733Y115925D01*
X29917D01*
X30095Y115973D01*
X30255Y116065D01*
X30312Y116123D01*
X30370Y116065D01*
X30530Y115973D01*
X30708Y115925D01*
X30892D01*
X31070Y115973D01*
X31230Y116065D01*
X31360Y116195D01*
X31452Y116355D01*
X31500Y116533D01*
Y116717D01*
X31452Y116895D01*
X31360Y117055D01*
X31230Y117185D01*
X31070Y117277D01*
X30892Y117325D01*
D02*
G37*
G36*
X52030Y118238D02*
X51845D01*
X51667Y118190D01*
X51508Y118098D01*
X51377Y117967D01*
X51285Y117808D01*
X51237Y117630D01*
Y117445D01*
X51285Y117267D01*
X51377Y117108D01*
X51508Y116977D01*
X51667Y116885D01*
X51845Y116838D01*
X52030D01*
X52208Y116885D01*
X52367Y116977D01*
X52498Y117108D01*
X52590Y117267D01*
X52638Y117445D01*
Y117630D01*
X52590Y117808D01*
X52498Y117967D01*
X52367Y118098D01*
X52208Y118190D01*
X52030Y118238D01*
D02*
G37*
G36*
X48092Y118200D02*
X47908D01*
X47730Y118152D01*
X47570Y118060D01*
X47440Y117930D01*
X47348Y117770D01*
X47300Y117592D01*
Y117408D01*
X47348Y117230D01*
X47440Y117070D01*
X47570Y116940D01*
X47730Y116848D01*
X47908Y116800D01*
X48092D01*
X48270Y116848D01*
X48430Y116940D01*
X48560Y117070D01*
X48652Y117230D01*
X48700Y117408D01*
Y117592D01*
X48652Y117770D01*
X48560Y117930D01*
X48430Y118060D01*
X48270Y118152D01*
X48092Y118200D01*
D02*
G37*
G36*
X16991Y122730D02*
X16609D01*
X16240Y122631D01*
X15910Y122440D01*
X15640Y122170D01*
X15449Y121840D01*
X15350Y121471D01*
Y121089D01*
X15449Y120720D01*
X15640Y120390D01*
X15910Y120120D01*
X15990Y120074D01*
Y119947D01*
X15910Y119900D01*
X15640Y119630D01*
X15449Y119300D01*
X15350Y118931D01*
Y118549D01*
X15449Y118180D01*
X15640Y117850D01*
X15910Y117580D01*
X16173Y117428D01*
Y117281D01*
X16032Y117200D01*
X15800Y116968D01*
X15674Y116750D01*
X16800D01*
X17926D01*
X17800Y116968D01*
X17568Y117200D01*
X17427Y117281D01*
Y117428D01*
X17690Y117580D01*
X17960Y117850D01*
X18151Y118180D01*
X18250Y118549D01*
Y118931D01*
X18151Y119300D01*
X17960Y119630D01*
X17690Y119900D01*
X17610Y119947D01*
Y120074D01*
X17690Y120120D01*
X17960Y120390D01*
X18151Y120720D01*
X18250Y121089D01*
Y121471D01*
X18151Y121840D01*
X17960Y122170D01*
X17690Y122440D01*
X17360Y122631D01*
X16991Y122730D01*
D02*
G37*
G36*
X19642Y118100D02*
X19458D01*
X19280Y118052D01*
X19120Y117960D01*
X18990Y117830D01*
X18898Y117670D01*
X18850Y117492D01*
Y117308D01*
X18898Y117130D01*
X18990Y116970D01*
X19120Y116840D01*
X19280Y116748D01*
X19458Y116700D01*
X19642D01*
X19820Y116748D01*
X19980Y116840D01*
X20110Y116970D01*
X20202Y117130D01*
X20250Y117308D01*
Y117492D01*
X20202Y117670D01*
X20110Y117830D01*
X19980Y117960D01*
X19820Y118052D01*
X19642Y118100D01*
D02*
G37*
G36*
X34292Y118700D02*
X34108D01*
X33930Y118652D01*
X33770Y118560D01*
X33640Y118430D01*
X33548Y118270D01*
X33500Y118092D01*
Y117908D01*
X33502Y117901D01*
X33425Y117800D01*
X33383D01*
X33205Y117752D01*
X33045Y117660D01*
X32915Y117530D01*
X32823Y117370D01*
X32775Y117192D01*
Y117008D01*
X32823Y116830D01*
X32915Y116670D01*
X33045Y116540D01*
X33205Y116448D01*
X33383Y116400D01*
X33567D01*
X33745Y116448D01*
X33905Y116540D01*
X34035Y116670D01*
X34127Y116830D01*
X34175Y117008D01*
Y117192D01*
X34173Y117199D01*
X34250Y117300D01*
X34292D01*
X34470Y117348D01*
X34630Y117440D01*
X34638Y117448D01*
X34695Y117390D01*
X34855Y117298D01*
X35033Y117250D01*
X35217D01*
X35395Y117298D01*
X35506Y117362D01*
X35523Y117355D01*
X35615Y117195D01*
X35745Y117065D01*
X35905Y116973D01*
X36083Y116925D01*
X36267D01*
X36445Y116973D01*
X36509Y117010D01*
X36590Y116870D01*
X36720Y116740D01*
X36880Y116648D01*
X37058Y116600D01*
X37242D01*
X37420Y116648D01*
X37580Y116740D01*
X37710Y116870D01*
X37802Y117030D01*
X37850Y117208D01*
Y117392D01*
X37802Y117570D01*
X37710Y117730D01*
X37580Y117860D01*
X37420Y117952D01*
X37242Y118000D01*
X37058D01*
X36880Y117952D01*
X36816Y117915D01*
X36735Y118055D01*
X36605Y118185D01*
X36445Y118277D01*
X36267Y118325D01*
X36083D01*
X35905Y118277D01*
X35794Y118213D01*
X35777Y118220D01*
X35685Y118380D01*
X35555Y118510D01*
X35395Y118602D01*
X35217Y118650D01*
X35033D01*
X34855Y118602D01*
X34695Y118510D01*
X34688Y118502D01*
X34630Y118560D01*
X34470Y118652D01*
X34292Y118700D01*
D02*
G37*
G36*
X56775Y116890D02*
X56075D01*
Y116190D01*
X56775D01*
Y116890D01*
D02*
G37*
G36*
X54975D02*
X54275D01*
Y116190D01*
X54975D01*
Y116890D01*
D02*
G37*
G36*
X49267Y114600D02*
X49083D01*
X48905Y114552D01*
X48745Y114460D01*
X48615Y114330D01*
X48523Y114170D01*
X48475Y113992D01*
Y113808D01*
X48523Y113630D01*
X48615Y113470D01*
X48745Y113340D01*
X48905Y113248D01*
X49083Y113200D01*
X49267D01*
X49445Y113248D01*
X49605Y113340D01*
X49735Y113470D01*
X49827Y113630D01*
X49875Y113808D01*
Y113992D01*
X49827Y114170D01*
X49735Y114330D01*
X49605Y114460D01*
X49445Y114552D01*
X49267Y114600D01*
D02*
G37*
G36*
X2592Y116878D02*
X2408D01*
X2230Y116830D01*
X2070Y116738D01*
X1940Y116608D01*
X1848Y116448D01*
X1800Y116270D01*
Y116198D01*
X1769Y116083D01*
X1680Y116075D01*
X1583D01*
X1405Y116027D01*
X1245Y115935D01*
X1115Y115805D01*
X1023Y115645D01*
X975Y115467D01*
Y115283D01*
X1023Y115105D01*
X1115Y114945D01*
X1245Y114815D01*
X1405Y114723D01*
X1524Y114691D01*
Y114559D01*
X1405Y114527D01*
X1245Y114435D01*
X1115Y114305D01*
X1023Y114145D01*
X975Y113967D01*
Y113783D01*
X1023Y113605D01*
X1115Y113445D01*
X1245Y113315D01*
X1405Y113223D01*
X1583Y113175D01*
X1767D01*
X1945Y113223D01*
X2105Y113315D01*
X2235Y113445D01*
X2327Y113605D01*
X2375Y113783D01*
Y113967D01*
X2327Y114145D01*
X2235Y114305D01*
X2105Y114435D01*
X1945Y114527D01*
X1826Y114559D01*
Y114691D01*
X1945Y114723D01*
X2105Y114815D01*
X2235Y114945D01*
X2327Y115105D01*
X2375Y115283D01*
Y115355D01*
X2406Y115470D01*
X2495Y115478D01*
X2592D01*
X2770Y115526D01*
X2930Y115618D01*
X3060Y115748D01*
X3152Y115908D01*
X3200Y116086D01*
Y116270D01*
X3152Y116448D01*
X3060Y116608D01*
X2930Y116738D01*
X2770Y116830D01*
X2592Y116878D01*
D02*
G37*
G36*
X10367Y112625D02*
X10183D01*
X10005Y112577D01*
X9845Y112485D01*
X9715Y112355D01*
X9623Y112195D01*
X9575Y112017D01*
Y111833D01*
X9623Y111655D01*
X9715Y111495D01*
X9845Y111365D01*
X10005Y111273D01*
X10183Y111225D01*
X10367D01*
X10545Y111273D01*
X10705Y111365D01*
X10835Y111495D01*
X10927Y111655D01*
X10975Y111833D01*
Y112017D01*
X10927Y112195D01*
X10835Y112355D01*
X10705Y112485D01*
X10545Y112577D01*
X10367Y112625D01*
D02*
G37*
G36*
X11840Y109335D02*
X11822Y109321D01*
X11770Y109335D01*
X11490D01*
X11221Y109263D01*
X10979Y109123D01*
X10782Y108926D01*
X10642Y108684D01*
X10570Y108415D01*
Y108135D01*
X10642Y107866D01*
X10782Y107624D01*
X10979Y107427D01*
X11221Y107287D01*
X11490Y107215D01*
X11770D01*
X11822Y107229D01*
X11840Y107215D01*
Y107215D01*
X13960D01*
Y109335D01*
X11840D01*
Y109335D01*
D02*
G37*
G36*
X2592Y110602D02*
X2408D01*
X2230Y110554D01*
X2070Y110462D01*
X1940Y110332D01*
X1848Y110172D01*
X1800Y109994D01*
Y109810D01*
X1848Y109632D01*
X1940Y109472D01*
X2070Y109342D01*
X2230Y109250D01*
X2408Y109202D01*
X2592D01*
X2770Y109250D01*
X2930Y109342D01*
X3060Y109472D01*
X3152Y109632D01*
X3200Y109810D01*
Y109994D01*
X3152Y110172D01*
X3060Y110332D01*
X2930Y110462D01*
X2770Y110554D01*
X2592Y110602D01*
D02*
G37*
G36*
X17926Y115650D02*
X16800D01*
X15674D01*
X15800Y115432D01*
X16032Y115200D01*
X16173Y115119D01*
Y114972D01*
X15910Y114820D01*
X15640Y114550D01*
X15449Y114220D01*
X15350Y113851D01*
Y113469D01*
X15449Y113100D01*
X15640Y112770D01*
X15722Y112687D01*
X15673Y112570D01*
X15350D01*
Y109670D01*
X16097D01*
X16150Y109543D01*
X16040Y109433D01*
X15915Y109217D01*
X15850Y108975D01*
Y108725D01*
X15915Y108483D01*
X16040Y108267D01*
X16217Y108090D01*
X16433Y107965D01*
X16675Y107900D01*
X16925D01*
X17167Y107965D01*
X17383Y108090D01*
X17560Y108267D01*
X17685Y108483D01*
X17750Y108725D01*
Y108975D01*
X17685Y109217D01*
X17560Y109433D01*
X17450Y109543D01*
X17503Y109670D01*
X18250D01*
Y112570D01*
X17927D01*
X17878Y112687D01*
X17960Y112770D01*
X18151Y113100D01*
X18250Y113469D01*
Y113851D01*
X18151Y114220D01*
X17960Y114550D01*
X17690Y114820D01*
X17427Y114972D01*
Y115119D01*
X17568Y115200D01*
X17800Y115432D01*
X17926Y115650D01*
D02*
G37*
G36*
X19392Y108475D02*
X19208D01*
X19030Y108427D01*
X18870Y108335D01*
X18740Y108205D01*
X18648Y108045D01*
X18600Y107867D01*
Y107683D01*
X18648Y107505D01*
X18740Y107345D01*
X18870Y107215D01*
X19030Y107123D01*
X19208Y107075D01*
X19392D01*
X19570Y107123D01*
X19730Y107215D01*
X19860Y107345D01*
X19952Y107505D01*
X20000Y107683D01*
Y107867D01*
X19952Y108045D01*
X19860Y108205D01*
X19730Y108335D01*
X19570Y108427D01*
X19392Y108475D01*
D02*
G37*
G36*
X62170Y105626D02*
Y105050D01*
X62746D01*
X62620Y105268D01*
X62388Y105500D01*
X62170Y105626D01*
D02*
G37*
G36*
X21925Y106900D02*
X21675D01*
X21433Y106835D01*
X21217Y106710D01*
X21040Y106533D01*
X20915Y106317D01*
X20850Y106075D01*
Y105825D01*
X20915Y105583D01*
X21040Y105367D01*
X21217Y105190D01*
X21433Y105065D01*
X21675Y105000D01*
X21925D01*
X22167Y105065D01*
X22383Y105190D01*
X22560Y105367D01*
X22685Y105583D01*
X22750Y105825D01*
Y106075D01*
X22685Y106317D01*
X22560Y106533D01*
X22383Y106710D01*
X22167Y106835D01*
X21925Y106900D01*
D02*
G37*
G36*
X13750Y104550D02*
X13500D01*
X13258Y104485D01*
X13042Y104360D01*
X12865Y104183D01*
X12851Y104159D01*
X12724D01*
X12710Y104183D01*
X12533Y104360D01*
X12317Y104485D01*
X12075Y104550D01*
X11825D01*
X11583Y104485D01*
X11367Y104360D01*
X11190Y104183D01*
X11065Y103967D01*
X11000Y103725D01*
Y103475D01*
X11065Y103233D01*
X11190Y103017D01*
X11285Y102921D01*
X11364Y102837D01*
X11285Y102754D01*
X11190Y102658D01*
X11065Y102442D01*
X11000Y102200D01*
Y101950D01*
X11065Y101708D01*
X11190Y101492D01*
X11367Y101315D01*
X11583Y101190D01*
X11825Y101125D01*
X12075D01*
X12317Y101190D01*
X12533Y101315D01*
X12710Y101492D01*
X12724Y101516D01*
X12851D01*
X12865Y101492D01*
X13042Y101315D01*
X13258Y101190D01*
X13500Y101125D01*
X13750D01*
X13992Y101190D01*
X14208Y101315D01*
X14385Y101492D01*
X14510Y101708D01*
X14575Y101950D01*
Y102200D01*
X14510Y102442D01*
X14385Y102658D01*
X14290Y102754D01*
X14211Y102838D01*
X14290Y102921D01*
X14385Y103017D01*
X14510Y103233D01*
X14575Y103475D01*
Y103725D01*
X14510Y103967D01*
X14385Y104183D01*
X14208Y104360D01*
X13992Y104485D01*
X13750Y104550D01*
D02*
G37*
G36*
X6367Y105450D02*
X6183D01*
X6005Y105402D01*
X5845Y105310D01*
X5715Y105180D01*
X5623Y105020D01*
X5575Y104842D01*
Y104658D01*
X5623Y104480D01*
X5715Y104320D01*
X5845Y104190D01*
X6005Y104098D01*
X6183Y104050D01*
X6367D01*
X6545Y104098D01*
X6705Y104190D01*
X6835Y104320D01*
X6927Y104480D01*
X6975Y104658D01*
Y104842D01*
X6927Y105020D01*
X6835Y105180D01*
X6705Y105310D01*
X6545Y105402D01*
X6367Y105450D01*
D02*
G37*
G36*
X2592Y104326D02*
X2408D01*
X2230Y104278D01*
X2070Y104186D01*
X1940Y104056D01*
X1848Y103896D01*
X1800Y103718D01*
Y103534D01*
X1848Y103356D01*
X1940Y103196D01*
X2070Y103066D01*
X2230Y102974D01*
X2408Y102926D01*
X2592D01*
X2770Y102974D01*
X2930Y103066D01*
X3060Y103196D01*
X3152Y103356D01*
X3200Y103534D01*
Y103718D01*
X3152Y103896D01*
X3060Y104056D01*
X2930Y104186D01*
X2770Y104278D01*
X2592Y104326D01*
D02*
G37*
G36*
X51450Y104200D02*
X51200D01*
X50958Y104135D01*
X50742Y104010D01*
X50565Y103833D01*
X50440Y103617D01*
X50375Y103375D01*
Y103125D01*
X50440Y102883D01*
X50565Y102667D01*
X50742Y102490D01*
X50958Y102365D01*
X51200Y102300D01*
X51450D01*
X51692Y102365D01*
X51908Y102490D01*
X52085Y102667D01*
X52210Y102883D01*
X52275Y103125D01*
Y103375D01*
X52210Y103617D01*
X52085Y103833D01*
X51908Y104010D01*
X51692Y104135D01*
X51450Y104200D01*
D02*
G37*
G36*
X9775Y103787D02*
X9525D01*
X9283Y103723D01*
X9067Y103598D01*
X8890Y103421D01*
X8765Y103204D01*
X8700Y102963D01*
Y102712D01*
X8765Y102471D01*
X8890Y102254D01*
X9067Y102077D01*
X9283Y101952D01*
X9525Y101887D01*
X9775D01*
X10017Y101952D01*
X10233Y102077D01*
X10410Y102254D01*
X10535Y102471D01*
X10600Y102712D01*
Y102963D01*
X10535Y103204D01*
X10410Y103421D01*
X10233Y103598D01*
X10017Y103723D01*
X9775Y103787D01*
D02*
G37*
G36*
X80122Y101021D02*
X79878D01*
X79643Y100958D01*
X79500Y100875D01*
X79357Y100958D01*
X79122Y101021D01*
X78878D01*
X78643Y100958D01*
X78432Y100836D01*
X78335Y100740D01*
X78300Y100760D01*
Y100704D01*
X78260Y100664D01*
X78138Y100453D01*
X78075Y100218D01*
Y100096D01*
Y99974D01*
X78138Y99739D01*
X78260Y99528D01*
X78300Y99488D01*
Y99432D01*
X78335Y99452D01*
X78432Y99356D01*
X78643Y99234D01*
X78878Y99171D01*
X79122D01*
X79357Y99234D01*
X79500Y99317D01*
X79643Y99234D01*
X79878Y99171D01*
X80122D01*
X80357Y99234D01*
X80568Y99356D01*
X80665Y99452D01*
X80700Y99432D01*
Y99488D01*
X80740Y99528D01*
X80862Y99739D01*
X80925Y99974D01*
Y100096D01*
Y100218D01*
X80862Y100453D01*
X80740Y100664D01*
X80700Y100704D01*
Y100760D01*
X80665Y100740D01*
X80568Y100836D01*
X80357Y100958D01*
X80122Y101021D01*
D02*
G37*
G36*
X86122D02*
X85878D01*
X85643Y100958D01*
X85500Y100875D01*
X85357Y100958D01*
X85122Y101021D01*
X84878D01*
X84643Y100958D01*
X84500Y100875D01*
X84357Y100958D01*
X84122Y101021D01*
X83878D01*
X83643Y100958D01*
X83500Y100875D01*
X83357Y100958D01*
X83122Y101021D01*
X82878D01*
X82643Y100958D01*
X82500Y100875D01*
X82357Y100958D01*
X82122Y101021D01*
X81878D01*
X81643Y100958D01*
X81432Y100836D01*
X81335Y100740D01*
X81300Y100760D01*
Y100704D01*
X81260Y100664D01*
X81138Y100453D01*
X81075Y100218D01*
Y100096D01*
Y99974D01*
X81138Y99739D01*
X81260Y99528D01*
X81300Y99488D01*
Y99432D01*
X81335Y99452D01*
X81432Y99356D01*
X81643Y99234D01*
X81878Y99171D01*
X82122D01*
X82357Y99234D01*
X82500Y99317D01*
X82643Y99234D01*
X82878Y99171D01*
X83122D01*
X83357Y99234D01*
X83500Y99317D01*
X83643Y99234D01*
X83878Y99171D01*
X84122D01*
X84357Y99234D01*
X84500Y99317D01*
X84643Y99234D01*
X84878Y99171D01*
X85122D01*
X85357Y99234D01*
X85500Y99317D01*
X85643Y99234D01*
X85878Y99171D01*
X86122D01*
X86357Y99234D01*
X86568Y99356D01*
X86740Y99528D01*
X86862Y99739D01*
X86925Y99974D01*
Y100218D01*
X86862Y100453D01*
X86740Y100664D01*
X86568Y100836D01*
X86357Y100958D01*
X86122Y101021D01*
D02*
G37*
G36*
X77122D02*
X76878D01*
X76643Y100958D01*
X76500Y100875D01*
X76357Y100958D01*
X76122Y101021D01*
X75878D01*
X75643Y100958D01*
X75432Y100836D01*
X75335Y100740D01*
X75300Y100760D01*
Y100704D01*
X75260Y100664D01*
X75138Y100453D01*
X75075Y100218D01*
Y100096D01*
Y99974D01*
X75138Y99739D01*
X75260Y99528D01*
X75300Y99488D01*
Y99432D01*
X75335Y99452D01*
X75432Y99356D01*
X75643Y99234D01*
X75878Y99171D01*
X76122D01*
X76357Y99234D01*
X76500Y99317D01*
X76643Y99234D01*
X76878Y99171D01*
X77122D01*
X77357Y99234D01*
X77568Y99356D01*
X77665Y99452D01*
X77700Y99432D01*
Y99488D01*
X77740Y99528D01*
X77862Y99739D01*
X77925Y99974D01*
Y100096D01*
Y100218D01*
X77862Y100453D01*
X77740Y100664D01*
X77700Y100704D01*
Y100760D01*
X77665Y100740D01*
X77568Y100836D01*
X77357Y100958D01*
X77122Y101021D01*
D02*
G37*
G36*
X74122D02*
X73878D01*
X73643Y100958D01*
X73500Y100875D01*
X73357Y100958D01*
X73122Y101021D01*
X72878D01*
X72643Y100958D01*
X72432Y100836D01*
X72417Y100821D01*
X72300D01*
Y100704D01*
X72260Y100664D01*
X72138Y100453D01*
X72075Y100218D01*
Y100096D01*
Y99974D01*
X72138Y99739D01*
X72260Y99528D01*
X72300Y99488D01*
Y99371D01*
X72417D01*
X72432Y99356D01*
X72643Y99234D01*
X72878Y99171D01*
X73122D01*
X73357Y99234D01*
X73500Y99317D01*
X73643Y99234D01*
X73878Y99171D01*
X74122D01*
X74357Y99234D01*
X74568Y99356D01*
X74665Y99452D01*
X74700Y99432D01*
Y99488D01*
X74740Y99528D01*
X74862Y99739D01*
X74925Y99974D01*
Y100096D01*
Y100218D01*
X74862Y100453D01*
X74740Y100664D01*
X74700Y100704D01*
Y100760D01*
X74665Y100740D01*
X74568Y100836D01*
X74357Y100958D01*
X74122Y101021D01*
D02*
G37*
G36*
X71700Y100821D02*
X71275D01*
Y100396D01*
X71700D01*
Y100821D01*
D02*
G37*
G36*
Y99796D02*
X71275D01*
Y99371D01*
X71700D01*
Y99796D01*
D02*
G37*
G36*
X1442Y99675D02*
X1258D01*
X1080Y99627D01*
X920Y99535D01*
X790Y99405D01*
X698Y99245D01*
X650Y99067D01*
Y98883D01*
X698Y98705D01*
X790Y98545D01*
X920Y98415D01*
X1080Y98323D01*
X1258Y98275D01*
X1442D01*
X1620Y98323D01*
X1780Y98415D01*
X1910Y98545D01*
X2002Y98705D01*
X2050Y98883D01*
Y99067D01*
X2002Y99245D01*
X1910Y99405D01*
X1780Y99535D01*
X1620Y99627D01*
X1442Y99675D01*
D02*
G37*
G36*
X28892Y95575D02*
X28708D01*
X28530Y95527D01*
X28370Y95435D01*
X28240Y95305D01*
X28148Y95145D01*
X28100Y94967D01*
Y94783D01*
X28148Y94605D01*
X28240Y94445D01*
X28370Y94315D01*
X28530Y94223D01*
X28708Y94175D01*
X28892D01*
X29070Y94223D01*
X29230Y94315D01*
X29360Y94445D01*
X29452Y94605D01*
X29500Y94783D01*
Y94967D01*
X29452Y95145D01*
X29360Y95305D01*
X29230Y95435D01*
X29070Y95527D01*
X28892Y95575D01*
D02*
G37*
G36*
X1442Y93700D02*
X1258D01*
X1080Y93652D01*
X920Y93560D01*
X790Y93430D01*
X698Y93270D01*
X650Y93092D01*
Y92908D01*
X698Y92730D01*
X790Y92570D01*
X920Y92440D01*
X1080Y92348D01*
X1258Y92300D01*
X1442D01*
X1620Y92348D01*
X1780Y92440D01*
X1910Y92570D01*
X2002Y92730D01*
X2050Y92908D01*
Y93092D01*
X2002Y93270D01*
X1910Y93430D01*
X1780Y93560D01*
X1620Y93652D01*
X1442Y93700D01*
D02*
G37*
G36*
X16596Y94657D02*
X16264D01*
X15943Y94571D01*
X15655Y94405D01*
X15420Y94170D01*
X15254Y93882D01*
X15168Y93561D01*
Y93229D01*
X15254Y92908D01*
X15420Y92620D01*
X15655Y92385D01*
X15943Y92219D01*
X16264Y92133D01*
X16596D01*
X16917Y92219D01*
X17205Y92385D01*
X17440Y92620D01*
X17606Y92908D01*
X17692Y93229D01*
Y93561D01*
X17606Y93882D01*
X17440Y94170D01*
X17205Y94405D01*
X16917Y94571D01*
X16596Y94657D01*
D02*
G37*
G36*
X12660Y98000D02*
X10540D01*
Y95880D01*
X10540D01*
X10554Y95862D01*
X10540Y95810D01*
Y95530D01*
X10612Y95261D01*
X10752Y95019D01*
X10949Y94822D01*
X11063Y94756D01*
X11045Y94620D01*
X10863Y94571D01*
X10575Y94405D01*
X10340Y94170D01*
X10174Y93882D01*
X10088Y93561D01*
Y93229D01*
X10174Y92908D01*
X10340Y92620D01*
X10575Y92385D01*
X10863Y92219D01*
X11184Y92133D01*
X11516D01*
X11837Y92219D01*
X12125Y92385D01*
X12360Y92620D01*
X12526Y92908D01*
X12612Y93229D01*
Y93561D01*
X12526Y93882D01*
X12360Y94170D01*
X12125Y94405D01*
X11916Y94526D01*
X11934Y94662D01*
X12009Y94682D01*
X12251Y94822D01*
X12448Y95019D01*
X12588Y95261D01*
X12660Y95530D01*
Y95810D01*
X12646Y95862D01*
X12660Y95880D01*
X12660D01*
Y98000D01*
D02*
G37*
G36*
X6436Y94657D02*
X6104D01*
X5783Y94571D01*
X5495Y94405D01*
X5260Y94170D01*
X5094Y93882D01*
X5008Y93561D01*
Y93229D01*
X5094Y92908D01*
X5260Y92620D01*
X5495Y92385D01*
X5783Y92219D01*
X6104Y92133D01*
X6436D01*
X6757Y92219D01*
X7045Y92385D01*
X7280Y92620D01*
X7446Y92908D01*
X7532Y93229D01*
Y93561D01*
X7446Y93882D01*
X7280Y94170D01*
X7045Y94405D01*
X6757Y94571D01*
X6436Y94657D01*
D02*
G37*
G36*
X17992Y92375D02*
X17808D01*
X17630Y92327D01*
X17470Y92235D01*
X17340Y92105D01*
X17248Y91945D01*
X17200Y91767D01*
Y91583D01*
X17248Y91405D01*
X17340Y91245D01*
X17470Y91115D01*
X17630Y91023D01*
X17808Y90975D01*
X17992D01*
X18170Y91023D01*
X18330Y91115D01*
X18460Y91245D01*
X18552Y91405D01*
X18600Y91583D01*
Y91767D01*
X18552Y91945D01*
X18460Y92105D01*
X18330Y92235D01*
X18170Y92327D01*
X17992Y92375D01*
D02*
G37*
G36*
X13317Y91975D02*
X13133D01*
X12955Y91927D01*
X12795Y91835D01*
X12665Y91705D01*
X12573Y91545D01*
X12525Y91367D01*
Y91183D01*
X12573Y91005D01*
X12650Y90871D01*
X12607Y90792D01*
X12573Y90760D01*
X12425Y90800D01*
X12175D01*
X11933Y90735D01*
X11717Y90610D01*
X11540Y90433D01*
X11415Y90217D01*
X11350Y89975D01*
Y89725D01*
X11415Y89483D01*
X11540Y89267D01*
X11717Y89090D01*
X11933Y88965D01*
X12175Y88900D01*
X12425D01*
X12603Y88948D01*
X12669Y88834D01*
X12665Y88830D01*
X12573Y88670D01*
X12525Y88492D01*
Y88308D01*
X12573Y88130D01*
X12665Y87970D01*
X12795Y87840D01*
X12955Y87748D01*
X13133Y87700D01*
X13317D01*
X13495Y87748D01*
X13655Y87840D01*
X13785Y87970D01*
X13877Y88130D01*
X13925Y88308D01*
Y88492D01*
X13877Y88670D01*
X13785Y88830D01*
X13655Y88960D01*
X13495Y89052D01*
X13317Y89100D01*
X13133D01*
X13051Y89078D01*
X12985Y89192D01*
X13060Y89267D01*
X13185Y89483D01*
X13250Y89725D01*
Y89975D01*
X13185Y90217D01*
X13060Y90433D01*
X13020Y90474D01*
X13085Y90588D01*
X13133Y90575D01*
X13317D01*
X13495Y90623D01*
X13655Y90715D01*
X13785Y90845D01*
X13877Y91005D01*
X13925Y91183D01*
Y91367D01*
X13877Y91545D01*
X13785Y91705D01*
X13655Y91835D01*
X13495Y91927D01*
X13317Y91975D01*
D02*
G37*
G36*
X24470Y91925D02*
X24180D01*
X23900Y91850D01*
X23650Y91705D01*
X23445Y91500D01*
X23300Y91250D01*
X23225Y90970D01*
Y90680D01*
X23300Y90400D01*
X23445Y90150D01*
X23542Y90052D01*
X23490Y89925D01*
X23225D01*
Y87725D01*
X25425D01*
Y89925D01*
X25160D01*
X25108Y90052D01*
X25205Y90150D01*
X25350Y90400D01*
X25425Y90680D01*
Y90970D01*
X25350Y91250D01*
X25205Y91500D01*
X25000Y91705D01*
X24750Y91850D01*
X24470Y91925D01*
D02*
G37*
G36*
X39200Y88075D02*
X38950D01*
X38708Y88010D01*
X38492Y87885D01*
X38315Y87708D01*
X38261Y87615D01*
X38114D01*
X38060Y87708D01*
X37883Y87885D01*
X37667Y88010D01*
X37425Y88075D01*
X37175D01*
X36933Y88010D01*
X36717Y87885D01*
X36540Y87708D01*
X36415Y87492D01*
X36350Y87250D01*
Y87000D01*
X36415Y86758D01*
X36540Y86542D01*
X36717Y86365D01*
X36933Y86240D01*
X37175Y86175D01*
X37425D01*
X37667Y86240D01*
X37883Y86365D01*
X38060Y86542D01*
X38114Y86635D01*
X38261D01*
X38315Y86542D01*
X38492Y86365D01*
X38708Y86240D01*
X38950Y86175D01*
X39200D01*
X39442Y86240D01*
X39658Y86365D01*
X39835Y86542D01*
X39960Y86758D01*
X40025Y87000D01*
Y87250D01*
X39960Y87492D01*
X39835Y87708D01*
X39658Y87885D01*
X39442Y88010D01*
X39200Y88075D01*
D02*
G37*
G36*
X18017Y88150D02*
X17833D01*
X17655Y88102D01*
X17495Y88010D01*
X17365Y87880D01*
X17273Y87720D01*
X17225Y87542D01*
Y87358D01*
X17273Y87180D01*
X17365Y87020D01*
X17495Y86890D01*
X17655Y86798D01*
X17833Y86750D01*
X18017D01*
X18195Y86798D01*
X18355Y86890D01*
X18485Y87020D01*
X18577Y87180D01*
X18625Y87358D01*
Y87542D01*
X18577Y87720D01*
X18485Y87880D01*
X18355Y88010D01*
X18195Y88102D01*
X18017Y88150D01*
D02*
G37*
G36*
X15467D02*
X15283D01*
X15105Y88102D01*
X14945Y88010D01*
X14815Y87880D01*
X14723Y87720D01*
X14675Y87542D01*
Y87358D01*
X14723Y87180D01*
X14815Y87020D01*
X14945Y86890D01*
X15105Y86798D01*
X15283Y86750D01*
X15467D01*
X15645Y86798D01*
X15805Y86890D01*
X15935Y87020D01*
X16027Y87180D01*
X16075Y87358D01*
Y87542D01*
X16027Y87720D01*
X15935Y87880D01*
X15805Y88010D01*
X15645Y88102D01*
X15467Y88150D01*
D02*
G37*
G36*
X20825Y86452D02*
X20823Y86451D01*
X20627Y86338D01*
X20467Y86178D01*
X20354Y85982D01*
X20353Y85980D01*
X20825D01*
Y86452D01*
D02*
G37*
G36*
X17700Y86025D02*
X17450D01*
X17208Y85960D01*
X16992Y85835D01*
X16837Y85681D01*
X16683Y85835D01*
X16467Y85960D01*
X16225Y86025D01*
X15975D01*
X15733Y85960D01*
X15517Y85835D01*
X15340Y85658D01*
X15215Y85442D01*
X15150Y85200D01*
Y84950D01*
X15215Y84708D01*
X15340Y84492D01*
X15517Y84315D01*
X15733Y84190D01*
X15975Y84125D01*
X16225D01*
X16467Y84190D01*
X16683Y84315D01*
X16837Y84469D01*
X16992Y84315D01*
X17208Y84190D01*
X17450Y84125D01*
X17700D01*
X17942Y84190D01*
X18158Y84315D01*
X18335Y84492D01*
X18460Y84708D01*
X18525Y84950D01*
Y85200D01*
X18460Y85442D01*
X18335Y85658D01*
X18158Y85835D01*
X17942Y85960D01*
X17700Y86025D01*
D02*
G37*
G36*
X20825Y85320D02*
X20353D01*
X20354Y85318D01*
X20467Y85122D01*
X20627Y84962D01*
X20823Y84849D01*
X20825Y84848D01*
Y85320D01*
D02*
G37*
G36*
X2242Y85506D02*
X2058D01*
X1880Y85458D01*
X1720Y85366D01*
X1590Y85236D01*
X1498Y85076D01*
X1450Y84898D01*
Y84714D01*
X1498Y84536D01*
X1590Y84376D01*
X1720Y84246D01*
X1880Y84154D01*
X2058Y84106D01*
X2242D01*
X2420Y84154D01*
X2580Y84246D01*
X2710Y84376D01*
X2802Y84536D01*
X2850Y84714D01*
Y84898D01*
X2802Y85076D01*
X2710Y85236D01*
X2580Y85366D01*
X2420Y85458D01*
X2242Y85506D01*
D02*
G37*
G36*
X19680Y80540D02*
X19496D01*
X19318Y80493D01*
X19158Y80401D01*
X19028Y80270D01*
X18936Y80111D01*
X18888Y79933D01*
Y79748D01*
X18936Y79570D01*
X19028Y79411D01*
X19158Y79280D01*
X19318Y79188D01*
X19496Y79140D01*
X19680D01*
X19858Y79188D01*
X20018Y79280D01*
X20148Y79411D01*
X20241Y79570D01*
X20288Y79748D01*
Y79933D01*
X20241Y80111D01*
X20148Y80270D01*
X20018Y80401D01*
X19858Y80493D01*
X19680Y80540D01*
D02*
G37*
G36*
X23485Y86710D02*
X21365D01*
Y86584D01*
X21365Y86584D01*
Y85650D01*
Y84716D01*
X21365Y84716D01*
Y84590D01*
X22689D01*
X22753Y84463D01*
X22516Y84136D01*
X22266Y83645D01*
X22096Y83121D01*
X22009Y82577D01*
Y82026D01*
X22096Y81482D01*
X22266Y80958D01*
X22516Y80467D01*
X22840Y80022D01*
X23229Y79632D01*
X23675Y79308D01*
X24166Y79058D01*
X24690Y78888D01*
X25234Y78802D01*
X25785D01*
X26329Y78888D01*
X26853Y79058D01*
X27344Y79308D01*
X27789Y79632D01*
X28179Y80022D01*
X28503Y80467D01*
X28753Y80958D01*
X28923Y81482D01*
X29009Y82026D01*
Y82577D01*
X28923Y83121D01*
X28753Y83645D01*
X28503Y84136D01*
X28179Y84582D01*
X27789Y84971D01*
X27344Y85295D01*
X26853Y85545D01*
X26329Y85715D01*
X25785Y85802D01*
X25234D01*
X24690Y85715D01*
X24166Y85545D01*
X23675Y85295D01*
X23598Y85239D01*
X23485Y85297D01*
Y86710D01*
D02*
G37*
G36*
X2242Y79230D02*
X2058D01*
X1880Y79182D01*
X1720Y79090D01*
X1590Y78960D01*
X1498Y78800D01*
X1450Y78622D01*
Y78438D01*
X1498Y78260D01*
X1590Y78100D01*
X1720Y77970D01*
X1880Y77878D01*
X2058Y77830D01*
X2242D01*
X2420Y77878D01*
X2580Y77970D01*
X2710Y78100D01*
X2802Y78260D01*
X2850Y78438D01*
Y78622D01*
X2802Y78800D01*
X2710Y78960D01*
X2580Y79090D01*
X2420Y79182D01*
X2242Y79230D01*
D02*
G37*
G36*
X9450Y86025D02*
X9200D01*
X8958Y85960D01*
X8742Y85835D01*
X8565Y85658D01*
X8440Y85442D01*
X8375Y85200D01*
Y84950D01*
X8440Y84708D01*
X8565Y84492D01*
X8742Y84315D01*
X8807Y84277D01*
X8773Y84150D01*
X8711D01*
X8105Y84054D01*
X7521Y83864D01*
X6974Y83586D01*
X6477Y83225D01*
X6043Y82791D01*
X5682Y82294D01*
X5404Y81747D01*
X5214Y81163D01*
X5118Y80557D01*
Y79943D01*
X5214Y79337D01*
X5404Y78753D01*
X5682Y78206D01*
X6043Y77709D01*
X6477Y77275D01*
X6974Y76915D01*
X7521Y76636D01*
X8105Y76446D01*
X8711Y76350D01*
X9325D01*
X9931Y76446D01*
X10515Y76636D01*
X11062Y76915D01*
X11559Y77275D01*
X11993Y77709D01*
X12354Y78206D01*
X12632Y78753D01*
X12822Y79337D01*
X12918Y79943D01*
Y80557D01*
X12822Y81163D01*
X12632Y81747D01*
X12354Y82294D01*
X11993Y82791D01*
X11559Y83225D01*
X11062Y83586D01*
X10515Y83864D01*
X9931Y84054D01*
X9758Y84081D01*
X9734Y84214D01*
X9908Y84315D01*
X10085Y84492D01*
X10210Y84708D01*
X10275Y84950D01*
Y85200D01*
X10210Y85442D01*
X10085Y85658D01*
X9908Y85835D01*
X9692Y85960D01*
X9450Y86025D01*
D02*
G37*
G36*
X60692Y75800D02*
X60508D01*
X60330Y75752D01*
X60170Y75660D01*
X60040Y75530D01*
X59948Y75370D01*
X59900Y75192D01*
Y75008D01*
X59948Y74830D01*
X60040Y74670D01*
X60170Y74540D01*
X60330Y74448D01*
X60508Y74400D01*
X60692D01*
X60870Y74448D01*
X61030Y74540D01*
X61160Y74670D01*
X61252Y74830D01*
X61300Y75008D01*
Y75192D01*
X61252Y75370D01*
X61160Y75530D01*
X61030Y75660D01*
X60870Y75752D01*
X60692Y75800D01*
D02*
G37*
G36*
X55892D02*
X55708D01*
X55530Y75752D01*
X55370Y75660D01*
X55240Y75530D01*
X55148Y75370D01*
X55100Y75192D01*
Y75008D01*
X55148Y74830D01*
X55240Y74670D01*
X55370Y74540D01*
X55530Y74448D01*
X55708Y74400D01*
X55892D01*
X56070Y74448D01*
X56230Y74540D01*
X56360Y74670D01*
X56452Y74830D01*
X56500Y75008D01*
Y75192D01*
X56452Y75370D01*
X56360Y75530D01*
X56230Y75660D01*
X56070Y75752D01*
X55892Y75800D01*
D02*
G37*
G36*
X49731Y73648D02*
X49375D01*
X49032Y73556D01*
X48724Y73378D01*
X48553Y73207D01*
X48382Y73378D01*
X48074Y73556D01*
X47731Y73648D01*
X47375D01*
X47032Y73556D01*
X46724Y73378D01*
X46473Y73127D01*
X46295Y72819D01*
X46203Y72476D01*
Y72120D01*
X46295Y71777D01*
X46473Y71469D01*
X46644Y71298D01*
X46473Y71127D01*
X46295Y70819D01*
X46203Y70476D01*
Y70120D01*
X46295Y69777D01*
X46473Y69469D01*
X46644Y69298D01*
X46473Y69127D01*
X46295Y68819D01*
X46203Y68476D01*
Y68120D01*
X46295Y67777D01*
X46473Y67469D01*
X46644Y67298D01*
X46473Y67127D01*
X46295Y66819D01*
X46203Y66476D01*
Y66120D01*
X46295Y65777D01*
X46473Y65469D01*
X46644Y65298D01*
X46473Y65127D01*
X46295Y64819D01*
X46203Y64476D01*
Y64120D01*
X46295Y63777D01*
X46473Y63469D01*
X46644Y63298D01*
X46473Y63127D01*
X46295Y62819D01*
X46203Y62476D01*
Y62120D01*
X46295Y61777D01*
X46473Y61469D01*
X46644Y61298D01*
X46473Y61127D01*
X46295Y60819D01*
X46203Y60476D01*
Y60120D01*
X46295Y59777D01*
X46473Y59469D01*
X46644Y59298D01*
X46473Y59127D01*
X46295Y58819D01*
X46203Y58476D01*
Y58120D01*
X46295Y57777D01*
X46473Y57469D01*
X46644Y57298D01*
X46473Y57127D01*
X46295Y56819D01*
X46203Y56476D01*
Y56120D01*
X46295Y55777D01*
X46473Y55469D01*
X46644Y55298D01*
X46473Y55127D01*
X46295Y54819D01*
X46203Y54476D01*
Y54120D01*
X46295Y53777D01*
X46473Y53469D01*
X46724Y53218D01*
X47032Y53040D01*
X47375Y52948D01*
X47731D01*
X48074Y53040D01*
X48382Y53218D01*
X48553Y53389D01*
X48724Y53218D01*
X49032Y53040D01*
X49375Y52948D01*
X49731D01*
X50074Y53040D01*
X50382Y53218D01*
X50633Y53469D01*
X50811Y53777D01*
X50903Y54120D01*
Y54476D01*
X50811Y54819D01*
X50633Y55127D01*
X50382Y55378D01*
X50368Y55486D01*
X50473Y55592D01*
X50592Y55798D01*
X49553D01*
Y56798D01*
X50592D01*
X50473Y57004D01*
X50368Y57110D01*
X50382Y57218D01*
X50633Y57469D01*
X50811Y57777D01*
X50903Y58120D01*
Y58476D01*
X50811Y58819D01*
X50633Y59127D01*
X50462Y59298D01*
X50633Y59469D01*
X50811Y59777D01*
X50903Y60120D01*
Y60476D01*
X50811Y60819D01*
X50633Y61127D01*
X50462Y61298D01*
X50633Y61469D01*
X50811Y61777D01*
X50903Y62120D01*
Y62476D01*
X50811Y62819D01*
X50633Y63127D01*
X50462Y63298D01*
X50633Y63469D01*
X50811Y63777D01*
X50903Y64120D01*
Y64476D01*
X50811Y64819D01*
X50633Y65127D01*
X50462Y65298D01*
X50633Y65469D01*
X50811Y65777D01*
X50903Y66120D01*
Y66476D01*
X50811Y66819D01*
X50633Y67127D01*
X50462Y67298D01*
X50633Y67469D01*
X50811Y67777D01*
X50903Y68120D01*
Y68476D01*
X50811Y68819D01*
X50633Y69127D01*
X50382Y69378D01*
X50368Y69486D01*
X50473Y69592D01*
X50592Y69798D01*
X49553D01*
Y70798D01*
X50592D01*
X50473Y71004D01*
X50368Y71110D01*
X50382Y71218D01*
X50633Y71469D01*
X50811Y71777D01*
X50903Y72120D01*
Y72476D01*
X50811Y72819D01*
X50633Y73127D01*
X50382Y73378D01*
X50074Y73556D01*
X49731Y73648D01*
D02*
G37*
G36*
X53467Y74425D02*
X53283D01*
X53105Y74377D01*
X52945Y74285D01*
X52815Y74155D01*
X52723Y73995D01*
X52675Y73817D01*
Y73633D01*
X52723Y73455D01*
X52815Y73295D01*
X52945Y73165D01*
X53105Y73073D01*
X53283Y73025D01*
X53467D01*
X53645Y73073D01*
X53805Y73165D01*
X53935Y73295D01*
X54027Y73455D01*
X54075Y73633D01*
Y73817D01*
X54027Y73995D01*
X53935Y74155D01*
X53805Y74285D01*
X53645Y74377D01*
X53467Y74425D01*
D02*
G37*
G36*
X2242Y72954D02*
X2058D01*
X1880Y72906D01*
X1720Y72814D01*
X1590Y72684D01*
X1498Y72524D01*
X1450Y72346D01*
Y72162D01*
X1498Y71984D01*
X1590Y71824D01*
X1720Y71694D01*
X1880Y71602D01*
X2058Y71554D01*
X2242D01*
X2420Y71602D01*
X2580Y71694D01*
X2710Y71824D01*
X2802Y71984D01*
X2850Y72162D01*
Y72346D01*
X2802Y72524D01*
X2710Y72684D01*
X2580Y72814D01*
X2420Y72906D01*
X2242Y72954D01*
D02*
G37*
G36*
X63192Y73400D02*
X63008D01*
X62830Y73352D01*
X62670Y73260D01*
X62540Y73130D01*
X62448Y72970D01*
X62400Y72792D01*
Y72608D01*
X62448Y72430D01*
X62523Y72300D01*
X62448Y72170D01*
X62400Y71992D01*
Y71808D01*
X62448Y71630D01*
X62540Y71470D01*
X62670Y71340D01*
X62830Y71248D01*
X63008Y71200D01*
X63192D01*
X63370Y71248D01*
X63530Y71340D01*
X63660Y71470D01*
X63752Y71630D01*
X63800Y71808D01*
Y71992D01*
X63752Y72170D01*
X63677Y72300D01*
X63752Y72430D01*
X63800Y72608D01*
Y72792D01*
X63752Y72970D01*
X63660Y73130D01*
X63530Y73260D01*
X63370Y73352D01*
X63192Y73400D01*
D02*
G37*
G36*
X65017Y71000D02*
X64832D01*
X64654Y70952D01*
X64495Y70860D01*
X64364Y70730D01*
X64272Y70570D01*
X64224Y70392D01*
Y70208D01*
X64272Y70030D01*
X64364Y69870D01*
X64495Y69740D01*
X64654Y69648D01*
X64832Y69600D01*
X65017D01*
X65195Y69648D01*
X65354Y69740D01*
X65485Y69870D01*
X65577Y70030D01*
X65624Y70208D01*
Y70392D01*
X65577Y70570D01*
X65485Y70730D01*
X65354Y70860D01*
X65195Y70952D01*
X65017Y71000D01*
D02*
G37*
G36*
X53492D02*
X53308D01*
X53130Y70952D01*
X52970Y70860D01*
X52840Y70730D01*
X52748Y70570D01*
X52700Y70392D01*
Y70208D01*
X52748Y70030D01*
X52840Y69870D01*
X52970Y69740D01*
X53130Y69648D01*
X53308Y69600D01*
X53492D01*
X53670Y69648D01*
X53830Y69740D01*
X53960Y69870D01*
X54052Y70030D01*
X54100Y70208D01*
Y70392D01*
X54052Y70570D01*
X53960Y70730D01*
X53830Y70860D01*
X53670Y70952D01*
X53492Y71000D01*
D02*
G37*
G36*
X63192Y69400D02*
X63008D01*
X62830Y69352D01*
X62670Y69260D01*
X62540Y69130D01*
X62448Y68970D01*
X62400Y68792D01*
Y68608D01*
X62448Y68430D01*
X62523Y68300D01*
X62448Y68170D01*
X62400Y67992D01*
Y67808D01*
X62448Y67630D01*
X62523Y67500D01*
X62448Y67370D01*
X62400Y67192D01*
Y67008D01*
X62448Y66830D01*
X62540Y66670D01*
X62670Y66540D01*
X62830Y66448D01*
X63008Y66400D01*
X63192D01*
X63370Y66448D01*
X63530Y66540D01*
X63660Y66670D01*
X63752Y66830D01*
X63800Y67008D01*
Y67192D01*
X63752Y67370D01*
X63677Y67500D01*
X63752Y67630D01*
X63800Y67808D01*
Y67992D01*
X63752Y68170D01*
X63677Y68300D01*
X63752Y68430D01*
X63800Y68608D01*
Y68792D01*
X63752Y68970D01*
X63660Y69130D01*
X63530Y69260D01*
X63370Y69352D01*
X63192Y69400D01*
D02*
G37*
G36*
X2242Y66678D02*
X2058D01*
X1880Y66630D01*
X1720Y66538D01*
X1590Y66408D01*
X1498Y66248D01*
X1450Y66070D01*
Y65886D01*
X1498Y65708D01*
X1590Y65548D01*
X1720Y65418D01*
X1880Y65326D01*
X2058Y65278D01*
X2242D01*
X2420Y65326D01*
X2580Y65418D01*
X2710Y65548D01*
X2802Y65708D01*
X2850Y65886D01*
Y66070D01*
X2802Y66248D01*
X2710Y66408D01*
X2580Y66538D01*
X2420Y66630D01*
X2242Y66678D01*
D02*
G37*
G36*
X55892Y66200D02*
X55708D01*
X55530Y66152D01*
X55370Y66060D01*
X55240Y65930D01*
X55148Y65770D01*
X55100Y65592D01*
Y65408D01*
X55148Y65230D01*
X55240Y65070D01*
X55370Y64940D01*
X55530Y64848D01*
X55708Y64800D01*
X55892D01*
X56070Y64848D01*
X56230Y64940D01*
X56360Y65070D01*
X56452Y65230D01*
X56500Y65408D01*
Y65592D01*
X56452Y65770D01*
X56360Y65930D01*
X56230Y66060D01*
X56070Y66152D01*
X55892Y66200D01*
D02*
G37*
G36*
X64967Y64325D02*
X64783D01*
X64605Y64277D01*
X64445Y64185D01*
X64315Y64055D01*
X64223Y63895D01*
X64175Y63717D01*
Y63533D01*
X64223Y63355D01*
X64315Y63195D01*
X64445Y63065D01*
X64605Y62973D01*
X64783Y62925D01*
X64967D01*
X65145Y62973D01*
X65305Y63065D01*
X65435Y63195D01*
X65527Y63355D01*
X65575Y63533D01*
Y63717D01*
X65527Y63895D01*
X65435Y64055D01*
X65305Y64185D01*
X65145Y64277D01*
X64967Y64325D01*
D02*
G37*
G36*
X19925Y62920D02*
X19741D01*
X19562Y62872D01*
X19403Y62780D01*
X19273Y62650D01*
X19180Y62490D01*
X19133Y62312D01*
Y62128D01*
X19180Y61950D01*
X19273Y61790D01*
X19403Y61660D01*
X19562Y61567D01*
X19741Y61520D01*
X19925D01*
X20103Y61567D01*
X20263Y61660D01*
X20393Y61790D01*
X20485Y61950D01*
X20533Y62128D01*
Y62312D01*
X20485Y62490D01*
X20393Y62650D01*
X20263Y62780D01*
X20103Y62872D01*
X19925Y62920D01*
D02*
G37*
G36*
X60692Y61800D02*
X60508D01*
X60330Y61752D01*
X60170Y61660D01*
X60040Y61530D01*
X59948Y61370D01*
X59900Y61192D01*
Y61008D01*
X59948Y60830D01*
X60040Y60670D01*
X60170Y60540D01*
X60330Y60448D01*
X60508Y60400D01*
X60692D01*
X60870Y60448D01*
X61030Y60540D01*
X61160Y60670D01*
X61252Y60830D01*
X61300Y61008D01*
Y61192D01*
X61252Y61370D01*
X61160Y61530D01*
X61030Y61660D01*
X60870Y61752D01*
X60692Y61800D01*
D02*
G37*
G36*
X55892D02*
X55708D01*
X55530Y61752D01*
X55370Y61660D01*
X55240Y61530D01*
X55148Y61370D01*
X55100Y61192D01*
Y61008D01*
X55148Y60830D01*
X55240Y60670D01*
X55370Y60540D01*
X55530Y60448D01*
X55708Y60400D01*
X55892D01*
X56070Y60448D01*
X56230Y60540D01*
X56360Y60670D01*
X56452Y60830D01*
X56500Y61008D01*
Y61192D01*
X56452Y61370D01*
X56360Y61530D01*
X56230Y61660D01*
X56070Y61752D01*
X55892Y61800D01*
D02*
G37*
G36*
X60600Y82700D02*
X54100D01*
X51600Y80200D01*
Y49300D01*
X53800Y47100D01*
X96400D01*
Y48100D01*
X54300D01*
X52400Y50000D01*
Y61003D01*
X52525Y61008D01*
X52573Y60830D01*
X52665Y60670D01*
X52795Y60540D01*
X52955Y60448D01*
X53133Y60400D01*
X53317D01*
X53495Y60448D01*
X53655Y60540D01*
X53785Y60670D01*
X53877Y60830D01*
X53925Y61008D01*
Y61192D01*
X53877Y61370D01*
X53785Y61530D01*
X53655Y61660D01*
X53495Y61752D01*
X53317Y61800D01*
X53133D01*
X52955Y61752D01*
X52795Y61660D01*
X52665Y61530D01*
X52573Y61370D01*
X52525Y61192D01*
X52400Y61197D01*
X52400Y79300D01*
X54700Y81600D01*
X60200D01*
X60600Y82000D01*
Y82700D01*
D02*
G37*
G36*
X2592Y60575D02*
X2408D01*
X2230Y60527D01*
X2070Y60435D01*
X1940Y60305D01*
X1848Y60145D01*
X1800Y59967D01*
Y59783D01*
X1848Y59605D01*
X1940Y59445D01*
X2070Y59315D01*
X2230Y59223D01*
X2408Y59175D01*
X2592D01*
X2770Y59223D01*
X2930Y59315D01*
X3060Y59445D01*
X3152Y59605D01*
X3200Y59783D01*
Y59967D01*
X3152Y60145D01*
X3060Y60305D01*
X2930Y60435D01*
X2770Y60527D01*
X2592Y60575D01*
D02*
G37*
G36*
X38942Y61500D02*
X38758D01*
X38580Y61452D01*
X38420Y61360D01*
X38290Y61230D01*
X38198Y61070D01*
X38150Y60892D01*
Y60708D01*
X38198Y60530D01*
X38251Y60438D01*
X38198Y60345D01*
X38150Y60167D01*
Y59983D01*
X38198Y59805D01*
X38290Y59645D01*
X38420Y59515D01*
X38580Y59423D01*
X38758Y59375D01*
X38942D01*
X39006Y59392D01*
X39023Y59330D01*
X39076Y59237D01*
X39023Y59145D01*
X38999Y59058D01*
X38842Y59100D01*
X38658D01*
X38480Y59052D01*
X38320Y58960D01*
X38190Y58830D01*
X38098Y58670D01*
X38050Y58492D01*
Y58308D01*
X38098Y58130D01*
X38162Y58018D01*
X38120Y57945D01*
X38073Y57767D01*
Y57583D01*
X38120Y57405D01*
X38212Y57245D01*
X38343Y57115D01*
X38502Y57023D01*
X38680Y56975D01*
X38865D01*
X39043Y57023D01*
X39202Y57115D01*
X39333Y57245D01*
X39425Y57405D01*
X39473Y57583D01*
Y57767D01*
X39425Y57945D01*
X39360Y58057D01*
X39402Y58130D01*
X39426Y58217D01*
X39583Y58175D01*
X39767D01*
X39945Y58223D01*
X40105Y58315D01*
X40235Y58445D01*
X40327Y58605D01*
X40375Y58783D01*
Y58967D01*
X40327Y59145D01*
X40274Y59237D01*
X40327Y59330D01*
X40375Y59508D01*
Y59692D01*
X40327Y59870D01*
X40235Y60030D01*
X40105Y60160D01*
X39945Y60252D01*
X39767Y60300D01*
X39583D01*
X39519Y60283D01*
X39502Y60345D01*
X39449Y60438D01*
X39502Y60530D01*
X39550Y60708D01*
Y60892D01*
X39502Y61070D01*
X39410Y61230D01*
X39280Y61360D01*
X39120Y61452D01*
X38942Y61500D01*
D02*
G37*
G36*
X5867Y60350D02*
X5683D01*
X5505Y60302D01*
X5345Y60210D01*
X5215Y60080D01*
X5123Y59920D01*
X5075Y59742D01*
Y59558D01*
X5123Y59380D01*
X5215Y59220D01*
X5345Y59090D01*
X5505Y58998D01*
X5683Y58950D01*
X5867D01*
X6045Y58998D01*
X6205Y59090D01*
X6335Y59220D01*
X6427Y59380D01*
X6475Y59558D01*
Y59742D01*
X6427Y59920D01*
X6335Y60080D01*
X6205Y60210D01*
X6045Y60302D01*
X5867Y60350D01*
D02*
G37*
G36*
X12842Y59725D02*
X12658D01*
X12480Y59677D01*
X12320Y59585D01*
X12190Y59455D01*
X12098Y59295D01*
X12050Y59117D01*
Y59100D01*
X11883D01*
X11705Y59052D01*
X11545Y58960D01*
X11415Y58830D01*
X11404Y58811D01*
X11245Y58902D01*
X11067Y58950D01*
X10883D01*
X10705Y58902D01*
X10545Y58810D01*
X10415Y58680D01*
X10323Y58520D01*
X10275Y58342D01*
Y58158D01*
X10323Y57980D01*
X10415Y57820D01*
X10545Y57690D01*
X10705Y57598D01*
X10883Y57550D01*
X11067D01*
X11245Y57598D01*
X11405Y57690D01*
X11535Y57820D01*
X11546Y57839D01*
X11705Y57748D01*
X11883Y57700D01*
X12067D01*
X12245Y57748D01*
X12405Y57840D01*
X12535Y57970D01*
X12627Y58130D01*
X12675Y58308D01*
Y58325D01*
X12842D01*
X13020Y58373D01*
X13180Y58465D01*
X13310Y58595D01*
X13402Y58755D01*
X13450Y58933D01*
Y59117D01*
X13402Y59295D01*
X13310Y59455D01*
X13180Y59585D01*
X13020Y59677D01*
X12842Y59725D01*
D02*
G37*
G36*
X63192Y59400D02*
X63008D01*
X62830Y59352D01*
X62670Y59260D01*
X62540Y59130D01*
X62448Y58970D01*
X62400Y58792D01*
Y58608D01*
X62448Y58430D01*
X62523Y58300D01*
X62448Y58170D01*
X62400Y57992D01*
Y57808D01*
X62448Y57630D01*
X62540Y57470D01*
X62670Y57340D01*
X62830Y57248D01*
X63008Y57200D01*
X63192D01*
X63370Y57248D01*
X63530Y57340D01*
X63660Y57470D01*
X63752Y57630D01*
X63800Y57808D01*
Y57992D01*
X63752Y58170D01*
X63677Y58300D01*
X63752Y58430D01*
X63800Y58608D01*
Y58792D01*
X63752Y58970D01*
X63660Y59130D01*
X63530Y59260D01*
X63370Y59352D01*
X63192Y59400D01*
D02*
G37*
G36*
X53492Y57000D02*
X53308D01*
X53130Y56952D01*
X52970Y56860D01*
X52840Y56730D01*
X52748Y56570D01*
X52700Y56392D01*
Y56208D01*
X52748Y56030D01*
X52840Y55870D01*
X52970Y55740D01*
X53130Y55648D01*
X53308Y55600D01*
X53492D01*
X53670Y55648D01*
X53830Y55740D01*
X53960Y55870D01*
X54052Y56030D01*
X54100Y56208D01*
Y56392D01*
X54052Y56570D01*
X53960Y56730D01*
X53830Y56860D01*
X53670Y56952D01*
X53492Y57000D01*
D02*
G37*
G36*
X64992Y56975D02*
X64808D01*
X64630Y56927D01*
X64470Y56835D01*
X64340Y56705D01*
X64248Y56545D01*
X64200Y56367D01*
Y56183D01*
X64248Y56005D01*
X64340Y55845D01*
X64470Y55715D01*
X64630Y55623D01*
X64808Y55575D01*
X64992D01*
X65170Y55623D01*
X65330Y55715D01*
X65460Y55845D01*
X65552Y56005D01*
X65600Y56183D01*
Y56367D01*
X65552Y56545D01*
X65460Y56705D01*
X65330Y56835D01*
X65170Y56927D01*
X64992Y56975D01*
D02*
G37*
G36*
X6068Y56699D02*
X5884D01*
X5706Y56651D01*
X5546Y56559D01*
X5416Y56429D01*
X5324Y56269D01*
X5276Y56091D01*
Y55975D01*
X5208D01*
X5030Y55927D01*
X4870Y55835D01*
X4740Y55705D01*
X4648Y55545D01*
X4600Y55367D01*
Y55183D01*
X4648Y55005D01*
X4740Y54845D01*
X4870Y54715D01*
X5030Y54623D01*
X5208Y54575D01*
X5392D01*
X5570Y54623D01*
X5730Y54715D01*
X5860Y54845D01*
X5952Y55005D01*
X6000Y55183D01*
Y55299D01*
X6068D01*
X6246Y55346D01*
X6406Y55439D01*
X6536Y55569D01*
X6629Y55729D01*
X6676Y55907D01*
Y56091D01*
X6629Y56269D01*
X6536Y56429D01*
X6406Y56559D01*
X6246Y56651D01*
X6068Y56699D01*
D02*
G37*
G36*
X2242Y54126D02*
X2058D01*
X1880Y54078D01*
X1720Y53986D01*
X1590Y53856D01*
X1498Y53696D01*
X1450Y53518D01*
Y53334D01*
X1498Y53156D01*
X1590Y52996D01*
X1720Y52866D01*
X1880Y52774D01*
X2058Y52726D01*
X2242D01*
X2420Y52774D01*
X2580Y52866D01*
X2710Y52996D01*
X2802Y53156D01*
X2850Y53334D01*
Y53518D01*
X2802Y53696D01*
X2710Y53856D01*
X2580Y53986D01*
X2420Y54078D01*
X2242Y54126D01*
D02*
G37*
G36*
X63192Y55400D02*
X63008D01*
X62830Y55352D01*
X62670Y55260D01*
X62540Y55130D01*
X62448Y54970D01*
X62400Y54792D01*
Y54608D01*
X62448Y54430D01*
X62523Y54300D01*
X62448Y54170D01*
X62400Y53992D01*
Y53808D01*
X62448Y53630D01*
X62523Y53500D01*
X62448Y53370D01*
X62400Y53192D01*
Y53008D01*
X62448Y52830D01*
X62540Y52670D01*
X62670Y52540D01*
X62830Y52448D01*
X63008Y52400D01*
X63192D01*
X63370Y52448D01*
X63530Y52540D01*
X63660Y52670D01*
X63752Y52830D01*
X63800Y53008D01*
Y53192D01*
X63752Y53370D01*
X63677Y53500D01*
X63752Y53630D01*
X63800Y53808D01*
Y53992D01*
X63752Y54170D01*
X63677Y54300D01*
X63752Y54430D01*
X63800Y54608D01*
Y54792D01*
X63752Y54970D01*
X63660Y55130D01*
X63530Y55260D01*
X63370Y55352D01*
X63192Y55400D01*
D02*
G37*
G36*
X11867Y57425D02*
X11683D01*
X11505Y57377D01*
X11345Y57285D01*
X11215Y57155D01*
X11123Y56995D01*
X11075Y56817D01*
Y56633D01*
X11123Y56455D01*
X11189Y56341D01*
X11148Y56270D01*
X11100Y56092D01*
Y55908D01*
X11148Y55730D01*
X11240Y55570D01*
X11258Y55552D01*
X11258Y55517D01*
X11217Y55414D01*
X11080Y55377D01*
X10920Y55285D01*
X10790Y55155D01*
X10698Y54995D01*
X10650Y54817D01*
Y54633D01*
X10698Y54455D01*
X10750Y54365D01*
X10690Y54305D01*
X10598Y54145D01*
X10550Y53967D01*
Y53783D01*
X10598Y53605D01*
X10690Y53445D01*
X10820Y53315D01*
X10980Y53223D01*
X11158Y53175D01*
X11342D01*
X11520Y53223D01*
X11680Y53315D01*
X11736Y53371D01*
X11786Y53348D01*
X11841Y53297D01*
X11800Y53142D01*
Y52958D01*
X11848Y52780D01*
X11940Y52620D01*
X12070Y52490D01*
X12230Y52398D01*
X12408Y52350D01*
X12592D01*
X12770Y52398D01*
X12930Y52490D01*
X13060Y52620D01*
X13152Y52780D01*
X13200Y52958D01*
Y53142D01*
X13152Y53320D01*
X13060Y53480D01*
X12930Y53610D01*
X12770Y53702D01*
X12592Y53750D01*
X12408D01*
X12230Y53702D01*
X12070Y53610D01*
X12014Y53554D01*
X11964Y53577D01*
X11909Y53628D01*
X11950Y53783D01*
Y53967D01*
X11902Y54145D01*
X11850Y54235D01*
X11910Y54295D01*
X12002Y54455D01*
X12050Y54633D01*
Y54817D01*
X12002Y54995D01*
X11910Y55155D01*
X11892Y55173D01*
X11892Y55208D01*
X11933Y55311D01*
X12070Y55348D01*
X12230Y55440D01*
X12360Y55570D01*
X12452Y55730D01*
X12500Y55908D01*
Y56092D01*
X12452Y56270D01*
X12387Y56384D01*
X12427Y56455D01*
X12475Y56633D01*
Y56817D01*
X12427Y56995D01*
X12335Y57155D01*
X12205Y57285D01*
X12045Y57377D01*
X11867Y57425D01*
D02*
G37*
G36*
X13917Y52375D02*
X13733D01*
X13555Y52327D01*
X13395Y52235D01*
X13265Y52105D01*
X13173Y51945D01*
X13172Y51941D01*
X13024Y51882D01*
X12945Y51927D01*
X12767Y51975D01*
X12583D01*
X12405Y51927D01*
X12245Y51835D01*
X12115Y51705D01*
X12023Y51545D01*
X11975Y51367D01*
Y51183D01*
X12023Y51005D01*
X12115Y50845D01*
X12245Y50715D01*
X12405Y50623D01*
X12583Y50575D01*
X12767D01*
X12945Y50623D01*
X13105Y50715D01*
X13235Y50845D01*
X13327Y51005D01*
X13328Y51009D01*
X13476Y51068D01*
X13555Y51023D01*
X13733Y50975D01*
X13917D01*
X14095Y51023D01*
X14255Y51115D01*
X14385Y51245D01*
X14477Y51405D01*
X14525Y51583D01*
Y51767D01*
X14477Y51945D01*
X14385Y52105D01*
X14255Y52235D01*
X14095Y52327D01*
X13917Y52375D01*
D02*
G37*
G36*
X55892Y52200D02*
X55708D01*
X55530Y52152D01*
X55370Y52060D01*
X55240Y51930D01*
X55148Y51770D01*
X55100Y51592D01*
Y51408D01*
X55148Y51230D01*
X55240Y51070D01*
X55370Y50940D01*
X55530Y50848D01*
X55708Y50800D01*
X55892D01*
X56070Y50848D01*
X56230Y50940D01*
X56360Y51070D01*
X56452Y51230D01*
X56500Y51408D01*
Y51592D01*
X56452Y51770D01*
X56360Y51930D01*
X56230Y52060D01*
X56070Y52152D01*
X55892Y52200D01*
D02*
G37*
G36*
X85218Y51125D02*
X84862D01*
X84519Y51033D01*
X84211Y50855D01*
X83960Y50604D01*
X83843Y50402D01*
X83697D01*
X83580Y50604D01*
X83329Y50855D01*
X83021Y51033D01*
X82678Y51125D01*
X82322D01*
X81979Y51033D01*
X81671Y50855D01*
X81420Y50604D01*
X81303Y50402D01*
X81157D01*
X81040Y50604D01*
X80789Y50855D01*
X80481Y51033D01*
X80138Y51125D01*
X79782D01*
X79439Y51033D01*
X79131Y50855D01*
X78880Y50604D01*
X78763Y50402D01*
X78617D01*
X78500Y50604D01*
X78249Y50855D01*
X77941Y51033D01*
X77598Y51125D01*
X77242D01*
X76899Y51033D01*
X76591Y50855D01*
X76340Y50604D01*
X76223Y50402D01*
X76077D01*
X75960Y50604D01*
X75709Y50855D01*
X75401Y51033D01*
X75058Y51125D01*
X74702D01*
X74359Y51033D01*
X74051Y50855D01*
X73800Y50604D01*
X73622Y50296D01*
X73530Y49953D01*
Y49597D01*
X73622Y49254D01*
X73800Y48946D01*
X74051Y48695D01*
X74359Y48517D01*
X74702Y48425D01*
X75058D01*
X75401Y48517D01*
X75709Y48695D01*
X75960Y48946D01*
X76077Y49148D01*
X76223D01*
X76340Y48946D01*
X76591Y48695D01*
X76899Y48517D01*
X77242Y48425D01*
X77598D01*
X77941Y48517D01*
X78249Y48695D01*
X78500Y48946D01*
X78617Y49148D01*
X78763D01*
X78880Y48946D01*
X79131Y48695D01*
X79439Y48517D01*
X79782Y48425D01*
X80138D01*
X80481Y48517D01*
X80789Y48695D01*
X81040Y48946D01*
X81157Y49148D01*
X81303D01*
X81420Y48946D01*
X81671Y48695D01*
X81979Y48517D01*
X82322Y48425D01*
X82678D01*
X83021Y48517D01*
X83329Y48695D01*
X83580Y48946D01*
X83697Y49148D01*
X83843D01*
X83960Y48946D01*
X84211Y48695D01*
X84519Y48517D01*
X84862Y48425D01*
X85218D01*
X85561Y48517D01*
X85869Y48695D01*
X86120Y48946D01*
X86298Y49254D01*
X86348Y49440D01*
X86479D01*
X86508Y49331D01*
X86660Y49069D01*
X86874Y48855D01*
X87080Y48736D01*
Y49775D01*
Y50814D01*
X86874Y50695D01*
X86660Y50481D01*
X86508Y50219D01*
X86479Y50110D01*
X86348D01*
X86298Y50296D01*
X86120Y50604D01*
X85869Y50855D01*
X85561Y51033D01*
X85218Y51125D01*
D02*
G37*
G36*
X90620Y50814D02*
Y50275D01*
X91159D01*
X91040Y50481D01*
X90826Y50695D01*
X90620Y50814D01*
D02*
G37*
G36*
X88080D02*
Y50275D01*
X88619D01*
X88500Y50481D01*
X88286Y50695D01*
X88080Y50814D01*
D02*
G37*
G36*
X89620D02*
X89414Y50695D01*
X89200Y50481D01*
X89081Y50275D01*
X89620D01*
Y50814D01*
D02*
G37*
G36*
X64967Y50650D02*
X64783D01*
X64605Y50602D01*
X64445Y50510D01*
X64315Y50380D01*
X64223Y50220D01*
X64175Y50042D01*
Y49858D01*
X64223Y49680D01*
X64315Y49520D01*
X64445Y49390D01*
X64605Y49298D01*
X64783Y49250D01*
X64967D01*
X65145Y49298D01*
X65305Y49390D01*
X65435Y49520D01*
X65527Y49680D01*
X65575Y49858D01*
Y50042D01*
X65527Y50220D01*
X65435Y50380D01*
X65305Y50510D01*
X65145Y50602D01*
X64967Y50650D01*
D02*
G37*
G36*
X91159Y49275D02*
X90620D01*
Y48736D01*
X90826Y48855D01*
X91040Y49069D01*
X91159Y49275D01*
D02*
G37*
G36*
X88619D02*
X88080D01*
Y48736D01*
X88286Y48855D01*
X88500Y49069D01*
X88619Y49275D01*
D02*
G37*
G36*
X89620D02*
X89081D01*
X89200Y49069D01*
X89414Y48855D01*
X89620Y48736D01*
Y49275D01*
D02*
G37*
G36*
X39867Y53105D02*
X39683D01*
X39505Y53057D01*
X39345Y52965D01*
X39215Y52834D01*
X39123Y52675D01*
X39075Y52497D01*
Y52312D01*
X39123Y52134D01*
X39176Y52042D01*
X39123Y51950D01*
X39111Y51905D01*
X39083D01*
X38905Y51857D01*
X38745Y51765D01*
X38615Y51634D01*
X38523Y51475D01*
X38475Y51297D01*
Y51112D01*
X38523Y50934D01*
X38576Y50842D01*
X38523Y50750D01*
X38475Y50572D01*
Y50387D01*
X38523Y50209D01*
X38615Y50050D01*
X38745Y49919D01*
X38905Y49827D01*
X39083Y49780D01*
X39186D01*
X39198Y49734D01*
X39251Y49642D01*
X39198Y49550D01*
X39150Y49372D01*
Y49187D01*
X39198Y49009D01*
X39290Y48850D01*
X39420Y48719D01*
X39580Y48627D01*
X39758Y48580D01*
X39942D01*
X40120Y48627D01*
X40280Y48719D01*
X40410Y48850D01*
X40502Y49009D01*
X40550Y49187D01*
Y49372D01*
X40502Y49550D01*
X40449Y49642D01*
X40502Y49734D01*
X40550Y49912D01*
Y50097D01*
X40502Y50275D01*
X40410Y50434D01*
X40280Y50565D01*
X40120Y50657D01*
X39942Y50705D01*
X39839D01*
X39827Y50750D01*
X39774Y50842D01*
X39827Y50934D01*
X39839Y50980D01*
X39867D01*
X40045Y51027D01*
X40205Y51119D01*
X40335Y51250D01*
X40427Y51409D01*
X40475Y51587D01*
Y51772D01*
X40427Y51950D01*
X40374Y52042D01*
X40427Y52134D01*
X40475Y52312D01*
Y52497D01*
X40427Y52675D01*
X40335Y52834D01*
X40205Y52965D01*
X40045Y53057D01*
X39867Y53105D01*
D02*
G37*
G36*
X1842Y49275D02*
X1658D01*
X1480Y49227D01*
X1320Y49135D01*
X1190Y49005D01*
X1098Y48845D01*
X1050Y48667D01*
Y48483D01*
X1098Y48305D01*
X1190Y48145D01*
X1320Y48015D01*
X1480Y47923D01*
X1658Y47875D01*
X1842D01*
X2020Y47923D01*
X2180Y48015D01*
X2310Y48145D01*
X2402Y48305D01*
X2450Y48483D01*
Y48667D01*
X2402Y48845D01*
X2310Y49005D01*
X2180Y49135D01*
X2020Y49227D01*
X1842Y49275D01*
D02*
G37*
G36*
X25785Y54802D02*
X25234D01*
X24690Y54715D01*
X24166Y54545D01*
X23675Y54295D01*
X23229Y53971D01*
X22840Y53582D01*
X22516Y53136D01*
X22266Y52645D01*
X22096Y52121D01*
X22009Y51577D01*
Y51026D01*
X22096Y50482D01*
X22266Y49958D01*
X22516Y49467D01*
X22840Y49022D01*
X23229Y48632D01*
X23675Y48308D01*
X24166Y48058D01*
X24690Y47888D01*
X25234Y47802D01*
X25785D01*
X26329Y47888D01*
X26853Y48058D01*
X27344Y48308D01*
X27789Y48632D01*
X28179Y49022D01*
X28503Y49467D01*
X28753Y49958D01*
X28923Y50482D01*
X29009Y51026D01*
Y51577D01*
X28923Y52121D01*
X28753Y52645D01*
X28503Y53136D01*
X28179Y53582D01*
X27789Y53971D01*
X27344Y54295D01*
X26853Y54545D01*
X26329Y54715D01*
X25785Y54802D01*
D02*
G37*
G36*
X11367Y48750D02*
X11183D01*
X11005Y48702D01*
X10845Y48610D01*
X10715Y48480D01*
X10623Y48320D01*
X10575Y48142D01*
Y47958D01*
X10623Y47780D01*
X10680Y47681D01*
X10623Y47583D01*
X10575Y47405D01*
Y47220D01*
X10623Y47042D01*
X10715Y46883D01*
X10845Y46752D01*
X11005Y46660D01*
X11183Y46613D01*
X11367D01*
X11545Y46660D01*
X11705Y46752D01*
X11835Y46883D01*
X11928Y47042D01*
X11975Y47220D01*
Y47405D01*
X11928Y47583D01*
X11871Y47681D01*
X11927Y47780D01*
X11975Y47958D01*
Y48142D01*
X11927Y48320D01*
X11835Y48480D01*
X11705Y48610D01*
X11545Y48702D01*
X11367Y48750D01*
D02*
G37*
G36*
X19042Y47700D02*
X18858D01*
X18680Y47652D01*
X18520Y47560D01*
X18390Y47430D01*
X18298Y47270D01*
X18250Y47092D01*
Y46908D01*
X18298Y46730D01*
X18390Y46570D01*
X18520Y46440D01*
X18680Y46348D01*
X18858Y46300D01*
X19042D01*
X19220Y46348D01*
X19380Y46440D01*
X19510Y46570D01*
X19602Y46730D01*
X19650Y46908D01*
Y47092D01*
X19602Y47270D01*
X19510Y47430D01*
X19380Y47560D01*
X19220Y47652D01*
X19042Y47700D01*
D02*
G37*
G36*
X14605Y47612D02*
X14420D01*
X14242Y47565D01*
X14083Y47473D01*
X13952Y47342D01*
X13860Y47183D01*
X13812Y47005D01*
Y46820D01*
X13860Y46642D01*
X13952Y46483D01*
X13973Y46463D01*
X13965Y46455D01*
X13873Y46295D01*
X13825Y46117D01*
Y45933D01*
X13873Y45755D01*
X13965Y45595D01*
X14095Y45465D01*
X14255Y45373D01*
X14433Y45325D01*
X14617D01*
X14795Y45373D01*
X14955Y45465D01*
X15085Y45595D01*
X15177Y45755D01*
X15225Y45933D01*
Y46117D01*
X15177Y46295D01*
X15085Y46455D01*
X15065Y46475D01*
X15073Y46483D01*
X15165Y46642D01*
X15212Y46820D01*
Y47005D01*
X15165Y47183D01*
X15073Y47342D01*
X14942Y47473D01*
X14783Y47565D01*
X14605Y47612D01*
D02*
G37*
G36*
X11742Y44100D02*
X11558D01*
X11380Y44052D01*
X11220Y43960D01*
X11090Y43830D01*
X10998Y43670D01*
X10950Y43492D01*
Y43308D01*
X10998Y43130D01*
X11090Y42970D01*
X11220Y42840D01*
X11380Y42748D01*
X11558Y42700D01*
X11742D01*
X11920Y42748D01*
X12080Y42840D01*
X12210Y42970D01*
X12302Y43130D01*
X12350Y43308D01*
Y43492D01*
X12302Y43670D01*
X12210Y43830D01*
X12080Y43960D01*
X11920Y44052D01*
X11742Y44100D01*
D02*
G37*
G36*
X1442Y43925D02*
X1258D01*
X1080Y43877D01*
X920Y43785D01*
X790Y43655D01*
X698Y43495D01*
X650Y43317D01*
Y43133D01*
X698Y42955D01*
X790Y42795D01*
X920Y42665D01*
X1080Y42573D01*
X1258Y42525D01*
X1442D01*
X1620Y42573D01*
X1780Y42665D01*
X1910Y42795D01*
X2002Y42955D01*
X2050Y43133D01*
Y43317D01*
X2002Y43495D01*
X1910Y43655D01*
X1780Y43785D01*
X1620Y43877D01*
X1442Y43925D01*
D02*
G37*
G36*
X8942Y43175D02*
X8758D01*
X8580Y43127D01*
X8420Y43035D01*
X8290Y42905D01*
X8198Y42745D01*
X8150Y42567D01*
Y42383D01*
X8198Y42205D01*
X8290Y42045D01*
X8420Y41915D01*
X8580Y41823D01*
X8758Y41775D01*
X8942D01*
X9120Y41823D01*
X9280Y41915D01*
X9410Y42045D01*
X9502Y42205D01*
X9550Y42383D01*
Y42567D01*
X9502Y42745D01*
X9410Y42905D01*
X9280Y43035D01*
X9120Y43127D01*
X8942Y43175D01*
D02*
G37*
G36*
X1717Y41775D02*
X1533D01*
X1355Y41727D01*
X1195Y41635D01*
X1065Y41505D01*
X973Y41345D01*
X925Y41167D01*
Y40983D01*
X973Y40805D01*
X1065Y40645D01*
X1195Y40515D01*
X1355Y40423D01*
X1533Y40375D01*
X1717D01*
X1895Y40423D01*
X2055Y40515D01*
X2185Y40645D01*
X2277Y40805D01*
X2325Y40983D01*
Y41167D01*
X2277Y41345D01*
X2185Y41505D01*
X2055Y41635D01*
X1895Y41727D01*
X1717Y41775D01*
D02*
G37*
G36*
X16596Y42457D02*
X16264D01*
X15943Y42371D01*
X15655Y42205D01*
X15420Y41970D01*
X15254Y41682D01*
X15168Y41361D01*
Y41029D01*
X15254Y40708D01*
X15420Y40420D01*
X15655Y40185D01*
X15943Y40019D01*
X16264Y39933D01*
X16596D01*
X16917Y40019D01*
X17205Y40185D01*
X17440Y40420D01*
X17606Y40708D01*
X17692Y41029D01*
Y41361D01*
X17606Y41682D01*
X17440Y41970D01*
X17205Y42205D01*
X16917Y42371D01*
X16596Y42457D01*
D02*
G37*
G36*
X11516D02*
X11184D01*
X10863Y42371D01*
X10575Y42205D01*
X10340Y41970D01*
X10174Y41682D01*
X10088Y41361D01*
Y41029D01*
X10174Y40708D01*
X10340Y40420D01*
X10575Y40185D01*
X10863Y40019D01*
X11184Y39933D01*
X11516D01*
X11837Y40019D01*
X12125Y40185D01*
X12360Y40420D01*
X12526Y40708D01*
X12612Y41029D01*
Y41361D01*
X12526Y41682D01*
X12360Y41970D01*
X12125Y42205D01*
X11837Y42371D01*
X11516Y42457D01*
D02*
G37*
G36*
X7192Y43475D02*
X7008D01*
X6830Y43427D01*
X6670Y43335D01*
X6540Y43205D01*
X6448Y43045D01*
X6400Y42867D01*
Y42683D01*
X6426Y42584D01*
X6337Y42458D01*
X6336Y42457D01*
X6104D01*
X5783Y42371D01*
X5495Y42205D01*
X5260Y41970D01*
X5094Y41682D01*
X5008Y41361D01*
Y41029D01*
X5094Y40708D01*
X5260Y40420D01*
X5495Y40185D01*
X5783Y40019D01*
X6104Y39933D01*
X6436D01*
X6757Y40019D01*
X7045Y40185D01*
X7280Y40420D01*
X7446Y40708D01*
X7532Y41029D01*
Y41361D01*
X7446Y41682D01*
X7280Y41970D01*
X7320Y42109D01*
X7370Y42123D01*
X7530Y42215D01*
X7660Y42345D01*
X7752Y42505D01*
X7800Y42683D01*
Y42867D01*
X7752Y43045D01*
X7660Y43205D01*
X7530Y43335D01*
X7370Y43427D01*
X7192Y43475D01*
D02*
G37*
G36*
X84031Y43575D02*
X83847D01*
X83669Y43527D01*
X83509Y43435D01*
X83379Y43305D01*
X83287Y43145D01*
X83239Y42967D01*
Y42783D01*
X83241Y42774D01*
X83097Y42735D01*
X82937Y42643D01*
X82807Y42513D01*
X82715Y42353D01*
X82667Y42175D01*
Y41991D01*
X82715Y41813D01*
X82807Y41653D01*
X82937Y41523D01*
X83097Y41431D01*
X83275Y41383D01*
X83276Y41381D01*
X83232Y41216D01*
Y41032D01*
X83280Y40854D01*
X83323Y40779D01*
X83258Y40667D01*
X83211Y40488D01*
Y40304D01*
X83258Y40126D01*
X83350Y39966D01*
X83481Y39836D01*
X83640Y39744D01*
X83818Y39696D01*
X84003D01*
X84181Y39744D01*
X84340Y39836D01*
X84471Y39966D01*
X84563Y40126D01*
X84611Y40304D01*
Y40488D01*
X84563Y40667D01*
X84520Y40741D01*
X84585Y40854D01*
X84632Y41032D01*
Y41216D01*
X84585Y41394D01*
X84493Y41554D01*
X84362Y41684D01*
X84203Y41776D01*
X84025Y41824D01*
X84023Y41826D01*
X84067Y41991D01*
Y42175D01*
X84065Y42184D01*
X84209Y42223D01*
X84369Y42315D01*
X84499Y42445D01*
X84591Y42605D01*
X84639Y42783D01*
Y42967D01*
X84591Y43145D01*
X84499Y43305D01*
X84369Y43435D01*
X84209Y43527D01*
X84031Y43575D01*
D02*
G37*
G36*
X88017Y39125D02*
X87833D01*
X87655Y39077D01*
X87495Y38985D01*
X87387Y38877D01*
X87280Y38985D01*
X87120Y39077D01*
X86942Y39125D01*
X86758D01*
X86580Y39077D01*
X86420Y38985D01*
X86290Y38855D01*
X86198Y38695D01*
X86150Y38517D01*
Y38333D01*
X86198Y38155D01*
X86290Y37995D01*
X86420Y37865D01*
X86580Y37773D01*
X86758Y37725D01*
X86942D01*
X87120Y37773D01*
X87280Y37865D01*
X87387Y37973D01*
X87495Y37865D01*
X87655Y37773D01*
X87833Y37725D01*
X88017D01*
X88195Y37773D01*
X88355Y37865D01*
X88485Y37995D01*
X88577Y38155D01*
X88625Y38333D01*
Y38517D01*
X88577Y38695D01*
X88485Y38855D01*
X88355Y38985D01*
X88195Y39077D01*
X88017Y39125D01*
D02*
G37*
G36*
X8267Y40100D02*
X8083D01*
X7905Y40052D01*
X7745Y39960D01*
X7615Y39830D01*
X7523Y39670D01*
X7475Y39492D01*
Y39308D01*
X7523Y39130D01*
X7615Y38970D01*
X7745Y38840D01*
X7905Y38748D01*
X8083Y38700D01*
X8267D01*
X8445Y38748D01*
X8605Y38840D01*
X8735Y38970D01*
X8827Y39130D01*
X8875Y39308D01*
Y39492D01*
X8827Y39670D01*
X8735Y39830D01*
X8605Y39960D01*
X8445Y40052D01*
X8267Y40100D01*
D02*
G37*
G36*
X9842Y39150D02*
X9658D01*
X9480Y39102D01*
X9320Y39010D01*
X9190Y38880D01*
X9098Y38720D01*
X9050Y38542D01*
Y38358D01*
X9098Y38180D01*
X9190Y38020D01*
X9320Y37890D01*
X9480Y37798D01*
X9658Y37750D01*
X9842D01*
X10020Y37798D01*
X10180Y37890D01*
X10310Y38020D01*
X10402Y38180D01*
X10450Y38358D01*
Y38542D01*
X10402Y38720D01*
X10310Y38880D01*
X10180Y39010D01*
X10020Y39102D01*
X9842Y39150D01*
D02*
G37*
G36*
X19617Y38425D02*
X19433D01*
X19255Y38377D01*
X19095Y38285D01*
X18965Y38155D01*
X18873Y37995D01*
X18825Y37817D01*
Y37633D01*
X18873Y37455D01*
X18965Y37295D01*
X19095Y37165D01*
X19255Y37073D01*
X19433Y37025D01*
X19617D01*
X19795Y37073D01*
X19955Y37165D01*
X20085Y37295D01*
X20177Y37455D01*
X20225Y37633D01*
Y37817D01*
X20177Y37995D01*
X20085Y38155D01*
X19955Y38285D01*
X19795Y38377D01*
X19617Y38425D01*
D02*
G37*
G36*
X1942Y36475D02*
X1758D01*
X1580Y36427D01*
X1420Y36335D01*
X1290Y36205D01*
X1198Y36045D01*
X1150Y35867D01*
Y35683D01*
X1198Y35505D01*
X1290Y35345D01*
X1420Y35215D01*
X1580Y35123D01*
X1758Y35075D01*
X1942D01*
X2120Y35123D01*
X2280Y35215D01*
X2410Y35345D01*
X2502Y35505D01*
X2550Y35683D01*
Y35867D01*
X2502Y36045D01*
X2410Y36205D01*
X2280Y36335D01*
X2120Y36427D01*
X1942Y36475D01*
D02*
G37*
G36*
X79122Y34425D02*
X78878D01*
X78643Y34362D01*
X78500Y34279D01*
X78357Y34362D01*
X78122Y34425D01*
X77878D01*
X77643Y34362D01*
X77432Y34240D01*
X77335Y34144D01*
X77300Y34164D01*
Y34108D01*
X77260Y34068D01*
X77138Y33857D01*
X77075Y33622D01*
Y33500D01*
Y33378D01*
X77138Y33143D01*
X77260Y32932D01*
X77300Y32892D01*
Y32836D01*
X77335Y32856D01*
X77432Y32760D01*
X77643Y32638D01*
X77878Y32575D01*
X78122D01*
X78357Y32638D01*
X78500Y32721D01*
X78643Y32638D01*
X78878Y32575D01*
X79122D01*
X79357Y32638D01*
X79568Y32760D01*
X79665Y32856D01*
X79700Y32836D01*
Y32892D01*
X79740Y32932D01*
X79862Y33143D01*
X79925Y33378D01*
Y33500D01*
Y33622D01*
X79862Y33857D01*
X79740Y34068D01*
X79700Y34108D01*
Y34164D01*
X79665Y34144D01*
X79568Y34240D01*
X79357Y34362D01*
X79122Y34425D01*
D02*
G37*
G36*
X85122D02*
X84878D01*
X84643Y34362D01*
X84500Y34279D01*
X84357Y34362D01*
X84122Y34425D01*
X83878D01*
X83643Y34362D01*
X83432Y34240D01*
X83335Y34144D01*
X83300Y34164D01*
Y34108D01*
X83260Y34068D01*
X83138Y33857D01*
X83075Y33622D01*
Y33500D01*
Y33378D01*
X83138Y33143D01*
X83260Y32932D01*
X83300Y32892D01*
Y32836D01*
X83335Y32856D01*
X83432Y32760D01*
X83643Y32638D01*
X83878Y32575D01*
X84122D01*
X84357Y32638D01*
X84500Y32721D01*
X84643Y32638D01*
X84878Y32575D01*
X85122D01*
X85357Y32638D01*
X85568Y32760D01*
X85583Y32775D01*
X85700D01*
Y32892D01*
X85740Y32932D01*
X85862Y33143D01*
X85925Y33378D01*
Y33500D01*
Y33622D01*
X85862Y33857D01*
X85740Y34068D01*
X85700Y34108D01*
Y34225D01*
X85583D01*
X85568Y34240D01*
X85357Y34362D01*
X85122Y34425D01*
D02*
G37*
G36*
X82122D02*
X81878D01*
X81643Y34362D01*
X81500Y34279D01*
X81357Y34362D01*
X81122Y34425D01*
X80878D01*
X80643Y34362D01*
X80432Y34240D01*
X80335Y34144D01*
X80300Y34164D01*
Y34108D01*
X80260Y34068D01*
X80138Y33857D01*
X80075Y33622D01*
Y33500D01*
Y33378D01*
X80138Y33143D01*
X80260Y32932D01*
X80300Y32892D01*
Y32836D01*
X80335Y32856D01*
X80432Y32760D01*
X80643Y32638D01*
X80878Y32575D01*
X81122D01*
X81357Y32638D01*
X81500Y32721D01*
X81643Y32638D01*
X81878Y32575D01*
X82122D01*
X82357Y32638D01*
X82568Y32760D01*
X82665Y32856D01*
X82700Y32836D01*
Y32892D01*
X82740Y32932D01*
X82862Y33143D01*
X82925Y33378D01*
Y33500D01*
Y33622D01*
X82862Y33857D01*
X82740Y34068D01*
X82700Y34108D01*
Y34164D01*
X82665Y34144D01*
X82568Y34240D01*
X82357Y34362D01*
X82122Y34425D01*
D02*
G37*
G36*
X76122D02*
X75878D01*
X75643Y34362D01*
X75500Y34279D01*
X75357Y34362D01*
X75122Y34425D01*
X74878D01*
X74643Y34362D01*
X74500Y34279D01*
X74357Y34362D01*
X74122Y34425D01*
X73878D01*
X73643Y34362D01*
X73500Y34279D01*
X73357Y34362D01*
X73122Y34425D01*
X72878D01*
X72643Y34362D01*
X72500Y34279D01*
X72357Y34362D01*
X72122Y34425D01*
X71878D01*
X71643Y34362D01*
X71432Y34240D01*
X71260Y34068D01*
X71138Y33857D01*
X71075Y33622D01*
Y33378D01*
X71138Y33143D01*
X71260Y32932D01*
X71432Y32760D01*
X71643Y32638D01*
X71878Y32575D01*
X72122D01*
X72357Y32638D01*
X72500Y32721D01*
X72643Y32638D01*
X72878Y32575D01*
X73122D01*
X73357Y32638D01*
X73500Y32721D01*
X73643Y32638D01*
X73878Y32575D01*
X74122D01*
X74357Y32638D01*
X74500Y32721D01*
X74643Y32638D01*
X74878Y32575D01*
X75122D01*
X75357Y32638D01*
X75500Y32721D01*
X75643Y32638D01*
X75878Y32575D01*
X76122D01*
X76357Y32638D01*
X76568Y32760D01*
X76665Y32856D01*
X76700Y32836D01*
Y32892D01*
X76740Y32932D01*
X76862Y33143D01*
X76925Y33378D01*
Y33500D01*
Y33622D01*
X76862Y33857D01*
X76740Y34068D01*
X76700Y34108D01*
Y34164D01*
X76665Y34144D01*
X76568Y34240D01*
X76357Y34362D01*
X76122Y34425D01*
D02*
G37*
G36*
X86725Y34225D02*
X86300D01*
Y33800D01*
X86725D01*
Y34225D01*
D02*
G37*
G36*
Y33200D02*
X86300D01*
Y32775D01*
X86725D01*
Y33200D01*
D02*
G37*
G36*
X42307Y36150D02*
X41693D01*
X41087Y36054D01*
X40503Y35864D01*
X39956Y35586D01*
X39459Y35225D01*
X39025Y34791D01*
X38664Y34294D01*
X38386Y33747D01*
X38196Y33163D01*
X38100Y32557D01*
Y31943D01*
X38196Y31337D01*
X38386Y30753D01*
X38664Y30206D01*
X39025Y29709D01*
X39459Y29275D01*
X39956Y28914D01*
X40503Y28636D01*
X41087Y28446D01*
X41693Y28350D01*
X42307D01*
X42913Y28446D01*
X43497Y28636D01*
X44044Y28914D01*
X44541Y29275D01*
X44975Y29709D01*
X45336Y30206D01*
X45614Y30753D01*
X45804Y31337D01*
X45900Y31943D01*
Y32557D01*
X45804Y33163D01*
X45614Y33747D01*
X45336Y34294D01*
X44975Y34791D01*
X44541Y35225D01*
X44044Y35586D01*
X43497Y35864D01*
X42913Y36054D01*
X42307Y36150D01*
D02*
G37*
G36*
X9325D02*
X8711D01*
X8105Y36054D01*
X7521Y35864D01*
X6974Y35586D01*
X6477Y35225D01*
X6043Y34791D01*
X5682Y34294D01*
X5404Y33747D01*
X5214Y33163D01*
X5118Y32557D01*
Y31943D01*
X5214Y31337D01*
X5404Y30753D01*
X5682Y30206D01*
X6043Y29709D01*
X6477Y29275D01*
X6974Y28914D01*
X7521Y28636D01*
X8105Y28446D01*
X8711Y28350D01*
X9325D01*
X9931Y28446D01*
X10515Y28636D01*
X11062Y28914D01*
X11559Y29275D01*
X11993Y29709D01*
X12354Y30206D01*
X12632Y30753D01*
X12822Y31337D01*
X12918Y31943D01*
Y32557D01*
X12822Y33163D01*
X12632Y33747D01*
X12354Y34294D01*
X11993Y34791D01*
X11559Y35225D01*
X11062Y35586D01*
X10515Y35864D01*
X9931Y36054D01*
X9325Y36150D01*
D02*
G37*
G36*
X5913Y26411D02*
X5729D01*
X5551Y26363D01*
X5391Y26271D01*
X5261Y26141D01*
X5169Y25981D01*
X5121Y25803D01*
Y25619D01*
X5169Y25441D01*
X5261Y25281D01*
X5391Y25151D01*
X5551Y25058D01*
X5729Y25011D01*
X5913D01*
X6091Y25058D01*
X6251Y25151D01*
X6381Y25281D01*
X6474Y25441D01*
X6521Y25619D01*
Y25803D01*
X6474Y25981D01*
X6381Y26141D01*
X6251Y26271D01*
X6091Y26363D01*
X5913Y26411D01*
D02*
G37*
G36*
X10430Y24927D02*
Y24455D01*
X10902D01*
X10901Y24457D01*
X10788Y24653D01*
X10628Y24813D01*
X10432Y24926D01*
X10430Y24927D01*
D02*
G37*
G36*
X10902Y23795D02*
X10430D01*
Y23323D01*
X10432Y23324D01*
X10628Y23437D01*
X10788Y23597D01*
X10901Y23793D01*
X10902Y23795D01*
D02*
G37*
G36*
X9890Y25185D02*
X7770D01*
Y23065D01*
X9890D01*
Y23191D01*
X9890Y23191D01*
Y24125D01*
Y25059D01*
X9890Y25059D01*
Y25185D01*
D02*
G37*
G36*
X39630Y23838D02*
Y23050D01*
X40086D01*
Y23150D01*
X40061Y23346D01*
X39985Y23528D01*
X39865Y23685D01*
X39708Y23805D01*
X39630Y23838D01*
D02*
G37*
G36*
X29955D02*
Y23050D01*
X30411D01*
Y23150D01*
X30386Y23346D01*
X30310Y23528D01*
X30190Y23685D01*
X30033Y23805D01*
X29955Y23838D01*
D02*
G37*
G36*
X39030D02*
X38952Y23805D01*
X38795Y23685D01*
X38675Y23528D01*
X38599Y23346D01*
X38574Y23150D01*
Y23050D01*
X39030D01*
Y23838D01*
D02*
G37*
G36*
X29355D02*
X29277Y23805D01*
X29120Y23685D01*
X29000Y23528D01*
X28924Y23346D01*
X28899Y23150D01*
Y23050D01*
X29355D01*
Y23838D01*
D02*
G37*
G36*
X41810Y23487D02*
Y22580D01*
X42388D01*
Y22650D01*
X42357Y22885D01*
X42266Y23104D01*
X42122Y23292D01*
X41934Y23436D01*
X41810Y23487D01*
D02*
G37*
G36*
X37510D02*
Y22580D01*
X38088D01*
Y22650D01*
X38057Y22885D01*
X37966Y23104D01*
X37822Y23292D01*
X37634Y23436D01*
X37510Y23487D01*
D02*
G37*
G36*
X32135D02*
Y22580D01*
X32713D01*
Y22650D01*
X32682Y22885D01*
X32591Y23104D01*
X32447Y23292D01*
X32259Y23436D01*
X32135Y23487D01*
D02*
G37*
G36*
X27835D02*
Y22580D01*
X28413D01*
Y22650D01*
X28382Y22885D01*
X28291Y23104D01*
X28147Y23292D01*
X27959Y23436D01*
X27835Y23487D01*
D02*
G37*
G36*
X41150D02*
X41026Y23436D01*
X40838Y23292D01*
X40694Y23104D01*
X40603Y22885D01*
X40572Y22650D01*
Y22580D01*
X41150D01*
Y23487D01*
D02*
G37*
G36*
X31475D02*
X31351Y23436D01*
X31163Y23292D01*
X31019Y23104D01*
X30928Y22885D01*
X30897Y22650D01*
Y22580D01*
X31475D01*
Y23487D01*
D02*
G37*
G36*
X36850D02*
X36726Y23436D01*
X36538Y23292D01*
X36394Y23104D01*
X36303Y22885D01*
X36272Y22650D01*
Y22580D01*
X36850D01*
Y23487D01*
D02*
G37*
G36*
X27175D02*
X27051Y23436D01*
X26863Y23292D01*
X26719Y23104D01*
X26628Y22885D01*
X26597Y22650D01*
Y22580D01*
X27175D01*
Y23487D01*
D02*
G37*
G36*
X10455Y22377D02*
Y21905D01*
X10927D01*
X10926Y21907D01*
X10813Y22103D01*
X10653Y22263D01*
X10457Y22376D01*
X10455Y22377D01*
D02*
G37*
G36*
X40086Y22450D02*
X39630D01*
Y21662D01*
X39708Y21695D01*
X39865Y21815D01*
X39985Y21972D01*
X40061Y22154D01*
X40086Y22350D01*
Y22450D01*
D02*
G37*
G36*
X30411D02*
X29955D01*
Y21662D01*
X30033Y21695D01*
X30190Y21815D01*
X30310Y21972D01*
X30386Y22154D01*
X30411Y22350D01*
Y22450D01*
D02*
G37*
G36*
X39030D02*
X38574D01*
Y22350D01*
X38599Y22154D01*
X38675Y21972D01*
X38795Y21815D01*
X38952Y21695D01*
X39030Y21662D01*
Y22450D01*
D02*
G37*
G36*
X29355D02*
X28899D01*
Y22350D01*
X28924Y22154D01*
X29000Y21972D01*
X29120Y21815D01*
X29277Y21695D01*
X29355Y21662D01*
Y22450D01*
D02*
G37*
G36*
X20425Y22950D02*
X20175D01*
X19933Y22885D01*
X19717Y22760D01*
X19540Y22583D01*
X19415Y22367D01*
X19350Y22125D01*
Y21875D01*
X19415Y21633D01*
X19540Y21417D01*
X19717Y21240D01*
X19933Y21115D01*
X20175Y21050D01*
X20425D01*
X20667Y21115D01*
X20883Y21240D01*
X21060Y21417D01*
X21185Y21633D01*
X21250Y21875D01*
Y22125D01*
X21185Y22367D01*
X21060Y22583D01*
X20883Y22760D01*
X20667Y22885D01*
X20425Y22950D01*
D02*
G37*
G36*
X32713Y21920D02*
X32135D01*
Y21013D01*
X32259Y21064D01*
X32447Y21208D01*
X32591Y21396D01*
X32682Y21615D01*
X32713Y21850D01*
Y21920D01*
D02*
G37*
G36*
X28413D02*
X27835D01*
Y21013D01*
X27959Y21064D01*
X28147Y21208D01*
X28291Y21396D01*
X28382Y21615D01*
X28413Y21850D01*
Y21920D01*
D02*
G37*
G36*
X42388D02*
X41810D01*
Y21013D01*
X41934Y21064D01*
X42122Y21208D01*
X42266Y21396D01*
X42357Y21615D01*
X42388Y21850D01*
Y21920D01*
D02*
G37*
G36*
X38088D02*
X37510D01*
Y21013D01*
X37634Y21064D01*
X37822Y21208D01*
X37966Y21396D01*
X38057Y21615D01*
X38088Y21850D01*
Y21920D01*
D02*
G37*
G36*
X41150D02*
X40572D01*
Y21850D01*
X40603Y21615D01*
X40694Y21396D01*
X40838Y21208D01*
X41026Y21064D01*
X41150Y21013D01*
Y21920D01*
D02*
G37*
G36*
X36850D02*
X36272D01*
Y21850D01*
X36303Y21615D01*
X36394Y21396D01*
X36538Y21208D01*
X36726Y21064D01*
X36850Y21013D01*
Y21920D01*
D02*
G37*
G36*
X31475D02*
X30897D01*
Y21850D01*
X30928Y21615D01*
X31019Y21396D01*
X31163Y21208D01*
X31351Y21064D01*
X31475Y21013D01*
Y21920D01*
D02*
G37*
G36*
X27175D02*
X26597D01*
Y21850D01*
X26628Y21615D01*
X26719Y21396D01*
X26863Y21208D01*
X27051Y21064D01*
X27175Y21013D01*
Y21920D01*
D02*
G37*
G36*
X10927Y21245D02*
X10455D01*
Y20773D01*
X10457Y20774D01*
X10653Y20887D01*
X10813Y21047D01*
X10926Y21243D01*
X10927Y21245D01*
D02*
G37*
G36*
X9915Y22635D02*
X7795D01*
Y20515D01*
X9915D01*
Y20641D01*
X9915Y20641D01*
Y21575D01*
Y22509D01*
X9915Y22509D01*
Y22635D01*
D02*
G37*
G36*
X24792Y21500D02*
X24608D01*
X24430Y21452D01*
X24270Y21360D01*
X24140Y21230D01*
X24048Y21070D01*
X24000Y20892D01*
Y20708D01*
X24048Y20530D01*
X24140Y20370D01*
X24270Y20240D01*
X24430Y20148D01*
X24608Y20100D01*
X24792D01*
X24970Y20148D01*
X25130Y20240D01*
X25260Y20370D01*
X25352Y20530D01*
X25400Y20708D01*
Y20892D01*
X25352Y21070D01*
X25260Y21230D01*
X25130Y21360D01*
X24970Y21452D01*
X24792Y21500D01*
D02*
G37*
G36*
X43667Y22250D02*
X43483D01*
X43305Y22202D01*
X43145Y22110D01*
X43015Y21980D01*
X42923Y21820D01*
X42875Y21642D01*
Y21458D01*
X42923Y21280D01*
X43012Y21125D01*
X42923Y20970D01*
X42875Y20792D01*
Y20608D01*
X42923Y20430D01*
X43015Y20270D01*
X43145Y20140D01*
X43305Y20048D01*
X43483Y20000D01*
X43667D01*
X43845Y20048D01*
X44005Y20140D01*
X44135Y20270D01*
X44227Y20430D01*
X44275Y20608D01*
Y20792D01*
X44227Y20970D01*
X44138Y21125D01*
X44227Y21280D01*
X44275Y21458D01*
Y21642D01*
X44227Y21820D01*
X44135Y21980D01*
X44005Y22110D01*
X43845Y22202D01*
X43667Y22250D01*
D02*
G37*
G36*
X50192Y21125D02*
X50008D01*
X49830Y21077D01*
X49670Y20985D01*
X49540Y20855D01*
X49448Y20695D01*
X49400Y20517D01*
Y20333D01*
X49448Y20155D01*
X49540Y19995D01*
X49670Y19865D01*
X49830Y19773D01*
X50008Y19725D01*
X50192D01*
X50370Y19773D01*
X50530Y19865D01*
X50660Y19995D01*
X50752Y20155D01*
X50800Y20333D01*
Y20517D01*
X50752Y20695D01*
X50660Y20855D01*
X50530Y20985D01*
X50370Y21077D01*
X50192Y21125D01*
D02*
G37*
G36*
X18055Y21075D02*
X17870D01*
X17692Y21027D01*
X17533Y20935D01*
X17402Y20805D01*
X17310Y20645D01*
X17263Y20467D01*
Y20283D01*
X17310Y20105D01*
X17402Y19945D01*
X17533Y19815D01*
X17692Y19723D01*
X17870Y19675D01*
X18055D01*
X18233Y19723D01*
X18392Y19815D01*
X18523Y19945D01*
X18615Y20105D01*
X18663Y20283D01*
Y20467D01*
X18615Y20645D01*
X18523Y20805D01*
X18392Y20935D01*
X18233Y21027D01*
X18055Y21075D01*
D02*
G37*
G36*
X34642Y21875D02*
X34458D01*
X34280Y21827D01*
X34120Y21735D01*
X33990Y21605D01*
X33898Y21445D01*
X33850Y21267D01*
Y21083D01*
X33898Y20905D01*
X33987Y20750D01*
X33898Y20595D01*
X33850Y20417D01*
Y20233D01*
X33898Y20055D01*
X33990Y19895D01*
X34120Y19765D01*
X34280Y19673D01*
X34458Y19625D01*
X34642D01*
X34820Y19673D01*
X34980Y19765D01*
X35110Y19895D01*
X35202Y20055D01*
X35250Y20233D01*
Y20417D01*
X35202Y20595D01*
X35113Y20750D01*
X35202Y20905D01*
X35250Y21083D01*
Y21267D01*
X35202Y21445D01*
X35110Y21605D01*
X34980Y21735D01*
X34820Y21827D01*
X34642Y21875D01*
D02*
G37*
G36*
X6014Y20079D02*
X5829D01*
X5651Y20032D01*
X5492Y19940D01*
X5361Y19809D01*
X5269Y19650D01*
X5222Y19472D01*
Y19287D01*
X5269Y19109D01*
X5361Y18950D01*
X5492Y18819D01*
X5651Y18727D01*
X5829Y18679D01*
X6014D01*
X6192Y18727D01*
X6351Y18819D01*
X6482Y18950D01*
X6574Y19109D01*
X6622Y19287D01*
Y19472D01*
X6574Y19650D01*
X6482Y19809D01*
X6351Y19940D01*
X6192Y20032D01*
X6014Y20079D01*
D02*
G37*
G36*
X27492Y19875D02*
X27308D01*
X27130Y19827D01*
X26970Y19735D01*
X26840Y19605D01*
X26748Y19445D01*
X26700Y19267D01*
Y19083D01*
X26748Y18905D01*
X26801Y18812D01*
X26748Y18720D01*
X26700Y18542D01*
Y18358D01*
X26748Y18180D01*
X26840Y18020D01*
X26970Y17890D01*
X27130Y17798D01*
X27308Y17750D01*
X27492D01*
X27670Y17798D01*
X27830Y17890D01*
X27960Y18020D01*
X28052Y18180D01*
X28100Y18358D01*
Y18542D01*
X28052Y18720D01*
X27999Y18812D01*
X28052Y18905D01*
X28100Y19083D01*
Y19267D01*
X28052Y19445D01*
X27960Y19605D01*
X27830Y19735D01*
X27670Y19827D01*
X27492Y19875D01*
D02*
G37*
G36*
X37617Y19863D02*
X37433D01*
X37255Y19815D01*
X37095Y19723D01*
X36965Y19592D01*
X36873Y19433D01*
X36825Y19255D01*
Y19070D01*
X36873Y18892D01*
X36926Y18800D01*
X36873Y18708D01*
X36825Y18530D01*
Y18345D01*
X36873Y18167D01*
X36965Y18008D01*
X37095Y17877D01*
X37255Y17785D01*
X37433Y17738D01*
X37617D01*
X37795Y17785D01*
X37955Y17877D01*
X38085Y18008D01*
X38177Y18167D01*
X38225Y18345D01*
Y18530D01*
X38177Y18708D01*
X38124Y18800D01*
X38177Y18892D01*
X38225Y19070D01*
Y19255D01*
X38177Y19433D01*
X38085Y19592D01*
X37955Y19723D01*
X37795Y19815D01*
X37617Y19863D01*
D02*
G37*
G36*
X41267D02*
X41083D01*
X40905Y19815D01*
X40745Y19723D01*
X40615Y19592D01*
X40523Y19433D01*
X40475Y19255D01*
Y19070D01*
X40523Y18892D01*
X40575Y18801D01*
X40520Y18705D01*
X40472Y18527D01*
Y18342D01*
X40520Y18164D01*
X40612Y18005D01*
X40742Y17874D01*
X40902Y17782D01*
X41080Y17734D01*
X41264D01*
X41442Y17782D01*
X41602Y17874D01*
X41732Y18005D01*
X41824Y18164D01*
X41872Y18342D01*
Y18527D01*
X41824Y18705D01*
X41772Y18796D01*
X41827Y18892D01*
X41875Y19070D01*
Y19255D01*
X41827Y19433D01*
X41735Y19592D01*
X41605Y19723D01*
X41445Y19815D01*
X41267Y19863D01*
D02*
G37*
G36*
X31792Y19850D02*
X31608D01*
X31430Y19802D01*
X31270Y19710D01*
X31140Y19580D01*
X31048Y19420D01*
X31000Y19242D01*
Y19058D01*
X31048Y18880D01*
X31101Y18788D01*
X31048Y18695D01*
X31000Y18517D01*
Y18333D01*
X31048Y18155D01*
X31060Y18133D01*
X31020Y18110D01*
X30890Y17980D01*
X30798Y17820D01*
X30750Y17642D01*
Y17458D01*
X30798Y17280D01*
X30890Y17120D01*
X31020Y16990D01*
X31180Y16898D01*
X31358Y16850D01*
X31542D01*
X31720Y16898D01*
X31880Y16990D01*
X32010Y17120D01*
X32102Y17280D01*
X32150Y17458D01*
Y17642D01*
X32102Y17820D01*
X32090Y17842D01*
X32130Y17865D01*
X32260Y17995D01*
X32352Y18155D01*
X32400Y18333D01*
Y18517D01*
X32352Y18695D01*
X32299Y18788D01*
X32352Y18880D01*
X32400Y19058D01*
Y19242D01*
X32352Y19420D01*
X32260Y19580D01*
X32130Y19710D01*
X31970Y19802D01*
X31792Y19850D01*
D02*
G37*
G36*
X18055Y18225D02*
X17870D01*
X17692Y18177D01*
X17533Y18085D01*
X17402Y17955D01*
X17310Y17795D01*
X17263Y17617D01*
Y17433D01*
X17310Y17255D01*
X17402Y17095D01*
X17533Y16965D01*
X17692Y16873D01*
X17870Y16825D01*
X18055D01*
X18233Y16873D01*
X18392Y16965D01*
X18523Y17095D01*
X18615Y17255D01*
X18663Y17433D01*
Y17617D01*
X18615Y17795D01*
X18523Y17955D01*
X18392Y18085D01*
X18233Y18177D01*
X18055Y18225D01*
D02*
G37*
G36*
X14525Y17400D02*
X14275D01*
X14033Y17335D01*
X13817Y17210D01*
X13640Y17033D01*
X13515Y16817D01*
X13487Y16712D01*
X13355D01*
X13327Y16817D01*
X13202Y17033D01*
X13025Y17210D01*
X12808Y17335D01*
X12567Y17400D01*
X12317D01*
X12075Y17335D01*
X11858Y17210D01*
X11681Y17033D01*
X11556Y16817D01*
X11528Y16712D01*
X11397D01*
X11369Y16817D01*
X11244Y17033D01*
X11067Y17210D01*
X10850Y17335D01*
X10608Y17400D01*
X10358D01*
X10117Y17335D01*
X9900Y17210D01*
X9723Y17033D01*
X9598Y16817D01*
X9570Y16712D01*
X9438D01*
X9410Y16817D01*
X9285Y17033D01*
X9108Y17210D01*
X8892Y17335D01*
X8650Y17400D01*
X8400D01*
X8158Y17335D01*
X7942Y17210D01*
X7765Y17033D01*
X7640Y16817D01*
X7575Y16575D01*
Y16325D01*
X7640Y16083D01*
X7765Y15867D01*
X7942Y15690D01*
X8035Y15636D01*
Y15489D01*
X7942Y15435D01*
X7765Y15258D01*
X7640Y15042D01*
X7575Y14800D01*
Y14550D01*
X7640Y14308D01*
X7765Y14092D01*
X7942Y13915D01*
X8158Y13790D01*
X8400Y13725D01*
X8650D01*
X8892Y13790D01*
X9108Y13915D01*
X9285Y14092D01*
X9410Y14308D01*
X9438Y14413D01*
X9570D01*
X9598Y14308D01*
X9723Y14092D01*
X9900Y13915D01*
X10117Y13790D01*
X10358Y13725D01*
X10608D01*
X10850Y13790D01*
X11067Y13915D01*
X11244Y14092D01*
X11369Y14308D01*
X11397Y14413D01*
X11528D01*
X11556Y14308D01*
X11681Y14092D01*
X11858Y13915D01*
X12075Y13790D01*
X12317Y13725D01*
X12567D01*
X12808Y13790D01*
X13025Y13915D01*
X13202Y14092D01*
X13327Y14308D01*
X13355Y14413D01*
X13487D01*
X13515Y14308D01*
X13640Y14092D01*
X13817Y13915D01*
X14033Y13790D01*
X14275Y13725D01*
X14525D01*
X14767Y13790D01*
X14983Y13915D01*
X15160Y14092D01*
X15285Y14308D01*
X15350Y14550D01*
Y14800D01*
X15285Y15042D01*
X15160Y15258D01*
X14983Y15435D01*
X14890Y15489D01*
Y15636D01*
X14983Y15690D01*
X15160Y15867D01*
X15285Y16083D01*
X15350Y16325D01*
Y16575D01*
X15285Y16817D01*
X15160Y17033D01*
X14983Y17210D01*
X14767Y17335D01*
X14525Y17400D01*
D02*
G37*
G36*
X43317Y18000D02*
X43133D01*
X42955Y17952D01*
X42795Y17860D01*
X42665Y17730D01*
X42573Y17570D01*
X42525Y17392D01*
Y17208D01*
X42573Y17030D01*
X42665Y16870D01*
X42682Y16853D01*
X42606Y16720D01*
X42558Y16542D01*
Y16358D01*
X42606Y16180D01*
X42698Y16020D01*
X42828Y15890D01*
X42988Y15798D01*
X43166Y15750D01*
X43350D01*
X43528Y15798D01*
X43688Y15890D01*
X43818Y16020D01*
X43910Y16180D01*
X43958Y16358D01*
Y16542D01*
X43910Y16720D01*
X43818Y16880D01*
X43801Y16897D01*
X43877Y17030D01*
X43925Y17208D01*
Y17392D01*
X43877Y17570D01*
X43785Y17730D01*
X43655Y17860D01*
X43495Y17952D01*
X43317Y18000D01*
D02*
G37*
G36*
X41810Y16587D02*
Y15680D01*
X42388D01*
Y15750D01*
X42357Y15985D01*
X42266Y16204D01*
X42122Y16392D01*
X41934Y16536D01*
X41810Y16587D01*
D02*
G37*
G36*
X37510D02*
Y15680D01*
X38088D01*
Y15750D01*
X38057Y15985D01*
X37966Y16204D01*
X37822Y16392D01*
X37634Y16536D01*
X37510Y16587D01*
D02*
G37*
G36*
X32135D02*
Y15680D01*
X32713D01*
Y15750D01*
X32682Y15985D01*
X32591Y16204D01*
X32447Y16392D01*
X32259Y16536D01*
X32135Y16587D01*
D02*
G37*
G36*
X27835D02*
Y15680D01*
X28413D01*
Y15750D01*
X28382Y15985D01*
X28291Y16204D01*
X28147Y16392D01*
X27959Y16536D01*
X27835Y16587D01*
D02*
G37*
G36*
X41150D02*
X41026Y16536D01*
X40838Y16392D01*
X40694Y16204D01*
X40603Y15985D01*
X40572Y15750D01*
Y15680D01*
X41150D01*
Y16587D01*
D02*
G37*
G36*
X36216Y17950D02*
X36032D01*
X35854Y17902D01*
X35695Y17810D01*
X35564Y17679D01*
X35472Y17520D01*
X35424Y17342D01*
Y17157D01*
X35472Y16979D01*
X35513Y16908D01*
X35448Y16795D01*
X35400Y16617D01*
Y16433D01*
X35448Y16255D01*
X35540Y16095D01*
X35670Y15965D01*
X35830Y15873D01*
X36008Y15825D01*
X36154D01*
X36225Y15780D01*
X36272Y15715D01*
Y15680D01*
X36850D01*
Y16655D01*
X36779Y16696D01*
X36752Y16795D01*
X36711Y16866D01*
X36777Y16979D01*
X36824Y17157D01*
Y17342D01*
X36777Y17520D01*
X36684Y17679D01*
X36554Y17810D01*
X36395Y17902D01*
X36216Y17950D01*
D02*
G37*
G36*
X31475Y16587D02*
X31351Y16536D01*
X31163Y16392D01*
X31019Y16204D01*
X30928Y15985D01*
X30897Y15750D01*
Y15680D01*
X31475D01*
Y16587D01*
D02*
G37*
G36*
X27175D02*
X27051Y16536D01*
X26863Y16392D01*
X26719Y16204D01*
X26628Y15985D01*
X26597Y15750D01*
Y15680D01*
X27175D01*
Y16587D01*
D02*
G37*
G36*
X52092Y17075D02*
X51908D01*
X51730Y17027D01*
X51570Y16935D01*
X51440Y16805D01*
X51348Y16645D01*
X51300Y16467D01*
Y16283D01*
X51348Y16105D01*
X51440Y15945D01*
X51570Y15815D01*
X51730Y15723D01*
X51908Y15675D01*
X52092D01*
X52270Y15723D01*
X52430Y15815D01*
X52560Y15945D01*
X52652Y16105D01*
X52700Y16283D01*
Y16467D01*
X52652Y16645D01*
X52560Y16805D01*
X52430Y16935D01*
X52270Y17027D01*
X52092Y17075D01*
D02*
G37*
G36*
X39630Y15938D02*
Y15150D01*
X40086D01*
Y15250D01*
X40061Y15446D01*
X39985Y15628D01*
X39865Y15785D01*
X39708Y15905D01*
X39630Y15938D01*
D02*
G37*
G36*
X29955D02*
Y15150D01*
X30411D01*
Y15250D01*
X30386Y15446D01*
X30310Y15628D01*
X30190Y15785D01*
X30033Y15905D01*
X29955Y15938D01*
D02*
G37*
G36*
X39030D02*
X38952Y15905D01*
X38795Y15785D01*
X38675Y15628D01*
X38599Y15446D01*
X38574Y15250D01*
Y15150D01*
X39030D01*
Y15938D01*
D02*
G37*
G36*
X29355D02*
X29277Y15905D01*
X29120Y15785D01*
X29000Y15628D01*
X28924Y15446D01*
X28899Y15250D01*
Y15150D01*
X29355D01*
Y15938D01*
D02*
G37*
G36*
X20425Y16850D02*
X20175D01*
X19933Y16785D01*
X19717Y16660D01*
X19540Y16483D01*
X19415Y16267D01*
X19350Y16025D01*
Y15775D01*
X19415Y15533D01*
X19540Y15317D01*
X19717Y15140D01*
X19933Y15015D01*
X20175Y14950D01*
X20425D01*
X20667Y15015D01*
X20883Y15140D01*
X21060Y15317D01*
X21185Y15533D01*
X21250Y15775D01*
Y16025D01*
X21185Y16267D01*
X21060Y16483D01*
X20883Y16660D01*
X20667Y16785D01*
X20425Y16850D01*
D02*
G37*
G36*
X42388Y15020D02*
X41810D01*
Y14113D01*
X41934Y14164D01*
X42122Y14308D01*
X42266Y14496D01*
X42357Y14715D01*
X42388Y14950D01*
Y15020D01*
D02*
G37*
G36*
X38088D02*
X37510D01*
Y14113D01*
X37634Y14164D01*
X37822Y14308D01*
X37966Y14496D01*
X38057Y14715D01*
X38088Y14950D01*
Y15020D01*
D02*
G37*
G36*
X32713D02*
X32135D01*
Y14113D01*
X32259Y14164D01*
X32447Y14308D01*
X32591Y14496D01*
X32682Y14715D01*
X32713Y14950D01*
Y15020D01*
D02*
G37*
G36*
X28413D02*
X27835D01*
Y14113D01*
X27959Y14164D01*
X28147Y14308D01*
X28291Y14496D01*
X28382Y14715D01*
X28413Y14950D01*
Y15020D01*
D02*
G37*
G36*
X41150D02*
X40572D01*
Y14950D01*
X40603Y14715D01*
X40694Y14496D01*
X40838Y14308D01*
X41026Y14164D01*
X41150Y14113D01*
Y15020D01*
D02*
G37*
G36*
X36850D02*
X36272D01*
Y14950D01*
X36303Y14715D01*
X36394Y14496D01*
X36538Y14308D01*
X36726Y14164D01*
X36850Y14113D01*
Y15020D01*
D02*
G37*
G36*
X31475D02*
X30897D01*
Y14950D01*
X30928Y14715D01*
X31019Y14496D01*
X31163Y14308D01*
X31351Y14164D01*
X31475Y14113D01*
Y15020D01*
D02*
G37*
G36*
X27175D02*
X26597D01*
Y14950D01*
X26628Y14715D01*
X26719Y14496D01*
X26863Y14308D01*
X27051Y14164D01*
X27175Y14113D01*
Y15020D01*
D02*
G37*
G36*
X40086Y14550D02*
X39630D01*
Y13762D01*
X39708Y13795D01*
X39865Y13915D01*
X39985Y14072D01*
X40061Y14254D01*
X40086Y14450D01*
Y14550D01*
D02*
G37*
G36*
X30411D02*
X29955D01*
Y13762D01*
X30033Y13795D01*
X30190Y13915D01*
X30310Y14072D01*
X30386Y14254D01*
X30411Y14450D01*
Y14550D01*
D02*
G37*
G36*
X29355D02*
X28899D01*
Y14450D01*
X28924Y14254D01*
X29000Y14072D01*
X29120Y13915D01*
X29277Y13795D01*
X29355Y13762D01*
Y14550D01*
D02*
G37*
G36*
X39030D02*
X38574D01*
Y14450D01*
X38599Y14254D01*
X38675Y14072D01*
X38795Y13915D01*
X38952Y13795D01*
X39030Y13762D01*
Y14550D01*
D02*
G37*
G36*
X14700Y13493D02*
Y13100D01*
X15093D01*
X15000Y13261D01*
X14861Y13400D01*
X14700Y13493D01*
D02*
G37*
G36*
X14100D02*
X13939Y13400D01*
X13800Y13261D01*
X13707Y13100D01*
X14100D01*
Y13493D01*
D02*
G37*
G36*
X5913Y13959D02*
X5729D01*
X5551Y13911D01*
X5391Y13819D01*
X5261Y13689D01*
X5169Y13529D01*
X5121Y13351D01*
Y13167D01*
X5169Y12989D01*
X5261Y12829D01*
X5391Y12699D01*
X5551Y12606D01*
X5729Y12559D01*
X5913D01*
X6091Y12606D01*
X6251Y12699D01*
X6381Y12829D01*
X6474Y12989D01*
X6521Y13167D01*
Y13351D01*
X6474Y13529D01*
X6381Y13689D01*
X6251Y13819D01*
X6091Y13911D01*
X5913Y13959D01*
D02*
G37*
G36*
X15093Y12500D02*
X14700D01*
Y12107D01*
X14861Y12200D01*
X15000Y12339D01*
X15093Y12500D01*
D02*
G37*
G36*
X14100D02*
X13707D01*
X13800Y12339D01*
X13939Y12200D01*
X14100Y12107D01*
Y12500D01*
D02*
G37*
G36*
X37775Y13625D02*
X37525D01*
X37283Y13560D01*
X37067Y13435D01*
X36890Y13258D01*
X36765Y13042D01*
X36700Y12800D01*
Y12550D01*
X36765Y12308D01*
X36890Y12092D01*
X37067Y11915D01*
X37283Y11790D01*
X37525Y11725D01*
X37775D01*
X38017Y11790D01*
X38233Y11915D01*
X38410Y12092D01*
X38535Y12308D01*
X38600Y12550D01*
Y12800D01*
X38535Y13042D01*
X38410Y13258D01*
X38233Y13435D01*
X38017Y13560D01*
X37775Y13625D01*
D02*
G37*
G36*
X47317Y11611D02*
X47133D01*
X46955Y11563D01*
X46795Y11471D01*
X46665Y11341D01*
X46573Y11181D01*
X46525Y11003D01*
Y10819D01*
X46573Y10641D01*
X46665Y10481D01*
X46795Y10351D01*
X46955Y10259D01*
X47133Y10211D01*
X47317D01*
X47495Y10259D01*
X47655Y10351D01*
X47785Y10481D01*
X47877Y10641D01*
X47925Y10819D01*
Y11003D01*
X47877Y11181D01*
X47785Y11341D01*
X47655Y11471D01*
X47495Y11563D01*
X47317Y11611D01*
D02*
G37*
G36*
X7363Y10064D02*
X7179D01*
X7001Y10016D01*
X6841Y9924D01*
X6711Y9794D01*
X6619Y9634D01*
X6571Y9456D01*
Y9272D01*
X6619Y9094D01*
X6711Y8934D01*
X6841Y8804D01*
X7001Y8711D01*
X7179Y8664D01*
X7363D01*
X7541Y8711D01*
X7701Y8804D01*
X7831Y8934D01*
X7924Y9094D01*
X7971Y9272D01*
Y9456D01*
X7924Y9634D01*
X7831Y9794D01*
X7701Y9924D01*
X7541Y10016D01*
X7363Y10064D01*
D02*
G37*
G36*
X43100Y9150D02*
X42850D01*
X42608Y9085D01*
X42392Y8960D01*
X42215Y8783D01*
X42090Y8567D01*
X42025Y8325D01*
Y8075D01*
X42090Y7833D01*
X42215Y7617D01*
X42392Y7440D01*
X42608Y7315D01*
X42850Y7250D01*
X43100D01*
X43342Y7315D01*
X43558Y7440D01*
X43735Y7617D01*
X43860Y7833D01*
X43925Y8075D01*
Y8325D01*
X43860Y8567D01*
X43735Y8783D01*
X43558Y8960D01*
X43342Y9085D01*
X43100Y9150D01*
D02*
G37*
G36*
X11485Y8057D02*
X11300D01*
X11122Y8009D01*
X10963Y7917D01*
X10832Y7787D01*
X10740Y7627D01*
X10693Y7449D01*
Y7265D01*
X10740Y7087D01*
X10832Y6927D01*
X10963Y6797D01*
X11122Y6705D01*
X11300Y6657D01*
X11485D01*
X11663Y6705D01*
X11822Y6797D01*
X11953Y6927D01*
X12045Y7087D01*
X12093Y7265D01*
Y7449D01*
X12045Y7627D01*
X11953Y7787D01*
X11822Y7917D01*
X11663Y8009D01*
X11485Y8057D01*
D02*
G37*
G36*
X37742Y7525D02*
X37558D01*
X37380Y7477D01*
X37220Y7385D01*
X37090Y7255D01*
X36998Y7095D01*
X36950Y6917D01*
Y6733D01*
X36998Y6555D01*
X37090Y6395D01*
X37220Y6265D01*
X37380Y6173D01*
X37558Y6125D01*
X37742D01*
X37920Y6173D01*
X38080Y6265D01*
X38210Y6395D01*
X38302Y6555D01*
X38350Y6733D01*
Y6917D01*
X38302Y7095D01*
X38210Y7255D01*
X38080Y7385D01*
X37920Y7477D01*
X37742Y7525D01*
D02*
G37*
G36*
X17242Y6825D02*
X17058D01*
X16880Y6777D01*
X16720Y6685D01*
X16590Y6555D01*
X16498Y6395D01*
X16450Y6217D01*
Y6033D01*
X16498Y5855D01*
X16590Y5695D01*
X16720Y5565D01*
X16880Y5473D01*
X17058Y5425D01*
X17242D01*
X17420Y5473D01*
X17580Y5565D01*
X17710Y5695D01*
X17802Y5855D01*
X17850Y6033D01*
Y6217D01*
X17802Y6395D01*
X17710Y6555D01*
X17580Y6685D01*
X17420Y6777D01*
X17242Y6825D01*
D02*
G37*
G36*
X47128Y6596D02*
X46944D01*
X46766Y6549D01*
X46606Y6456D01*
X46476Y6326D01*
X46384Y6166D01*
X46336Y5988D01*
Y5804D01*
X46384Y5626D01*
X46476Y5466D01*
X46606Y5336D01*
X46766Y5244D01*
X46944Y5196D01*
X47128D01*
X47306Y5244D01*
X47466Y5336D01*
X47596Y5466D01*
X47689Y5626D01*
X47736Y5804D01*
Y5988D01*
X47689Y6166D01*
X47596Y6326D01*
X47466Y6456D01*
X47306Y6549D01*
X47128Y6596D01*
D02*
G37*
G36*
X53142Y6525D02*
X52958D01*
X52780Y6477D01*
X52620Y6385D01*
X52490Y6255D01*
X52398Y6095D01*
X52350Y5917D01*
Y5733D01*
X52398Y5555D01*
X52490Y5395D01*
X52620Y5265D01*
X52780Y5173D01*
X52958Y5125D01*
X53142D01*
X53320Y5173D01*
X53480Y5265D01*
X53610Y5395D01*
X53702Y5555D01*
X53750Y5733D01*
Y5917D01*
X53702Y6095D01*
X53610Y6255D01*
X53480Y6385D01*
X53320Y6477D01*
X53142Y6525D01*
D02*
G37*
G36*
X35138Y6521D02*
X34954D01*
X34776Y6474D01*
X34616Y6381D01*
X34486Y6251D01*
X34394Y6091D01*
X34346Y5913D01*
Y5729D01*
X34394Y5551D01*
X34486Y5391D01*
X34616Y5261D01*
X34776Y5169D01*
X34954Y5121D01*
X35138D01*
X35316Y5169D01*
X35476Y5261D01*
X35606Y5391D01*
X35699Y5551D01*
X35746Y5729D01*
Y5913D01*
X35699Y6091D01*
X35606Y6251D01*
X35476Y6381D01*
X35316Y6474D01*
X35138Y6521D01*
D02*
G37*
G36*
X29138D02*
X28954D01*
X28776Y6474D01*
X28616Y6381D01*
X28486Y6251D01*
X28394Y6091D01*
X28346Y5913D01*
Y5729D01*
X28394Y5551D01*
X28486Y5391D01*
X28616Y5261D01*
X28776Y5169D01*
X28954Y5121D01*
X29138D01*
X29316Y5169D01*
X29476Y5261D01*
X29606Y5391D01*
X29699Y5551D01*
X29746Y5729D01*
Y5913D01*
X29699Y6091D01*
X29606Y6251D01*
X29476Y6381D01*
X29316Y6474D01*
X29138Y6521D01*
D02*
G37*
G36*
X23138D02*
X22954D01*
X22776Y6474D01*
X22616Y6381D01*
X22486Y6251D01*
X22394Y6091D01*
X22346Y5913D01*
Y5729D01*
X22394Y5551D01*
X22486Y5391D01*
X22616Y5261D01*
X22776Y5169D01*
X22954Y5121D01*
X23138D01*
X23316Y5169D01*
X23476Y5261D01*
X23606Y5391D01*
X23699Y5551D01*
X23746Y5729D01*
Y5913D01*
X23699Y6091D01*
X23606Y6251D01*
X23476Y6381D01*
X23316Y6474D01*
X23138Y6521D01*
D02*
G37*
G36*
X41131Y6488D02*
X40947D01*
X40769Y6441D01*
X40609Y6348D01*
X40479Y6218D01*
X40386Y6058D01*
X40339Y5880D01*
Y5696D01*
X40386Y5518D01*
X40479Y5358D01*
X40609Y5228D01*
X40769Y5136D01*
X40947Y5088D01*
X41131D01*
X41309Y5136D01*
X41469Y5228D01*
X41599Y5358D01*
X41691Y5518D01*
X41739Y5696D01*
Y5880D01*
X41691Y6058D01*
X41599Y6218D01*
X41469Y6348D01*
X41309Y6441D01*
X41131Y6488D01*
D02*
G37*
%LPD*%
D142*
X39330Y22750D02*
D03*
Y14850D02*
D03*
X29655D02*
D03*
Y22750D02*
D03*
D143*
X41480Y15350D02*
D03*
Y22250D02*
D03*
X37180D02*
D03*
Y15350D02*
D03*
X27505D02*
D03*
Y22250D02*
D03*
X31805D02*
D03*
Y15350D02*
D03*
D145*
X61620Y101960D02*
D03*
Y104500D02*
D03*
X16800Y116200D02*
D03*
D146*
X55525Y117440D02*
D03*
D147*
X90120Y49775D02*
D03*
X87580D02*
D03*
X49553Y56298D02*
D03*
Y70298D02*
D03*
D148*
X77000Y33500D02*
D03*
X83000D02*
D03*
X80000D02*
D03*
X81000Y100096D02*
D03*
X75000D02*
D03*
X78000D02*
D03*
D149*
X86000Y33500D02*
D03*
X72000Y100096D02*
D03*
D152*
X14400Y12800D02*
D03*
D153*
X10100Y24125D02*
D03*
X10125Y21575D02*
D03*
X21155Y85650D02*
D03*
D158*
X26500Y125375D02*
D03*
X28700D02*
D03*
X30900D02*
D03*
X27600Y124275D02*
D03*
X29800D02*
D03*
X26500Y123175D02*
D03*
X28700D02*
D03*
X30900D02*
D03*
X27600Y122075D02*
D03*
X29800D02*
D03*
X26500Y120975D02*
D03*
X28700D02*
D03*
X30900D02*
D03*
X16100Y95650D02*
D03*
X14250Y106450D02*
D03*
X74900Y59100D02*
D03*
X19200Y97725D02*
D03*
X17025Y95600D02*
D03*
X38672Y49880D02*
D03*
X44100Y17250D02*
D03*
X37766Y50434D02*
D03*
X47000Y28500D02*
D03*
Y29900D02*
D03*
Y31300D02*
D03*
X34600Y54300D02*
D03*
X36500Y55900D02*
D03*
X36600Y58300D02*
D03*
X35400Y57200D02*
D03*
X24900Y17600D02*
D03*
X22900Y100550D02*
D03*
X23700Y100600D02*
D03*
X12900Y49000D02*
D03*
X39700Y123800D02*
D03*
X40875Y122625D02*
D03*
X55775Y129700D02*
D03*
X51000Y119500D02*
D03*
X49800Y121200D02*
D03*
X50100Y100800D02*
D03*
X49200D02*
D03*
X25700Y97700D02*
D03*
X22700D02*
D03*
X24700D02*
D03*
X23700D02*
D03*
X11300Y50100D02*
D03*
X51000Y121200D02*
D03*
X8500Y55100D02*
D03*
X23000Y87625D02*
D03*
X28150Y87075D02*
D03*
X28500Y85500D02*
D03*
X52900Y53900D02*
D03*
X63100Y56300D02*
D03*
X52900Y58700D02*
D03*
X58200Y56300D02*
D03*
X52900Y54700D02*
D03*
Y57100D02*
D03*
Y57900D02*
D03*
X57000Y55100D02*
D03*
X59400D02*
D03*
Y57500D02*
D03*
X52900Y55500D02*
D03*
X57000Y57500D02*
D03*
X59400Y71500D02*
D03*
X57000D02*
D03*
X52900Y69500D02*
D03*
Y71100D02*
D03*
Y72700D02*
D03*
X57000Y69100D02*
D03*
X52900Y71900D02*
D03*
X59400Y69100D02*
D03*
X58200Y70300D02*
D03*
X63100D02*
D03*
X52900Y68700D02*
D03*
Y67900D02*
D03*
X51000Y97300D02*
D03*
X25575Y76800D02*
D03*
X19000Y82600D02*
D03*
X37000Y112200D02*
D03*
X28800Y102599D02*
D03*
X34500Y66800D02*
D03*
X35800Y70800D02*
D03*
X34600Y69600D02*
D03*
X37000D02*
D03*
X36900Y66800D02*
D03*
X35700Y68000D02*
D03*
X38300Y76000D02*
D03*
X34600Y72000D02*
D03*
X37000D02*
D03*
X35800Y73200D02*
D03*
X35900Y76000D02*
D03*
X37100Y74800D02*
D03*
X34700D02*
D03*
X78900Y55400D02*
D03*
X76100Y57900D02*
D03*
X78900Y57800D02*
D03*
X77700Y56600D02*
D03*
Y59000D02*
D03*
X84400Y55300D02*
D03*
X80400Y59000D02*
D03*
Y56600D02*
D03*
X81600Y55400D02*
D03*
Y57800D02*
D03*
X84400Y57700D02*
D03*
X83200Y56500D02*
D03*
Y58900D02*
D03*
X89800Y55300D02*
D03*
X85800Y59000D02*
D03*
Y56600D02*
D03*
X87000Y55400D02*
D03*
Y57800D02*
D03*
X89800Y57700D02*
D03*
X88600Y56500D02*
D03*
Y58900D02*
D03*
X93900Y94200D02*
D03*
X97600Y90200D02*
D03*
X95200D02*
D03*
X94000Y91400D02*
D03*
X96400D02*
D03*
X96300Y94200D02*
D03*
X95100Y93000D02*
D03*
X97500D02*
D03*
X93600Y89100D02*
D03*
Y86700D02*
D03*
X94800Y85500D02*
D03*
Y87900D02*
D03*
X97600Y87800D02*
D03*
X96400Y86600D02*
D03*
Y89000D02*
D03*
X92400Y85500D02*
D03*
X88400Y89200D02*
D03*
Y86800D02*
D03*
X89600Y85600D02*
D03*
Y88000D02*
D03*
X92400Y87900D02*
D03*
X91200Y86700D02*
D03*
Y89100D02*
D03*
X77900Y41900D02*
D03*
X73900Y43200D02*
D03*
X75100Y42000D02*
D03*
Y44400D02*
D03*
X77900Y44300D02*
D03*
X76700Y43100D02*
D03*
X72700Y42000D02*
D03*
X68700Y43300D02*
D03*
X69900Y42100D02*
D03*
Y44500D02*
D03*
X72700Y44400D02*
D03*
X71500Y43200D02*
D03*
X67500Y42100D02*
D03*
X63500Y43400D02*
D03*
X64700Y42200D02*
D03*
Y44600D02*
D03*
X67500Y44500D02*
D03*
X66300Y43300D02*
D03*
X61100Y45800D02*
D03*
Y43400D02*
D03*
X62300Y44600D02*
D03*
X59500Y44700D02*
D03*
X57100D02*
D03*
X59500Y42300D02*
D03*
X57100D02*
D03*
X58300Y43500D02*
D03*
Y45900D02*
D03*
X62300Y42200D02*
D03*
X26900Y74900D02*
D03*
X27975Y76925D02*
D03*
X17800Y65902D02*
D03*
Y68302D02*
D03*
X20200Y65902D02*
D03*
Y68302D02*
D03*
X19000Y67102D02*
D03*
X21400D02*
D03*
X20100Y71102D02*
D03*
X16400Y75102D02*
D03*
X70800Y56700D02*
D03*
Y59200D02*
D03*
Y61700D02*
D03*
Y64200D02*
D03*
Y66700D02*
D03*
Y69200D02*
D03*
Y71700D02*
D03*
Y74100D02*
D03*
X42600Y43700D02*
D03*
Y44700D02*
D03*
Y48500D02*
D03*
Y50800D02*
D03*
Y49600D02*
D03*
X8500Y58200D02*
D03*
Y60200D02*
D03*
Y61600D02*
D03*
Y62900D02*
D03*
X38400Y108002D02*
D03*
X39600Y109202D02*
D03*
X37200D02*
D03*
X24300Y24102D02*
D03*
X25500Y25302D02*
D03*
Y22902D02*
D03*
X23100Y25302D02*
D03*
Y22902D02*
D03*
X25000Y36202D02*
D03*
X26200Y37402D02*
D03*
Y35002D02*
D03*
X23800Y37402D02*
D03*
Y35002D02*
D03*
X20900Y32502D02*
D03*
X22100Y33702D02*
D03*
Y31302D02*
D03*
X19700Y33702D02*
D03*
Y31302D02*
D03*
X18800Y75102D02*
D03*
X20000Y76302D02*
D03*
Y73902D02*
D03*
X17600Y76302D02*
D03*
Y73902D02*
D03*
X17700Y71102D02*
D03*
X18900Y72302D02*
D03*
Y69902D02*
D03*
X16500Y72302D02*
D03*
Y69902D02*
D03*
X42400Y131100D02*
D03*
X16100Y132475D02*
D03*
X10300Y87475D02*
D03*
X50025Y97275D02*
D03*
X49025D02*
D03*
X26050Y128025D02*
D03*
X1350Y96100D02*
D03*
X2050Y45900D02*
D03*
X2500Y64718D02*
D03*
Y77270D02*
D03*
Y83546D02*
D03*
X2500Y108650D02*
D03*
X2500Y89822D02*
D03*
X2500Y102374D02*
D03*
X10675Y130225D02*
D03*
X4925Y127275D02*
D03*
X1950Y34900D02*
D03*
X3200Y8275D02*
D03*
X8175Y4250D02*
D03*
X14800Y2425D02*
D03*
X54175Y131300D02*
D03*
X48525D02*
D03*
X30200Y131150D02*
D03*
X36875Y129975D02*
D03*
X32575Y116675D02*
D03*
X20950Y132300D02*
D03*
X2500Y114825D02*
D03*
X2500Y121102D02*
D03*
Y70994D02*
D03*
X2500Y58442D02*
D03*
X2500Y52166D02*
D03*
X1350Y39625D02*
D03*
X2500Y33338D02*
D03*
X2500Y27062D02*
D03*
Y20786D02*
D03*
X2500Y14610D02*
D03*
X21695Y2500D02*
D03*
X27695D02*
D03*
X33695D02*
D03*
X39695D02*
D03*
X45695D02*
D03*
X51695Y2500D02*
D03*
X21525Y112575D02*
D03*
Y113475D02*
D03*
X22200Y113000D02*
D03*
Y113900D02*
D03*
X21525Y114375D02*
D03*
X21550Y110900D02*
D03*
X22225Y110425D02*
D03*
Y109525D02*
D03*
X21550Y110000D02*
D03*
Y109100D02*
D03*
X38225Y100625D02*
D03*
X36875D02*
D03*
X36800Y95450D02*
D03*
X39525Y100625D02*
D03*
X39650Y95500D02*
D03*
X38225Y95475D02*
D03*
Y98025D02*
D03*
Y99075D02*
D03*
Y97025D02*
D03*
X1075Y118275D02*
D03*
X31750Y116650D02*
D03*
X6250Y105800D02*
D03*
X34350Y18800D02*
D03*
X8600Y91450D02*
D03*
X10250Y115825D02*
D03*
Y118775D02*
D03*
X11050Y44025D02*
D03*
X14525Y44975D02*
D03*
X17575Y26200D02*
D03*
X32250Y17900D02*
D03*
X44943Y19000D02*
D03*
X35150Y21700D02*
D03*
X44425Y21500D02*
D03*
X39150Y52900D02*
D03*
X38098Y60430D02*
D03*
X39000Y59230D02*
D03*
X38098Y58030D02*
D03*
X38100Y55630D02*
D03*
X39000Y56825D02*
D03*
X45325Y128750D02*
D03*
X36150Y9538D02*
D03*
X41850Y12325D02*
D03*
X40125Y7125D02*
D03*
X33075Y126700D02*
D03*
X22125Y122425D02*
D03*
M02*
