G04*
G04 #@! TF.GenerationSoftware,Altium Limited,Altium Designer,24.8.2 (39)*
G04*
G04 Layer_Color=16711935*
%FSLAX43Y43*%
%MOMM*%
G71*
G04*
G04 #@! TF.SameCoordinates,7EB9D47B-AFC8-475C-A275-96F075C7C5C9*
G04*
G04*
G04 #@! TF.FilePolarity,Positive*
G04*
G01*
G75*
%ADD213C,0.013*%
D213*
X57316Y130596D02*
G03*
X54316Y133596I-3000J-0D01*
G01*
X55316Y110451D02*
G03*
X57316Y112451I0J2000D01*
G01*
X57316Y130596D02*
G03*
X54316Y133596I-3000J-0D01*
G01*
X55316Y110451D02*
G03*
X57316Y112451I0J2000D01*
G01*
X99006Y103301D02*
G03*
X96006Y106301I-3000J-0D01*
G01*
X96006Y83870D02*
G03*
X99006Y86870I0J3000D01*
G01*
X84006Y84370D02*
G03*
X84506Y83870I500J0D01*
G01*
X84006Y85752D02*
G03*
X83506Y86252I-500J-0D01*
G01*
X74506D02*
G03*
X74006Y85752I0J-500D01*
G01*
X73506Y83870D02*
G03*
X74006Y84370I0J500D01*
G01*
X73506Y83870D02*
G03*
X73006Y83370I0J-500D01*
G01*
Y61379D02*
G03*
X73506Y60879I500J0D01*
G01*
X99006Y57879D02*
G03*
X96006Y60879I-3000J-0D01*
G01*
X98006Y46131D02*
G03*
X99006Y47131I0J1000D01*
G01*
Y32881D02*
G03*
X98006Y33881I-1000J0D01*
G01*
X96006Y27301D02*
G03*
X99006Y30301I0J3000D01*
G01*
X57316Y21151D02*
G03*
X55316Y23151I-2000J0D01*
G01*
X54316Y6D02*
G03*
X57316Y3006I0J3000D01*
G01*
X53911Y23151D02*
X55316D01*
X57316Y3006D02*
Y21151D01*
X24006Y6D02*
X54316D01*
X21613Y35D02*
X24006Y6D01*
X19102Y141D02*
X21613Y35D01*
X16559Y347D02*
X19102Y141D01*
X14056Y674D02*
X16559Y347D01*
X11657Y1137D02*
X14056Y674D01*
X9414Y1746D02*
X11657Y1137D01*
X7372Y2507D02*
X9414Y1746D01*
X5561Y3423D02*
X7372Y2507D01*
X4006Y4492D02*
X5561Y3423D01*
X3064Y5339D02*
X4006Y4492D01*
X2257Y6256D02*
X3064Y5339D01*
X1586Y7237D02*
X2257Y6256D01*
X1047Y8275D02*
X1586Y7237D01*
X633Y9364D02*
X1047Y8275D01*
X334Y10495D02*
X633Y9364D01*
X141Y11659D02*
X334Y10495D01*
X37Y12843D02*
X141Y11659D01*
X6Y14037D02*
X37Y12843D01*
X6Y14037D02*
Y119565D01*
X37Y120759D01*
X141Y121944D01*
X334Y123107D01*
X633Y124238D01*
X1047Y125327D01*
X1586Y126366D01*
X3064Y128263D01*
X4006Y129111D01*
X5561Y130179D01*
X7372Y131095D01*
X9414Y131857D01*
X11657Y132466D01*
X14056Y132928D01*
X16559Y133255D01*
X19102Y133461D01*
X21613Y133567D01*
X24006Y133596D01*
X54316D01*
X57316Y112451D02*
Y130596D01*
X53911Y110451D02*
X55316D01*
X57316Y112451D02*
Y130596D01*
X53911Y110451D02*
X55316D01*
X53911Y106301D02*
Y110451D01*
Y106301D02*
X96006D01*
X99006Y86870D02*
Y103301D01*
X84506Y83870D02*
X96006D01*
X84006Y84370D02*
Y85752D01*
X74506Y86252D02*
X83506D01*
X74006Y84370D02*
Y85752D01*
X73006Y61379D02*
Y83370D01*
X73506Y60879D02*
X96006D01*
X99006Y47131D02*
Y57879D01*
X91756Y46131D02*
X98006D01*
X91756Y33881D02*
Y46131D01*
Y33881D02*
X98006D01*
X99006Y30301D02*
Y32881D01*
X53911Y27301D02*
X96006D01*
X53911Y23151D02*
Y27301D01*
Y23151D02*
X55316D01*
X57316Y3006D02*
Y21151D01*
M02*
