M48
;Layer_Color=9474304
;FILE_FORMAT=4:3
METRIC,LZ
;TYPE=PLATED
T03F00S00C0.500
T04F00S00C0.600
;TYPE=NON_PLATED
%
G90
G05
T03
G00X0029655Y00152
M15
G01Y00145
M16
G00X0029655Y00224
M15
G01Y00231
M16
G00X003933Y00224
M15
G01Y00231
M16
G00X003933Y00152
M15
G01Y00145
M16
T04
G00X0027505Y001575
M15
G01Y001495
M16
G00X0031805Y001575
M15
G01Y001495
M16
G00X003718Y001575
M15
G01Y001495
M16
G00X003718Y002265
M15
G01Y002185
M16
G00X0031805Y002265
M15
G01Y002185
M16
G00X0027505Y002265
M15
G01Y002185
M16
G00X004148Y002265
M15
G01Y002185
M16
G00X004148Y001575
M15
G01Y001495
M16
M17
M30
