G04*
G04 #@! TF.GenerationSoftware,Altium Limited,Altium Designer,24.2.2 (26)*
G04*
G04 Layer_Physical_Order=2*
G04 Layer_Color=16711680*
%FSLAX43Y43*%
%MOMM*%
G71*
G04*
G04 #@! TF.SameCoordinates,CE86931C-6916-4A25-866B-2747C1F1E0B7*
G04*
G04*
G04 #@! TF.FilePolarity,Positive*
G04*
G01*
G75*
%ADD65C,1.900*%
%ADD66R,1.900X1.900*%
%ADD67R,1.900X1.900*%
%ADD68C,6.000*%
%ADD69C,0.600*%
G36*
X15444Y126344D02*
X15451Y126338D01*
Y108854D01*
X15453Y108848D01*
X15452Y108842D01*
X15461Y108646D01*
X15466Y108627D01*
Y108608D01*
X15542Y108224D01*
X15552Y108201D01*
X15557Y108176D01*
X15707Y107814D01*
X15721Y107793D01*
X15731Y107770D01*
X15948Y107444D01*
X15966Y107426D01*
X15980Y107405D01*
X16257Y107128D01*
X16278Y107114D01*
X16296Y107096D01*
X16622Y106878D01*
X16645Y106869D01*
X16666Y106855D01*
X17028Y106705D01*
X17053Y106700D01*
X17076Y106690D01*
X17461Y106614D01*
X17479D01*
X17498Y106609D01*
X17694Y106599D01*
X17700Y106600D01*
X17706Y106599D01*
X33258D01*
X33595Y106532D01*
X33913Y106401D01*
X34198Y106210D01*
X34441Y105967D01*
X34632Y105681D01*
X34764Y105363D01*
X34831Y105026D01*
X34831Y104854D01*
X34831Y93968D01*
X34831Y93796D01*
X34764Y93459D01*
X34632Y93141D01*
X34441Y92855D01*
X34198Y92612D01*
X33913Y92421D01*
X33595Y92290D01*
X33258Y92223D01*
X15706D01*
X15609Y92203D01*
X15526Y92148D01*
X15471Y92065D01*
X15451Y91968D01*
X15451Y90805D01*
X15414Y90715D01*
X15345Y90646D01*
X15255Y90609D01*
X15206D01*
X10956D01*
X10948Y90607D01*
X10940Y90608D01*
X10777Y90598D01*
X10752Y90591D01*
X10727Y90590D01*
X10412Y90505D01*
X10382Y90490D01*
X10351Y90480D01*
X10068Y90316D01*
X10043Y90295D01*
X10015Y90276D01*
X9784Y90045D01*
X9766Y90018D01*
X9744Y89992D01*
X9581Y89710D01*
X9570Y89678D01*
X9555Y89648D01*
X9471Y89333D01*
X9469Y89300D01*
X9462Y89267D01*
Y88941D01*
X9469Y88908D01*
X9471Y88875D01*
X9555Y88560D01*
X9570Y88530D01*
X9581Y88498D01*
X9744Y88216D01*
X9766Y88191D01*
X9784Y88163D01*
X10015Y87932D01*
X10043Y87914D01*
X10068Y87892D01*
X10351Y87728D01*
X10382Y87718D01*
X10412Y87703D01*
X10727Y87619D01*
X10752Y87617D01*
X10777Y87610D01*
X10940Y87600D01*
X10948Y87601D01*
X10956Y87599D01*
X15255Y87599D01*
X15345Y87562D01*
X15414Y87493D01*
X15451Y87403D01*
Y87354D01*
X15451Y39354D01*
Y39305D01*
X15414Y39215D01*
X15345Y39146D01*
X15255Y39109D01*
X15206D01*
X10956Y39109D01*
X10948Y39107D01*
X10940Y39108D01*
X10777Y39098D01*
X10752Y39091D01*
X10727Y39090D01*
X10412Y39005D01*
X10382Y38990D01*
X10351Y38980D01*
X10068Y38816D01*
X10043Y38794D01*
X10015Y38776D01*
X9784Y38545D01*
X9766Y38518D01*
X9744Y38492D01*
X9581Y38210D01*
X9570Y38178D01*
X9555Y38148D01*
X9471Y37833D01*
X9469Y37800D01*
X9462Y37767D01*
Y37441D01*
X9469Y37408D01*
X9471Y37375D01*
X9555Y37060D01*
X9570Y37030D01*
X9581Y36998D01*
X9744Y36716D01*
X9766Y36691D01*
X9784Y36663D01*
X10015Y36432D01*
X10043Y36414D01*
X10068Y36392D01*
X10351Y36228D01*
X10382Y36218D01*
X10412Y36203D01*
X10727Y36119D01*
X10752Y36117D01*
X10777Y36110D01*
X10940Y36100D01*
X10948Y36101D01*
X10956Y36099D01*
X15255Y36099D01*
X15345Y36062D01*
X15414Y35993D01*
X15451Y35903D01*
Y35854D01*
Y34740D01*
X15471Y34643D01*
X15526Y34560D01*
X15609Y34505D01*
X15706Y34485D01*
X22237Y34485D01*
X22408D01*
X22746Y34418D01*
X23063Y34287D01*
X23349Y34096D01*
X23592Y33853D01*
X23783Y33567D01*
X23915Y33249D01*
X23982Y32912D01*
X23982Y32740D01*
X23982Y21854D01*
X23982Y21682D01*
X23915Y21345D01*
X23783Y21027D01*
X23592Y20742D01*
X23349Y20499D01*
X23063Y20308D01*
X22746Y20176D01*
X22408Y20109D01*
X22237D01*
X17706Y20109D01*
X17700Y20108D01*
X17694Y20109D01*
X17498Y20099D01*
X17479Y20094D01*
X17461D01*
X17076Y20018D01*
X17053Y20008D01*
X17028Y20003D01*
X16666Y19853D01*
X16645Y19839D01*
X16622Y19830D01*
X16296Y19612D01*
X16278Y19594D01*
X16257Y19580D01*
X15980Y19303D01*
X15966Y19282D01*
X15948Y19264D01*
X15731Y18938D01*
X15721Y18915D01*
X15707Y18894D01*
X15557Y18532D01*
X15552Y18508D01*
X15542Y18484D01*
X15466Y18100D01*
Y18081D01*
X15461Y18063D01*
X15452Y17867D01*
X15453Y17860D01*
X15451Y17854D01*
Y404D01*
X15327Y288D01*
X15228Y295D01*
X15129Y302D01*
X15030Y310D01*
X14931Y317D01*
X14832Y325D01*
X14832D01*
X14734Y333D01*
X14635Y341D01*
X14536Y350D01*
X14536D01*
X14422Y360D01*
X14307Y370D01*
X14193Y380D01*
X14193Y380D01*
X14078Y391D01*
X13964Y402D01*
X13866Y412D01*
X13768Y422D01*
X13670Y432D01*
X13557Y443D01*
X13444Y455D01*
X13330Y468D01*
X13217Y480D01*
X13104Y493D01*
X12991Y506D01*
X12895Y518D01*
X12798Y530D01*
X12798D01*
X12703Y541D01*
X12607Y553D01*
X12511Y566D01*
X12416Y578D01*
X12321Y591D01*
X12225Y604D01*
X12130Y617D01*
X12036Y630D01*
X11941Y643D01*
X11847Y657D01*
X11753Y670D01*
X11659Y684D01*
X11565Y699D01*
X11472Y713D01*
X11379Y728D01*
X11287Y742D01*
X11194Y757D01*
X11101Y772D01*
X11009Y788D01*
X10918Y803D01*
X10826Y819D01*
X10735Y835D01*
X10643Y851D01*
X10553Y868D01*
X10463Y884D01*
X10372Y901D01*
X10283Y918D01*
X10193Y935D01*
X10104Y952D01*
X10015Y970D01*
X9926Y988D01*
X9838Y1006D01*
X9765Y1021D01*
X9692Y1036D01*
X9619Y1051D01*
X9546Y1067D01*
X9474Y1082D01*
X9402Y1098D01*
X9316Y1117D01*
X9229Y1137D01*
X9144Y1156D01*
X9059Y1176D01*
X8974Y1196D01*
X8904Y1212D01*
X8833Y1229D01*
X8763Y1247D01*
X8694Y1263D01*
X8610Y1284D01*
X8527Y1305D01*
X8445Y1326D01*
X8363Y1348D01*
X8281Y1369D01*
X8200Y1391D01*
X8119Y1413D01*
X8039Y1435D01*
X7971Y1454D01*
X7905Y1472D01*
X7839Y1491D01*
X7773Y1510D01*
X7707Y1529D01*
X7641Y1548D01*
X7577Y1568D01*
X7511Y1587D01*
X7447Y1607D01*
X7383Y1626D01*
X7319Y1646D01*
X7255Y1666D01*
X7191Y1686D01*
X7129Y1706D01*
X7066Y1727D01*
X7004Y1747D01*
X6941Y1768D01*
X6879Y1789D01*
X6818Y1809D01*
X6757Y1830D01*
X6695Y1851D01*
X6635Y1872D01*
X6575Y1894D01*
X6515Y1915D01*
X6443Y1941D01*
X6372Y1967D01*
X6313Y1989D01*
X6255Y2011D01*
X6196Y2033D01*
X6138Y2055D01*
X6081Y2077D01*
X6024Y2099D01*
X5967Y2122D01*
X5910Y2145D01*
X5854Y2167D01*
X5798Y2190D01*
X5743Y2213D01*
X5687Y2236D01*
X5632Y2259D01*
X5577Y2282D01*
X5523Y2305D01*
X5469Y2329D01*
X5416Y2352D01*
X5362Y2376D01*
X5310Y2400D01*
X5257Y2424D01*
X5205Y2447D01*
X5153Y2471D01*
X5101Y2495D01*
X5050Y2520D01*
X4999Y2544D01*
X4949Y2568D01*
X4898Y2593D01*
X4848Y2617D01*
X4799Y2642D01*
X4750Y2667D01*
X4701Y2691D01*
X4652Y2716D01*
X4604Y2741D01*
X4557Y2766D01*
X4509Y2791D01*
X4462Y2816D01*
X4415Y2842D01*
X4369Y2867D01*
X4323Y2893D01*
X4277Y2918D01*
X4232Y2943D01*
X4187Y2969D01*
X4142Y2995D01*
X4098Y3021D01*
X4053Y3047D01*
X4010Y3073D01*
X3967Y3098D01*
X3924Y3124D01*
X3881Y3151D01*
X3839Y3177D01*
X3797Y3203D01*
X3755Y3229D01*
X3706Y3261D01*
X3657Y3293D01*
X3608Y3325D01*
X3560Y3357D01*
X3513Y3388D01*
X3466Y3421D01*
X3419Y3453D01*
X3373Y3485D01*
X3328Y3517D01*
X3282Y3550D01*
X3238Y3582D01*
X3194Y3615D01*
X3150Y3647D01*
X3107Y3680D01*
X3064Y3713D01*
X3022Y3745D01*
X2980Y3778D01*
X2932Y3817D01*
X2913Y3832D01*
X2869Y3868D01*
X2825Y3904D01*
X2782Y3940D01*
X2740Y3976D01*
X2698Y4012D01*
X2656Y4048D01*
X2615Y4084D01*
X2569Y4126D01*
X2524Y4168D01*
X2479Y4209D01*
X2434Y4251D01*
X2390Y4293D01*
X2348Y4335D01*
X2305Y4377D01*
X2259Y4425D01*
X2212Y4473D01*
X2162Y4526D01*
X2113Y4579D01*
X2059Y4638D01*
X2002Y4702D01*
X1946Y4766D01*
X1883Y4842D01*
X1812Y4929D01*
X1747Y5012D01*
X1730Y5035D01*
X1712Y5058D01*
X1685Y5094D01*
X1627Y5171D01*
X1516Y5331D01*
X1410Y5494D01*
X1309Y5660D01*
X1250Y5766D01*
X1227Y5807D01*
X1204Y5848D01*
X1182Y5889D01*
X1171Y5910D01*
X1171Y5910D01*
X1171Y5910D01*
X1165Y5923D01*
X1151Y5948D01*
X1138Y5974D01*
X1125Y5999D01*
X1119Y6011D01*
X1080Y6090D01*
X1034Y6188D01*
X994Y6275D01*
X961Y6349D01*
X932Y6419D01*
X903Y6488D01*
X878Y6552D01*
X855Y6610D01*
X833Y6668D01*
X814Y6721D01*
X795Y6773D01*
X776Y6826D01*
X760Y6873D01*
X745Y6919D01*
X727Y6974D01*
X710Y7028D01*
X695Y7075D01*
X680Y7124D01*
X666Y7172D01*
X652Y7220D01*
X640Y7262D01*
X629Y7304D01*
X617Y7347D01*
X606Y7389D01*
X595Y7432D01*
X584Y7475D01*
X573Y7518D01*
X563Y7561D01*
X552Y7605D01*
X542Y7649D01*
X532Y7693D01*
X522Y7737D01*
X513Y7781D01*
X503Y7826D01*
X494Y7871D01*
X485Y7916D01*
X478Y7954D01*
X471Y7992D01*
X463Y8031D01*
X456Y8068D01*
X450Y8107D01*
X443Y8145D01*
X436Y8184D01*
X430Y8223D01*
X424Y8261D01*
X417Y8301D01*
X411Y8340D01*
X405Y8380D01*
X399Y8419D01*
X394Y8459D01*
X388Y8499D01*
X383Y8539D01*
X377Y8579D01*
X372Y8620D01*
X367Y8660D01*
X362Y8701D01*
X357Y8741D01*
X352Y8783D01*
X349Y8815D01*
X345Y8849D01*
X342Y8881D01*
X338Y8915D01*
X335Y8948D01*
X332Y8981D01*
X329Y9014D01*
X325Y9048D01*
X322Y9082D01*
X319Y9116D01*
X317Y9149D01*
X314Y9183D01*
X311Y9217D01*
X308Y9251D01*
X306Y9285D01*
X303Y9319D01*
X301Y9354D01*
X299Y9388D01*
X296Y9423D01*
X294Y9458D01*
X292Y9492D01*
X290Y9527D01*
X288Y9562D01*
X286Y9597D01*
X284Y9632D01*
X282Y9667D01*
X281Y9702D01*
X279Y9737D01*
X278Y9773D01*
X276Y9809D01*
X275Y9844D01*
X274Y9871D01*
X273Y9898D01*
X272Y9924D01*
X271Y9951D01*
X271Y9951D01*
X270Y9978D01*
X269Y10005D01*
X269Y10032D01*
X268Y10059D01*
X267Y10086D01*
X267Y10113D01*
X266Y10141D01*
X265Y10167D01*
X265Y10195D01*
X264Y10222D01*
X264Y10250D01*
X263Y10277D01*
X263Y10304D01*
X263Y10332D01*
X262Y10360D01*
X262Y10387D01*
X262Y10414D01*
X262Y10442D01*
X262Y10470D01*
X261Y10498D01*
X261Y10525D01*
X261Y10525D01*
X261Y10553D01*
X261Y10591D01*
X261Y116127D01*
X261Y116155D01*
X261Y116183D01*
X261Y116183D01*
X261Y116210D01*
X262Y116238D01*
X262Y116266D01*
X262Y116294D01*
X262Y116321D01*
X262Y116349D01*
X263Y116376D01*
X263Y116404D01*
X263Y116431D01*
X264Y116458D01*
X264Y116486D01*
X265Y116513D01*
X265Y116541D01*
X266Y116568D01*
X267Y116595D01*
X267Y116622D01*
X268Y116649D01*
X269Y116676D01*
X269Y116703D01*
X270Y116730D01*
X271Y116757D01*
X271Y116757D01*
X272Y116784D01*
X273Y116811D01*
X274Y116837D01*
X275Y116864D01*
X276Y116900D01*
X278Y116935D01*
X279Y116971D01*
X281Y117006D01*
X282Y117041D01*
X284Y117076D01*
X286Y117111D01*
X288Y117147D01*
X290Y117181D01*
X292Y117216D01*
X294Y117250D01*
X296Y117285D01*
X299Y117320D01*
X301Y117354D01*
X303Y117389D01*
X306Y117423D01*
X308Y117457D01*
X311Y117491D01*
X314Y117525D01*
X317Y117559D01*
X319Y117592D01*
X323Y117635D01*
X327Y117677D01*
X331Y117719D01*
X334Y117752D01*
X334Y117752D01*
X337Y117785D01*
X341Y117819D01*
X344Y117851D01*
X348Y117884D01*
X352Y117917D01*
X356Y117958D01*
X361Y117999D01*
X366Y118040D01*
X371Y118081D01*
X376Y118121D01*
X382Y118161D01*
X387Y118201D01*
X392Y118241D01*
X398Y118281D01*
X404Y118321D01*
X410Y118360D01*
X416Y118399D01*
X422Y118439D01*
X429Y118478D01*
X435Y118516D01*
X442Y118556D01*
X448Y118593D01*
X455Y118632D01*
X462Y118670D01*
X471Y118716D01*
X479Y118761D01*
X488Y118807D01*
X497Y118852D01*
X507Y118897D01*
X516Y118941D01*
X526Y118986D01*
X536Y119030D01*
X545Y119073D01*
X556Y119118D01*
X566Y119161D01*
X577Y119205D01*
X588Y119248D01*
X598Y119290D01*
X610Y119333D01*
X621Y119376D01*
X632Y119418D01*
X644Y119460D01*
X656Y119502D01*
X670Y119550D01*
X685Y119598D01*
X699Y119646D01*
X716Y119701D01*
X734Y119755D01*
X752Y119809D01*
X767Y119856D01*
X786Y119908D01*
X804Y119961D01*
X824Y120014D01*
X845Y120072D01*
X868Y120130D01*
X893Y120194D01*
X922Y120264D01*
X951Y120334D01*
X980Y120402D01*
X1017Y120483D01*
X1060Y120575D01*
X1101Y120660D01*
X1147Y120751D01*
X1200Y120854D01*
X1314Y121057D01*
X1436Y121255D01*
X1565Y121449D01*
X1643Y121557D01*
X1665Y121587D01*
X1686Y121616D01*
X1708Y121644D01*
X1718Y121658D01*
X1782Y121741D01*
X1843Y121817D01*
X1910Y121899D01*
X1969Y121969D01*
X2021Y122028D01*
X2078Y122092D01*
X2132Y122151D01*
X2182Y122204D01*
X2228Y122251D01*
X2274Y122299D01*
X2316Y122341D01*
X2358Y122383D01*
X2402Y122425D01*
X2445Y122467D01*
X2490Y122509D01*
X2535Y122551D01*
X2580Y122592D01*
X2627Y122634D01*
X2668Y122670D01*
X2710Y122707D01*
X2752Y122743D01*
X2794Y122779D01*
X2837Y122815D01*
X2881Y122850D01*
X2932Y122892D01*
X2966Y122919D01*
X3008Y122952D01*
X3050Y122984D01*
X3092Y123017D01*
X3135Y123050D01*
X3179Y123083D01*
X3223Y123115D01*
X3268Y123148D01*
X3313Y123180D01*
X3358Y123212D01*
X3404Y123245D01*
X3451Y123277D01*
X3497Y123309D01*
X3544Y123341D01*
X3592Y123373D01*
X3641Y123405D01*
X3689Y123436D01*
X3739Y123468D01*
X3780Y123494D01*
X3822Y123521D01*
X3864Y123547D01*
X3907Y123573D01*
X3950Y123599D01*
X3993Y123625D01*
X4036Y123651D01*
X4080Y123677D01*
X4124Y123703D01*
X4169Y123729D01*
X4214Y123754D01*
X4259Y123780D01*
X4304Y123805D01*
X4351Y123831D01*
X4397Y123856D01*
X4444Y123882D01*
X4490Y123907D01*
X4538Y123932D01*
X4585Y123957D01*
X4633Y123982D01*
X4682Y124007D01*
X4730Y124032D01*
X4780Y124057D01*
X4829Y124081D01*
X4878Y124106D01*
X4929Y124130D01*
X4979Y124154D01*
X5030Y124179D01*
X5080Y124203D01*
X5132Y124227D01*
X5184Y124251D01*
X5236Y124275D01*
X5289Y124299D01*
X5341Y124323D01*
X5394Y124346D01*
X5448Y124370D01*
X5501Y124393D01*
X5556Y124417D01*
X5610Y124440D01*
X5665Y124463D01*
X5720Y124486D01*
X5776Y124509D01*
X5832Y124532D01*
X5887Y124554D01*
X5944Y124577D01*
X6001Y124600D01*
X6058Y124622D01*
X6116Y124644D01*
X6173Y124666D01*
X6231Y124688D01*
X6290Y124710D01*
X6348Y124732D01*
X6408Y124754D01*
X6479Y124780D01*
X6539Y124802D01*
X6599Y124823D01*
X6659Y124844D01*
X6720Y124865D01*
X6781Y124886D01*
X6842Y124907D01*
X6904Y124928D01*
X6966Y124948D01*
X7029Y124969D01*
X7091Y124989D01*
X7154Y125010D01*
X7217Y125030D01*
X7280Y125050D01*
X7344Y125070D01*
X7409Y125090D01*
X7473Y125109D01*
X7537Y125129D01*
X7602Y125148D01*
X7667Y125168D01*
X7733Y125187D01*
X7799Y125206D01*
X7865Y125225D01*
X7931Y125243D01*
X7998Y125262D01*
X8065Y125281D01*
X8132Y125299D01*
X8213Y125321D01*
X8295Y125342D01*
X8376Y125364D01*
X8459Y125385D01*
X8542Y125406D01*
X8624Y125427D01*
X8694Y125445D01*
X8764Y125462D01*
X8833Y125479D01*
X8904Y125496D01*
X8974Y125512D01*
X9045Y125529D01*
X9130Y125549D01*
X9216Y125568D01*
X9301Y125588D01*
X9388Y125607D01*
X9459Y125622D01*
X9532Y125638D01*
X9605Y125654D01*
X9678Y125669D01*
X9750Y125684D01*
X9823Y125700D01*
X9897Y125715D01*
X9986Y125732D01*
X10074Y125750D01*
X10163Y125767D01*
X10253Y125785D01*
X10343Y125802D01*
X10432Y125818D01*
X10523Y125835D01*
X10614Y125852D01*
X10704Y125868D01*
X10796Y125884D01*
X10887Y125899D01*
X10979Y125915D01*
X11071Y125931D01*
X11163Y125946D01*
X11255Y125961D01*
X11348Y125976D01*
X11441Y125990D01*
X11534Y126005D01*
X11627Y126019D01*
X11722Y126033D01*
X11815Y126047D01*
X11910Y126061D01*
X11910Y126061D01*
X12004Y126074D01*
X12098Y126087D01*
X12193Y126100D01*
X12289Y126113D01*
X12383Y126126D01*
X12479Y126138D01*
X12575Y126151D01*
X12671Y126163D01*
X12766Y126175D01*
X12863Y126186D01*
X12959Y126198D01*
X13055Y126209D01*
X13169Y126222D01*
X13169Y126222D01*
X13281Y126235D01*
X13394Y126247D01*
X13394D01*
X13508Y126260D01*
X13622Y126271D01*
X13720Y126282D01*
X13817Y126291D01*
X13915Y126301D01*
X14013Y126311D01*
X14110Y126320D01*
X14225Y126331D01*
X14339Y126341D01*
X14455Y126351D01*
X14455Y126351D01*
X14553Y126360D01*
X14651Y126368D01*
X14750Y126376D01*
X14849Y126384D01*
X14948Y126392D01*
X15047Y126400D01*
X15145Y126407D01*
X15244Y126414D01*
X15326Y126420D01*
X15444Y126344D01*
D02*
G37*
%LPC*%
G36*
X8958Y116554D02*
X8455D01*
X7957Y116475D01*
X7478Y116320D01*
X7029Y116091D01*
X6622Y115795D01*
X6266Y115439D01*
X5969Y115031D01*
X5741Y114582D01*
X5585Y114103D01*
X5506Y113606D01*
Y113102D01*
X5585Y112605D01*
X5741Y112126D01*
X5969Y111677D01*
X6266Y111269D01*
X6622Y110913D01*
X7029Y110617D01*
X7478Y110388D01*
X7957Y110233D01*
X8455Y110154D01*
X8958D01*
X9456Y110233D01*
X9935Y110388D01*
X10384Y110617D01*
X10791Y110913D01*
X11147Y111269D01*
X11443Y111677D01*
X11672Y112126D01*
X11828Y112605D01*
X11906Y113102D01*
Y113606D01*
X11828Y114103D01*
X11672Y114582D01*
X11443Y115031D01*
X11147Y115439D01*
X10791Y115795D01*
X10384Y116091D01*
X9935Y116320D01*
X9456Y116475D01*
X8958Y116554D01*
D02*
G37*
G36*
X13360Y83250D02*
X12660D01*
Y82550D01*
X13360D01*
Y83250D01*
D02*
G37*
G36*
X11560D02*
X10860D01*
Y82550D01*
X11560D01*
Y83250D01*
D02*
G37*
G36*
X9721Y83150D02*
X9419D01*
X9126Y83072D01*
X8864Y82920D01*
X8650Y82706D01*
X8498Y82444D01*
X8420Y82151D01*
Y81849D01*
X8498Y81556D01*
X8650Y81294D01*
X8864Y81080D01*
X9126Y80928D01*
X9419Y80850D01*
X9721D01*
X10014Y80928D01*
X10276Y81080D01*
X10490Y81294D01*
X10642Y81556D01*
X10720Y81849D01*
Y82151D01*
X10642Y82444D01*
X10490Y82706D01*
X10276Y82920D01*
X10014Y83072D01*
X9721Y83150D01*
D02*
G37*
G36*
X7181D02*
X6879D01*
X6586Y83072D01*
X6324Y82920D01*
X6110Y82706D01*
X5958Y82444D01*
X5880Y82151D01*
Y81849D01*
X5958Y81556D01*
X6110Y81294D01*
X6324Y81080D01*
X6586Y80928D01*
X6879Y80850D01*
X7181D01*
X7474Y80928D01*
X7736Y81080D01*
X7950Y81294D01*
X8102Y81556D01*
X8180Y81849D01*
Y82151D01*
X8102Y82444D01*
X7950Y82706D01*
X7736Y82920D01*
X7474Y83072D01*
X7181Y83150D01*
D02*
G37*
G36*
X4641D02*
X4339D01*
X4046Y83072D01*
X3784Y82920D01*
X3570Y82706D01*
X3418Y82444D01*
X3340Y82151D01*
Y81849D01*
X3418Y81556D01*
X3570Y81294D01*
X3784Y81080D01*
X4046Y80928D01*
X4339Y80850D01*
X4641D01*
X4934Y80928D01*
X5196Y81080D01*
X5410Y81294D01*
X5562Y81556D01*
X5640Y81849D01*
Y82151D01*
X5562Y82444D01*
X5410Y82706D01*
X5196Y82920D01*
X4934Y83072D01*
X4641Y83150D01*
D02*
G37*
G36*
X13360Y81450D02*
X12660D01*
Y80750D01*
X13360D01*
Y81450D01*
D02*
G37*
G36*
X11560D02*
X10860D01*
Y80750D01*
X11560D01*
Y81450D01*
D02*
G37*
G36*
X21478Y31095D02*
X20778D01*
Y30395D01*
X21478D01*
Y31095D01*
D02*
G37*
G36*
X19678D02*
X18978D01*
Y30395D01*
X19678D01*
Y31095D01*
D02*
G37*
G36*
X21478Y29295D02*
X20778D01*
Y28595D01*
X21478D01*
Y29295D01*
D02*
G37*
G36*
X19678D02*
X18978D01*
Y28595D01*
X19678D01*
Y29295D01*
D02*
G37*
G36*
X20379Y28455D02*
X20077D01*
X19784Y28377D01*
X19522Y28225D01*
X19308Y28011D01*
X19156Y27749D01*
X19078Y27456D01*
Y27154D01*
X19156Y26861D01*
X19308Y26599D01*
X19522Y26385D01*
X19784Y26233D01*
X20077Y26155D01*
X20379D01*
X20672Y26233D01*
X20934Y26385D01*
X21148Y26599D01*
X21300Y26861D01*
X21378Y27154D01*
Y27456D01*
X21300Y27749D01*
X21148Y28011D01*
X20934Y28225D01*
X20672Y28377D01*
X20379Y28455D01*
D02*
G37*
G36*
Y25915D02*
X20077D01*
X19784Y25837D01*
X19522Y25685D01*
X19308Y25471D01*
X19156Y25209D01*
X19078Y24916D01*
Y24614D01*
X19156Y24321D01*
X19308Y24059D01*
X19522Y23845D01*
X19784Y23693D01*
X20077Y23615D01*
X20379D01*
X20672Y23693D01*
X20934Y23845D01*
X21148Y24059D01*
X21300Y24321D01*
X21378Y24614D01*
Y24916D01*
X21300Y25209D01*
X21148Y25471D01*
X20934Y25685D01*
X20672Y25837D01*
X20379Y25915D01*
D02*
G37*
G36*
X8958Y16554D02*
X8455D01*
X7957Y16475D01*
X7478Y16320D01*
X7029Y16091D01*
X6622Y15795D01*
X6266Y15439D01*
X5969Y15031D01*
X5741Y14582D01*
X5585Y14103D01*
X5506Y13606D01*
Y13102D01*
X5585Y12605D01*
X5741Y12126D01*
X5969Y11677D01*
X6266Y11269D01*
X6622Y10913D01*
X7029Y10617D01*
X7478Y10389D01*
X7957Y10233D01*
X8455Y10154D01*
X8958D01*
X9456Y10233D01*
X9935Y10389D01*
X10384Y10617D01*
X10791Y10913D01*
X11147Y11269D01*
X11443Y11677D01*
X11672Y12126D01*
X11828Y12605D01*
X11906Y13102D01*
Y13606D01*
X11828Y14103D01*
X11672Y14582D01*
X11443Y15031D01*
X11147Y15439D01*
X10791Y15795D01*
X10384Y16091D01*
X9935Y16320D01*
X9456Y16475D01*
X8958Y16554D01*
D02*
G37*
%LPD*%
D65*
X20228Y24765D02*
D03*
Y27305D02*
D03*
X7030Y82000D02*
D03*
X9570D02*
D03*
X4490D02*
D03*
D66*
X20228Y29845D02*
D03*
D67*
X12110Y82000D02*
D03*
D68*
X8706Y113354D02*
D03*
Y13354D02*
D03*
D69*
X18550Y102850D02*
D03*
X15150Y99850D02*
D03*
X33875Y99925D02*
D03*
X31925Y103900D02*
D03*
X29200Y103800D02*
D03*
M02*
