G04*
G04 #@! TF.GenerationSoftware,Altium Limited,Altium Designer,24.2.2 (26)*
G04*
G04 Layer_Physical_Order=1*
G04 Layer_Color=255*
%FSLAX43Y43*%
%MOMM*%
G71*
G04*
G04 #@! TF.SameCoordinates,CE86931C-6916-4A25-866B-2747C1F1E0B7*
G04*
G04*
G04 #@! TF.FilePolarity,Positive*
G04*
G01*
G75*
%ADD40C,0.381*%
%ADD41C,0.381*%
%ADD42R,0.800X1.300*%
%ADD43R,2.100X3.000*%
G04:AMPARAMS|DCode=44|XSize=0.5mm|YSize=0.6mm|CornerRadius=0.125mm|HoleSize=0mm|Usage=FLASHONLY|Rotation=173.000|XOffset=0mm|YOffset=0mm|HoleType=Round|Shape=RoundedRectangle|*
%AMROUNDEDRECTD44*
21,1,0.500,0.350,0,0,173.0*
21,1,0.250,0.600,0,0,173.0*
1,1,0.250,-0.103,0.189*
1,1,0.250,0.145,0.158*
1,1,0.250,0.103,-0.189*
1,1,0.250,-0.145,-0.158*
%
%ADD44ROUNDEDRECTD44*%
G04:AMPARAMS|DCode=45|XSize=0.5mm|YSize=0.6mm|CornerRadius=0.125mm|HoleSize=0mm|Usage=FLASHONLY|Rotation=165.000|XOffset=0mm|YOffset=0mm|HoleType=Round|Shape=RoundedRectangle|*
%AMROUNDEDRECTD45*
21,1,0.500,0.350,0,0,165.0*
21,1,0.250,0.600,0,0,165.0*
1,1,0.250,-0.075,0.201*
1,1,0.250,0.166,0.137*
1,1,0.250,0.075,-0.201*
1,1,0.250,-0.166,-0.137*
%
%ADD45ROUNDEDRECTD45*%
G04:AMPARAMS|DCode=46|XSize=0.5mm|YSize=0.6mm|CornerRadius=0.125mm|HoleSize=0mm|Usage=FLASHONLY|Rotation=138.000|XOffset=0mm|YOffset=0mm|HoleType=Round|Shape=RoundedRectangle|*
%AMROUNDEDRECTD46*
21,1,0.500,0.350,0,0,138.0*
21,1,0.250,0.600,0,0,138.0*
1,1,0.250,0.024,0.214*
1,1,0.250,0.210,0.046*
1,1,0.250,-0.024,-0.214*
1,1,0.250,-0.210,-0.046*
%
%ADD46ROUNDEDRECTD46*%
G04:AMPARAMS|DCode=47|XSize=0.5mm|YSize=0.6mm|CornerRadius=0.125mm|HoleSize=0mm|Usage=FLASHONLY|Rotation=90.000|XOffset=0mm|YOffset=0mm|HoleType=Round|Shape=RoundedRectangle|*
%AMROUNDEDRECTD47*
21,1,0.500,0.350,0,0,90.0*
21,1,0.250,0.600,0,0,90.0*
1,1,0.250,0.175,0.125*
1,1,0.250,0.175,-0.125*
1,1,0.250,-0.175,-0.125*
1,1,0.250,-0.175,0.125*
%
%ADD47ROUNDEDRECTD47*%
G04:AMPARAMS|DCode=48|XSize=0.5mm|YSize=0.6mm|CornerRadius=0.125mm|HoleSize=0mm|Usage=FLASHONLY|Rotation=42.000|XOffset=0mm|YOffset=0mm|HoleType=Round|Shape=RoundedRectangle|*
%AMROUNDEDRECTD48*
21,1,0.500,0.350,0,0,42.0*
21,1,0.250,0.600,0,0,42.0*
1,1,0.250,0.210,-0.046*
1,1,0.250,0.024,-0.214*
1,1,0.250,-0.210,0.046*
1,1,0.250,-0.024,0.214*
%
%ADD48ROUNDEDRECTD48*%
G04:AMPARAMS|DCode=49|XSize=0.5mm|YSize=0.6mm|CornerRadius=0.125mm|HoleSize=0mm|Usage=FLASHONLY|Rotation=15.000|XOffset=0mm|YOffset=0mm|HoleType=Round|Shape=RoundedRectangle|*
%AMROUNDEDRECTD49*
21,1,0.500,0.350,0,0,15.0*
21,1,0.250,0.600,0,0,15.0*
1,1,0.250,0.166,-0.137*
1,1,0.250,-0.075,-0.201*
1,1,0.250,-0.166,0.137*
1,1,0.250,0.075,0.201*
%
%ADD49ROUNDEDRECTD49*%
G04:AMPARAMS|DCode=50|XSize=0.5mm|YSize=0.6mm|CornerRadius=0.125mm|HoleSize=0mm|Usage=FLASHONLY|Rotation=7.000|XOffset=0mm|YOffset=0mm|HoleType=Round|Shape=RoundedRectangle|*
%AMROUNDEDRECTD50*
21,1,0.500,0.350,0,0,7.0*
21,1,0.250,0.600,0,0,7.0*
1,1,0.250,0.145,-0.158*
1,1,0.250,-0.103,-0.189*
1,1,0.250,-0.145,0.158*
1,1,0.250,0.103,0.189*
%
%ADD50ROUNDEDRECTD50*%
G04:AMPARAMS|DCode=51|XSize=1.09mm|YSize=0.4mm|CornerRadius=0mm|HoleSize=0mm|Usage=FLASHONLY|Rotation=83.000|XOffset=0mm|YOffset=0mm|HoleType=Round|Shape=Rectangle|*
%AMROTATEDRECTD51*
4,1,4,0.132,-0.565,-0.265,-0.517,-0.132,0.565,0.265,0.517,0.132,-0.565,0.0*
%
%ADD51ROTATEDRECTD51*%

G04:AMPARAMS|DCode=52|XSize=1.09mm|YSize=0.4mm|CornerRadius=0.1mm|HoleSize=0mm|Usage=FLASHONLY|Rotation=83.000|XOffset=0mm|YOffset=0mm|HoleType=Round|Shape=RoundedRectangle|*
%AMROUNDEDRECTD52*
21,1,1.090,0.200,0,0,83.0*
21,1,0.890,0.400,0,0,83.0*
1,1,0.200,0.153,0.430*
1,1,0.200,0.045,-0.454*
1,1,0.200,-0.153,-0.430*
1,1,0.200,-0.045,0.454*
%
%ADD52ROUNDEDRECTD52*%
G04:AMPARAMS|DCode=53|XSize=1.09mm|YSize=0.4mm|CornerRadius=0mm|HoleSize=0mm|Usage=FLASHONLY|Rotation=75.000|XOffset=0mm|YOffset=0mm|HoleType=Round|Shape=Rectangle|*
%AMROTATEDRECTD53*
4,1,4,0.052,-0.578,-0.334,-0.475,-0.052,0.578,0.334,0.475,0.052,-0.578,0.0*
%
%ADD53ROTATEDRECTD53*%

G04:AMPARAMS|DCode=54|XSize=1.09mm|YSize=0.4mm|CornerRadius=0.1mm|HoleSize=0mm|Usage=FLASHONLY|Rotation=75.000|XOffset=0mm|YOffset=0mm|HoleType=Round|Shape=RoundedRectangle|*
%AMROUNDEDRECTD54*
21,1,1.090,0.200,0,0,75.0*
21,1,0.890,0.400,0,0,75.0*
1,1,0.200,0.212,0.404*
1,1,0.200,-0.019,-0.456*
1,1,0.200,-0.212,-0.404*
1,1,0.200,0.019,0.456*
%
%ADD54ROUNDEDRECTD54*%
G04:AMPARAMS|DCode=55|XSize=1.09mm|YSize=0.4mm|CornerRadius=0mm|HoleSize=0mm|Usage=FLASHONLY|Rotation=48.000|XOffset=0mm|YOffset=0mm|HoleType=Round|Shape=Rectangle|*
%AMROTATEDRECTD55*
4,1,4,-0.216,-0.539,-0.513,-0.271,0.216,0.539,0.513,0.271,-0.216,-0.539,0.0*
%
%ADD55ROTATEDRECTD55*%

G04:AMPARAMS|DCode=56|XSize=1.09mm|YSize=0.4mm|CornerRadius=0.1mm|HoleSize=0mm|Usage=FLASHONLY|Rotation=48.000|XOffset=0mm|YOffset=0mm|HoleType=Round|Shape=RoundedRectangle|*
%AMROUNDEDRECTD56*
21,1,1.090,0.200,0,0,48.0*
21,1,0.890,0.400,0,0,48.0*
1,1,0.200,0.372,0.264*
1,1,0.200,-0.223,-0.398*
1,1,0.200,-0.372,-0.264*
1,1,0.200,0.223,0.398*
%
%ADD56ROUNDEDRECTD56*%
%ADD57R,1.090X0.400*%
G04:AMPARAMS|DCode=58|XSize=1.09mm|YSize=0.4mm|CornerRadius=0.1mm|HoleSize=0mm|Usage=FLASHONLY|Rotation=0.000|XOffset=0mm|YOffset=0mm|HoleType=Round|Shape=RoundedRectangle|*
%AMROUNDEDRECTD58*
21,1,1.090,0.200,0,0,0.0*
21,1,0.890,0.400,0,0,0.0*
1,1,0.200,0.445,-0.100*
1,1,0.200,-0.445,-0.100*
1,1,0.200,-0.445,0.100*
1,1,0.200,0.445,0.100*
%
%ADD58ROUNDEDRECTD58*%
G04:AMPARAMS|DCode=59|XSize=1.09mm|YSize=0.4mm|CornerRadius=0mm|HoleSize=0mm|Usage=FLASHONLY|Rotation=312.000|XOffset=0mm|YOffset=0mm|HoleType=Round|Shape=Rectangle|*
%AMROTATEDRECTD59*
4,1,4,-0.513,0.271,-0.216,0.539,0.513,-0.271,0.216,-0.539,-0.513,0.271,0.0*
%
%ADD59ROTATEDRECTD59*%

G04:AMPARAMS|DCode=60|XSize=1.09mm|YSize=0.4mm|CornerRadius=0.1mm|HoleSize=0mm|Usage=FLASHONLY|Rotation=312.000|XOffset=0mm|YOffset=0mm|HoleType=Round|Shape=RoundedRectangle|*
%AMROUNDEDRECTD60*
21,1,1.090,0.200,0,0,312.0*
21,1,0.890,0.400,0,0,312.0*
1,1,0.200,0.223,-0.398*
1,1,0.200,-0.372,0.264*
1,1,0.200,-0.223,0.398*
1,1,0.200,0.372,-0.264*
%
%ADD60ROUNDEDRECTD60*%
G04:AMPARAMS|DCode=61|XSize=1.09mm|YSize=0.4mm|CornerRadius=0mm|HoleSize=0mm|Usage=FLASHONLY|Rotation=285.000|XOffset=0mm|YOffset=0mm|HoleType=Round|Shape=Rectangle|*
%AMROTATEDRECTD61*
4,1,4,-0.334,0.475,0.052,0.578,0.334,-0.475,-0.052,-0.578,-0.334,0.475,0.0*
%
%ADD61ROTATEDRECTD61*%

G04:AMPARAMS|DCode=62|XSize=1.09mm|YSize=0.4mm|CornerRadius=0.1mm|HoleSize=0mm|Usage=FLASHONLY|Rotation=285.000|XOffset=0mm|YOffset=0mm|HoleType=Round|Shape=RoundedRectangle|*
%AMROUNDEDRECTD62*
21,1,1.090,0.200,0,0,285.0*
21,1,0.890,0.400,0,0,285.0*
1,1,0.200,0.019,-0.456*
1,1,0.200,-0.212,0.404*
1,1,0.200,-0.019,0.456*
1,1,0.200,0.212,-0.404*
%
%ADD62ROUNDEDRECTD62*%
G04:AMPARAMS|DCode=63|XSize=1.09mm|YSize=0.4mm|CornerRadius=0mm|HoleSize=0mm|Usage=FLASHONLY|Rotation=277.000|XOffset=0mm|YOffset=0mm|HoleType=Round|Shape=Rectangle|*
%AMROTATEDRECTD63*
4,1,4,-0.265,0.517,0.132,0.565,0.265,-0.517,-0.132,-0.565,-0.265,0.517,0.0*
%
%ADD63ROTATEDRECTD63*%

G04:AMPARAMS|DCode=64|XSize=1.09mm|YSize=0.4mm|CornerRadius=0.1mm|HoleSize=0mm|Usage=FLASHONLY|Rotation=277.000|XOffset=0mm|YOffset=0mm|HoleType=Round|Shape=RoundedRectangle|*
%AMROUNDEDRECTD64*
21,1,1.090,0.200,0,0,277.0*
21,1,0.890,0.400,0,0,277.0*
1,1,0.200,-0.045,-0.454*
1,1,0.200,-0.153,0.430*
1,1,0.200,0.045,0.454*
1,1,0.200,0.153,-0.430*
%
%ADD64ROUNDEDRECTD64*%
%ADD65C,1.900*%
%ADD66R,1.900X1.900*%
%ADD67R,1.900X1.900*%
%ADD68C,6.000*%
%ADD69C,0.600*%
G36*
X13627Y124946D02*
X13236Y124898D01*
X13236Y124902D01*
X13235Y124913D01*
X13192Y125276D01*
X13570Y125323D01*
X13627Y124946D01*
D02*
G37*
G36*
X8940Y124145D02*
X8559Y124044D01*
X8465Y124413D01*
X8833Y124511D01*
X8940Y124145D01*
D02*
G37*
G36*
X13757Y123867D02*
X13756Y123860D01*
X13756Y123847D01*
X13756Y123829D01*
X13767Y123707D01*
X13778Y123617D01*
X13399Y123570D01*
X13368Y123822D01*
X13759Y123870D01*
X13757Y123867D01*
D02*
G37*
G36*
X8129Y123928D02*
X7844Y123480D01*
X7533Y123920D01*
X7887Y124218D01*
X8129Y123928D01*
D02*
G37*
G36*
X12127Y123393D02*
X11749Y123347D01*
X11701Y123618D01*
X12092Y123666D01*
X12127Y123393D01*
D02*
G37*
G36*
X11378Y124583D02*
X11418Y124260D01*
X11815Y124308D01*
X11846Y124050D01*
X11449Y124002D01*
X11499Y123597D01*
X11499Y123593D01*
X11500Y123588D01*
X11500Y123586D01*
X11500Y123582D01*
X11502Y123571D01*
X11524Y123391D01*
X11524Y123391D01*
X11543Y123321D01*
X11556Y123282D01*
X11565Y123215D01*
X11643Y123027D01*
X11667Y122995D01*
X11679Y122968D01*
X11715Y122918D01*
X11915Y122524D01*
X11921Y122476D01*
X11961Y122353D01*
X12046Y122255D01*
X12161Y122197D01*
X12249Y122190D01*
X12192Y122660D01*
X12121Y122569D01*
X11878Y123046D01*
X12161Y123307D01*
X12209Y123239D01*
X12362Y123054D01*
X12390Y123029D01*
X12415Y123012D01*
X12435Y123004D01*
X12450Y123004D01*
X12462Y123013D01*
X12213Y122688D01*
X12516Y122725D01*
X12577Y122231D01*
X12661Y122258D01*
X12759Y122343D01*
X12923Y122394D01*
X12939Y122386D01*
X12947Y122241D01*
Y109958D01*
X12944D01*
X12985Y109337D01*
X13106Y108726D01*
X13307Y108137D01*
X13582Y107578D01*
X13928Y107061D01*
X14338Y106593D01*
X14806Y106183D01*
X15323Y105837D01*
X15882Y105562D01*
X16471Y105361D01*
X17081Y105240D01*
X17703Y105199D01*
Y105202D01*
X20950D01*
X20962Y105204D01*
X21297Y105171D01*
X21631Y105070D01*
X21939Y104905D01*
X22209Y104684D01*
X22430Y104414D01*
X22595Y104106D01*
X22696Y103772D01*
X22729Y103437D01*
X22727Y103425D01*
Y98323D01*
X22652Y98205D01*
X22525Y98205D01*
X22400Y98205D01*
X22140D01*
Y97355D01*
Y96505D01*
X22400D01*
X22475Y96505D01*
X22619Y96505D01*
X22727Y96287D01*
Y96014D01*
X22727Y96013D01*
X22705Y95903D01*
X22642Y95808D01*
X22547Y95745D01*
X22437Y95723D01*
X22436Y95723D01*
X10180D01*
Y95724D01*
X9638Y95689D01*
X9105Y95583D01*
X8590Y95408D01*
X8103Y95168D01*
X7651Y94866D01*
X7242Y94508D01*
X6884Y94099D01*
X6582Y93647D01*
X6342Y93160D01*
X6167Y92645D01*
X6061Y92112D01*
X6026Y91570D01*
X6027D01*
X6027Y84109D01*
X6020Y84093D01*
X5236Y83309D01*
X5194Y83280D01*
X5142Y83253D01*
X5080Y83227D01*
X5008Y83205D01*
X4926Y83186D01*
X4837Y83172D01*
X4619Y83155D01*
X4497Y83154D01*
X4479Y83150D01*
X4339D01*
X4046Y83072D01*
X3784Y82920D01*
X3570Y82706D01*
X3418Y82444D01*
X3340Y82151D01*
Y81849D01*
X3418Y81556D01*
X3570Y81294D01*
X3784Y81080D01*
X4046Y80928D01*
X4339Y80850D01*
X4641D01*
X4934Y80928D01*
X5196Y81080D01*
X5410Y81294D01*
X5562Y81556D01*
X5640Y81849D01*
Y81987D01*
X5644Y82003D01*
X5651Y82245D01*
X5662Y82344D01*
X5676Y82436D01*
X5695Y82518D01*
X5717Y82590D01*
X5743Y82652D01*
X5770Y82704D01*
X5799Y82746D01*
X6425Y83372D01*
X6568Y83338D01*
X6583Y83295D01*
X6579Y83285D01*
X6544Y83218D01*
X6499Y83147D01*
X6447Y83074D01*
X6305Y82908D01*
X6219Y82821D01*
X6209Y82805D01*
X6110Y82706D01*
X5958Y82444D01*
X5880Y82151D01*
Y81849D01*
X5958Y81556D01*
X6110Y81294D01*
X6324Y81080D01*
X6586Y80928D01*
X6879Y80850D01*
X7181D01*
X7474Y80928D01*
X7736Y81080D01*
X7950Y81294D01*
X8102Y81556D01*
X8180Y81849D01*
Y82151D01*
X8102Y82444D01*
X7950Y82706D01*
X7852Y82804D01*
X7844Y82818D01*
X7678Y82994D01*
X7615Y83072D01*
X7561Y83147D01*
X7516Y83218D01*
X7481Y83285D01*
X7477Y83295D01*
X7492Y83338D01*
X7635Y83372D01*
X8261Y82746D01*
X8290Y82704D01*
X8317Y82652D01*
X8343Y82590D01*
X8365Y82518D01*
X8384Y82436D01*
X8398Y82347D01*
X8415Y82129D01*
X8416Y82007D01*
X8420Y81989D01*
Y81849D01*
X8498Y81556D01*
X8650Y81294D01*
X8864Y81080D01*
X9126Y80928D01*
X9419Y80850D01*
X9721D01*
X10014Y80928D01*
X10276Y81080D01*
X10490Y81294D01*
X10642Y81556D01*
X10720Y81849D01*
Y82151D01*
X10642Y82444D01*
X10490Y82706D01*
X10276Y82920D01*
X10014Y83072D01*
X9721Y83150D01*
X9583D01*
X9567Y83154D01*
X9325Y83161D01*
X9226Y83172D01*
X9134Y83186D01*
X9052Y83205D01*
X8980Y83227D01*
X8918Y83253D01*
X8866Y83280D01*
X8824Y83309D01*
X8055Y84078D01*
X8048Y84094D01*
Y88048D01*
X8173Y88073D01*
X8235Y87923D01*
X8487Y87512D01*
X8801Y87145D01*
X9168Y86831D01*
X9579Y86579D01*
X10025Y86395D01*
X10494Y86282D01*
X10975Y86244D01*
Y86246D01*
X13177D01*
X13298Y86246D01*
X13300Y86246D01*
X13301Y86246D01*
X13301Y86246D01*
X13304Y86246D01*
X13305Y86246D01*
X13496Y86221D01*
X13684Y86143D01*
X13845Y86020D01*
X13968Y85859D01*
X14046Y85671D01*
X14072Y85475D01*
X14071Y85470D01*
Y40355D01*
X10956D01*
Y40356D01*
X10518Y40322D01*
X10090Y40219D01*
X9684Y40050D01*
X9308Y39821D01*
X8974Y39535D01*
X8688Y39200D01*
X8458Y38825D01*
X8290Y38419D01*
X8214Y38100D01*
X8187Y37991D01*
X8186Y37979D01*
X8182Y37918D01*
X8184Y37906D01*
X8167Y37779D01*
X8168Y37778D01*
X8171Y37655D01*
Y35825D01*
X8171Y35824D01*
X8171Y35824D01*
X8171Y29036D01*
X8168Y28927D01*
X8166Y28927D01*
X8168Y28913D01*
X8172Y28789D01*
X8176Y27954D01*
X8174Y27834D01*
X8174Y27834D01*
X8170Y27830D01*
X8170Y27830D01*
X8183Y27710D01*
X8216Y27288D01*
X8343Y26759D01*
X8552Y26256D01*
X8836Y25793D01*
X9189Y25379D01*
X9603Y25026D01*
X10066Y24742D01*
X10569Y24533D01*
X11098Y24406D01*
X11640Y24364D01*
Y24367D01*
X18775D01*
X18825Y24357D01*
X18882Y24340D01*
X18943Y24314D01*
X19010Y24279D01*
X19081Y24234D01*
X19154Y24182D01*
X19320Y24040D01*
X19407Y23954D01*
X19423Y23944D01*
X19522Y23845D01*
X19784Y23693D01*
X20077Y23615D01*
X20379D01*
X20672Y23693D01*
X20934Y23845D01*
X21148Y24059D01*
X21300Y24321D01*
X21378Y24614D01*
Y24916D01*
X21300Y25209D01*
X21148Y25471D01*
X20934Y25685D01*
X20672Y25837D01*
X20379Y25915D01*
X20077D01*
X19784Y25837D01*
X19522Y25685D01*
X19424Y25587D01*
X19410Y25579D01*
X19234Y25413D01*
X19156Y25350D01*
X19081Y25296D01*
X19010Y25251D01*
X18943Y25216D01*
X18882Y25190D01*
X18825Y25173D01*
X18775Y25163D01*
X11640D01*
X11629Y25161D01*
X11222Y25193D01*
X10815Y25291D01*
X10428Y25451D01*
X10071Y25670D01*
X9752Y25942D01*
X9480Y26261D01*
X9261Y26618D01*
X9101Y27005D01*
X9003Y27412D01*
X8985Y27644D01*
X9106Y27693D01*
X9267Y27497D01*
X9574Y27246D01*
X9923Y27059D01*
X10303Y26944D01*
X10697Y26905D01*
Y26907D01*
X18775D01*
X18825Y26897D01*
X18882Y26880D01*
X18943Y26854D01*
X19010Y26819D01*
X19081Y26774D01*
X19154Y26722D01*
X19320Y26580D01*
X19407Y26494D01*
X19423Y26484D01*
X19522Y26385D01*
X19784Y26233D01*
X20077Y26155D01*
X20379D01*
X20672Y26233D01*
X20934Y26385D01*
X21148Y26599D01*
X21300Y26861D01*
X21378Y27154D01*
Y27456D01*
X21300Y27749D01*
X21148Y28011D01*
X20934Y28225D01*
X20672Y28377D01*
X20379Y28455D01*
X20077D01*
X19784Y28377D01*
X19522Y28225D01*
X19424Y28127D01*
X19410Y28119D01*
X19234Y27953D01*
X19156Y27890D01*
X19081Y27836D01*
X19010Y27791D01*
X18943Y27756D01*
X18882Y27730D01*
X18825Y27713D01*
X18775Y27703D01*
X10697D01*
X10681Y27700D01*
X10379Y27740D01*
X10082Y27862D01*
X9828Y28058D01*
X9632Y28312D01*
X9510Y28609D01*
X9470Y28911D01*
X9473Y28927D01*
Y36935D01*
X9598Y36968D01*
X9744Y36716D01*
X9766Y36691D01*
X9784Y36663D01*
X10015Y36432D01*
X10043Y36414D01*
X10068Y36392D01*
X10351Y36228D01*
X10382Y36218D01*
X10412Y36203D01*
X10727Y36119D01*
X10752Y36117D01*
X10777Y36110D01*
X10940Y36100D01*
X10948Y36101D01*
X10956Y36099D01*
X15255Y36099D01*
X15345Y36062D01*
X15414Y35993D01*
X15451Y35903D01*
Y35854D01*
Y34740D01*
X15471Y34643D01*
X15526Y34560D01*
X15609Y34505D01*
X15706Y34485D01*
X22237Y34485D01*
X22408D01*
X22746Y34418D01*
X23063Y34287D01*
X23349Y34096D01*
X23592Y33853D01*
X23783Y33567D01*
X23915Y33249D01*
X23982Y32912D01*
X23982Y32740D01*
X23982Y21854D01*
X23982Y21682D01*
X23915Y21345D01*
X23783Y21027D01*
X23592Y20742D01*
X23349Y20499D01*
X23063Y20308D01*
X22746Y20176D01*
X22408Y20109D01*
X22237D01*
X17706Y20109D01*
X17700Y20108D01*
X17694Y20109D01*
X17498Y20099D01*
X17479Y20094D01*
X17461D01*
X17076Y20018D01*
X17053Y20008D01*
X17028Y20003D01*
X16666Y19853D01*
X16645Y19839D01*
X16622Y19830D01*
X16296Y19612D01*
X16278Y19594D01*
X16257Y19580D01*
X15980Y19303D01*
X15966Y19282D01*
X15948Y19264D01*
X15731Y18938D01*
X15721Y18915D01*
X15707Y18894D01*
X15557Y18532D01*
X15552Y18508D01*
X15542Y18484D01*
X15466Y18100D01*
Y18081D01*
X15461Y18063D01*
X15452Y17867D01*
X15453Y17860D01*
X15451Y17854D01*
Y404D01*
X15327Y288D01*
X15228Y295D01*
X15129Y302D01*
X15030Y310D01*
X14931Y317D01*
X14832Y325D01*
X14832D01*
X14734Y333D01*
X14635Y341D01*
X14536Y350D01*
X14536D01*
X14422Y360D01*
X14307Y370D01*
X14193Y380D01*
X14193Y380D01*
X14078Y391D01*
X13964Y402D01*
X13866Y412D01*
X13768Y422D01*
X13670Y432D01*
X13557Y443D01*
X13444Y455D01*
X13330Y468D01*
X13217Y480D01*
X13104Y493D01*
X12991Y506D01*
X12895Y518D01*
X12798Y530D01*
X12798D01*
X12703Y541D01*
X12607Y553D01*
X12557Y560D01*
X12527Y689D01*
X12527Y690D01*
X12554Y708D01*
X12666Y819D01*
X12666Y819D01*
X12666Y819D01*
X12719Y873D01*
X12796Y988D01*
X12796Y988D01*
X12806Y1002D01*
X12808Y1015D01*
X12842Y1091D01*
X12842Y1091D01*
X12872Y1179D01*
X12875Y1193D01*
X12876Y1196D01*
X12876Y1196D01*
X12877Y1201D01*
X12883Y1231D01*
X12926Y1499D01*
X12932Y1528D01*
X13010Y1617D01*
X13094Y1607D01*
X13720Y1530D01*
X13844Y1515D01*
X13928Y1504D01*
X14112Y1482D01*
X14203Y2221D01*
X14332Y2205D01*
X14347Y2334D01*
X14746Y2286D01*
X14778Y2497D01*
X14778Y2500D01*
X14779Y2504D01*
X14845Y2997D01*
X14843Y3024D01*
X14848Y3050D01*
Y3172D01*
X14851D01*
X14809Y3495D01*
X14785Y3551D01*
X14672Y3953D01*
X14667Y4017D01*
X14609Y4132D01*
X14511Y4217D01*
X14427Y4244D01*
X14374Y3813D01*
X14471Y3913D01*
X14610Y3421D01*
X14259Y3172D01*
X14242Y3254D01*
X14206Y3384D01*
X14187Y3432D01*
X14167Y3469D01*
X14147Y3495D01*
X14126Y3510D01*
X14104Y3514D01*
X14082Y3507D01*
X14059Y3489D01*
X14318Y3756D01*
X14039Y3790D01*
X14099Y4285D01*
X14011Y4278D01*
X13896Y4220D01*
X13811Y4122D01*
X13803Y4097D01*
X13677Y4113D01*
X13675Y4139D01*
X13616Y4254D01*
X13518Y4339D01*
X13396Y4379D01*
X13148Y4410D01*
X13019Y4400D01*
X12903Y4342D01*
X12819Y4244D01*
X12778Y4121D01*
X12765Y4009D01*
X12728Y3973D01*
X12640Y3885D01*
X12640Y3885D01*
X12497Y3699D01*
X12407Y3482D01*
X12385Y3316D01*
X12380Y3298D01*
X12358Y3198D01*
X12255Y3136D01*
X12225Y3130D01*
X12134Y3208D01*
X12021Y3246D01*
X11823Y3270D01*
X11704Y3261D01*
X11597Y3207D01*
X11519Y3117D01*
X11482Y3004D01*
X11393Y2281D01*
X11353Y2013D01*
X10654Y2117D01*
X10636Y2121D01*
X10632Y2126D01*
X10632Y2126D01*
X10532Y2145D01*
X10408Y2164D01*
X10065Y2232D01*
X9976Y2353D01*
X9974Y2378D01*
X10054Y2675D01*
X9667Y2778D01*
X9735Y3029D01*
X10121Y2926D01*
X10132Y2966D01*
X10180Y3138D01*
X10180Y3140D01*
X10181Y3142D01*
X10310Y3622D01*
X10313Y3674D01*
X10323Y3725D01*
Y4082D01*
X10324D01*
X10291Y4326D01*
X10236Y4459D01*
X10252Y4517D01*
X10260Y4646D01*
X10219Y4769D01*
X10134Y4866D01*
X10054Y4905D01*
X9925Y4423D01*
X9607Y4509D01*
X9736Y4990D01*
X9647Y4996D01*
X9525Y4955D01*
X9428Y4869D01*
X9416Y4846D01*
X9293Y4879D01*
X9295Y4905D01*
X9253Y5027D01*
X9168Y5125D01*
X9052Y5182D01*
X8810Y5246D01*
X8681Y5255D01*
X8559Y5213D01*
X8462Y5128D01*
X8404Y5012D01*
X8393Y4969D01*
X8386Y4951D01*
X8371Y4920D01*
X8322Y4839D01*
X8297Y4803D01*
X8198Y4686D01*
X8054Y4542D01*
X8054Y4542D01*
X8052Y4544D01*
X7939Y4374D01*
X7923Y4294D01*
X7915Y4278D01*
X7873Y4120D01*
X7744Y4113D01*
X7665Y4203D01*
X7558Y4256D01*
X7365Y4307D01*
X7246Y4315D01*
X7133Y4277D01*
X7043Y4198D01*
X6990Y4091D01*
X6844Y3547D01*
X6604Y3290D01*
X6498Y3263D01*
X6463Y3272D01*
X6439Y3282D01*
X6375Y3309D01*
X6374Y3310D01*
X6258Y3356D01*
X5440Y3721D01*
X5329Y3776D01*
X5328Y3777D01*
X5215Y3829D01*
X5173Y3851D01*
X5067Y3912D01*
X5064Y3913D01*
X5030Y3939D01*
X5003Y4096D01*
X5211Y4327D01*
X4913Y4594D01*
X5087Y4787D01*
X5385Y4520D01*
X5657Y4823D01*
X5661Y4825D01*
X5662Y4827D01*
X5664Y4828D01*
X5691Y4860D01*
X5796Y4977D01*
Y4977D01*
X5877Y5061D01*
X5913Y5096D01*
X5913Y5096D01*
X6106Y5348D01*
X6228Y5641D01*
X6233Y5679D01*
X6324Y5781D01*
X6391Y5892D01*
X6409Y6020D01*
X6377Y6145D01*
X6324Y6216D01*
X5991Y5845D01*
X5746Y6066D01*
X6079Y6437D01*
X6003Y6482D01*
X5875Y6500D01*
X5750Y6469D01*
X5729Y6453D01*
X5634Y6538D01*
X5647Y6561D01*
X5666Y6689D01*
X5634Y6814D01*
X5557Y6918D01*
X5371Y7085D01*
X5260Y7151D01*
X5132Y7170D01*
X5007Y7138D01*
X4903Y7060D01*
X4896Y7053D01*
X4783Y7025D01*
Y7025D01*
X4503Y6988D01*
X4242Y6880D01*
X4039Y6724D01*
X4017Y6708D01*
X4017Y6708D01*
X3953Y6636D01*
X3833Y6644D01*
X3805Y6657D01*
X3776Y6773D01*
X3704Y6868D01*
X3556Y7002D01*
X3453Y7063D01*
X3335Y7080D01*
X3219Y7051D01*
X3124Y6979D01*
X2637Y6438D01*
X2497Y6292D01*
X2468Y6294D01*
X2371Y6323D01*
X2355Y6353D01*
X2355Y6353D01*
X2293Y6461D01*
X2220Y6603D01*
X2177Y6696D01*
X2177Y6697D01*
X2177Y6697D01*
X2136Y6786D01*
X2110Y6846D01*
X2074Y6932D01*
X2051Y6988D01*
X2032Y7036D01*
X2014Y7083D01*
X1997Y7129D01*
X1982Y7170D01*
X1959Y7236D01*
X1959Y7236D01*
X1936Y7296D01*
X1918Y7358D01*
X1903Y7403D01*
X1903Y7403D01*
X1862Y7521D01*
X1862Y7523D01*
X1850Y7563D01*
X1840Y7598D01*
X1830Y7634D01*
X1824Y7657D01*
X1798Y7780D01*
X1771Y7872D01*
X1754Y7966D01*
X1729Y8081D01*
X1721Y8120D01*
X1705Y8188D01*
X1694Y8258D01*
Y8258D01*
X1679Y8327D01*
X1736Y8412D01*
X1758Y8429D01*
X1784Y8440D01*
X1970D01*
Y8840D01*
X2230D01*
Y8440D01*
X2845D01*
Y8446D01*
X3108Y8472D01*
X3401Y8561D01*
X3420Y8571D01*
X3861Y8736D01*
X3927Y8749D01*
X4034Y8821D01*
X4106Y8928D01*
X4123Y9015D01*
X3716D01*
X3800Y8931D01*
X3299Y8743D01*
X2973Y9045D01*
X3072Y9081D01*
X3231Y9152D01*
X3289Y9186D01*
X3334Y9219D01*
X3366Y9252D01*
X3384Y9284D01*
X3388Y9316D01*
X3378Y9347D01*
X3355Y9377D01*
X3625Y9106D01*
Y9345D01*
X4123D01*
X4106Y9432D01*
X4034Y9539D01*
X3927Y9611D01*
X3901Y9616D01*
Y9744D01*
X3927Y9749D01*
X4034Y9821D01*
X4106Y9928D01*
X4131Y10055D01*
Y10305D01*
X4106Y10432D01*
X4034Y10539D01*
X3927Y10611D01*
X3861Y10624D01*
X3420Y10789D01*
X3401Y10799D01*
X3108Y10888D01*
X2845Y10914D01*
Y10920D01*
X2801D01*
X2761Y11044D01*
X2828Y11143D01*
X2851Y11260D01*
Y11460D01*
X2828Y11577D01*
X2761Y11676D01*
X2662Y11743D01*
X2545Y11766D01*
X1655D01*
X1548Y11852D01*
Y14616D01*
X1970D01*
Y15016D01*
X2230D01*
Y14616D01*
X2845D01*
Y14622D01*
X3108Y14648D01*
X3401Y14737D01*
X3420Y14747D01*
X3861Y14912D01*
X3927Y14925D01*
X4034Y14997D01*
X4106Y15104D01*
X4123Y15191D01*
X3716D01*
X3800Y15107D01*
X3299Y14919D01*
X2973Y15221D01*
X3072Y15257D01*
X3231Y15328D01*
X3289Y15362D01*
X3334Y15395D01*
X3366Y15428D01*
X3384Y15460D01*
X3388Y15492D01*
X3378Y15523D01*
X3355Y15553D01*
X3625Y15282D01*
Y15521D01*
X4123D01*
X4106Y15608D01*
X4034Y15715D01*
X3927Y15787D01*
X3901Y15792D01*
Y15920D01*
X3927Y15925D01*
X4034Y15997D01*
X4106Y16104D01*
X4131Y16231D01*
Y16481D01*
X4106Y16608D01*
X4034Y16715D01*
X3927Y16787D01*
X3861Y16800D01*
X3420Y16965D01*
X3401Y16975D01*
X3108Y17064D01*
X2845Y17090D01*
Y17096D01*
X2801D01*
X2761Y17220D01*
X2828Y17319D01*
X2851Y17436D01*
Y17636D01*
X2828Y17753D01*
X2761Y17852D01*
X2662Y17919D01*
X2545Y17942D01*
X1655D01*
X1548Y18028D01*
Y20892D01*
X1970D01*
Y21292D01*
X2230D01*
Y20892D01*
X2845D01*
Y20898D01*
X3108Y20924D01*
X3401Y21013D01*
X3420Y21023D01*
X3861Y21188D01*
X3927Y21201D01*
X4034Y21273D01*
X4106Y21380D01*
X4123Y21467D01*
X3716D01*
X3800Y21383D01*
X3299Y21195D01*
X2973Y21497D01*
X3355Y21829D01*
X3625Y21558D01*
Y21797D01*
X4123D01*
X4106Y21884D01*
X4034Y21991D01*
X3927Y22063D01*
X3901Y22068D01*
Y22196D01*
X3927Y22201D01*
X4034Y22273D01*
X4106Y22380D01*
X4131Y22507D01*
Y22757D01*
X4106Y22884D01*
X4034Y22991D01*
X3927Y23063D01*
X3861Y23076D01*
X3420Y23241D01*
X3401Y23251D01*
X3108Y23340D01*
X2845Y23366D01*
Y23372D01*
X2801D01*
X2761Y23496D01*
X2828Y23595D01*
X2851Y23712D01*
Y23912D01*
X2828Y24029D01*
X2761Y24128D01*
X2662Y24195D01*
X2545Y24218D01*
X1655D01*
X1548Y24304D01*
Y27168D01*
X1970D01*
Y27568D01*
X2230D01*
Y27168D01*
X2845D01*
Y27174D01*
X3108Y27200D01*
X3401Y27289D01*
X3420Y27299D01*
X3861Y27464D01*
X3927Y27477D01*
X4034Y27549D01*
X4106Y27656D01*
X4123Y27743D01*
X3716D01*
X3800Y27659D01*
X3299Y27471D01*
X2973Y27773D01*
X3355Y28105D01*
X3625Y27834D01*
Y28073D01*
X4123D01*
X4106Y28160D01*
X4034Y28267D01*
X3927Y28339D01*
X3901Y28344D01*
Y28472D01*
X3927Y28477D01*
X4034Y28549D01*
X4106Y28656D01*
X4131Y28783D01*
Y29033D01*
X4106Y29160D01*
X4034Y29267D01*
X3927Y29339D01*
X3861Y29352D01*
X3420Y29517D01*
X3401Y29527D01*
X3108Y29616D01*
X2845Y29642D01*
Y29648D01*
X2801D01*
X2761Y29772D01*
X2828Y29871D01*
X2851Y29988D01*
Y30188D01*
X2828Y30305D01*
X2761Y30404D01*
X2662Y30471D01*
X2545Y30494D01*
X1655D01*
X1548Y30580D01*
Y33444D01*
X1970D01*
Y33844D01*
X2230D01*
Y33444D01*
X2845D01*
Y33450D01*
X3108Y33476D01*
X3401Y33565D01*
X3420Y33575D01*
X3861Y33740D01*
X3927Y33753D01*
X4034Y33825D01*
X4106Y33932D01*
X4123Y34019D01*
X3716D01*
X3800Y33935D01*
X3299Y33747D01*
X2973Y34049D01*
X3355Y34381D01*
X3625Y34110D01*
Y34349D01*
X4123D01*
X4106Y34436D01*
X4034Y34543D01*
X3927Y34615D01*
X3901Y34620D01*
Y34748D01*
X3927Y34753D01*
X4034Y34825D01*
X4106Y34932D01*
X4131Y35059D01*
Y35309D01*
X4106Y35436D01*
X4034Y35543D01*
X3927Y35615D01*
X3861Y35628D01*
X3420Y35793D01*
X3401Y35803D01*
X3108Y35892D01*
X2845Y35918D01*
Y35924D01*
X2801D01*
X2761Y36048D01*
X2828Y36147D01*
X2851Y36264D01*
Y36464D01*
X2828Y36581D01*
X2761Y36680D01*
X2662Y36747D01*
X2545Y36770D01*
X1655D01*
X1548Y36856D01*
Y39720D01*
X1970D01*
Y40120D01*
X2230D01*
Y39720D01*
X2845D01*
Y39726D01*
X3108Y39752D01*
X3401Y39841D01*
X3420Y39851D01*
X3861Y40016D01*
X3927Y40029D01*
X4034Y40101D01*
X4106Y40208D01*
X4123Y40295D01*
X3716D01*
X3800Y40211D01*
X3299Y40023D01*
X2973Y40325D01*
X3355Y40657D01*
X3625Y40386D01*
Y40625D01*
X4123D01*
X4106Y40712D01*
X4034Y40819D01*
X3927Y40891D01*
X3901Y40896D01*
Y41024D01*
X3927Y41029D01*
X4034Y41101D01*
X4106Y41208D01*
X4131Y41335D01*
Y41585D01*
X4106Y41712D01*
X4034Y41819D01*
X3927Y41891D01*
X3861Y41904D01*
X3420Y42069D01*
X3401Y42079D01*
X3108Y42168D01*
X2845Y42194D01*
Y42200D01*
X2801D01*
X2761Y42324D01*
X2828Y42423D01*
X2851Y42540D01*
Y42740D01*
X2828Y42857D01*
X2761Y42956D01*
X2662Y43023D01*
X2545Y43046D01*
X1655D01*
X1548Y43132D01*
Y45996D01*
X1970D01*
Y46396D01*
X2230D01*
Y45996D01*
X2845D01*
Y46002D01*
X3108Y46028D01*
X3401Y46117D01*
X3420Y46127D01*
X3861Y46292D01*
X3927Y46305D01*
X4034Y46377D01*
X4106Y46484D01*
X4123Y46571D01*
X3716D01*
X3800Y46487D01*
X3299Y46299D01*
X2973Y46601D01*
X3072Y46637D01*
X3231Y46708D01*
X3289Y46742D01*
X3334Y46775D01*
X3366Y46808D01*
X3384Y46840D01*
X3388Y46872D01*
X3378Y46903D01*
X3355Y46933D01*
X3625Y46662D01*
Y46901D01*
X4123D01*
X4106Y46988D01*
X4034Y47095D01*
X3927Y47167D01*
X3901Y47172D01*
Y47300D01*
X3927Y47305D01*
X4034Y47377D01*
X4106Y47484D01*
X4131Y47611D01*
Y47861D01*
X4106Y47988D01*
X4034Y48095D01*
X3927Y48167D01*
X3861Y48180D01*
X3420Y48345D01*
X3401Y48355D01*
X3108Y48444D01*
X2845Y48470D01*
Y48476D01*
X2801D01*
X2761Y48600D01*
X2828Y48699D01*
X2851Y48816D01*
Y49016D01*
X2828Y49133D01*
X2761Y49232D01*
X2662Y49299D01*
X2545Y49322D01*
X1655D01*
X1548Y49408D01*
Y52272D01*
X1970D01*
Y52672D01*
X2230D01*
Y52272D01*
X2845D01*
Y52278D01*
X3108Y52304D01*
X3401Y52393D01*
X3420Y52403D01*
X3861Y52568D01*
X3927Y52581D01*
X4034Y52653D01*
X4106Y52760D01*
X4123Y52847D01*
X3716D01*
X3800Y52763D01*
X3299Y52575D01*
X2973Y52877D01*
X3072Y52913D01*
X3231Y52984D01*
X3289Y53018D01*
X3334Y53051D01*
X3366Y53084D01*
X3384Y53116D01*
X3388Y53148D01*
X3378Y53179D01*
X3355Y53209D01*
X3625Y52938D01*
Y53177D01*
X4123D01*
X4106Y53264D01*
X4034Y53371D01*
X3927Y53443D01*
X3901Y53448D01*
Y53576D01*
X3927Y53581D01*
X4034Y53653D01*
X4106Y53760D01*
X4131Y53887D01*
Y54137D01*
X4106Y54264D01*
X4034Y54371D01*
X3927Y54443D01*
X3861Y54456D01*
X3420Y54621D01*
X3401Y54631D01*
X3108Y54720D01*
X2845Y54746D01*
Y54752D01*
X2801D01*
X2761Y54876D01*
X2828Y54975D01*
X2851Y55092D01*
Y55292D01*
X2828Y55409D01*
X2761Y55508D01*
X2662Y55575D01*
X2545Y55598D01*
X1655D01*
X1548Y55684D01*
Y58548D01*
X1970D01*
Y58948D01*
X2230D01*
Y58548D01*
X2845D01*
Y58554D01*
X3108Y58580D01*
X3401Y58669D01*
X3420Y58679D01*
X3861Y58844D01*
X3927Y58857D01*
X4034Y58929D01*
X4106Y59036D01*
X4123Y59123D01*
X3716D01*
X3800Y59039D01*
X3299Y58851D01*
X2973Y59153D01*
X3072Y59189D01*
X3231Y59260D01*
X3289Y59294D01*
X3334Y59327D01*
X3366Y59360D01*
X3384Y59392D01*
X3388Y59424D01*
X3378Y59455D01*
X3355Y59485D01*
X3625Y59214D01*
Y59453D01*
X4123D01*
X4106Y59540D01*
X4034Y59647D01*
X3927Y59719D01*
X3901Y59724D01*
Y59852D01*
X3927Y59857D01*
X4034Y59929D01*
X4106Y60036D01*
X4131Y60163D01*
Y60413D01*
X4106Y60540D01*
X4034Y60647D01*
X3927Y60719D01*
X3861Y60732D01*
X3420Y60897D01*
X3401Y60907D01*
X3108Y60996D01*
X2845Y61022D01*
Y61028D01*
X2801D01*
X2761Y61152D01*
X2828Y61251D01*
X2851Y61368D01*
Y61568D01*
X2828Y61685D01*
X2761Y61784D01*
X2662Y61851D01*
X2545Y61874D01*
X1655D01*
X1548Y61960D01*
Y64824D01*
X1970D01*
Y65224D01*
X2230D01*
Y64824D01*
X2845D01*
Y64830D01*
X3108Y64856D01*
X3401Y64945D01*
X3420Y64955D01*
X3861Y65120D01*
X3927Y65133D01*
X4034Y65205D01*
X4106Y65312D01*
X4123Y65399D01*
X3716D01*
X3800Y65315D01*
X3299Y65127D01*
X2973Y65429D01*
X3072Y65465D01*
X3231Y65536D01*
X3289Y65570D01*
X3334Y65603D01*
X3366Y65636D01*
X3384Y65668D01*
X3388Y65700D01*
X3378Y65731D01*
X3355Y65761D01*
X3625Y65490D01*
Y65729D01*
X4123D01*
X4106Y65816D01*
X4034Y65923D01*
X3927Y65995D01*
X3901Y66000D01*
Y66128D01*
X3927Y66133D01*
X4034Y66205D01*
X4106Y66312D01*
X4131Y66439D01*
Y66689D01*
X4106Y66816D01*
X4034Y66923D01*
X3927Y66995D01*
X3861Y67008D01*
X3420Y67173D01*
X3401Y67183D01*
X3108Y67272D01*
X2845Y67298D01*
Y67304D01*
X2801D01*
X2761Y67428D01*
X2828Y67527D01*
X2851Y67644D01*
Y67844D01*
X2828Y67961D01*
X2761Y68060D01*
X2662Y68127D01*
X2545Y68150D01*
X1655D01*
X1548Y68236D01*
Y71100D01*
X1970D01*
Y71500D01*
X2230D01*
Y71100D01*
X2845D01*
Y71106D01*
X3108Y71132D01*
X3401Y71221D01*
X3420Y71231D01*
X3861Y71396D01*
X3927Y71409D01*
X4034Y71481D01*
X4106Y71588D01*
X4123Y71675D01*
X3716D01*
X3800Y71591D01*
X3299Y71403D01*
X2973Y71705D01*
X3072Y71741D01*
X3231Y71812D01*
X3289Y71846D01*
X3334Y71879D01*
X3366Y71912D01*
X3384Y71944D01*
X3388Y71976D01*
X3378Y72007D01*
X3355Y72037D01*
X3625Y71766D01*
Y72005D01*
X4123D01*
X4106Y72092D01*
X4034Y72199D01*
X3927Y72271D01*
X3901Y72276D01*
Y72404D01*
X3927Y72409D01*
X4034Y72481D01*
X4106Y72588D01*
X4131Y72715D01*
Y72965D01*
X4106Y73092D01*
X4034Y73199D01*
X3927Y73271D01*
X3861Y73284D01*
X3420Y73449D01*
X3401Y73459D01*
X3108Y73548D01*
X2845Y73574D01*
Y73580D01*
X2801D01*
X2761Y73704D01*
X2828Y73803D01*
X2851Y73920D01*
Y74120D01*
X2828Y74237D01*
X2761Y74336D01*
X2662Y74403D01*
X2545Y74426D01*
X1655D01*
X1548Y74512D01*
Y77376D01*
X1970D01*
Y77776D01*
X2230D01*
Y77376D01*
X2845D01*
Y77382D01*
X3108Y77408D01*
X3401Y77497D01*
X3420Y77507D01*
X3861Y77672D01*
X3927Y77685D01*
X4034Y77757D01*
X4106Y77864D01*
X4123Y77951D01*
X3716D01*
X3800Y77867D01*
X3299Y77679D01*
X2973Y77981D01*
X3072Y78017D01*
X3231Y78088D01*
X3289Y78122D01*
X3334Y78155D01*
X3366Y78188D01*
X3384Y78220D01*
X3388Y78252D01*
X3378Y78283D01*
X3355Y78313D01*
X3625Y78042D01*
Y78281D01*
X4123D01*
X4106Y78368D01*
X4034Y78475D01*
X3927Y78547D01*
X3901Y78552D01*
Y78680D01*
X3927Y78685D01*
X4034Y78757D01*
X4106Y78864D01*
X4131Y78991D01*
Y79241D01*
X4106Y79368D01*
X4034Y79475D01*
X3927Y79547D01*
X3861Y79560D01*
X3420Y79725D01*
X3401Y79735D01*
X3108Y79824D01*
X2845Y79850D01*
Y79856D01*
X2801D01*
X2761Y79980D01*
X2828Y80079D01*
X2851Y80196D01*
Y80396D01*
X2828Y80513D01*
X2761Y80612D01*
X2662Y80679D01*
X2545Y80702D01*
X1655D01*
X1548Y80788D01*
Y83652D01*
X1970D01*
Y84052D01*
X2230D01*
Y83652D01*
X2845D01*
Y83658D01*
X3108Y83684D01*
X3401Y83773D01*
X3420Y83783D01*
X3861Y83948D01*
X3927Y83961D01*
X4034Y84033D01*
X4106Y84140D01*
X4123Y84227D01*
X3716D01*
X3800Y84143D01*
X3299Y83955D01*
X2973Y84257D01*
X3072Y84293D01*
X3231Y84364D01*
X3289Y84398D01*
X3334Y84431D01*
X3366Y84464D01*
X3384Y84496D01*
X3388Y84528D01*
X3378Y84559D01*
X3355Y84589D01*
X3625Y84318D01*
Y84557D01*
X4123D01*
X4106Y84644D01*
X4034Y84751D01*
X3927Y84823D01*
X3901Y84828D01*
Y84956D01*
X3927Y84961D01*
X4034Y85033D01*
X4106Y85140D01*
X4131Y85267D01*
Y85517D01*
X4106Y85644D01*
X4034Y85751D01*
X3927Y85823D01*
X3861Y85836D01*
X3420Y86001D01*
X3401Y86011D01*
X3108Y86100D01*
X2845Y86126D01*
Y86132D01*
X2801D01*
X2761Y86256D01*
X2828Y86355D01*
X2851Y86472D01*
Y86672D01*
X2828Y86789D01*
X2761Y86888D01*
X2662Y86955D01*
X2545Y86978D01*
X1655D01*
X1548Y87064D01*
Y89928D01*
X1970D01*
Y90328D01*
X2230D01*
Y89928D01*
X2845D01*
Y89934D01*
X3108Y89960D01*
X3401Y90049D01*
X3420Y90059D01*
X3861Y90224D01*
X3927Y90237D01*
X4034Y90309D01*
X4106Y90416D01*
X4123Y90503D01*
X3716D01*
X3800Y90419D01*
X3299Y90231D01*
X2973Y90533D01*
X3355Y90865D01*
X3625Y90594D01*
Y90833D01*
X4123D01*
X4106Y90920D01*
X4034Y91027D01*
X3927Y91099D01*
X3901Y91104D01*
Y91232D01*
X3927Y91237D01*
X4034Y91309D01*
X4106Y91416D01*
X4131Y91543D01*
Y91793D01*
X4106Y91920D01*
X4034Y92027D01*
X3927Y92099D01*
X3861Y92112D01*
X3420Y92277D01*
X3401Y92287D01*
X3108Y92376D01*
X2845Y92402D01*
Y92408D01*
X2801D01*
X2761Y92532D01*
X2828Y92631D01*
X2851Y92748D01*
Y92948D01*
X2828Y93065D01*
X2761Y93164D01*
X2662Y93231D01*
X2545Y93254D01*
X1655D01*
X1548Y93340D01*
Y96204D01*
X1970D01*
Y96604D01*
X2230D01*
Y96204D01*
X2845D01*
Y96210D01*
X3108Y96236D01*
X3401Y96325D01*
X3420Y96335D01*
X3861Y96500D01*
X3927Y96513D01*
X4034Y96585D01*
X4106Y96692D01*
X4123Y96779D01*
X3716D01*
X3800Y96695D01*
X3299Y96507D01*
X2973Y96809D01*
X3355Y97141D01*
X3625Y96870D01*
Y97109D01*
X4123D01*
X4106Y97196D01*
X4034Y97303D01*
X3927Y97375D01*
X3901Y97380D01*
Y97508D01*
X3927Y97513D01*
X4034Y97585D01*
X4106Y97692D01*
X4131Y97819D01*
Y98069D01*
X4106Y98196D01*
X4034Y98303D01*
X3927Y98375D01*
X3861Y98388D01*
X3420Y98553D01*
X3401Y98563D01*
X3108Y98652D01*
X2845Y98678D01*
Y98684D01*
X2801D01*
X2761Y98808D01*
X2828Y98907D01*
X2851Y99024D01*
Y99224D01*
X2828Y99341D01*
X2761Y99440D01*
X2662Y99507D01*
X2545Y99530D01*
X1655D01*
X1548Y99616D01*
Y102480D01*
X1970D01*
Y102880D01*
X2230D01*
Y102480D01*
X2845D01*
Y102486D01*
X3108Y102512D01*
X3401Y102601D01*
X3420Y102611D01*
X3861Y102776D01*
X3927Y102789D01*
X4034Y102861D01*
X4106Y102968D01*
X4123Y103055D01*
X3716D01*
X3800Y102971D01*
X3299Y102783D01*
X2973Y103085D01*
X3355Y103417D01*
X3625Y103146D01*
Y103385D01*
X4123D01*
X4106Y103472D01*
X4034Y103579D01*
X3927Y103651D01*
X3901Y103656D01*
Y103784D01*
X3927Y103789D01*
X4034Y103861D01*
X4106Y103968D01*
X4131Y104095D01*
Y104345D01*
X4106Y104472D01*
X4034Y104579D01*
X3927Y104651D01*
X3861Y104664D01*
X3420Y104829D01*
X3401Y104839D01*
X3108Y104928D01*
X2845Y104954D01*
Y104960D01*
X2801D01*
X2761Y105084D01*
X2828Y105183D01*
X2851Y105300D01*
Y105500D01*
X2828Y105617D01*
X2761Y105716D01*
X2662Y105783D01*
X2545Y105806D01*
X1655D01*
X1548Y105892D01*
Y108756D01*
X1970D01*
Y109156D01*
X2230D01*
Y108756D01*
X2845D01*
Y108762D01*
X3108Y108788D01*
X3401Y108877D01*
X3420Y108887D01*
X3861Y109052D01*
X3927Y109065D01*
X4034Y109137D01*
X4106Y109244D01*
X4123Y109331D01*
X3716D01*
X3800Y109247D01*
X3299Y109059D01*
X2973Y109361D01*
X3355Y109693D01*
X3625Y109422D01*
Y109661D01*
X4123D01*
X4106Y109748D01*
X4034Y109855D01*
X3927Y109927D01*
X3901Y109932D01*
Y110060D01*
X3927Y110065D01*
X4034Y110137D01*
X4106Y110244D01*
X4131Y110371D01*
Y110621D01*
X4106Y110748D01*
X4034Y110855D01*
X3927Y110927D01*
X3861Y110940D01*
X3420Y111105D01*
X3401Y111115D01*
X3108Y111204D01*
X2845Y111230D01*
Y111236D01*
X2801D01*
X2761Y111360D01*
X2828Y111459D01*
X2851Y111576D01*
Y111776D01*
X2828Y111893D01*
X2761Y111992D01*
X2662Y112059D01*
X2545Y112082D01*
X1676D01*
X1655Y112082D01*
X1550Y112166D01*
X1548Y112199D01*
X1548Y112204D01*
Y114932D01*
X1970D01*
Y115332D01*
X2230D01*
Y114932D01*
X2845D01*
Y114938D01*
X3108Y114964D01*
X3401Y115053D01*
X3420Y115063D01*
X3861Y115228D01*
X3927Y115241D01*
X4034Y115313D01*
X4106Y115420D01*
X4123Y115507D01*
X3716D01*
X3800Y115423D01*
X3299Y115235D01*
X2973Y115537D01*
X3355Y115869D01*
X3625Y115598D01*
Y115837D01*
X4123D01*
X4106Y115924D01*
X4034Y116031D01*
X3927Y116103D01*
X3901Y116108D01*
Y116236D01*
X3927Y116241D01*
X4034Y116313D01*
X4106Y116420D01*
X4131Y116547D01*
Y116797D01*
X4106Y116924D01*
X4034Y117031D01*
X3927Y117103D01*
X3861Y117116D01*
X3420Y117281D01*
X3401Y117291D01*
X3108Y117380D01*
X2845Y117406D01*
Y117412D01*
X2801D01*
X2761Y117536D01*
X2828Y117635D01*
X2851Y117752D01*
Y117952D01*
X2828Y118069D01*
X2761Y118168D01*
X2662Y118235D01*
X2545Y118258D01*
X1791D01*
X1767Y118273D01*
X1675Y118343D01*
X1675Y118343D01*
X1692Y118467D01*
X1694Y118480D01*
X1724Y118601D01*
X1724Y118601D01*
X1740Y118678D01*
X1756Y118755D01*
X1783Y118867D01*
X1798Y118941D01*
X1820Y119014D01*
X1836Y119086D01*
X1859Y119155D01*
X1859Y119155D01*
X1883Y119237D01*
X1901Y119297D01*
X1923Y119367D01*
X1951Y119450D01*
X1972Y119517D01*
X1998Y119581D01*
X1998Y119581D01*
X2024Y119651D01*
X2043Y119699D01*
X2066Y119756D01*
X2090Y119814D01*
X2125Y119897D01*
X2154Y119962D01*
X2189Y120037D01*
X2222Y120105D01*
X2225Y120110D01*
X2279Y120215D01*
X2387Y120390D01*
X2511Y120402D01*
X2743Y120144D01*
X3041Y120411D01*
X3215Y120218D01*
X2917Y119951D01*
X3190Y119648D01*
X3192Y119644D01*
X3195Y119642D01*
X3197Y119639D01*
X3215Y119621D01*
X3329Y119494D01*
X3329Y119494D01*
X3403Y119418D01*
X3418Y119407D01*
X3431Y119390D01*
X3592Y119266D01*
X3780Y119189D01*
X3793Y119187D01*
X3806Y119181D01*
X3863Y119168D01*
X4123Y119092D01*
X4210Y118995D01*
X4313Y118918D01*
X4439Y118886D01*
X4567Y118905D01*
X4643Y118950D01*
X4309Y119320D01*
X4554Y119541D01*
X4888Y119171D01*
X4941Y119242D01*
X4973Y119367D01*
X4954Y119495D01*
X4941Y119518D01*
X5035Y119603D01*
X5057Y119587D01*
X5182Y119555D01*
X5310Y119574D01*
X5421Y119640D01*
X5607Y119807D01*
X5684Y119911D01*
X5716Y120036D01*
X5697Y120164D01*
X5631Y120275D01*
X5594Y120317D01*
X5582Y120333D01*
X5559Y120367D01*
X5509Y120456D01*
X5488Y120500D01*
X5432Y120643D01*
X5378Y120815D01*
X5358Y120852D01*
X5308Y120973D01*
X5244Y121056D01*
X5238Y121065D01*
X5216Y121103D01*
X5172Y121153D01*
X5192Y121271D01*
X5208Y121298D01*
X5326Y121315D01*
X5428Y121376D01*
X5577Y121510D01*
X5649Y121606D01*
X5678Y121721D01*
X5661Y121839D01*
X5600Y121942D01*
X5581Y121962D01*
X5275Y122540D01*
X5224Y122744D01*
X5217Y122866D01*
X6221Y123338D01*
X6331Y123384D01*
X6334Y123385D01*
X6448Y123420D01*
X6755Y123501D01*
X6847Y123158D01*
X7234Y123262D01*
X7301Y123011D01*
X6915Y122907D01*
X6941Y122809D01*
X6971Y122693D01*
X6972Y122692D01*
X6972Y122690D01*
X7041Y122433D01*
X7066Y122338D01*
X7066D01*
X7066Y122338D01*
X7066Y122337D01*
X7074Y122313D01*
X7077Y122314D01*
X7145Y122150D01*
X7220Y122052D01*
X7243Y122014D01*
X7432Y121806D01*
X7485Y121740D01*
X7516Y121697D01*
X7572Y121607D01*
X7592Y121569D01*
X7609Y121531D01*
X7616Y121512D01*
X7629Y121463D01*
X7687Y121347D01*
X7784Y121262D01*
X7906Y121220D01*
X7995Y121226D01*
X7890Y121615D01*
X7829Y121516D01*
X7815Y121563D01*
X7797Y121610D01*
X7775Y121659D01*
X7749Y121708D01*
X7686Y121810D01*
X7648Y121863D01*
X7561Y121971D01*
X7512Y122027D01*
X7746Y122336D01*
X7782Y122298D01*
X7858Y122229D01*
X7898Y122198D01*
X7981Y122142D01*
X8025Y122118D01*
X8116Y122076D01*
X8163Y122059D01*
X7963Y121733D01*
X8184Y121793D01*
X8313Y121311D01*
X8393Y121350D01*
X8478Y121448D01*
X8520Y121570D01*
X8518Y121596D01*
X8641Y121629D01*
X8653Y121606D01*
X8750Y121520D01*
X8872Y121479D01*
X9001Y121487D01*
X9243Y121552D01*
X9359Y121609D01*
X9444Y121706D01*
X9485Y121829D01*
X9477Y121958D01*
X9464Y122007D01*
X9457Y122039D01*
X9452Y122080D01*
X9445Y122185D01*
X9444Y122236D01*
X9452Y122386D01*
X9485Y122658D01*
X9482Y122695D01*
X9490Y122752D01*
X9466Y122934D01*
X9465Y122951D01*
X9465Y122952D01*
X9469Y122955D01*
X9458Y122997D01*
X9567Y123068D01*
X9680Y123029D01*
X9799Y123037D01*
X9992Y123089D01*
X10099Y123142D01*
X10178Y123232D01*
X10216Y123345D01*
X10209Y123464D01*
X10087Y123916D01*
X10036Y124358D01*
X10051Y124446D01*
X10140Y124492D01*
X10307Y124525D01*
X10307Y124525D01*
X10328Y124529D01*
X10450Y124548D01*
X10452Y124548D01*
X10574Y124569D01*
X11279Y124660D01*
X11378Y124583D01*
D02*
G37*
G36*
X9264Y122900D02*
X8896Y122801D01*
X8840Y122997D01*
X9220Y123098D01*
X9264Y122900D01*
D02*
G37*
G36*
X13719Y123275D02*
X13683Y123177D01*
X13596Y122874D01*
X13587Y122821D01*
X13585Y122776D01*
X13587Y122740D01*
X13596Y122713D01*
X13609Y122694D01*
X13138Y123094D01*
X13162Y123105D01*
X13187Y123122D01*
X13211Y123145D01*
X13236Y123174D01*
X13261Y123209D01*
X13285Y123250D01*
X13310Y123297D01*
X13361Y123409D01*
X13386Y123474D01*
X13719Y123275D01*
D02*
G37*
G36*
X13578Y122580D02*
X13569Y122561D01*
X13561Y122535D01*
X13555Y122503D01*
X13549Y122465D01*
X13540Y122368D01*
X13536Y122245D01*
X13535Y122174D01*
X13154Y122172D01*
X13134Y122577D01*
X13588Y122592D01*
X13578Y122580D01*
D02*
G37*
G36*
X3681Y122782D02*
X3659Y122751D01*
X3645Y122717D01*
X3639Y122681D01*
X3643Y122641D01*
X3655Y122598D01*
X3675Y122552D01*
X3704Y122503D01*
X3742Y122450D01*
X3789Y122395D01*
X3485Y122163D01*
X3436Y122216D01*
X3389Y122261D01*
X3346Y122299D01*
X3305Y122330D01*
X3267Y122353D01*
X3231Y122368D01*
X3199Y122376D01*
X3169Y122377D01*
X3142Y122370D01*
X3118Y122355D01*
X3253Y122709D01*
X3713Y122809D01*
X3681Y122782D01*
D02*
G37*
G36*
X9259Y122520D02*
X9251Y122446D01*
X9240Y122240D01*
X9241Y122177D01*
X9249Y122060D01*
X9256Y122005D01*
X9277Y121904D01*
X8717Y122208D01*
X8744Y122241D01*
X8769Y122277D01*
X8792Y122315D01*
X8812Y122356D01*
X8831Y122400D01*
X8847Y122446D01*
X8862Y122495D01*
X8884Y122601D01*
X8892Y122658D01*
X9259Y122520D01*
D02*
G37*
G36*
X5076Y122480D02*
X5425Y121822D01*
X4543Y122308D01*
X4622Y122726D01*
X5076Y122480D01*
D02*
G37*
G36*
X4160Y121974D02*
X3867Y121710D01*
X3867Y121715D01*
X3861Y121725D01*
X3851Y121741D01*
X3813Y121789D01*
X3626Y122005D01*
X3909Y122260D01*
X4160Y121974D01*
D02*
G37*
G36*
X3536Y121411D02*
X3243Y121148D01*
X3063Y121326D01*
X3339Y121588D01*
X3536Y121411D01*
D02*
G37*
G36*
X4886Y121165D02*
X4891Y121159D01*
X4899Y121148D01*
X5059Y120967D01*
X4776Y120712D01*
X4592Y120905D01*
X4885Y121168D01*
X4886Y121165D01*
D02*
G37*
G36*
X5226Y120609D02*
X5301Y120418D01*
X5328Y120362D01*
X5385Y120261D01*
X5415Y120216D01*
X5446Y120174D01*
X5477Y120137D01*
X4853Y120200D01*
X4865Y120221D01*
X4874Y120248D01*
X4879Y120279D01*
X4881Y120316D01*
X4879Y120358D01*
X4874Y120404D01*
X4865Y120456D01*
X4836Y120574D01*
X4816Y120641D01*
X5203Y120680D01*
X5226Y120609D01*
D02*
G37*
G36*
X3638Y120041D02*
X3644Y120034D01*
X3735Y119930D01*
X3840Y119813D01*
X3557Y119558D01*
X3344Y119780D01*
X3637Y120044D01*
X3638Y120041D01*
D02*
G37*
G36*
X4004Y119740D02*
X4273Y119694D01*
X4283Y119696D01*
X4287Y119699D01*
X4247Y119268D01*
X3853Y119383D01*
X3938Y119755D01*
X4004Y119740D01*
D02*
G37*
G36*
X1516Y118204D02*
X1640Y118112D01*
X1694Y118078D01*
X1742Y118053D01*
X1784Y118035D01*
X1820Y118026D01*
X1851Y118025D01*
X1876Y118032D01*
X1895Y118048D01*
X1585Y117682D01*
X1266Y117795D01*
X1446Y118263D01*
X1516Y118204D01*
D02*
G37*
G36*
X1558Y116815D02*
X1177Y116822D01*
Y117203D01*
X1558Y117209D01*
Y116815D01*
D02*
G37*
G36*
X3800Y116921D02*
X3355Y116475D01*
X3378Y116505D01*
X3388Y116536D01*
X3384Y116568D01*
X3366Y116600D01*
X3334Y116633D01*
X3289Y116666D01*
X3231Y116700D01*
X3158Y116735D01*
X3072Y116771D01*
X2973Y116807D01*
X3299Y117109D01*
X3800Y116921D01*
D02*
G37*
G36*
X1558Y110639D02*
X1177Y110646D01*
Y111027D01*
X1558Y111033D01*
Y110639D01*
D02*
G37*
G36*
X3800Y110745D02*
X3355Y110299D01*
X3378Y110329D01*
X3388Y110360D01*
X3384Y110392D01*
X3366Y110424D01*
X3334Y110457D01*
X3289Y110490D01*
X3231Y110524D01*
X3158Y110559D01*
X3072Y110595D01*
X2973Y110631D01*
X3299Y110933D01*
X3800Y110745D01*
D02*
G37*
G36*
X1558Y104363D02*
X1177Y104370D01*
Y104751D01*
X1558Y104757D01*
Y104363D01*
D02*
G37*
G36*
X3800Y104469D02*
X3355Y104023D01*
X3378Y104053D01*
X3388Y104084D01*
X3384Y104116D01*
X3366Y104148D01*
X3334Y104181D01*
X3289Y104214D01*
X3231Y104248D01*
X3158Y104283D01*
X3072Y104319D01*
X2973Y104355D01*
X3299Y104657D01*
X3800Y104469D01*
D02*
G37*
G36*
X1558Y98087D02*
X1177Y98094D01*
Y98475D01*
X1558Y98481D01*
Y98087D01*
D02*
G37*
G36*
X27067Y98311D02*
X27073Y98246D01*
X27083Y98189D01*
X27096Y98139D01*
X27113Y98097D01*
X27134Y98063D01*
X27159Y98036D01*
X27187Y98017D01*
X27220Y98006D01*
X27256Y98002D01*
X26494D01*
X26530Y98006D01*
X26563Y98017D01*
X26591Y98036D01*
X26616Y98063D01*
X26637Y98097D01*
X26654Y98139D01*
X26667Y98189D01*
X26677Y98246D01*
X26683Y98311D01*
X26684Y98383D01*
X27066D01*
X27067Y98311D01*
D02*
G37*
G36*
X23317D02*
X23323Y98246D01*
X23333Y98189D01*
X23346Y98139D01*
X23363Y98097D01*
X23384Y98063D01*
X23409Y98036D01*
X23437Y98017D01*
X23470Y98006D01*
X23506Y98002D01*
X22744D01*
X22780Y98006D01*
X22813Y98017D01*
X22841Y98036D01*
X22866Y98063D01*
X22887Y98097D01*
X22904Y98139D01*
X22917Y98189D01*
X22927Y98246D01*
X22933Y98311D01*
X22934Y98383D01*
X23316D01*
X23317Y98311D01*
D02*
G37*
G36*
X3800Y98193D02*
X3355Y97747D01*
X3378Y97777D01*
X3388Y97808D01*
X3384Y97840D01*
X3366Y97872D01*
X3334Y97905D01*
X3289Y97938D01*
X3231Y97972D01*
X3158Y98007D01*
X3072Y98043D01*
X2973Y98079D01*
X3299Y98381D01*
X3800Y98193D01*
D02*
G37*
G36*
X24584Y96327D02*
X24203D01*
X24005Y96711D01*
X24768D01*
X24584Y96327D01*
D02*
G37*
G36*
X29566Y96327D02*
X29184D01*
X28994Y96711D01*
X29756D01*
X29566Y96327D01*
D02*
G37*
G36*
X28316D02*
X27934D01*
X27744Y96711D01*
X28506D01*
X28316Y96327D01*
D02*
G37*
G36*
X23316D02*
X22934D01*
X22744Y96711D01*
X23506D01*
X23316Y96327D01*
D02*
G37*
G36*
X33595Y106532D02*
X33913Y106401D01*
X34198Y106210D01*
X34441Y105967D01*
X34632Y105681D01*
X34764Y105363D01*
X34831Y105026D01*
X34831Y104854D01*
X34831Y93968D01*
X34831Y93796D01*
X34764Y93459D01*
X34632Y93141D01*
X34441Y92855D01*
X34198Y92612D01*
X33913Y92421D01*
X33595Y92290D01*
X33258Y92223D01*
X15706D01*
X15609Y92203D01*
X15526Y92148D01*
X15471Y92065D01*
X15451Y91968D01*
X15451Y90805D01*
X15414Y90715D01*
X15345Y90646D01*
X15255Y90609D01*
X15206D01*
X10956D01*
X10948Y90607D01*
X10940Y90608D01*
X10777Y90598D01*
X10752Y90591D01*
X10727Y90590D01*
X10412Y90505D01*
X10382Y90490D01*
X10351Y90480D01*
X10068Y90316D01*
X10043Y90295D01*
X10015Y90276D01*
X9784Y90045D01*
X9766Y90018D01*
X9744Y89992D01*
X9581Y89710D01*
X9570Y89678D01*
X9555Y89648D01*
X9471Y89333D01*
X9469Y89300D01*
X9462Y89267D01*
Y88941D01*
X9469Y88908D01*
X9471Y88875D01*
X9555Y88560D01*
X9570Y88530D01*
X9581Y88498D01*
X9711Y88273D01*
X9608Y88202D01*
X9500Y88333D01*
X9336Y88640D01*
X9235Y88973D01*
X9202Y89307D01*
X9204Y89319D01*
Y89544D01*
X9201Y89558D01*
X9236Y89999D01*
X9342Y90442D01*
X9517Y90863D01*
X9755Y91252D01*
X9836Y91344D01*
Y91344D01*
X9973Y91505D01*
X10320Y91801D01*
X10708Y92039D01*
X11129Y92214D01*
X11573Y92320D01*
X12013Y92355D01*
X12027Y92352D01*
X26980D01*
Y92351D01*
X27417Y92385D01*
X27843Y92488D01*
X28248Y92655D01*
X28622Y92885D01*
X28956Y93169D01*
X29240Y93503D01*
X29470Y93877D01*
X29637Y94282D01*
X29740Y94708D01*
X29774Y95145D01*
X29773D01*
Y96287D01*
X29881Y96505D01*
X29975D01*
Y98205D01*
X28775D01*
Y98205D01*
X28725D01*
Y98205D01*
X27525D01*
Y98205D01*
X27475D01*
Y98205D01*
X27289D01*
X27282Y98232D01*
X27276Y98272D01*
X27273Y98299D01*
Y103750D01*
X27274D01*
X27239Y104192D01*
X27136Y104623D01*
X26966Y105032D01*
X26735Y105410D01*
X26447Y105747D01*
X26110Y106035D01*
X25732Y106266D01*
X25323Y106436D01*
X25164Y106474D01*
X25178Y106599D01*
X33258D01*
X33595Y106532D01*
D02*
G37*
G36*
X1558Y91811D02*
X1177Y91818D01*
Y92199D01*
X1558Y92205D01*
Y91811D01*
D02*
G37*
G36*
X3800Y91917D02*
X3355Y91471D01*
X3378Y91501D01*
X3388Y91532D01*
X3384Y91564D01*
X3366Y91596D01*
X3334Y91629D01*
X3289Y91662D01*
X3231Y91696D01*
X3158Y91731D01*
X3072Y91767D01*
X2973Y91803D01*
X3299Y92105D01*
X3800Y91917D01*
D02*
G37*
G36*
X1558Y85535D02*
X1177Y85542D01*
Y85923D01*
X1558Y85929D01*
Y85535D01*
D02*
G37*
G36*
X3800Y85641D02*
X3355Y85195D01*
X3378Y85225D01*
X3388Y85256D01*
X3384Y85288D01*
X3366Y85320D01*
X3334Y85353D01*
X3289Y85386D01*
X3231Y85420D01*
X3158Y85455D01*
X3072Y85491D01*
X2973Y85527D01*
X3299Y85829D01*
X3800Y85641D01*
D02*
G37*
G36*
X7225Y83428D02*
X7239Y83354D01*
X7263Y83277D01*
X7296Y83198D01*
X7339Y83117D01*
X7391Y83033D01*
X7453Y82948D01*
X7524Y82860D01*
X7695Y82678D01*
X6365D01*
X6455Y82770D01*
X6607Y82948D01*
X6669Y83033D01*
X6721Y83117D01*
X6764Y83198D01*
X6797Y83277D01*
X6821Y83354D01*
X6835Y83428D01*
X6839Y83501D01*
X7220D01*
X7225Y83428D01*
D02*
G37*
G36*
X8698Y83148D02*
X8761Y83105D01*
X8832Y83068D01*
X8911Y83035D01*
X8999Y83008D01*
X9095Y82986D01*
X9199Y82969D01*
X9311Y82958D01*
X9561Y82950D01*
X8620Y82009D01*
X8619Y82138D01*
X8601Y82371D01*
X8584Y82475D01*
X8562Y82571D01*
X8535Y82659D01*
X8502Y82738D01*
X8465Y82809D01*
X8422Y82872D01*
X8374Y82926D01*
X8644Y83196D01*
X8698Y83148D01*
D02*
G37*
G36*
X5686Y82926D02*
X5638Y82872D01*
X5595Y82809D01*
X5558Y82738D01*
X5525Y82659D01*
X5498Y82571D01*
X5476Y82475D01*
X5459Y82371D01*
X5448Y82259D01*
X5440Y82009D01*
X4499Y82950D01*
X4628Y82951D01*
X4861Y82969D01*
X4965Y82986D01*
X5061Y83008D01*
X5149Y83035D01*
X5228Y83068D01*
X5299Y83105D01*
X5362Y83148D01*
X5416Y83196D01*
X5686Y82926D01*
D02*
G37*
G36*
X1558Y79259D02*
X1177Y79266D01*
Y79647D01*
X1558Y79653D01*
Y79259D01*
D02*
G37*
G36*
X3800Y79365D02*
X3355Y78919D01*
X3378Y78949D01*
X3388Y78980D01*
X3384Y79012D01*
X3366Y79044D01*
X3334Y79077D01*
X3289Y79110D01*
X3231Y79144D01*
X3158Y79179D01*
X3072Y79215D01*
X2973Y79251D01*
X3299Y79553D01*
X3800Y79365D01*
D02*
G37*
G36*
X1558Y72983D02*
X1177Y72990D01*
Y73371D01*
X1558Y73377D01*
Y72983D01*
D02*
G37*
G36*
X3800Y73089D02*
X3355Y72643D01*
X3378Y72673D01*
X3388Y72704D01*
X3384Y72736D01*
X3366Y72768D01*
X3334Y72801D01*
X3289Y72834D01*
X3231Y72868D01*
X3158Y72903D01*
X3072Y72939D01*
X2973Y72975D01*
X3299Y73277D01*
X3800Y73089D01*
D02*
G37*
G36*
X1558Y66707D02*
X1177Y66714D01*
Y67095D01*
X1558Y67101D01*
Y66707D01*
D02*
G37*
G36*
X3800Y66813D02*
X3355Y66367D01*
X3378Y66397D01*
X3388Y66428D01*
X3384Y66460D01*
X3366Y66492D01*
X3334Y66525D01*
X3289Y66558D01*
X3231Y66592D01*
X3158Y66627D01*
X3072Y66663D01*
X2973Y66699D01*
X3299Y67001D01*
X3800Y66813D01*
D02*
G37*
G36*
X1558Y60431D02*
X1177Y60438D01*
Y60819D01*
X1558Y60825D01*
Y60431D01*
D02*
G37*
G36*
X3800Y60537D02*
X3355Y60091D01*
X3378Y60121D01*
X3388Y60152D01*
X3384Y60184D01*
X3366Y60216D01*
X3334Y60249D01*
X3289Y60282D01*
X3231Y60316D01*
X3158Y60351D01*
X3072Y60387D01*
X2973Y60423D01*
X3299Y60725D01*
X3800Y60537D01*
D02*
G37*
G36*
X1558Y54155D02*
X1177Y54162D01*
Y54543D01*
X1558Y54549D01*
Y54155D01*
D02*
G37*
G36*
X3800Y54261D02*
X3355Y53815D01*
X3378Y53845D01*
X3388Y53876D01*
X3384Y53908D01*
X3366Y53940D01*
X3334Y53973D01*
X3289Y54006D01*
X3231Y54040D01*
X3158Y54075D01*
X3072Y54111D01*
X2973Y54147D01*
X3299Y54449D01*
X3800Y54261D01*
D02*
G37*
G36*
X1558Y47879D02*
X1177Y47886D01*
Y48267D01*
X1558Y48273D01*
Y47879D01*
D02*
G37*
G36*
X3800Y47985D02*
X3355Y47539D01*
X3378Y47569D01*
X3388Y47600D01*
X3384Y47632D01*
X3366Y47664D01*
X3334Y47697D01*
X3289Y47730D01*
X3231Y47764D01*
X3158Y47799D01*
X3072Y47835D01*
X2973Y47871D01*
X3299Y48173D01*
X3800Y47985D01*
D02*
G37*
G36*
X1558Y41603D02*
X1177Y41610D01*
Y41991D01*
X1558Y41997D01*
Y41603D01*
D02*
G37*
G36*
X3800Y41709D02*
X3355Y41263D01*
X2973Y41595D01*
X3299Y41897D01*
X3800Y41709D01*
D02*
G37*
G36*
X1558Y35327D02*
X1177Y35334D01*
Y35715D01*
X1558Y35721D01*
Y35327D01*
D02*
G37*
G36*
X3800Y35433D02*
X3355Y34987D01*
X2973Y35319D01*
X3299Y35621D01*
X3800Y35433D01*
D02*
G37*
G36*
X1558Y29051D02*
X1177Y29058D01*
Y29439D01*
X1558Y29445D01*
Y29051D01*
D02*
G37*
G36*
X3800Y29157D02*
X3355Y28711D01*
X2973Y29043D01*
X3299Y29345D01*
X3800Y29157D01*
D02*
G37*
G36*
X19550Y26640D02*
X19458Y26730D01*
X19280Y26882D01*
X19195Y26944D01*
X19111Y26996D01*
X19030Y27039D01*
X18951Y27072D01*
X18874Y27096D01*
X18800Y27110D01*
X18727Y27115D01*
Y27496D01*
X18800Y27500D01*
X18874Y27514D01*
X18951Y27538D01*
X19030Y27571D01*
X19111Y27614D01*
X19195Y27666D01*
X19280Y27728D01*
X19368Y27799D01*
X19550Y27970D01*
Y26640D01*
D02*
G37*
G36*
Y24100D02*
X19458Y24190D01*
X19280Y24342D01*
X19195Y24404D01*
X19111Y24456D01*
X19030Y24499D01*
X18951Y24532D01*
X18874Y24556D01*
X18800Y24570D01*
X18727Y24574D01*
Y24955D01*
X18800Y24960D01*
X18874Y24974D01*
X18951Y24998D01*
X19030Y25031D01*
X19111Y25074D01*
X19195Y25126D01*
X19280Y25188D01*
X19368Y25259D01*
X19550Y25430D01*
Y24100D01*
D02*
G37*
G36*
X1558Y22775D02*
X1177Y22782D01*
Y23163D01*
X1558Y23169D01*
Y22775D01*
D02*
G37*
G36*
X3800Y22881D02*
X3355Y22435D01*
X2973Y22767D01*
X3299Y23069D01*
X3800Y22881D01*
D02*
G37*
G36*
X1558Y16499D02*
X1177Y16506D01*
Y16887D01*
X1558Y16893D01*
Y16499D01*
D02*
G37*
G36*
X3800Y16605D02*
X3355Y16159D01*
X3378Y16189D01*
X3388Y16220D01*
X3384Y16252D01*
X3366Y16284D01*
X3334Y16317D01*
X3289Y16350D01*
X3231Y16384D01*
X3158Y16419D01*
X3072Y16455D01*
X2973Y16491D01*
X3299Y16793D01*
X3800Y16605D01*
D02*
G37*
G36*
X1558Y10323D02*
X1177Y10330D01*
Y10711D01*
X1558Y10717D01*
Y10323D01*
D02*
G37*
G36*
X3800Y10429D02*
X3355Y9983D01*
X3378Y10013D01*
X3388Y10044D01*
X3384Y10076D01*
X3366Y10108D01*
X3334Y10141D01*
X3289Y10174D01*
X3231Y10208D01*
X3158Y10243D01*
X3072Y10279D01*
X2973Y10315D01*
X3299Y10617D01*
X3800Y10429D01*
D02*
G37*
G36*
X4442Y6298D02*
X4261Y6086D01*
X3968Y6350D01*
X4158Y6552D01*
X4442Y6298D01*
D02*
G37*
G36*
X5936Y5659D02*
X5906Y5424D01*
X5495Y5514D01*
X5572Y5826D01*
X5936Y5659D01*
D02*
G37*
G36*
X3536Y5280D02*
X3531Y5280D01*
X3521Y5273D01*
X3506Y5261D01*
X3462Y5219D01*
X3266Y5011D01*
X2984Y5267D01*
X3243Y5544D01*
X3536Y5280D01*
D02*
G37*
G36*
X5692Y5173D02*
X5509Y4962D01*
X5217Y5225D01*
X5408Y5427D01*
X5692Y5173D01*
D02*
G37*
G36*
X4381Y5005D02*
X4345Y4990D01*
X4311Y4965D01*
X4280Y4932D01*
X4252Y4889D01*
X4225Y4838D01*
X4202Y4778D01*
X4180Y4708D01*
X4162Y4630D01*
X4145Y4543D01*
X3754Y4617D01*
X3867Y4982D01*
X4420Y5012D01*
X4381Y5005D01*
D02*
G37*
G36*
X8892Y4400D02*
X8863Y4399D01*
X8832Y4393D01*
X8798Y4382D01*
X8763Y4365D01*
X8724Y4343D01*
X8684Y4316D01*
X8641Y4284D01*
X8549Y4203D01*
X8499Y4154D01*
X8277Y4471D01*
X8328Y4524D01*
X8458Y4678D01*
X8493Y4728D01*
X8550Y4823D01*
X8573Y4869D01*
X8591Y4914D01*
X8604Y4959D01*
X8892Y4400D01*
D02*
G37*
G36*
X8484Y4126D02*
X8409Y3811D01*
X8028Y3913D01*
X8030Y3916D01*
X8033Y3925D01*
X8062Y4025D01*
X8116Y4224D01*
X8484Y4126D01*
D02*
G37*
G36*
X10109Y3676D02*
X10032Y3376D01*
X9651Y3478D01*
X9654Y3481D01*
X9658Y3489D01*
X9663Y3504D01*
X9688Y3584D01*
X9741Y3774D01*
X10109Y3676D01*
D02*
G37*
G36*
X12964Y3227D02*
X12926Y2924D01*
X12535Y2972D01*
X12586Y3273D01*
X12964Y3227D01*
D02*
G37*
G36*
X7261Y3002D02*
X7013Y2762D01*
X6645Y3036D01*
X7037Y3454D01*
X7261Y3002D01*
D02*
G37*
G36*
X14639Y3025D02*
X14593Y2719D01*
X14202Y2767D01*
X14261Y3075D01*
X14639Y3025D01*
D02*
G37*
G36*
X8128Y2764D02*
X8008Y2402D01*
X7641Y2503D01*
X7748Y2866D01*
X8128Y2764D01*
D02*
G37*
G36*
X12794Y1848D02*
X12712Y1475D01*
X12334Y1528D01*
X12403Y1896D01*
X12794Y1848D01*
D02*
G37*
%LPC*%
G36*
X8958Y116554D02*
X8455D01*
X7957Y116475D01*
X7478Y116320D01*
X7029Y116091D01*
X6622Y115795D01*
X6266Y115439D01*
X5969Y115031D01*
X5741Y114582D01*
X5585Y114103D01*
X5506Y113606D01*
Y113102D01*
X5585Y112605D01*
X5741Y112126D01*
X5969Y111677D01*
X6266Y111269D01*
X6622Y110913D01*
X7029Y110617D01*
X7478Y110388D01*
X7957Y110233D01*
X8455Y110154D01*
X8958D01*
X9456Y110233D01*
X9935Y110388D01*
X10384Y110617D01*
X10791Y110913D01*
X11147Y111269D01*
X11443Y111677D01*
X11672Y112126D01*
X11828Y112605D01*
X11906Y113102D01*
Y113606D01*
X11828Y114103D01*
X11672Y114582D01*
X11443Y115031D01*
X11147Y115439D01*
X10791Y115795D01*
X10384Y116091D01*
X9935Y116320D01*
X9456Y116475D01*
X8958Y116554D01*
D02*
G37*
G36*
X19325Y101805D02*
X18775D01*
Y100805D01*
X19325D01*
Y101805D01*
D02*
G37*
G36*
X17375D02*
X16825D01*
Y100805D01*
X17375D01*
Y101805D01*
D02*
G37*
G36*
X19325Y99405D02*
X18775D01*
Y98405D01*
X19325D01*
Y99405D01*
D02*
G37*
G36*
X17375D02*
X16825D01*
Y98405D01*
X17375D01*
Y99405D01*
D02*
G37*
G36*
X20360Y98205D02*
X20025D01*
Y97620D01*
X20360D01*
Y98205D01*
D02*
G37*
G36*
X21275Y98205D02*
X21150Y98205D01*
X20890D01*
Y97355D01*
Y96505D01*
X21150D01*
X21225Y96505D01*
X21350Y96505D01*
X21610D01*
Y97355D01*
Y98205D01*
X21350D01*
X21275Y98205D01*
D02*
G37*
G36*
X20360Y97090D02*
X20025D01*
Y96505D01*
X20360D01*
Y97090D01*
D02*
G37*
G36*
X13360Y83250D02*
X12660D01*
Y82550D01*
X13360D01*
Y83250D01*
D02*
G37*
G36*
X11560D02*
X10860D01*
Y82550D01*
X11560D01*
Y83250D01*
D02*
G37*
G36*
X13360Y81450D02*
X12660D01*
Y80750D01*
X13360D01*
Y81450D01*
D02*
G37*
G36*
X11560D02*
X10860D01*
Y80750D01*
X11560D01*
Y81450D01*
D02*
G37*
G36*
X21478Y31095D02*
X20778D01*
Y30395D01*
X21478D01*
Y31095D01*
D02*
G37*
G36*
X19678D02*
X18978D01*
Y30395D01*
X19678D01*
Y31095D01*
D02*
G37*
G36*
X21478Y29295D02*
X20778D01*
Y28595D01*
X21478D01*
Y29295D01*
D02*
G37*
G36*
X19678D02*
X18978D01*
Y28595D01*
X19678D01*
Y29295D01*
D02*
G37*
G36*
X8958Y16554D02*
X8455D01*
X7957Y16475D01*
X7478Y16320D01*
X7029Y16091D01*
X6622Y15795D01*
X6266Y15439D01*
X5969Y15031D01*
X5741Y14582D01*
X5585Y14103D01*
X5506Y13606D01*
Y13102D01*
X5585Y12605D01*
X5741Y12126D01*
X5969Y11677D01*
X6266Y11269D01*
X6622Y10913D01*
X7029Y10617D01*
X7478Y10389D01*
X7957Y10233D01*
X8455Y10154D01*
X8958D01*
X9456Y10233D01*
X9935Y10389D01*
X10384Y10617D01*
X10791Y10913D01*
X11147Y11269D01*
X11443Y11677D01*
X11672Y12126D01*
X11828Y12605D01*
X11906Y13102D01*
Y13606D01*
X11828Y14103D01*
X11672Y14582D01*
X11443Y15031D01*
X11147Y15439D01*
X10791Y15795D01*
X10384Y16091D01*
X9935Y16320D01*
X9456Y16475D01*
X8958Y16554D01*
D02*
G37*
G36*
X14445Y2061D02*
X14370Y1450D01*
X14638Y1417D01*
X14713Y2028D01*
X14445Y2061D01*
D02*
G37*
G36*
X33175Y101805D02*
X32625D01*
Y100805D01*
X33175D01*
Y101805D01*
D02*
G37*
G36*
X31225D02*
X30675D01*
Y100805D01*
X31225D01*
Y101805D01*
D02*
G37*
G36*
X33175Y99405D02*
X32625D01*
Y98405D01*
X33175D01*
Y99405D01*
D02*
G37*
G36*
X31225D02*
X30675D01*
Y98405D01*
X31225D01*
Y99405D01*
D02*
G37*
%LPD*%
D40*
X1901Y120360D02*
G03*
X1886Y120334I325J-199D01*
G01*
X1757Y120062D02*
G03*
X1756Y120059I348J-156D01*
G01*
X1571Y119583D02*
G03*
X1570Y119581I360J-126D01*
G01*
X1363Y118844D02*
X1363Y118843D01*
X1354Y118804D02*
X1354Y118803D01*
X1345Y118764D02*
G03*
X1345Y118762I372J-81D01*
G01*
X1295Y118513D02*
G03*
X1296Y118517I-498J92D01*
G01*
X1277Y118412D02*
X1277Y118411D01*
X1265Y118341D02*
X1265Y118340D01*
X1540Y119493D02*
G03*
X1540Y119491I362J-119D01*
G01*
X1731Y120002D02*
G03*
X1730Y119999I350J-152D01*
G01*
X1862Y120286D02*
G03*
X1860Y120281I340J-172D01*
G01*
X1525Y119445D02*
X1525Y119444D01*
X1258Y118292D02*
G03*
X1633Y117852I376J-59D01*
G01*
X1706Y119942D02*
G03*
X1704Y119938I351J-148D01*
G01*
X1510Y119397D02*
G03*
X1509Y119394I364J-114D01*
G01*
X1681Y119880D02*
G03*
X1680Y119878I353J-143D01*
G01*
X1430Y119117D02*
X1429Y119117D01*
X1619Y119721D02*
G03*
X1619Y119720I357J-132D01*
G01*
X1639Y119772D02*
G03*
X1638Y119771I356J-136D01*
G01*
X1497Y119354D02*
G03*
X1496Y119353I365J-111D01*
G01*
X1659Y119824D02*
G03*
X1658Y119822I354J-140D01*
G01*
X1826Y120212D02*
G03*
X1825Y120209I343J-165D01*
G01*
X1789Y120133D02*
G03*
X1787Y120128I345J-161D01*
G01*
X1471Y119268D02*
G03*
X1471Y119266I366J-106D01*
G01*
X2392Y121143D02*
G03*
X2332Y121063I4299J-3256D01*
G01*
X2451Y121220D02*
G03*
X2448Y121216I298J-237D01*
G01*
X2503Y121285D02*
G03*
X2500Y121281I295J-242D01*
G01*
X3201Y121457D02*
G03*
X2637Y121444I-276J-262D01*
G01*
X2562Y121356D02*
G03*
X2559Y121353I291J-246D01*
G01*
X2613Y121417D02*
G03*
X2611Y121414I288J-250D01*
G01*
X10180Y95325D02*
G03*
X6425Y91570I0J-3755D01*
G01*
X6313Y83823D02*
G03*
X6425Y84093I-269J269D01*
G01*
X22436Y95325D02*
G03*
X23125Y96014I0J689D01*
G01*
X23153Y94125D02*
G03*
X25625Y96597I0J2472D01*
G01*
X23136Y94725D02*
G03*
X24398Y96031I0J1263D01*
G01*
X24398Y96036D02*
G03*
X24398Y96031I381J7D01*
G01*
X10199Y94725D02*
G03*
X7030Y91556I0J-3169D01*
G01*
X10215Y94125D02*
G03*
X7650Y91560I0J-2565D01*
G01*
Y84078D02*
G03*
X7761Y83809I381J0D01*
G01*
X13345Y109958D02*
G03*
X17703Y105600I4358J0D01*
G01*
X23125Y103425D02*
G03*
X20950Y105600I-2175J0D01*
G01*
X14332Y109779D02*
G03*
X17935Y106175I3604J0D01*
G01*
X26875Y103750D02*
G03*
X24450Y106175I-2425J0D01*
G01*
X13000Y125858D02*
G03*
X12999Y125858I44J-378D01*
G01*
X12904Y125847D02*
G03*
X12903Y125847I45J-378D01*
G01*
X11679Y125681D02*
G03*
X11678Y125681I56J-377D01*
G01*
X11587Y125667D02*
G03*
X11586Y125667I57J-377D01*
G01*
X11494Y125652D02*
G03*
X11493Y125652I58J-377D01*
G01*
X11402Y125638D02*
G03*
X11401Y125638I59J-376D01*
G01*
X11127Y125593D02*
G03*
X11126Y125593I62J-376D01*
G01*
X11036Y125578D02*
G03*
X11035Y125578I63J-376D01*
G01*
X10229Y125432D02*
G03*
X10228Y125432I72J-374D01*
G01*
X9376Y125254D02*
G03*
X9375Y125254I83J-372D01*
G01*
X9292Y125235D02*
G03*
X9290Y125235I84J-372D01*
G01*
X8222Y124969D02*
G03*
X8221Y124969I99J-368D01*
G01*
X8156Y124951D02*
G03*
X8155Y124951I100J-368D01*
G01*
X7321Y124704D02*
X7320Y124704D01*
X7259Y124684D02*
G03*
X7258Y124684I116J-363D01*
G01*
X7074Y124624D02*
G03*
X7073Y124624I119J-362D01*
G01*
X7013Y124604D02*
G03*
X7012Y124603I120J-361D01*
G01*
X6953Y124583D02*
G03*
X6951Y124583I122J-361D01*
G01*
X6892Y124563D02*
G03*
X6891Y124563I123J-361D01*
G01*
X6713Y124501D02*
G03*
X6712Y124500I126J-359D01*
G01*
X6654Y124480D02*
G03*
X6653Y124479I128J-359D01*
G01*
X6353Y124369D02*
G03*
X6352Y124368I134J-357D01*
G01*
X5692Y124103D02*
G03*
X5689Y124102I149J-351D01*
G01*
X5638Y124080D02*
G03*
X5637Y124079I151J-350D01*
G01*
X5481Y124011D02*
G03*
X5480Y124010I155J-348D01*
G01*
X5430Y123988D02*
G03*
X5429Y123987I156J-347D01*
G01*
X5277Y123918D02*
G03*
X5276Y123917I160J-346D01*
G01*
X5227Y123894D02*
X5226Y123894D01*
X5128Y123847D02*
G03*
X5126Y123846I165J-344D01*
G01*
X5079Y123823D02*
G03*
X5077Y123822I166J-343D01*
G01*
X5030Y123799D02*
G03*
X5028Y123798I167J-342D01*
G01*
X4981Y123775D02*
G03*
X4980Y123774I169J-342D01*
G01*
X13567Y123413D02*
G03*
X13589Y123592I-357J134D01*
G01*
X9090Y122706D02*
G03*
X9080Y122849I-378J46D01*
G01*
X12921Y3603D02*
G03*
X12775Y3250I353J-353D01*
G01*
X8335Y4260D02*
G03*
X8300Y4175I85J-85D01*
G01*
X12474Y1243D02*
G03*
X12490Y1293I-968J343D01*
G01*
X12438Y1155D02*
G03*
X12474Y1243I-932J432D01*
G01*
X4933Y123751D02*
G03*
X4932Y123750I170J-341D01*
G01*
X4886Y123727D02*
G03*
X4884Y123726I172J-340D01*
G01*
X4838Y123703D02*
X4837Y123702D01*
X4791Y123679D02*
G03*
X4790Y123678I175J-339D01*
G01*
X4561Y123556D02*
G03*
X4560Y123556I182J-335D01*
G01*
X4516Y123532D02*
G03*
X4515Y123531I183J-334D01*
G01*
X4472Y123507D02*
G03*
X4470Y123506I185J-333D01*
G01*
X4427Y123482D02*
G03*
X4426Y123482I186J-332D01*
G01*
X4254Y123383D02*
G03*
X4252Y123382I192J-329D01*
G01*
X4169Y123332D02*
G03*
X4168Y123331I195J-327D01*
G01*
X3876Y123150D02*
X3875Y123150D01*
X3875Y123149D01*
X4998Y120697D02*
G03*
X4918Y120838I-364J-113D01*
G01*
X4783Y6625D02*
G03*
X4300Y6425I0J-683D01*
G01*
X5196Y2829D02*
X5197Y2829D01*
X5246Y2805D02*
X5247Y2805D01*
X3782Y123088D02*
G03*
X3781Y123088I210J-318D01*
G01*
X3736Y123058D02*
G03*
X3734Y123056I212J-317D01*
G01*
X3691Y123027D02*
G03*
X3689Y123026I213J-316D01*
G01*
X3614Y3734D02*
X3615Y3733D01*
X2995Y122501D02*
G03*
X2988Y122495I246J-291D01*
G01*
X2724Y122260D02*
G03*
X2722Y122258I259J-280D01*
G01*
X2682Y122220D02*
G03*
X2680Y122218I261J-277D01*
G01*
X2640Y122180D02*
G03*
X2639Y122179I264J-275D01*
G01*
X2638Y122179D01*
X2599Y122140D02*
G03*
X2597Y122139I266J-273D01*
G01*
X2597Y122138D01*
X2559Y122100D02*
G03*
X2556Y122098I268J-271D01*
G01*
X2518Y122060D02*
G03*
X2517Y122059I271J-268D01*
G01*
X2384Y121920D02*
G03*
X2382Y121917I278J-261D01*
G01*
X2333Y121864D02*
G03*
X2331Y121861I281J-257D01*
G01*
X2279Y121803D02*
G03*
X2276Y121800I284J-254D01*
G01*
X2230Y121747D02*
G03*
X2228Y121745I288J-249D01*
G01*
X2174Y121681D02*
X2173Y121681D01*
D02*
G03*
X2171Y121678I291J-246D01*
G01*
X2110Y121604D02*
G03*
X2107Y121600I295J-242D01*
G01*
X2053Y121532D02*
G03*
X2049Y121528I298J-237D01*
G01*
X1990Y121451D02*
G03*
X1911Y121344I4701J-3563D01*
G01*
X1329Y120343D02*
G03*
X1327Y120338I345J-161D01*
G01*
X1266Y120201D02*
G03*
X1264Y120197I350J-152D01*
G01*
X1238Y120135D02*
G03*
X1237Y120132I352J-147D01*
G01*
X1211Y120068D02*
G03*
X1210Y120066I353J-143D01*
G01*
X1187Y120007D02*
G03*
X1186Y120005I355J-139D01*
G01*
X3625Y116672D02*
G03*
X2804Y117012I-821J-821D01*
G01*
X1166Y119952D02*
G03*
X1165Y119950I356J-136D01*
G01*
X1145Y119896D02*
G03*
X1144Y119895I357J-133D01*
G01*
X1127Y119847D02*
G03*
X1126Y119844I358J-130D01*
G01*
X1109Y119797D02*
G03*
X1108Y119794I359J-128D01*
G01*
X1076Y119701D02*
G03*
X1076Y119700I361J-122D01*
G01*
X1059Y119650D02*
G03*
X1059Y119648I362J-119D01*
G01*
X1042Y119598D02*
X1042Y119597D01*
X1026Y119546D02*
G03*
X1026Y119545I364J-113D01*
G01*
X1012Y119500D02*
X1012Y119499D01*
X998Y119454D02*
G03*
X998Y119453I365J-108D01*
G01*
X951Y119287D02*
X951Y119286D01*
X940Y119246D02*
G03*
X940Y119245I368J-98D01*
G01*
X930Y119205D02*
X929Y119205D01*
X919Y119164D02*
G03*
X919Y119163I369J-94D01*
G01*
X850Y118870D02*
X850Y118869D01*
X842Y118830D02*
G03*
X841Y118826I372J-82D01*
G01*
X832Y118784D02*
G03*
X832Y118783I373J-77D01*
G01*
X807Y118653D02*
X807Y118652D01*
X798Y118609D02*
G03*
X798Y118605I375J-70D01*
G01*
X785Y118535D02*
G03*
X785Y118534I375J-66D01*
G01*
X726Y118155D02*
G03*
X725Y118151I377J-52D01*
G01*
X681Y117784D02*
G03*
X681Y117783I379J-41D01*
G01*
X678Y117751D02*
G03*
X678Y117750I379J-39D01*
G01*
X649Y117431D02*
G03*
X649Y117430I380J-30D01*
G01*
X631Y117162D02*
X631Y117161D01*
X624Y117025D02*
X624Y117024D01*
X3625Y72840D02*
G03*
X2804Y73180I-821J-821D01*
G01*
X3625Y97944D02*
G03*
X2804Y98284I-821J-821D01*
G01*
X3625Y91668D02*
G03*
X2804Y92008I-821J-821D01*
G01*
X3625Y110496D02*
G03*
X2804Y110836I-821J-821D01*
G01*
X3625Y104220D02*
G03*
X2804Y104560I-821J-821D01*
G01*
X3625Y85392D02*
G03*
X2804Y85732I-821J-821D01*
G01*
X3625Y79116D02*
G03*
X2804Y79456I-821J-821D01*
G01*
X3625Y47736D02*
G03*
X2804Y48076I-821J-821D01*
G01*
X3625Y41460D02*
G03*
X2804Y41800I-821J-821D01*
G01*
X3625Y66564D02*
G03*
X2804Y66904I-821J-821D01*
G01*
X3625Y60288D02*
G03*
X2804Y60628I-821J-821D01*
G01*
X3625Y54012D02*
G03*
X2804Y54352I-821J-821D01*
G01*
X3625Y16356D02*
G03*
X2804Y16696I-821J-821D01*
G01*
X3625Y10180D02*
G03*
X2804Y10520I-821J-821D01*
G01*
X3625Y28908D02*
G03*
X2804Y29248I-821J-821D01*
G01*
X3625Y22632D02*
G03*
X2804Y22972I-821J-821D01*
G01*
X3625Y35184D02*
G03*
X2804Y35524I-821J-821D01*
G01*
X2497Y4670D02*
G03*
X2503Y4664I278J261D01*
G01*
X2683Y4487D02*
G03*
X2687Y4483I267J272D01*
G01*
X2975Y4225D02*
G03*
X2982Y4219I254J284D01*
G01*
X2043Y5189D02*
G03*
X2049Y5182I306J227D01*
G01*
X1697Y5682D02*
G03*
X1857Y5440I4936J3098D01*
G01*
X2321Y4858D02*
G03*
X2329Y4848I291J246D01*
G01*
X1552Y5926D02*
G03*
X1558Y5915I339J175D01*
G01*
X856Y7810D02*
X857Y7810D01*
X14469Y85470D02*
G03*
X13304Y86644I-1174J0D01*
G01*
X10956Y39957D02*
G03*
X8580Y37918I0J-2404D01*
G01*
X14088Y39957D02*
G03*
X14469Y40338I0J381D01*
G01*
X8580Y37918D02*
G03*
X8569Y37779I876J-139D01*
G01*
X13304Y86644D02*
G03*
X13298Y86644I-11J-2008D01*
G01*
X8569Y35825D02*
Y35824D01*
X8569Y28927D02*
G03*
X8569Y28915I2128J0D01*
G01*
X8575Y27830D02*
G03*
X8575Y27832I-381J0D01*
G01*
X8575Y27830D02*
G03*
X11640Y24765I3065J0D01*
G01*
X10956Y39451D02*
G03*
X9079Y37836I0J-1898D01*
G01*
X9075Y28927D02*
G03*
X10697Y27305I1622J0D01*
G01*
X9079Y37834D02*
G03*
X9075Y37781I377J-55D01*
G01*
X14308Y39451D02*
G03*
X14431Y39472I-1J381D01*
G01*
D02*
G03*
X14975Y40237I-266J765D01*
G01*
X27942Y93595D02*
G03*
X28125Y94334I-1401J739D01*
G01*
X12027Y93256D02*
G03*
X9148Y91939I0J-3804D01*
G01*
X9148Y91938D02*
G03*
X9135Y91923I383J-331D01*
G01*
X26980Y93256D02*
G03*
X27765Y93427I0J1889D01*
G01*
D02*
G03*
X27942Y93595I-160J346D01*
G01*
X8300Y89319D02*
G03*
X10975Y86644I2675J0D01*
G01*
X9135Y91923D02*
G03*
X8300Y89544I2971J-2379D01*
G01*
X8806Y89319D02*
G03*
X10975Y87150I2169J0D01*
G01*
X14975Y85470D02*
G03*
X13295Y87150I-1680J0D01*
G01*
X9536Y91614D02*
G03*
X9531Y91608I2491J-2162D01*
G01*
X12027Y92750D02*
G03*
X9536Y91614I0J-3298D01*
G01*
X9531Y91608D02*
G03*
X8806Y89544I2575J-2064D01*
G01*
X10453Y1749D02*
G03*
X10456Y1748I74J374D01*
G01*
X9906Y1857D02*
G03*
X9907Y1857I77J373D01*
G01*
X10559Y1729D02*
G03*
X10571Y1727I69J375D01*
G01*
X11312Y1616D02*
G03*
X11744Y1937I55J377D01*
G01*
X8744Y2513D02*
G03*
X9024Y2056I371J-88D01*
G01*
X4034Y4852D02*
G03*
X3968Y4475I291J-246D01*
G01*
D02*
G03*
X4180Y4161I750J280D01*
G01*
X4782Y3619D02*
G03*
X4855Y3568I254J284D01*
G01*
X5145Y3418D02*
G03*
X5163Y3409I174J339D01*
G01*
X4875Y3557D02*
G03*
X4878Y3556I179J336D01*
G01*
X6346Y2888D02*
G03*
X7267Y3519I244J631D01*
G01*
X6212Y2941D02*
G03*
X6228Y2934I154J348D01*
G01*
X1998Y6165D02*
G03*
X2003Y6156I337J177D01*
G01*
X1768Y6623D02*
G03*
X1769Y6620I348J154D01*
G01*
X1714Y6747D02*
G03*
X1715Y6745I352J146D01*
G01*
X1689Y6808D02*
G03*
X1689Y6807I353J143D01*
G01*
X1667Y6864D02*
G03*
X1667Y6863I355J139D01*
G01*
X1739Y6687D02*
G03*
X1740Y6685I350J150D01*
G01*
X1647Y6914D02*
G03*
X1647Y6913I356J136D01*
G01*
X1627Y6966D02*
G03*
X1628Y6965I357J133D01*
G01*
X1802Y6548D02*
G03*
X1803Y6545I346J159D01*
G01*
X1610Y7011D02*
G03*
X1611Y7010I358J130D01*
G01*
X1519Y7283D02*
G03*
X1519Y7282I364J114D01*
G01*
X1814Y6523D02*
G03*
X1818Y6513I344J164D01*
G01*
X1261Y8397D02*
X1261Y8396D01*
X1537Y9680D02*
G03*
X1158Y9269I0J-381D01*
G01*
X2004Y6154D02*
G03*
X2102Y5989I4629J2626D01*
G01*
D02*
G03*
X2700Y5927I323J202D01*
G01*
X1150Y11741D02*
G03*
X1531Y11360I381J0D01*
G01*
Y15856D02*
G03*
X1150Y15475I0J-381D01*
G01*
X1531Y22132D02*
G03*
X1150Y21751I0J-381D01*
G01*
Y17961D02*
G03*
X1575Y17536I425J0D01*
G01*
X1531Y28408D02*
G03*
X1150Y28027I0J-381D01*
G01*
Y24237D02*
G03*
X1575Y23812I425J0D01*
G01*
X1531Y34684D02*
G03*
X1150Y34303I0J-381D01*
G01*
Y30513D02*
G03*
X1575Y30088I425J0D01*
G01*
X1531Y40960D02*
G03*
X1150Y40579I0J-381D01*
G01*
Y36789D02*
G03*
X1575Y36364I425J0D01*
G01*
X1531Y47236D02*
G03*
X1150Y46855I0J-381D01*
G01*
Y43065D02*
G03*
X1575Y42640I425J0D01*
G01*
X1531Y53512D02*
G03*
X1150Y53131I0J-381D01*
G01*
Y49341D02*
G03*
X1575Y48916I425J0D01*
G01*
X1531Y59788D02*
G03*
X1150Y59407I0J-381D01*
G01*
Y55617D02*
G03*
X1575Y55192I425J0D01*
G01*
X1531Y66064D02*
G03*
X1150Y65683I0J-381D01*
G01*
Y61893D02*
G03*
X1575Y61468I425J0D01*
G01*
X1531Y72340D02*
G03*
X1150Y71959I0J-381D01*
G01*
Y68169D02*
G03*
X1575Y67744I425J0D01*
G01*
X1531Y78616D02*
G03*
X1150Y78235I0J-381D01*
G01*
Y74445D02*
G03*
X1575Y74020I425J0D01*
G01*
X1531Y84892D02*
G03*
X1150Y84511I0J-381D01*
G01*
Y80721D02*
G03*
X1575Y80296I425J0D01*
G01*
X1531Y91168D02*
G03*
X1150Y90787I0J-381D01*
G01*
Y86997D02*
G03*
X1575Y86572I425J0D01*
G01*
X1531Y103720D02*
G03*
X1150Y103339I0J-381D01*
G01*
Y99549D02*
G03*
X1575Y99124I425J0D01*
G01*
X1531Y97444D02*
G03*
X1150Y97063I0J-381D01*
G01*
Y93273D02*
G03*
X1575Y92848I425J0D01*
G01*
X1150Y105825D02*
G03*
X1575Y105400I425J0D01*
G01*
X1531Y109996D02*
G03*
X1150Y109615I0J-381D01*
G01*
X1150Y112075D02*
G03*
X1549Y111676I399J0D01*
G01*
X1531Y116172D02*
G03*
X1150Y115791I0J-381D01*
G01*
X5014Y123211D02*
G03*
X4806Y122773I162J-345D01*
G01*
X7949Y123834D02*
G03*
X7485Y124104I-368J-99D01*
G01*
X6227Y123774D02*
G03*
X6163Y123750I98J-368D01*
G01*
X9978Y124865D02*
G03*
X9631Y124391I85J-426D01*
G01*
X10398Y124948D02*
G03*
X10374Y124944I49J-378D01*
G01*
X26980Y92750D02*
G03*
X29375Y95145I0J2395D01*
G01*
X13320Y125895D02*
G03*
X13319Y125895I42J-379D01*
G01*
X10406Y125466D02*
G03*
X10405Y125465I70J-375D01*
G01*
X10495Y125482D02*
G03*
X10494Y125482I69J-375D01*
G01*
X10585Y125499D02*
G03*
X10584Y125499I68J-375D01*
G01*
X10764Y125531D02*
G03*
X10763Y125531I66J-375D01*
G01*
X10855Y125547D02*
G03*
X10854Y125547I65J-375D01*
G01*
X10945Y125563D02*
G03*
X10944Y125562I64J-376D01*
G01*
X11219Y125608D02*
G03*
X11218Y125608I61J-376D01*
G01*
X11310Y125623D02*
G03*
X11309Y125623I60J-376D01*
G01*
X11772Y125695D02*
G03*
X11771Y125695I56J-377D01*
G01*
X11865Y125709D02*
G03*
X11864Y125708I55J-377D01*
G01*
X11959Y125722D02*
G03*
X11958Y125722I54J-377D01*
G01*
X12052Y125735D02*
G03*
X12051Y125735I53J-377D01*
G01*
X12146Y125749D02*
G03*
X12145Y125748I52J-377D01*
G01*
X12240Y125761D02*
G03*
X12239Y125761I51J-378D01*
G01*
X12429Y125787D02*
G03*
X12428Y125787I49J-378D01*
G01*
X12524Y125799D02*
G03*
X12523Y125799I49J-378D01*
G01*
X12809Y125835D02*
G03*
X12808Y125835I46J-378D01*
G01*
X13096Y125870D02*
G03*
X13095Y125869I44J-379D01*
G01*
X13208Y125882D02*
G03*
X13207Y125882I43J-379D01*
G01*
X8545Y125054D02*
G03*
X8543Y125054I94J-369D01*
G01*
X8626Y125075D02*
G03*
X8625Y125075I93J-369D01*
G01*
X8708Y125096D02*
G03*
X8707Y125095I92J-370D01*
G01*
X8845Y125130D02*
G03*
X8844Y125129I90J-370D01*
G01*
X8914Y125146D02*
G03*
X8913Y125146I89J-370D01*
G01*
X8984Y125163D02*
G03*
X8983Y125163I88J-371D01*
G01*
X9053Y125180D02*
G03*
X9052Y125179I87J-371D01*
G01*
X9207Y125216D02*
G03*
X9206Y125215I85J-371D01*
G01*
X9533Y125289D02*
G03*
X9532Y125288I81J-372D01*
G01*
X9676Y125319D02*
G03*
X9675Y125319I79J-373D01*
G01*
X9748Y125335D02*
G03*
X9747Y125334I78J-373D01*
G01*
X9820Y125350D02*
G03*
X9819Y125350I77J-373D01*
G01*
X9893Y125365D02*
G03*
X9892Y125365I76J-373D01*
G01*
X9965Y125380D02*
G03*
X9964Y125379I75J-374D01*
G01*
X10053Y125397D02*
G03*
X10052Y125397I74J-374D01*
G01*
X10141Y125415D02*
G03*
X10140Y125414I73J-374D01*
G01*
X11938Y123369D02*
G03*
X12005Y123197I378J48D01*
G01*
X7451Y122439D02*
G03*
X7537Y122282I368J100D01*
G01*
X3829Y123119D02*
G03*
X3827Y123118I208J-319D01*
G01*
X4340Y123433D02*
G03*
X4339Y123432I189J-331D01*
G01*
X4384Y123458D02*
G03*
X4382Y123457I188J-332D01*
G01*
X4211Y123357D02*
G03*
X4210Y123357I194J-328D01*
G01*
X3924Y123181D02*
G03*
X3922Y123180I204J-322D01*
G01*
X3963Y123206D02*
G03*
X3963Y123205I203J-322D01*
G01*
X7383Y124724D02*
G03*
X7382Y124724I114J-364D01*
G01*
X7446Y124743D02*
G03*
X7445Y124743I112J-364D01*
G01*
X7509Y124763D02*
G03*
X7508Y124763I111J-364D01*
G01*
X7636Y124801D02*
G03*
X7635Y124801I109J-365D01*
G01*
X7700Y124821D02*
G03*
X7699Y124820I108J-365D01*
G01*
X7764Y124840D02*
G03*
X7763Y124839I107J-366D01*
G01*
X7829Y124858D02*
G03*
X7828Y124858I106J-366D01*
G01*
X7894Y124877D02*
G03*
X7893Y124877I105J-366D01*
G01*
X7959Y124896D02*
G03*
X7958Y124896I104J-367D01*
G01*
X8024Y124914D02*
G03*
X8023Y124914I103J-367D01*
G01*
X8090Y124933D02*
G03*
X8089Y124932I101J-367D01*
G01*
X8302Y124991D02*
G03*
X8301Y124990I98J-368D01*
G01*
X8383Y125012D02*
G03*
X8382Y125012I97J-368D01*
G01*
X8464Y125033D02*
G03*
X8462Y125033I96J-369D01*
G01*
X5177Y123870D02*
G03*
X5176Y123870I163J-344D01*
G01*
X5328Y123941D02*
G03*
X5326Y123940I159J-346D01*
G01*
X5379Y123964D02*
G03*
X5377Y123964I158J-347D01*
G01*
X5533Y124034D02*
G03*
X5532Y124033I154J-349D01*
G01*
X5586Y124057D02*
G03*
X5584Y124056I152J-349D01*
G01*
X5744Y124125D02*
G03*
X5743Y124125I148J-351D01*
G01*
X5798Y124148D02*
G03*
X5797Y124147I147J-352D01*
G01*
X5852Y124170D02*
X5851Y124170D01*
X5961Y124215D02*
G03*
X5960Y124215I143J-353D01*
G01*
X6016Y124238D02*
G03*
X6015Y124237I142J-354D01*
G01*
X6071Y124260D02*
G03*
X6070Y124259I140J-354D01*
G01*
X6127Y124282D02*
G03*
X6126Y124281I139J-355D01*
G01*
X6183Y124304D02*
G03*
X6182Y124303I138J-355D01*
G01*
X6296Y124347D02*
G03*
X6295Y124347I135J-356D01*
G01*
X6410Y124390D02*
X6409Y124390D01*
X6468Y124412D02*
G03*
X6467Y124411I132J-358D01*
G01*
X6526Y124433D02*
G03*
X6524Y124433I130J-358D01*
G01*
X6596Y124459D02*
G03*
X6595Y124458I129J-359D01*
G01*
X7135Y124644D02*
G03*
X7134Y124644I118J-362D01*
G01*
X7197Y124664D02*
G03*
X7196Y124664I117J-363D01*
G01*
X3699Y119684D02*
G03*
X3896Y119569I282J256D01*
G01*
X1091Y119745D02*
X1091Y119744D01*
X1294Y120265D02*
G03*
X1293Y120263I348J-155D01*
G01*
X1369Y120430D02*
G03*
X1368Y120426I343J-166D01*
G01*
X1408Y120510D02*
G03*
X1407Y120507I341J-171D01*
G01*
X2431Y121970D02*
G03*
X2429Y121968I276J-263D01*
G01*
X2475Y122015D02*
G03*
X2472Y122013I273J-266D01*
G01*
X1558Y5915D02*
G03*
X1697Y5682I5075J2865D01*
G01*
X14450Y3172D02*
G03*
X14202Y3770I-845J0D01*
G01*
X9925Y4082D02*
G03*
X9766Y4466I-543J0D01*
G01*
X5629Y5379D02*
G03*
X5868Y5956I-577J577D01*
G01*
X2804Y8840D02*
G03*
X3625Y9180I0J1161D01*
G01*
X2804Y15016D02*
G03*
X3625Y15356I0J1161D01*
G01*
X2804Y21292D02*
G03*
X3625Y21632I0J1161D01*
G01*
X2804Y27568D02*
G03*
X3625Y27908I0J1161D01*
G01*
X2804Y33844D02*
G03*
X3625Y34184I0J1161D01*
G01*
X2804Y40120D02*
G03*
X3625Y40460I0J1161D01*
G01*
X2804Y46396D02*
G03*
X3625Y46736I0J1161D01*
G01*
X2804Y52672D02*
G03*
X3625Y53012I0J1161D01*
G01*
X2804Y58948D02*
G03*
X3625Y59288I0J1161D01*
G01*
X2804Y65224D02*
G03*
X3625Y65564I0J1161D01*
G01*
X2804Y71500D02*
G03*
X3625Y71840I0J1161D01*
G01*
X2804Y77776D02*
G03*
X3625Y78116I0J1161D01*
G01*
X2804Y84052D02*
G03*
X3625Y84392I0J1161D01*
G01*
X2804Y90328D02*
G03*
X3625Y90668I0J1161D01*
G01*
X2804Y96604D02*
G03*
X3625Y96944I0J1161D01*
G01*
X2804Y102880D02*
G03*
X3625Y103220I0J1161D01*
G01*
X2804Y109156D02*
G03*
X3625Y109496I0J1161D01*
G01*
X2804Y115332D02*
G03*
X3625Y115672I0J1161D01*
G01*
X12599Y124845D02*
G03*
X12173Y125176I-378J-46D01*
G01*
X1901Y120360D02*
X2204Y120854D01*
X1862Y120286D02*
X1886Y120334D01*
X1789Y120133D02*
X1825Y120209D01*
X1731Y120002D02*
X1756Y120059D01*
X1571Y119583D02*
X1586Y119627D01*
X1556Y119540D02*
X1570Y119581D01*
X1354Y118804D02*
X1363Y118843D01*
X1345Y118764D02*
X1354Y118803D01*
X1336Y118722D02*
X1345Y118762D01*
X1328Y118682D02*
X1336Y118722D01*
X1320Y118641D02*
X1328Y118682D01*
X1312Y118600D02*
X1320Y118641D01*
X1304Y118559D02*
X1312Y118600D01*
X1296Y118517D02*
X1304Y118559D01*
X1290Y118482D02*
X1295Y118513D01*
X1284Y118449D02*
X1290Y118482D01*
X1277Y118412D02*
X1284Y118449D01*
X1271Y118376D02*
X1277Y118411D01*
X1525Y119445D02*
X1540Y119491D01*
X1706Y119942D02*
X1730Y119999D01*
X1440Y119155D02*
X1450Y119192D01*
X1586Y119627D02*
X1602Y119674D01*
X1420Y119079D02*
X1429Y119117D01*
X1540Y119493D02*
X1556Y119540D01*
X2204Y120854D02*
X2332Y121063D01*
X1410Y119040D02*
X1420Y119079D01*
X1400Y119002D02*
X1410Y119040D01*
X1510Y119397D02*
X1525Y119444D01*
X1681Y119880D02*
X1704Y119938D01*
X1390Y118962D02*
X1400Y119002D01*
X1757Y120062D02*
X1787Y120128D01*
X1265Y118341D02*
X1271Y118376D01*
X1260Y118304D02*
X1265Y118340D01*
X1461Y119231D02*
X1471Y119266D01*
X1363Y118844D02*
X1372Y118884D01*
X1471Y119268D02*
X1484Y119311D01*
X1381Y118923D02*
X1390Y118962D01*
X1258Y118292D02*
X1260Y118304D01*
X1430Y119117D02*
X1440Y119155D01*
X1826Y120212D02*
X1860Y120281D01*
X1633Y117852D02*
X1745Y117852D01*
X1450Y119192D02*
X1461Y119231D01*
X1602Y119674D02*
X1619Y119720D01*
X1619Y119721D02*
X1638Y119771D01*
X1372Y118884D02*
X1381Y118923D01*
X1484Y119311D02*
X1496Y119353D01*
X1639Y119772D02*
X1658Y119822D01*
X1745Y117852D02*
X2100Y117852D01*
X1497Y119354D02*
X1509Y119394D01*
X1659Y119824D02*
X1680Y119878D01*
X2562Y121356D02*
X2611Y121414D01*
X2613Y121417D02*
X2637Y121444D01*
X2451Y121220D02*
X2500Y121281D01*
X2503Y121285D02*
X2559Y121353D01*
X3201Y121457D02*
X3508Y121134D01*
X3752Y120877D01*
X2392Y121143D02*
X2448Y121216D01*
X4490Y82000D02*
X6313Y83823D01*
X6425Y84093D02*
X6425Y91570D01*
X10180Y95325D02*
X22436D01*
X23125Y96014D02*
Y97355D01*
Y103425D01*
X623Y117013D02*
X1745D01*
X603Y73181D02*
Y116127D01*
Y48077D02*
Y73181D01*
Y10591D02*
Y48077D01*
X10215Y94125D02*
X23153D01*
X25625Y96597D02*
Y97355D01*
X23134Y94725D02*
X23136Y94725D01*
X24375Y97355D02*
X24398Y96036D01*
X10199Y94725D02*
X23134D01*
X24398Y96036D02*
X24398Y96036D01*
X7030Y82000D02*
Y91556D01*
X7762Y83808D02*
X9570Y82000D01*
X7761Y83809D02*
X7762Y83808D01*
X7650Y84078D02*
Y91560D01*
X17703Y105600D02*
X20950D01*
X13345Y109958D02*
Y122827D01*
X14332Y109779D02*
Y124487D01*
X17935Y106175D02*
X24450D01*
X26875Y97355D02*
Y103750D01*
X12904Y125847D02*
X12999Y125858D01*
X11587Y125667D02*
X11678Y125681D01*
X11402Y125638D02*
X11493Y125652D01*
X11036Y125578D02*
X11126Y125593D01*
X10229Y125432D02*
X10317Y125449D01*
X10229Y125432D02*
X10229Y125432D01*
X9292Y125235D02*
X9375Y125254D01*
X8156Y124951D02*
X8221Y124969D01*
X7321Y124704D02*
X7382Y124724D01*
X7320Y124704D02*
X7321Y124704D01*
X7259Y124684D02*
X7320Y124704D01*
X7013Y124604D02*
X7073Y124624D01*
X6892Y124563D02*
X6951Y124583D01*
X6832Y124542D02*
X6832D01*
X6772Y124521D02*
X6832Y124542D01*
X6713Y124501D02*
X6772Y124521D01*
X6654Y124480D02*
X6712Y124500D01*
X6353Y124369D02*
X6409Y124390D01*
X5692Y124103D02*
X5743Y124125D01*
X5638Y124080D02*
X5689Y124102D01*
X5430Y123988D02*
X5480Y124010D01*
X5227Y123894D02*
X5276Y123917D01*
X5177Y123870D02*
X5226Y123894D01*
X5128Y123847D02*
X5137Y123851D01*
X5079Y123823D02*
X5126Y123846D01*
X5030Y123799D02*
X5077Y123822D01*
X13589Y123593D02*
X13589Y123592D01*
X9080Y122850D02*
X9080Y122849D01*
X8335Y4260D02*
X8800Y4725D01*
X8335Y4260D02*
X8335Y4260D01*
X12715Y2761D02*
X12775Y3250D01*
X8168Y3682D02*
X8300Y4175D01*
X5712Y2597D02*
X5765Y2574D01*
X5659Y2620D02*
X5712Y2597D01*
X6205Y2396D02*
X6261Y2374D01*
X6261Y2374D02*
X6318Y2352D01*
X12490Y1293D02*
X12611Y2059D01*
X12490Y1293D02*
Y1293D01*
X12490Y1293D02*
X12490Y1293D01*
X12384Y1101D02*
X12438Y1155D01*
X12115Y989D02*
X12272Y989D01*
X12086D02*
X12115Y989D01*
X4933Y123751D02*
X4980Y123774D01*
X4838Y123703D02*
X4884Y123726D01*
X4791Y123679D02*
X4837Y123702D01*
X4745Y123655D02*
X4790Y123678D01*
X4516Y123532D02*
X4560Y123556D01*
X4472Y123507D02*
X4515Y123531D01*
X4470Y123506D02*
X4470Y123506D01*
X4427Y123482D02*
X4470Y123506D01*
X4427Y123482D02*
X4427Y123482D01*
X4296Y123407D02*
X4296Y123407D01*
X4254Y123383D02*
X4296Y123407D01*
X4169Y123332D02*
X4210Y123357D01*
X4128Y123308D02*
X4168Y123331D01*
X4044Y123256D02*
X4084Y123281D01*
X4044Y123256D02*
X4044Y123256D01*
X4003Y123231D02*
X4044Y123256D01*
X4003Y123231D02*
X4003Y123231D01*
X3876Y123150D02*
X3922Y123180D01*
X3875Y123150D02*
X3876Y123150D01*
X3875Y123149D02*
X3875Y123149D01*
X3829Y123119D02*
X3875Y123149D01*
X3782Y123088D02*
X3827Y123118D01*
X4917Y120839D02*
X4918Y120838D01*
X4783Y6625D02*
X5125D01*
X4300Y6425D02*
X4300Y6425D01*
X5147Y2852D02*
X5196Y2829D01*
X5247Y2805D02*
X5297Y2782D01*
X5197Y2829D02*
X5246Y2805D01*
X3988Y6079D02*
X4300Y6425D01*
X3691Y123027D02*
X3734Y123056D01*
X3570Y3765D02*
X3614Y3734D01*
X3615Y3733D02*
X3659Y3703D01*
X2995Y122501D02*
X2999Y122504D01*
X2682Y122220D02*
X2722Y122258D01*
X2640Y122180D02*
X2680Y122218D01*
X2638Y122179D02*
X2639Y122179D01*
X2599Y122140D02*
X2638Y122179D01*
X2599Y122140D02*
X2599Y122140D01*
X2597Y122138D02*
X2597Y122139D01*
X2559Y122100D02*
X2597Y122138D01*
X2519Y122060D02*
X2556Y122098D01*
X2518Y122060D02*
X2519Y122060D01*
X2333Y121864D02*
X2382Y121917D01*
X2331Y121861D02*
X2331Y121861D01*
X2279Y121803D02*
X2331Y121861D01*
X2230Y121747D02*
X2276Y121800D01*
X2230Y121747D02*
X2230Y121747D01*
X2174Y121681D02*
X2228Y121745D01*
X2173Y121681D02*
X2174Y121681D01*
X2171Y121678D02*
X2171Y121678D01*
X2110Y121604D02*
X2171Y121678D01*
X2110Y121604D02*
X2110Y121604D01*
X2053Y121532D02*
X2107Y121600D01*
X1990Y121451D02*
X2049Y121528D01*
X1911Y121344D02*
X1911Y121344D01*
X1451Y120594D02*
X1911Y121344D01*
X1329Y120343D02*
X1368Y120426D01*
X1294Y120265D02*
X1327Y120338D01*
X1238Y120135D02*
X1264Y120197D01*
X1238Y120135D02*
X1238Y120135D01*
X1211Y120068D02*
X1237Y120132D01*
X1211Y120068D02*
Y120068D01*
X1210Y120066D02*
X1210Y120066D01*
X1187Y120007D02*
X1210Y120066D01*
X1186Y120005D02*
X1186Y120005D01*
X1166Y119952D02*
X1186Y120005D01*
X2100Y117012D02*
X2804D01*
X1145Y119896D02*
X1165Y119950D01*
X1144Y119895D02*
X1144Y119895D01*
X1127Y119847D02*
X1144Y119895D01*
X1109Y119797D02*
X1126Y119844D01*
X1091Y119745D02*
X1108Y119794D01*
X1076Y119700D02*
X1076Y119700D01*
X1059Y119650D02*
X1076Y119700D01*
X1042Y119598D02*
X1059Y119648D01*
X1042Y119597D02*
X1042Y119597D01*
X1026Y119546D02*
X1042Y119597D01*
X1012Y119500D02*
X1026Y119545D01*
X1012Y119500D02*
X1012Y119500D01*
X998Y119454D02*
X1012Y119499D01*
X998Y119453D02*
X998Y119453D01*
X985Y119407D02*
X998Y119453D01*
X962Y119327D02*
X973Y119367D01*
X951Y119287D02*
X962Y119327D01*
X940Y119246D02*
X951Y119286D01*
X940Y119245D02*
X940Y119245D01*
X930Y119205D02*
X940Y119245D01*
X919Y119164D02*
X929Y119205D01*
X909Y119122D02*
X919Y119163D01*
X909Y119122D02*
Y119122D01*
X899Y119081D02*
X909Y119122D01*
X879Y118997D02*
X889Y119039D01*
X869Y118955D02*
X879Y118997D01*
X850Y118870D02*
X860Y118912D01*
X850Y118870D02*
Y118870D01*
X842Y118830D02*
X850Y118869D01*
X832Y118784D02*
X841Y118826D01*
X824Y118740D02*
X832Y118783D01*
X807Y118653D02*
X815Y118696D01*
X798Y118609D02*
X807Y118652D01*
X785Y118535D02*
X792Y118572D01*
X785Y118535D02*
X785Y118535D01*
X779Y118497D02*
X785Y118534D01*
X766Y118422D02*
X772Y118460D01*
X760Y118384D02*
X766Y118422D01*
X737Y118232D02*
X742Y118270D01*
X731Y118193D02*
X737Y118232D01*
X726Y118155D02*
X731Y118193D01*
X725Y118151D02*
X725Y118151D01*
X720Y118116D02*
X725Y118151D01*
X715Y118077D02*
X720Y118116D01*
X710Y118037D02*
X715Y118077D01*
X681Y117784D02*
X684Y117815D01*
X678Y117751D02*
X681Y117783D01*
X674Y117718D02*
X678Y117750D01*
X671Y117686D02*
X674Y117718D01*
X667Y117645D02*
X671Y117686D01*
X649Y117431D02*
X652Y117464D01*
X647Y117398D02*
X649Y117430D01*
X631Y117162D02*
X633Y117195D01*
X629Y117127D02*
X631Y117161D01*
X624Y117025D02*
X626Y117059D01*
X623Y117013D02*
X624Y117024D01*
X608Y116587D02*
X609Y116614D01*
X608Y116560D02*
X608Y116587D01*
X2100Y85732D02*
X2804D01*
X2100Y73180D02*
X2804D01*
X2100Y66904D02*
X2804D01*
X2100Y60628D02*
X2804D01*
X2100Y48076D02*
X2804D01*
X2100Y54352D02*
X2804D01*
X2100Y110836D02*
X2804D01*
X2100Y104560D02*
X2804D01*
X2100Y98284D02*
X2804D01*
X2100Y92008D02*
X2804D01*
X2100Y79456D02*
X2804D01*
X2100Y41800D02*
X2804D01*
X2503Y4664D02*
X2505Y4662D01*
X2333Y4845D02*
X2497Y4670D01*
X3483Y3827D02*
X3526Y3796D01*
X3440Y3858D02*
X3483Y3827D01*
X2687Y4483D02*
X2692Y4478D01*
X2505Y4662D02*
X2683Y4487D01*
X2982Y4219D02*
X2987Y4214D01*
X2692Y4478D02*
X2975Y4225D01*
X2100Y29248D02*
X2804D01*
X2100Y22972D02*
X2804D01*
X2100Y35524D02*
X2804D01*
X2100Y16696D02*
X2804D01*
X2100Y10520D02*
X2804D01*
X1857Y5440D02*
X2043Y5189D01*
X2329Y4848D02*
X2333Y4845D01*
X2049Y5182D02*
X2053Y5176D01*
X2321Y4858D01*
X1362Y6293D02*
X1552Y5926D01*
X663Y9112D02*
X666Y9079D01*
X647Y9311D02*
X649Y9277D01*
X649Y9277D02*
X652Y9244D01*
X603Y10591D02*
X603Y10554D01*
X611Y10015D02*
X612Y9988D01*
X612Y9988D02*
X613Y9962D01*
X847Y7853D02*
X856Y7810D01*
X829Y7939D02*
X838Y7896D01*
X847Y7853D01*
X857Y7810D02*
X866Y7768D01*
X711Y8663D02*
X716Y8624D01*
X716Y8624D02*
X722Y8585D01*
X697Y8781D02*
X702Y8742D01*
X692Y8821D02*
X697Y8781D01*
X821Y7983D02*
X829Y7939D01*
X13321Y125784D02*
X13450Y124735D01*
X13208Y125882D02*
X13319Y125895D01*
X8580Y37918D02*
X8580D01*
X10956Y39957D02*
X14088D01*
X14469Y40338D02*
Y85470D01*
X8569Y35825D02*
Y37779D01*
Y35824D02*
X8569Y28927D01*
X8569Y28915D02*
X8575Y27832D01*
X9075Y28927D02*
Y37781D01*
X9079Y37834D02*
X9079Y37836D01*
X10956Y39451D02*
X14308D01*
X14975Y40237D02*
Y85470D01*
X12027Y93256D02*
X26980D01*
X9148Y91938D02*
X9148Y91939D01*
X10975Y86644D02*
X13298D01*
X8300Y89319D02*
Y89544D01*
X8806Y89319D02*
Y89544D01*
X10975Y87150D02*
X13295Y87150D01*
X10529Y1734D02*
X10559Y1729D01*
X10456Y1748D02*
X10529Y1734D01*
X10571Y1727D02*
X11312Y1616D01*
X11778Y2162D02*
X11830Y2513D01*
X9907Y1857D02*
X10453Y1749D01*
X11744Y1937D02*
X11778Y2162D01*
X9251Y2002D02*
X9334Y1983D01*
X9169Y2021D02*
X9251Y2002D01*
X9583Y1927D02*
X9852Y1869D01*
X9033Y2054D02*
X9101Y2037D01*
X9024Y2056D02*
X9033Y2054D01*
X8744Y2513D02*
X8807Y2776D01*
X8890Y3121D01*
X9101Y2037D02*
X9169Y2021D01*
X9334Y1983D02*
X9417Y1964D01*
X9500Y1945D02*
X9583Y1927D01*
X9417Y1964D02*
X9500Y1945D01*
X9852Y1869D02*
X9866Y1866D01*
X9906Y1857D01*
X4146Y4983D02*
X4376Y5253D01*
X4378Y3983D02*
X4782Y3619D01*
X4034Y4852D02*
X4146Y4983D01*
X4180Y4161D02*
X4378Y3983D01*
X4855Y3568D02*
X4864Y3563D01*
X4878Y3556D02*
X5145Y3418D01*
X4864Y3563D02*
X4875Y3557D01*
X5163Y3409D02*
X6212Y2941D01*
X7267Y3519D02*
Y3519D01*
X6228Y2934D02*
X6346Y2888D01*
X2003Y6156D02*
X2004Y6154D01*
X1818Y6513D02*
X1998Y6165D01*
X1803Y6545D02*
X1814Y6522D01*
X1769Y6620D02*
X1802Y6548D01*
X1647Y6913D02*
X1667Y6864D01*
X1519Y7282D02*
X1534Y7234D01*
X1506Y7324D02*
X1519Y7283D01*
X1493Y7366D02*
X1506Y7324D01*
X1480Y7411D02*
X1493Y7366D01*
X1446Y7528D02*
X1457Y7491D01*
X1426Y7604D02*
X1436Y7566D01*
X1406Y7681D02*
X1416Y7643D01*
X1397Y7720D02*
X1406Y7681D01*
X1387Y7759D02*
X1397Y7720D01*
X1378Y7799D02*
X1387Y7759D01*
X1369Y7838D02*
X1378Y7799D01*
X1360Y7878D02*
X1369Y7838D01*
X1457Y7491D02*
X1467Y7454D01*
X1564Y7145D02*
X1578Y7104D01*
X1351Y7917D02*
X1360Y7878D01*
X1594Y7057D02*
X1610Y7011D01*
X1342Y7958D02*
X1351Y7917D01*
X1334Y7999D02*
X1342Y7958D01*
X1325Y8039D02*
X1334Y7999D01*
X1317Y8081D02*
X1325Y8039D01*
X1467Y7454D02*
X1480Y7411D01*
X1715Y6745D02*
X1739Y6687D01*
X1297Y8184D02*
X1304Y8150D01*
X1667Y6863D02*
X1689Y6808D01*
X1285Y8254D02*
X1291Y8219D01*
X1278Y8290D02*
X1285Y8254D01*
X1261Y8396D02*
X1266Y8361D01*
X1550Y7186D02*
X1564Y7145D01*
X1249Y8469D02*
X1255Y8432D01*
X1578Y7104D02*
X1594Y7057D01*
X1740Y6685D02*
X1768Y6623D01*
X1244Y8505D02*
X1249Y8469D01*
X1238Y8541D02*
X1244Y8505D01*
X1628Y6965D02*
X1647Y6914D01*
X1228Y8615D02*
X1233Y8578D01*
X1223Y8652D02*
X1228Y8615D01*
X1266Y8361D02*
X1272Y8325D01*
X1218Y8689D02*
X1223Y8652D01*
X1255Y8432D02*
X1261Y8397D01*
X1534Y7234D02*
X1550Y7186D01*
X1213Y8727D02*
X1218Y8689D01*
X1204Y8802D02*
X1209Y8764D01*
X1199Y8840D02*
X1204Y8802D01*
X1195Y8878D02*
X1199Y8840D01*
X1192Y8908D02*
X1195Y8878D01*
X1611Y7010D02*
X1627Y6966D01*
X1188Y8939D02*
X1192Y8908D01*
X1185Y8970D02*
X1188Y8939D01*
X1310Y8115D02*
X1317Y8081D01*
X1182Y9001D02*
X1185Y8970D01*
X1304Y8150D02*
X1310Y8115D01*
X1179Y9032D02*
X1182Y9001D01*
X1272Y8325D02*
X1278Y8290D01*
X1176Y9063D02*
X1179Y9032D01*
X1291Y8219D02*
X1297Y8184D01*
X1173Y9094D02*
X1176Y9063D01*
X1170Y9126D02*
X1173Y9094D01*
X1167Y9157D02*
X1170Y9126D01*
X1164Y9189D02*
X1167Y9157D01*
X1209Y8764D02*
X1213Y8727D01*
X1161Y9220D02*
X1164Y9189D01*
X1159Y9252D02*
X1161Y9220D01*
X1158Y9269D02*
X1159Y9252D01*
X1233Y8578D02*
X1238Y8541D01*
X1689Y6807D02*
X1714Y6747D01*
X1436Y7566D02*
X1446Y7528D01*
X1416Y7643D02*
X1426Y7604D01*
X1537Y9680D02*
X2100D01*
X2700Y5927D02*
X2883Y6120D01*
X3128Y6377D01*
X1531Y11360D02*
X2100D01*
X1150Y11741D02*
Y15475D01*
X1531Y15856D02*
X2100D01*
X1531Y22132D02*
X2100D01*
X1150Y17961D02*
Y21751D01*
X1575Y17536D02*
X2100D01*
X1531Y28408D02*
X2100D01*
X1150Y24237D02*
Y28027D01*
X1575Y23812D02*
X2100D01*
X1531Y34684D02*
X2100D01*
X1150Y30513D02*
Y34303D01*
X1575Y30088D02*
X2100D01*
X1531Y40960D02*
X2100D01*
X1150Y36789D02*
Y40579D01*
X1575Y36364D02*
X2100D01*
X1531Y47236D02*
X2100D01*
X1150Y43065D02*
Y46855D01*
X1575Y42640D02*
X2100D01*
X1531Y53512D02*
X2100D01*
X1150Y49341D02*
Y53131D01*
X1575Y48916D02*
X2100D01*
X1531Y59788D02*
X2100D01*
X1150Y55617D02*
Y59407D01*
X1575Y55192D02*
X2100D01*
X1531Y66064D02*
X2100D01*
X1150Y61893D02*
Y65683D01*
X1575Y61468D02*
X2100D01*
X1531Y72340D02*
X2100D01*
X1150Y68169D02*
Y71959D01*
X1575Y67744D02*
X2100D01*
X1531Y78616D02*
X2100D01*
X1150Y74445D02*
Y78235D01*
X1575Y74020D02*
X2100D01*
X1531Y84892D02*
X2100D01*
X1150Y80721D02*
Y84511D01*
X1575Y80296D02*
X2100D01*
X1531Y91168D02*
X2100D01*
X1150Y86997D02*
Y90787D01*
X1575Y86572D02*
X2100D01*
X1531Y103720D02*
X2100D01*
X1150Y99549D02*
Y103339D01*
X1575Y99124D02*
X2100D01*
X1531Y97444D02*
X2100D01*
X1150Y93273D02*
Y97063D01*
X1575Y92848D02*
X2100D01*
X1575Y105400D02*
X2100D01*
X1150Y105825D02*
Y109615D01*
X1531Y109996D02*
X2100D01*
X1531Y116172D02*
X2100D01*
X1150Y112075D02*
Y115791D01*
X1549Y111676D02*
X2100D01*
X5048Y123226D02*
X6163Y123750D01*
X4806Y122773D02*
X4995Y122021D01*
X5014Y123211D02*
X5048Y123226D01*
X4995Y122021D02*
X5000Y122001D01*
X7484Y124104D02*
X7485Y124104D01*
X6227Y123774D02*
X6228Y123774D01*
X7484Y124104D01*
X9694Y123853D02*
X9701Y123788D01*
X9631Y124391D02*
X9694Y123853D01*
X10229Y124915D02*
X10374Y124944D01*
X9978Y124865D02*
X10229Y124915D01*
X10399Y124948D02*
X12172Y125176D01*
X10398Y124948D02*
X10399Y124948D01*
X12027Y92750D02*
X26980D01*
X29375Y95145D02*
Y97355D01*
X28125Y94334D02*
Y97355D01*
X10697Y27305D02*
X20228D01*
X11640Y24765D02*
X20228D01*
X2605Y4570D02*
X2606Y4571D01*
X3508Y5558D01*
X2602Y4567D02*
X2605Y4570D01*
X8510Y124982D02*
X8796Y123913D01*
X10317Y125449D02*
X10405Y125465D01*
X10406Y125466D02*
X10494Y125482D01*
X10495Y125482D02*
X10584Y125499D01*
X10585Y125499D02*
X10674Y125515D01*
X10674Y125515D02*
X10763Y125531D01*
X10764Y125531D02*
X10854Y125547D01*
X10855Y125547D02*
X10944Y125562D01*
X10945Y125563D02*
X11035Y125578D01*
X11127Y125593D02*
X11218Y125608D01*
X11219Y125608D02*
X11309Y125623D01*
X11310Y125623D02*
X11401Y125638D01*
X11494Y125652D02*
X11586Y125667D01*
X11679Y125681D02*
X11771Y125695D01*
X11772Y125695D02*
X11864Y125708D01*
X11865Y125709D02*
X11958Y125722D01*
X11959Y125722D02*
X12051Y125735D01*
X12052Y125735D02*
X12145Y125748D01*
X12146Y125749D02*
X12239Y125761D01*
X12240Y125761D02*
X12334Y125774D01*
X12334Y125774D02*
X12428Y125787D01*
X12429Y125787D02*
X12523Y125799D01*
X12524Y125799D02*
X12618Y125811D01*
X12618Y125811D02*
X12713Y125823D01*
X12713Y125823D02*
X12808Y125835D01*
X12809Y125835D02*
X12903Y125847D01*
X13000Y125858D02*
X13095Y125869D01*
X13096Y125869D02*
X13207Y125882D01*
X8464Y125033D02*
X8543Y125054D01*
X8545Y125054D02*
X8625Y125075D01*
X8626Y125075D02*
X8707Y125095D01*
X8708Y125096D02*
X8776Y125113D01*
X8844Y125129D01*
X8845Y125130D02*
X8913Y125146D01*
X8914Y125146D02*
X8983Y125163D01*
X8984Y125163D02*
X9052Y125179D01*
X9053Y125180D02*
X9122Y125196D01*
X9122Y125196D02*
X9206Y125215D01*
X9207Y125216D02*
X9290Y125235D01*
X9376Y125254D02*
X9461Y125273D01*
X9461Y125273D02*
X9532Y125288D01*
X9533Y125289D02*
X9604Y125304D01*
X9604Y125304D02*
X9675Y125319D01*
X9676Y125319D02*
X9747Y125334D01*
X9748Y125335D02*
X9819Y125350D01*
X9820Y125350D02*
X9892Y125365D01*
X9893Y125365D02*
X9964Y125379D01*
X9965Y125380D02*
X10052Y125397D01*
X10053Y125397D02*
X10140Y125414D01*
X10141Y125415D02*
X10228Y125432D01*
X13345Y122827D02*
X13391Y122943D01*
X13567Y123413D01*
X13535Y124032D02*
X13589Y123593D01*
X13498Y124384D02*
X13535Y124032D01*
X12280Y122807D02*
X12352Y122705D01*
X12005Y123197D02*
X12280Y122807D01*
X11938Y123370D02*
X11938Y123369D01*
X11882Y123829D02*
X11938Y123370D01*
X11830Y124179D02*
X11882Y123829D01*
X8991Y122009D02*
X9020Y122130D01*
X9090Y122706D01*
X8979Y123228D02*
X9080Y122850D01*
X8890Y123571D02*
X8979Y123228D01*
X7939Y121840D02*
X8025Y121750D01*
X7537Y122282D02*
X7939Y121840D01*
X7451Y122440D02*
X7451Y122439D01*
X7356Y122793D02*
X7451Y122440D01*
X7267Y123136D02*
X7356Y122793D01*
X3253Y122709D02*
X4146Y121709D01*
X3253Y122709D02*
X3600Y122963D01*
X3644Y122995D01*
X3645Y122995D01*
X3689Y123026D01*
X3736Y123058D02*
X3781Y123088D01*
X4296Y123407D02*
X4339Y123432D01*
X4340Y123433D02*
X4382Y123457D01*
X4384Y123458D02*
X4426Y123482D01*
X4084Y123281D02*
X4128Y123308D01*
X4211Y123357D02*
X4252Y123382D01*
X3924Y123181D02*
X3963Y123205D01*
X3963Y123206D02*
X4003Y123231D01*
X4003Y123231D01*
X7383Y124724D02*
X7445Y124743D01*
X7446Y124743D02*
X7508Y124763D01*
X7509Y124763D02*
X7572Y124782D01*
X7572Y124782D02*
X7635Y124801D01*
X7636Y124801D02*
X7699Y124820D01*
X7700Y124821D02*
X7763Y124839D01*
X7764Y124840D02*
X7828Y124858D01*
X7829Y124858D02*
X7893Y124877D01*
X7894Y124877D02*
X7958Y124896D01*
X7959Y124896D02*
X8023Y124914D01*
X8024Y124914D02*
X8089Y124932D01*
X8090Y124933D02*
X8155Y124951D01*
X8222Y124969D02*
X8301Y124990D01*
X8302Y124991D02*
X8382Y125012D01*
X8383Y125012D02*
X8462Y125033D01*
X4561Y123556D02*
X4606Y123581D01*
X4651Y123605D01*
X4697Y123629D01*
Y123629D02*
X4745Y123655D01*
X4886Y123727D02*
X4932Y123750D01*
X4981Y123775D02*
X5028Y123798D01*
X5137Y123851D02*
X5176Y123870D01*
X5277Y123918D02*
X5326Y123940D01*
X5328Y123941D02*
X5377Y123964D01*
X5379Y123964D02*
X5429Y123987D01*
X5481Y124011D02*
X5532Y124033D01*
X5533Y124034D02*
X5584Y124056D01*
X5586Y124057D02*
X5637Y124079D01*
X5744Y124125D02*
X5797Y124147D01*
X5798Y124148D02*
X5851Y124170D01*
X5852Y124170D02*
X5906Y124193D01*
X5960Y124215D01*
X5961Y124215D02*
X6015Y124237D01*
X6016Y124238D02*
X6070Y124259D01*
X6071Y124260D02*
X6126Y124281D01*
X6127Y124282D02*
X6182Y124303D01*
X6183Y124304D02*
X6239Y124325D01*
X6239Y124325D02*
X6295Y124347D01*
X6296Y124347D02*
X6352Y124368D01*
X6410Y124390D02*
X6467Y124411D01*
X6468Y124412D02*
X6524Y124433D01*
X6526Y124433D02*
X6595Y124458D01*
X6596Y124459D02*
X6653Y124479D01*
X6832Y124542D02*
X6891Y124563D01*
X6953Y124583D02*
X7012Y124603D01*
X7074Y124624D02*
X7134Y124644D01*
X7135Y124644D02*
X7196Y124664D01*
X7197Y124664D02*
X7258Y124684D01*
X5146Y120221D02*
X5175Y120100D01*
X4998Y120697D02*
X5146Y120221D01*
X4614Y121176D02*
X4917Y120839D01*
X4376Y121439D02*
X4614Y121176D01*
X4314Y119472D02*
X4432Y119431D01*
X3896Y119569D02*
X4314Y119472D01*
X3698Y119685D02*
X3699Y119684D01*
X3367Y120053D02*
X3698Y119685D01*
X3128Y120315D02*
X3367Y120053D01*
X622Y116990D02*
X623Y117013D01*
X612Y110837D02*
X1745D01*
X612Y104561D02*
X1745D01*
X612Y98285D02*
X1745D01*
X612Y92009D02*
X1745D01*
X612Y85733D02*
X1745D01*
X612Y79457D02*
X1745D01*
X612Y73181D02*
X1745D01*
X612Y66905D02*
X1745D01*
X612Y60629D02*
X1745D01*
X612Y54353D02*
X1745D01*
X612Y48077D02*
X1745D01*
X612Y41801D02*
X1745D01*
X612Y35525D02*
X1745D01*
X612Y29249D02*
X1745D01*
X612Y22973D02*
X1745D01*
X612Y16697D02*
X1745D01*
X612Y10521D02*
X1745D01*
X1076Y119701D02*
X1091Y119744D01*
X792Y118572D02*
X798Y118605D01*
X815Y118696D02*
X824Y118740D01*
X860Y118912D02*
X869Y118955D01*
X889Y119039D02*
X899Y119081D01*
X973Y119367D02*
X985Y119407D01*
X742Y118270D02*
X748Y118308D01*
X754Y118347D01*
X760Y118384D01*
X772Y118460D02*
X779Y118497D01*
X2724Y122260D02*
X2768Y122299D01*
X2988Y122495D01*
X2999Y122504D02*
X3253Y122709D01*
X705Y117998D02*
X710Y118037D01*
X701Y117959D02*
X705Y117998D01*
X696Y117919D02*
X701Y117959D01*
X691Y117879D02*
X696Y117919D01*
X688Y117847D02*
X691Y117879D01*
X684Y117815D02*
X688Y117847D01*
X664Y117604D02*
X667Y117645D01*
X660Y117563D02*
X664Y117604D01*
X657Y117530D02*
X660Y117563D01*
X655Y117497D02*
X657Y117530D01*
X652Y117464D02*
X655Y117497D01*
X644Y117364D02*
X647Y117398D01*
X642Y117331D02*
X644Y117364D01*
X640Y117297D02*
X642Y117331D01*
X637Y117263D02*
X640Y117297D01*
X635Y117229D02*
X637Y117263D01*
X633Y117195D02*
X635Y117229D01*
X627Y117093D02*
X629Y117127D01*
X626Y117059D02*
X627Y117093D01*
X621Y116955D02*
X622Y116990D01*
X619Y116921D02*
X621Y116955D01*
X618Y116886D02*
X619Y116921D01*
X616Y116851D02*
X618Y116886D01*
X615Y116825D02*
X616Y116851D01*
X615Y116799D02*
X615Y116825D01*
X614Y116772D02*
X615Y116799D01*
X613Y116746D02*
X614Y116772D01*
X612Y116720D02*
X613Y116746D01*
X611Y116693D02*
X612Y116720D01*
X610Y116667D02*
X611Y116693D01*
X610Y116640D02*
X610Y116667D01*
X609Y116614D02*
X610Y116640D01*
X607Y116534D02*
X608Y116560D01*
X607Y116507D02*
X607Y116534D01*
X606Y116480D02*
X607Y116507D01*
X606Y116453D02*
X606Y116480D01*
X605Y116426D02*
X606Y116453D01*
X605Y116399D02*
X605Y116426D01*
X605Y116372D02*
X605Y116399D01*
X604Y116345D02*
X605Y116372D01*
X604Y116318D02*
X604Y116345D01*
X604Y116291D02*
X604Y116318D01*
X604Y116264D02*
X604Y116291D01*
X604Y116236D02*
X604Y116264D01*
X603Y116209D02*
X604Y116236D01*
X603Y116182D02*
X603Y116209D01*
X603Y116154D02*
X603Y116182D01*
X603Y116127D02*
X603Y116154D01*
Y10554D02*
X603Y10526D01*
X1266Y120201D02*
X1293Y120263D01*
X1369Y120430D02*
X1407Y120507D01*
X1408Y120510D02*
X1451Y120594D01*
X2384Y121920D02*
X2429Y121968D01*
X2431Y121970D02*
X2472Y122013D01*
X2475Y122015D02*
X2517Y122059D01*
X3508Y5558D02*
X3752Y5815D01*
X3239Y4013D02*
X3355Y3921D01*
X3356Y3920D01*
X3397Y3889D01*
X3440Y3858D01*
X3526Y3796D02*
X3570Y3765D01*
X603Y10526D02*
X603Y10499D01*
X604Y10472D01*
X604Y10445D01*
X604Y10417D01*
X604Y10390D01*
X604Y10363D01*
X605Y10336D01*
X605Y10309D01*
X605Y10282D01*
X606Y10255D01*
X606Y10228D01*
X607Y10201D01*
X607Y10174D01*
X608Y10148D01*
X608Y10121D01*
X609Y10094D01*
X610Y10068D01*
X610Y10041D01*
X611Y10015D01*
X613Y9962D02*
X614Y9936D01*
X615Y9909D01*
X615Y9883D01*
X616Y9857D01*
X618Y9822D01*
X619Y9787D01*
X621Y9753D01*
X622Y9718D01*
X624Y9684D01*
X626Y9649D01*
X627Y9615D01*
X629Y9581D01*
X631Y9547D01*
X633Y9513D01*
X635Y9479D01*
X637Y9445D01*
X640Y9411D01*
X642Y9378D01*
X644Y9344D01*
X647Y9311D01*
X652Y9244D02*
X655Y9211D01*
X657Y9178D01*
X660Y9145D01*
X663Y9112D01*
X666Y9079D02*
X669Y9047D01*
X672Y9014D01*
X675Y8982D01*
X679Y8949D01*
X682Y8917D01*
X685Y8885D01*
X689Y8853D01*
X692Y8821D01*
X702Y8742D02*
X706Y8702D01*
X711Y8663D01*
X722Y8585D02*
X727Y8546D01*
X732Y8507D01*
X738Y8469D01*
X743Y8430D01*
X749Y8392D01*
X755Y8354D01*
X761Y8316D01*
X767Y8278D01*
X773Y8241D01*
X780Y8203D01*
X786Y8166D01*
X793Y8129D01*
X800Y8092D01*
X807Y8056D01*
X814Y8019D01*
X821Y7983D01*
X866Y7768D02*
X876Y7725D01*
X885Y7683D01*
X895Y7641D01*
X905Y7600D01*
X916Y7558D01*
X926Y7517D01*
X937Y7476D01*
X947Y7435D01*
X958Y7395D01*
X970Y7354D01*
X981Y7315D01*
X994Y7269D01*
X1008Y7221D01*
X1022Y7176D01*
X1036Y7130D01*
X1053Y7079D01*
X1069Y7027D01*
X1084Y6982D01*
X1100Y6938D01*
X1117Y6888D01*
X1135Y6838D01*
X1154Y6788D01*
X1175Y6733D01*
X1196Y6678D01*
X1220Y6617D01*
X1247Y6551D01*
X1275Y6485D01*
X1306Y6414D01*
X1344Y6333D01*
X1362Y6293D01*
X7670Y1898D02*
X7977Y2999D01*
X8078Y3339D01*
X2987Y4214D02*
X3239Y4013D01*
X3659Y3703D02*
X3705Y3672D01*
X3751Y3641D01*
X3797Y3610D01*
X3844Y3579D01*
X3891Y3549D01*
X3939Y3518D01*
X3979Y3493D01*
X4020Y3467D01*
X4061Y3442D01*
X4102Y3417D01*
X4143Y3391D01*
X4185Y3366D01*
X4228Y3341D01*
X4268Y3317D01*
X4313Y3291D01*
X4357Y3266D01*
X4400Y3241D01*
X4444Y3216D01*
X4489Y3192D01*
X4533Y3167D01*
X4579Y3142D01*
X4624Y3118D01*
X4641Y3108D01*
X4953Y2947D01*
X5000Y2924D01*
X5049Y2900D01*
X5098Y2876D01*
X5147Y2852D01*
X5297Y2782D02*
X5347Y2758D01*
X5398Y2735D01*
X5450Y2712D01*
X5502Y2688D01*
X5554Y2665D01*
X5606Y2642D01*
X5659Y2620D01*
X5765Y2574D02*
X5819Y2551D01*
X5873Y2529D01*
X5928Y2507D01*
X5982Y2484D01*
X6037Y2462D01*
X6093Y2440D01*
X6149Y2418D01*
X6205Y2396D01*
X6318Y2352D02*
X6375Y2331D01*
X6433Y2309D01*
X6490Y2288D01*
X6560Y2262D01*
X6560Y2262D02*
X6630Y2237D01*
X6689Y2216D01*
X6748Y2195D01*
X6808Y2174D01*
X6868Y2154D01*
X6928Y2133D01*
X6988Y2113D01*
X7049Y2092D01*
X7110Y2072D01*
X7172Y2052D01*
X7233Y2032D01*
X7295Y2012D01*
X7358Y1992D01*
X7420Y1973D01*
X7483Y1953D01*
X7547Y1934D01*
X7610Y1914D01*
X7674Y1895D01*
X10436Y1237D02*
X10482Y1228D01*
X9746Y1374D02*
X9762Y1371D01*
X10482Y1228D02*
X12086Y989D01*
X9762Y1371D02*
X9806Y1361D01*
X12272Y989D02*
X12384Y1101D01*
X9806Y1361D02*
X10359Y1252D01*
X9390Y1451D02*
X9475Y1432D01*
X10359Y1252D02*
X10436Y1237D01*
X9475Y1432D02*
X9746Y1374D01*
X12611Y2059D02*
X12664Y2410D01*
X14450Y3050D02*
Y3172D01*
X12921Y3603D02*
X13210Y3892D01*
X9925Y3725D02*
Y4082D01*
X8078Y3339D02*
X8168Y3682D01*
X9796Y3245D02*
X9925Y3725D01*
X9701Y2904D02*
X9796Y3245D01*
X14384Y2556D02*
X14450Y3050D01*
X14332Y2205D02*
X14384Y2556D01*
X12664Y2410D02*
X12715Y2761D01*
X5550Y5300D02*
X5629Y5379D01*
X5238Y4954D02*
X5550Y5300D01*
X5000Y4691D02*
X5238Y4954D01*
X3752Y5815D02*
X3988Y6079D01*
X2100Y8840D02*
X2804D01*
X2100Y15016D02*
X2804D01*
X2100Y21292D02*
X2804D01*
X2100Y27568D02*
X2804D01*
X2100Y33844D02*
X2804D01*
X2100Y40120D02*
X2804D01*
X2100Y46396D02*
X2804D01*
X2100Y52672D02*
X2804D01*
X2100Y58948D02*
X2804D01*
X2100Y65224D02*
X2804D01*
X2100Y71500D02*
X2804D01*
X2100Y77776D02*
X2804D01*
X2100Y84052D02*
X2804D01*
X2100Y90328D02*
X2804D01*
X2100Y96604D02*
X2804D01*
X2100Y102880D02*
X2804D01*
X2100Y109156D02*
X2804D01*
X2100Y115332D02*
X2804D01*
X12625Y124634D02*
X12675Y124250D01*
X12599Y124845D02*
X12625Y124634D01*
X12172Y125176D02*
X12173Y125176D01*
X7986Y123696D02*
X8079Y123354D01*
X7949Y123834D02*
X7986Y123696D01*
X9305Y1470D02*
X9390Y1451D01*
X9221Y1489D02*
X9305Y1470D01*
X9136Y1509D02*
X9221Y1489D01*
X9053Y1529D02*
X9136Y1509D01*
X8983Y1545D02*
X9053Y1529D01*
X8914Y1562D02*
X8983Y1545D01*
X8845Y1579D02*
X8914Y1562D01*
X8776Y1595D02*
X8845Y1579D01*
X8694Y1616D02*
X8776Y1595D01*
X8612Y1637D02*
X8694Y1616D01*
X8530Y1658D02*
X8612Y1637D01*
X8449Y1679D02*
X8530Y1658D01*
X8369Y1700D02*
X8449Y1679D01*
X8289Y1721D02*
X8369Y1700D01*
X8209Y1743D02*
X8289Y1721D01*
X8129Y1765D02*
X8209Y1743D01*
X8063Y1783D02*
X8129Y1765D01*
X7998Y1801D02*
X8063Y1783D01*
X7932Y1820D02*
X7998Y1801D01*
X7867Y1839D02*
X7932Y1820D01*
X7803Y1857D02*
X7867Y1839D01*
X7738Y1876D02*
X7803Y1857D01*
X7674Y1895D02*
X7738Y1876D01*
D41*
X1336Y118722D02*
D03*
X1328Y118682D02*
D03*
X1271Y118376D02*
D03*
X1390Y118962D02*
D03*
X10229Y125432D02*
D03*
X7320Y124704D02*
D03*
X6832Y124542D02*
D03*
X6772Y124521D02*
D03*
X8335Y4260D02*
D03*
X6261Y2374D02*
D03*
X4470Y123506D02*
D03*
X4427Y123482D02*
D03*
X4296Y123407D02*
D03*
X4296Y123407D02*
D03*
X4044Y123256D02*
D03*
X4044Y123256D02*
D03*
X4003Y123231D02*
D03*
X3875Y123149D02*
D03*
X2599Y122140D02*
D03*
X2331Y121861D02*
D03*
X2230Y121747D02*
D03*
X2171Y121678D02*
D03*
X2110Y121604D02*
D03*
X1238Y120135D02*
D03*
X1210Y120066D02*
D03*
X1186Y120005D02*
D03*
X1144Y119895D02*
D03*
X1076Y119700D02*
D03*
X985Y119407D02*
D03*
X973Y119367D02*
D03*
X909Y119122D02*
D03*
X879Y118997D02*
D03*
X785Y118535D02*
D03*
X766Y118422D02*
D03*
X737Y118232D02*
D03*
X725Y118151D02*
D03*
X720Y118116D02*
D03*
X674Y117718D02*
D03*
X671Y117686D02*
D03*
X3483Y3827D02*
D03*
X666Y9079D02*
D03*
X649Y9277D02*
D03*
X603Y10591D02*
D03*
X612Y9988D02*
D03*
X847Y7853D02*
D03*
X716Y8624D02*
D03*
X697Y8781D02*
D03*
X829Y7939D02*
D03*
X1406Y7681D02*
D03*
X1360Y7878D02*
D03*
X1534Y7234D02*
D03*
X1578Y7104D02*
D03*
X1325Y8039D02*
D03*
X1297Y8184D02*
D03*
X1233Y8578D02*
D03*
X1179Y9032D02*
D03*
X1334Y7999D02*
D03*
X1594Y7057D02*
D03*
X10317Y125449D02*
D03*
X10674Y125515D02*
D03*
X12334Y125774D02*
D03*
X12618Y125811D02*
D03*
X12713Y125823D02*
D03*
X9122Y125196D02*
D03*
X9461Y125273D02*
D03*
X9604Y125304D02*
D03*
X7572Y124782D02*
D03*
X6239Y124325D02*
D03*
X715Y118077D02*
D03*
X608Y116587D02*
D03*
X5712Y2597D02*
D03*
X12115Y989D02*
D03*
X12384Y1101D02*
D03*
D42*
X26875Y97355D02*
D03*
X29375D02*
D03*
X28125D02*
D03*
X25625D02*
D03*
X24375D02*
D03*
X23125D02*
D03*
X21875D02*
D03*
X20625D02*
D03*
D43*
X31925Y100105D02*
D03*
X18075D02*
D03*
D44*
X13210Y3892D02*
D03*
X14202Y3770D02*
D03*
D45*
X8800Y4725D02*
D03*
X9766Y4466D02*
D03*
D46*
X5125Y6625D02*
D03*
X5868Y5956D02*
D03*
D47*
X3625Y10180D02*
D03*
Y9180D02*
D03*
Y16356D02*
D03*
Y15356D02*
D03*
Y22632D02*
D03*
Y21632D02*
D03*
Y28908D02*
D03*
Y27908D02*
D03*
Y35184D02*
D03*
Y34184D02*
D03*
Y41460D02*
D03*
Y40460D02*
D03*
Y47736D02*
D03*
Y46736D02*
D03*
Y54012D02*
D03*
Y53012D02*
D03*
Y60288D02*
D03*
Y59288D02*
D03*
Y66564D02*
D03*
Y65564D02*
D03*
Y72840D02*
D03*
Y71840D02*
D03*
Y79116D02*
D03*
Y78116D02*
D03*
Y85392D02*
D03*
Y84392D02*
D03*
Y91668D02*
D03*
Y90668D02*
D03*
Y97944D02*
D03*
Y96944D02*
D03*
Y104220D02*
D03*
Y103220D02*
D03*
Y110496D02*
D03*
Y109496D02*
D03*
Y116672D02*
D03*
Y115672D02*
D03*
D48*
X5175Y120100D02*
D03*
X4432Y119431D02*
D03*
D49*
X8991Y122009D02*
D03*
X8025Y121750D02*
D03*
D50*
X13345Y122827D02*
D03*
X12352Y122705D02*
D03*
D51*
X14332Y2205D02*
D03*
X13498Y2308D02*
D03*
X12664Y2410D02*
D03*
D52*
X11830Y2513D02*
D03*
D53*
X9701Y2904D02*
D03*
X8890Y3121D02*
D03*
X8078Y3339D02*
D03*
D54*
X7267Y3556D02*
D03*
D55*
X5000Y4691D02*
D03*
X4376Y5253D02*
D03*
X3752Y5815D02*
D03*
D56*
X3128Y6377D02*
D03*
D57*
X2100Y8840D02*
D03*
X2100Y9680D02*
D03*
X2100Y10520D02*
D03*
X2100Y15016D02*
D03*
X2100Y15856D02*
D03*
X2100Y16696D02*
D03*
X2100Y21292D02*
D03*
X2100Y22132D02*
D03*
X2100Y22972D02*
D03*
X2100Y27568D02*
D03*
X2100Y28408D02*
D03*
X2100Y29248D02*
D03*
X2100Y33844D02*
D03*
X2100Y34684D02*
D03*
X2100Y35524D02*
D03*
X2100Y40120D02*
D03*
X2100Y40960D02*
D03*
X2100Y41800D02*
D03*
X2100Y46396D02*
D03*
X2100Y47236D02*
D03*
X2100Y48076D02*
D03*
X2100Y52672D02*
D03*
X2100Y53512D02*
D03*
X2100Y54352D02*
D03*
X2100Y58948D02*
D03*
X2100Y59788D02*
D03*
X2100Y60628D02*
D03*
X2100Y65224D02*
D03*
X2100Y66064D02*
D03*
X2100Y66904D02*
D03*
X2100Y71500D02*
D03*
X2100Y72340D02*
D03*
X2100Y73180D02*
D03*
X2100Y77776D02*
D03*
X2100Y78616D02*
D03*
X2100Y79456D02*
D03*
X2100Y84052D02*
D03*
X2100Y84892D02*
D03*
X2100Y85732D02*
D03*
X2100Y90328D02*
D03*
X2100Y91168D02*
D03*
X2100Y92008D02*
D03*
X2100Y96604D02*
D03*
X2100Y97444D02*
D03*
X2100Y98284D02*
D03*
X2100Y102880D02*
D03*
X2100Y103720D02*
D03*
X2100Y104560D02*
D03*
X2100Y109156D02*
D03*
X2100Y109996D02*
D03*
X2100Y110836D02*
D03*
X2100Y115332D02*
D03*
X2100Y116172D02*
D03*
X2100Y117012D02*
D03*
D58*
X2100Y11360D02*
D03*
Y17536D02*
D03*
Y23812D02*
D03*
Y30088D02*
D03*
Y36364D02*
D03*
Y42640D02*
D03*
Y48916D02*
D03*
Y55192D02*
D03*
Y61468D02*
D03*
Y67744D02*
D03*
Y74020D02*
D03*
Y80296D02*
D03*
Y86572D02*
D03*
Y92848D02*
D03*
Y99124D02*
D03*
Y105400D02*
D03*
Y111676D02*
D03*
Y117852D02*
D03*
D59*
X3128Y120315D02*
D03*
X3752Y120877D02*
D03*
X4376Y121439D02*
D03*
D60*
X5000Y122001D02*
D03*
D61*
X7267Y123136D02*
D03*
X8079Y123354D02*
D03*
X8890Y123571D02*
D03*
D62*
X9701Y123788D02*
D03*
D63*
X11830Y124179D02*
D03*
X12664Y124282D02*
D03*
X13498Y124384D02*
D03*
D64*
X14332Y124487D02*
D03*
D65*
X20228Y24765D02*
D03*
Y27305D02*
D03*
X7030Y82000D02*
D03*
X9570D02*
D03*
X4490D02*
D03*
D66*
X20228Y29845D02*
D03*
D67*
X12110Y82000D02*
D03*
D68*
X8706Y113354D02*
D03*
Y13354D02*
D03*
D69*
X18550Y102850D02*
D03*
X15150Y99850D02*
D03*
X33875Y99925D02*
D03*
X31925Y103900D02*
D03*
X29200Y103800D02*
D03*
M02*
