G04*
G04 #@! TF.GenerationSoftware,Altium Limited,Altium Designer,24.2.2 (26)*
G04*
G04 Layer_Color=32896*
%FSLAX43Y43*%
%MOMM*%
G71*
G04*
G04 #@! TF.SameCoordinates,CE86931C-6916-4A25-866B-2747C1F1E0B7*
G04*
G04*
G04 #@! TF.FilePolarity,Positive*
G04*
G01*
G75*
G36*
X12147Y80883D02*
X12174Y80882D01*
X12200Y80880D01*
X12226Y80876D01*
X12249Y80873D01*
X12271Y80868D01*
X12291Y80863D01*
X12310Y80859D01*
X12327Y80854D01*
X12342Y80849D01*
X12355Y80845D01*
X12366Y80841D01*
X12375Y80838D01*
X12381Y80836D01*
X12385Y80834D01*
X12386Y80833D01*
X12406Y80823D01*
X12426Y80812D01*
X12444Y80801D01*
X12460Y80790D01*
X12476Y80777D01*
X12490Y80766D01*
X12502Y80755D01*
X12514Y80744D01*
X12524Y80733D01*
X12532Y80724D01*
X12539Y80715D01*
X12546Y80708D01*
X12550Y80701D01*
X12553Y80697D01*
X12555Y80694D01*
X12556Y80693D01*
X12566Y80676D01*
X12574Y80659D01*
X12583Y80641D01*
X12589Y80623D01*
X12599Y80589D01*
X12605Y80558D01*
X12608Y80543D01*
X12609Y80530D01*
X12610Y80519D01*
X12611Y80508D01*
X12612Y80501D01*
Y80489D01*
X12610Y80453D01*
X12606Y80419D01*
X12599Y80388D01*
X12594Y80373D01*
X12590Y80359D01*
X12587Y80346D01*
X12583Y80335D01*
X12579Y80324D01*
X12575Y80316D01*
X12573Y80309D01*
X12571Y80304D01*
X12569Y80301D01*
Y80300D01*
X12552Y80266D01*
X12544Y80251D01*
X12534Y80236D01*
X12526Y80224D01*
X12517Y80211D01*
X12509Y80200D01*
X12501Y80191D01*
X12494Y80181D01*
X12487Y80174D01*
X12480Y80168D01*
X12476Y80162D01*
X12471Y80158D01*
X12468Y80155D01*
X12467Y80154D01*
X12466Y80153D01*
X12085D01*
Y80493D01*
X12247D01*
Y80312D01*
X12367D01*
X12381Y80327D01*
X12393Y80343D01*
X12403Y80358D01*
X12411Y80372D01*
X12418Y80384D01*
X12422Y80394D01*
X12425Y80400D01*
X12426Y80401D01*
Y80402D01*
X12434Y80420D01*
X12439Y80438D01*
X12442Y80454D01*
X12444Y80469D01*
X12446Y80480D01*
X12448Y80490D01*
Y80497D01*
X12446Y80515D01*
X12444Y80532D01*
X12440Y80549D01*
X12436Y80564D01*
X12430Y80578D01*
X12423Y80590D01*
X12416Y80603D01*
X12408Y80614D01*
X12402Y80623D01*
X12395Y80632D01*
X12388Y80638D01*
X12382Y80644D01*
X12378Y80649D01*
X12374Y80652D01*
X12371Y80654D01*
X12370Y80655D01*
X12352Y80666D01*
X12333Y80677D01*
X12313Y80685D01*
X12292Y80693D01*
X12270Y80699D01*
X12249Y80706D01*
X12207Y80713D01*
X12187Y80716D01*
X12169Y80718D01*
X12152Y80719D01*
X12138Y80720D01*
X12126Y80721D01*
X12117D01*
X12112D01*
X12109D01*
X12080Y80720D01*
X12053Y80718D01*
X12028Y80716D01*
X12005Y80712D01*
X11983Y80707D01*
X11964Y80701D01*
X11946Y80696D01*
X11930Y80690D01*
X11916Y80684D01*
X11903Y80679D01*
X11894Y80674D01*
X11885Y80669D01*
X11879Y80664D01*
X11874Y80662D01*
X11872Y80660D01*
X11871Y80659D01*
X11857Y80647D01*
X11845Y80634D01*
X11835Y80621D01*
X11825Y80607D01*
X11818Y80594D01*
X11811Y80580D01*
X11806Y80567D01*
X11802Y80554D01*
X11799Y80543D01*
X11797Y80531D01*
X11795Y80522D01*
X11793Y80513D01*
X11792Y80506D01*
Y80496D01*
X11795Y80473D01*
X11799Y80452D01*
X11805Y80433D01*
X11811Y80417D01*
X11819Y80403D01*
X11825Y80394D01*
X11829Y80388D01*
X11832Y80385D01*
X11847Y80368D01*
X11865Y80355D01*
X11884Y80344D01*
X11902Y80335D01*
X11918Y80328D01*
X11926Y80325D01*
X11932Y80323D01*
X11936Y80322D01*
X11940Y80321D01*
X11942Y80320D01*
X11944D01*
X11908Y80164D01*
X11882Y80169D01*
X11859Y80175D01*
X11838Y80183D01*
X11817Y80191D01*
X11799Y80199D01*
X11782Y80209D01*
X11766Y80217D01*
X11752Y80227D01*
X11740Y80236D01*
X11729Y80244D01*
X11720Y80252D01*
X11712Y80259D01*
X11707Y80264D01*
X11703Y80268D01*
X11701Y80271D01*
X11699Y80272D01*
X11687Y80289D01*
X11676Y80306D01*
X11666Y80324D01*
X11658Y80343D01*
X11651Y80362D01*
X11646Y80380D01*
X11636Y80416D01*
X11634Y80433D01*
X11632Y80448D01*
X11630Y80461D01*
X11629Y80473D01*
X11628Y80483D01*
Y80496D01*
X11629Y80517D01*
X11630Y80539D01*
X11633Y80558D01*
X11636Y80577D01*
X11640Y80595D01*
X11646Y80610D01*
X11651Y80626D01*
X11655Y80640D01*
X11660Y80653D01*
X11666Y80663D01*
X11671Y80673D01*
X11675Y80681D01*
X11678Y80688D01*
X11681Y80692D01*
X11683Y80695D01*
X11684Y80696D01*
X11694Y80711D01*
X11707Y80726D01*
X11733Y80752D01*
X11761Y80776D01*
X11787Y80795D01*
X11800Y80804D01*
X11813Y80811D01*
X11823Y80818D01*
X11833Y80823D01*
X11840Y80827D01*
X11845Y80830D01*
X11849Y80831D01*
X11851Y80832D01*
X11872Y80842D01*
X11894Y80849D01*
X11916Y80857D01*
X11939Y80862D01*
X11984Y80871D01*
X12006Y80875D01*
X12026Y80878D01*
X12046Y80880D01*
X12063Y80881D01*
X12079Y80882D01*
X12093Y80883D01*
X12104Y80884D01*
X12112D01*
X12117D01*
X12119D01*
X12147Y80883D01*
D02*
G37*
G36*
X12597Y79858D02*
X11975D01*
X12597Y79544D01*
Y79385D01*
X11643D01*
Y79532D01*
X12281D01*
X11643Y79852D01*
Y80005D01*
X12597D01*
Y79858D01*
D02*
G37*
G36*
Y78925D02*
X12595Y78891D01*
X12592Y78861D01*
X12588Y78834D01*
X12586Y78823D01*
X12583Y78812D01*
X12581Y78803D01*
X12579Y78794D01*
X12576Y78787D01*
X12574Y78780D01*
X12572Y78776D01*
X12571Y78773D01*
X12570Y78771D01*
Y78770D01*
X12559Y78748D01*
X12546Y78728D01*
X12532Y78710D01*
X12519Y78695D01*
X12508Y78682D01*
X12498Y78673D01*
X12492Y78667D01*
X12491Y78665D01*
X12490D01*
X12469Y78649D01*
X12445Y78636D01*
X12421Y78624D01*
X12398Y78613D01*
X12378Y78605D01*
X12368Y78602D01*
X12361Y78600D01*
X12355Y78598D01*
X12350Y78595D01*
X12347Y78594D01*
X12346D01*
X12310Y78585D01*
X12273Y78577D01*
X12237Y78573D01*
X12220Y78571D01*
X12203Y78569D01*
X12189Y78568D01*
X12175Y78567D01*
X12162D01*
X12152Y78566D01*
X12142D01*
X12136D01*
X12132D01*
X12131D01*
X12105D01*
X12081Y78567D01*
X12059Y78568D01*
X12037Y78570D01*
X12016Y78572D01*
X11997Y78574D01*
X11981Y78577D01*
X11965Y78580D01*
X11950Y78582D01*
X11937Y78585D01*
X11927Y78587D01*
X11918Y78589D01*
X11911Y78591D01*
X11906Y78592D01*
X11902Y78593D01*
X11901D01*
X11869Y78604D01*
X11839Y78616D01*
X11813Y78628D01*
X11802Y78635D01*
X11791Y78640D01*
X11782Y78646D01*
X11774Y78650D01*
X11767Y78656D01*
X11762Y78660D01*
X11758Y78663D01*
X11753Y78665D01*
X11752Y78666D01*
X11751Y78667D01*
X11731Y78685D01*
X11714Y78703D01*
X11699Y78720D01*
X11688Y78736D01*
X11679Y78750D01*
X11673Y78760D01*
X11671Y78765D01*
X11670Y78768D01*
X11669Y78769D01*
Y78770D01*
X11665Y78780D01*
X11660Y78793D01*
X11654Y78818D01*
X11650Y78846D01*
X11647Y78872D01*
X11646Y78885D01*
X11645Y78897D01*
Y78906D01*
X11643Y78916D01*
Y79221D01*
X12597D01*
Y78925D01*
D02*
G37*
G36*
X10057Y80123D02*
X10055Y80090D01*
X10052Y80059D01*
X10048Y80032D01*
X10046Y80021D01*
X10043Y80010D01*
X10041Y80001D01*
X10039Y79992D01*
X10036Y79985D01*
X10034Y79979D01*
X10032Y79974D01*
X10031Y79971D01*
X10030Y79969D01*
Y79968D01*
X10019Y79946D01*
X10006Y79926D01*
X9992Y79908D01*
X9979Y79893D01*
X9968Y79880D01*
X9958Y79871D01*
X9952Y79866D01*
X9951Y79863D01*
X9950D01*
X9929Y79848D01*
X9905Y79834D01*
X9881Y79822D01*
X9858Y79812D01*
X9838Y79803D01*
X9828Y79800D01*
X9821Y79798D01*
X9815Y79796D01*
X9810Y79794D01*
X9807Y79793D01*
X9806D01*
X9770Y79783D01*
X9733Y79776D01*
X9697Y79771D01*
X9680Y79769D01*
X9663Y79767D01*
X9649Y79766D01*
X9635Y79765D01*
X9622D01*
X9612Y79764D01*
X9602D01*
X9596D01*
X9592D01*
X9591D01*
X9565D01*
X9541Y79765D01*
X9519Y79766D01*
X9497Y79768D01*
X9476Y79770D01*
X9457Y79773D01*
X9441Y79776D01*
X9425Y79778D01*
X9410Y79780D01*
X9397Y79783D01*
X9387Y79785D01*
X9378Y79787D01*
X9371Y79789D01*
X9366Y79791D01*
X9362Y79792D01*
X9361D01*
X9329Y79802D01*
X9299Y79814D01*
X9273Y79826D01*
X9262Y79833D01*
X9251Y79838D01*
X9242Y79844D01*
X9234Y79849D01*
X9227Y79854D01*
X9222Y79858D01*
X9218Y79861D01*
X9213Y79863D01*
X9212Y79864D01*
X9211Y79866D01*
X9191Y79883D01*
X9174Y79901D01*
X9159Y79918D01*
X9148Y79934D01*
X9139Y79948D01*
X9133Y79959D01*
X9131Y79963D01*
X9130Y79966D01*
X9129Y79967D01*
Y79968D01*
X9125Y79979D01*
X9120Y79991D01*
X9114Y80017D01*
X9110Y80044D01*
X9107Y80071D01*
X9106Y80083D01*
X9105Y80095D01*
Y80104D01*
X9103Y80114D01*
Y80419D01*
X10057D01*
Y80123D01*
D02*
G37*
G36*
Y79472D02*
X9697D01*
Y79344D01*
X9696Y79320D01*
X9695Y79298D01*
X9693Y79278D01*
X9691Y79259D01*
X9689Y79243D01*
X9686Y79228D01*
X9684Y79215D01*
X9681Y79204D01*
X9678Y79195D01*
X9676Y79186D01*
X9674Y79180D01*
X9672Y79174D01*
X9671Y79171D01*
X9670Y79169D01*
Y79168D01*
X9657Y79147D01*
X9642Y79128D01*
X9626Y79111D01*
X9610Y79096D01*
X9595Y79086D01*
X9583Y79077D01*
X9578Y79074D01*
X9575Y79072D01*
X9573Y79070D01*
X9572D01*
X9544Y79057D01*
X9514Y79048D01*
X9486Y79040D01*
X9458Y79036D01*
X9446Y79034D01*
X9434Y79033D01*
X9425Y79032D01*
X9415D01*
X9408Y79031D01*
X9402D01*
X9399D01*
X9398D01*
X9377D01*
X9357Y79033D01*
X9339Y79035D01*
X9321Y79038D01*
X9304Y79041D01*
X9289Y79046D01*
X9276Y79049D01*
X9262Y79053D01*
X9251Y79057D01*
X9241Y79061D01*
X9232Y79066D01*
X9225Y79069D01*
X9220Y79072D01*
X9215Y79074D01*
X9213Y79075D01*
X9212Y79076D01*
X9200Y79085D01*
X9187Y79094D01*
X9176Y79104D01*
X9167Y79113D01*
X9150Y79132D01*
X9137Y79151D01*
X9128Y79167D01*
X9125Y79173D01*
X9121Y79180D01*
X9119Y79185D01*
X9118Y79188D01*
X9117Y79190D01*
Y79191D01*
X9115Y79201D01*
X9113Y79211D01*
X9111Y79224D01*
X9109Y79239D01*
X9107Y79269D01*
X9106Y79300D01*
X9105Y79315D01*
Y79329D01*
X9103Y79342D01*
Y79630D01*
X10057D01*
Y79472D01*
D02*
G37*
G36*
X7517Y80136D02*
X7515Y80102D01*
X7512Y80071D01*
X7508Y80045D01*
X7506Y80033D01*
X7503Y80022D01*
X7501Y80013D01*
X7499Y80004D01*
X7496Y79997D01*
X7494Y79991D01*
X7492Y79987D01*
X7491Y79983D01*
X7490Y79981D01*
Y79980D01*
X7478Y79958D01*
X7466Y79938D01*
X7452Y79920D01*
X7439Y79905D01*
X7428Y79892D01*
X7418Y79883D01*
X7412Y79878D01*
X7411Y79876D01*
X7410D01*
X7389Y79860D01*
X7365Y79846D01*
X7341Y79834D01*
X7318Y79824D01*
X7298Y79815D01*
X7288Y79812D01*
X7281Y79810D01*
X7275Y79808D01*
X7270Y79806D01*
X7267Y79805D01*
X7266D01*
X7230Y79795D01*
X7193Y79788D01*
X7157Y79784D01*
X7140Y79782D01*
X7123Y79779D01*
X7109Y79778D01*
X7095Y79777D01*
X7082D01*
X7072Y79776D01*
X7062D01*
X7056D01*
X7052D01*
X7051D01*
X7025D01*
X7001Y79777D01*
X6979Y79778D01*
X6957Y79780D01*
X6936Y79783D01*
X6917Y79785D01*
X6901Y79788D01*
X6885Y79790D01*
X6870Y79792D01*
X6857Y79795D01*
X6847Y79797D01*
X6838Y79799D01*
X6831Y79802D01*
X6826Y79803D01*
X6822Y79804D01*
X6821D01*
X6789Y79814D01*
X6759Y79826D01*
X6733Y79839D01*
X6722Y79845D01*
X6711Y79850D01*
X6702Y79857D01*
X6694Y79861D01*
X6687Y79866D01*
X6682Y79870D01*
X6678Y79873D01*
X6673Y79876D01*
X6672Y79877D01*
X6671Y79878D01*
X6651Y79896D01*
X6634Y79914D01*
X6619Y79931D01*
X6608Y79946D01*
X6599Y79960D01*
X6593Y79971D01*
X6591Y79975D01*
X6590Y79978D01*
X6589Y79979D01*
Y79980D01*
X6585Y79991D01*
X6580Y80003D01*
X6574Y80029D01*
X6570Y80056D01*
X6567Y80083D01*
X6566Y80095D01*
X6565Y80107D01*
Y80116D01*
X6563Y80126D01*
Y80431D01*
X7517D01*
Y80136D01*
D02*
G37*
G36*
Y79492D02*
X6895D01*
X7517Y79178D01*
Y79019D01*
X6563D01*
Y79166D01*
X7201D01*
X6563Y79486D01*
Y79639D01*
X7517D01*
Y79492D01*
D02*
G37*
G36*
X4584Y80488D02*
X4831D01*
Y80352D01*
X4584D01*
Y80147D01*
X4413D01*
Y80352D01*
X4166D01*
Y80488D01*
X4413D01*
Y80693D01*
X4584D01*
Y80488D01*
D02*
G37*
G36*
X4746Y80047D02*
X4767Y80043D01*
X4788Y80038D01*
X4806Y80031D01*
X4824Y80025D01*
X4840Y80018D01*
X4854Y80010D01*
X4867Y80004D01*
X4879Y79997D01*
X4888Y79990D01*
X4897Y79984D01*
X4904Y79978D01*
X4909Y79973D01*
X4914Y79970D01*
X4916Y79968D01*
X4917Y79967D01*
X4928Y79953D01*
X4939Y79939D01*
X4949Y79925D01*
X4956Y79910D01*
X4962Y79895D01*
X4968Y79880D01*
X4976Y79853D01*
X4979Y79840D01*
X4981Y79830D01*
X4982Y79819D01*
X4983Y79810D01*
X4984Y79802D01*
Y79793D01*
X4983Y79769D01*
X4980Y79747D01*
X4975Y79726D01*
X4968Y79707D01*
X4960Y79689D01*
X4952Y79673D01*
X4942Y79658D01*
X4932Y79645D01*
X4922Y79633D01*
X4913Y79623D01*
X4904Y79614D01*
X4896Y79607D01*
X4889Y79601D01*
X4884Y79597D01*
X4881Y79595D01*
X4880Y79594D01*
X4860Y79581D01*
X4840Y79571D01*
X4820Y79561D01*
X4800Y79554D01*
X4779Y79546D01*
X4760Y79541D01*
X4741Y79537D01*
X4725Y79533D01*
X4709Y79530D01*
X4694Y79527D01*
X4681Y79526D01*
X4670Y79525D01*
X4661Y79524D01*
X4654D01*
X4650D01*
X4648D01*
X4621Y79525D01*
X4595Y79527D01*
X4569Y79532D01*
X4546Y79537D01*
X4524Y79543D01*
X4504Y79551D01*
X4486Y79558D01*
X4469Y79565D01*
X4454Y79573D01*
X4440Y79580D01*
X4430Y79588D01*
X4420Y79594D01*
X4413Y79599D01*
X4408Y79603D01*
X4404Y79606D01*
X4403Y79607D01*
X4391Y79619D01*
X4379Y79632D01*
X4370Y79645D01*
X4361Y79658D01*
X4354Y79671D01*
X4348Y79685D01*
X4343Y79696D01*
X4340Y79709D01*
X4337Y79720D01*
X4335Y79730D01*
X4333Y79740D01*
X4331Y79747D01*
X4330Y79755D01*
Y79763D01*
X4331Y79783D01*
X4336Y79801D01*
X4340Y79819D01*
X4346Y79835D01*
X4352Y79848D01*
X4357Y79858D01*
X4361Y79864D01*
X4362Y79866D01*
Y79867D01*
X4199Y79841D01*
Y79559D01*
X4028D01*
Y79955D01*
X4526Y80032D01*
X4547Y79911D01*
X4534Y79901D01*
X4524Y79891D01*
X4514Y79881D01*
X4507Y79871D01*
X4499Y79861D01*
X4494Y79852D01*
X4486Y79834D01*
X4480Y79818D01*
X4479Y79812D01*
X4478Y79805D01*
X4477Y79801D01*
Y79795D01*
X4479Y79777D01*
X4484Y79760D01*
X4491Y79746D01*
X4498Y79733D01*
X4507Y79724D01*
X4514Y79718D01*
X4518Y79712D01*
X4521Y79711D01*
X4529Y79705D01*
X4539Y79700D01*
X4559Y79691D01*
X4581Y79686D01*
X4602Y79682D01*
X4622Y79680D01*
X4630Y79679D01*
X4638Y79677D01*
X4644D01*
X4648D01*
X4652D01*
X4653D01*
X4670D01*
X4685Y79679D01*
X4700Y79681D01*
X4714Y79683D01*
X4727Y79685D01*
X4738Y79688D01*
X4749Y79691D01*
X4757Y79694D01*
X4766Y79698D01*
X4773Y79701D01*
X4778Y79704D01*
X4784Y79706D01*
X4787Y79708D01*
X4790Y79710D01*
X4791Y79711D01*
X4792D01*
X4801Y79718D01*
X4807Y79724D01*
X4819Y79738D01*
X4826Y79750D01*
X4832Y79763D01*
X4835Y79774D01*
X4837Y79783D01*
X4838Y79788D01*
Y79791D01*
X4837Y79805D01*
X4832Y79818D01*
X4827Y79831D01*
X4820Y79841D01*
X4813Y79850D01*
X4808Y79857D01*
X4804Y79861D01*
X4803Y79862D01*
X4788Y79873D01*
X4772Y79882D01*
X4755Y79889D01*
X4739Y79894D01*
X4726Y79897D01*
X4714Y79899D01*
X4710D01*
X4707Y79900D01*
X4704D01*
X4703D01*
X4722Y80050D01*
X4746Y80047D01*
D02*
G37*
G36*
X4969Y79116D02*
X4968Y79088D01*
Y79062D01*
X4967Y79039D01*
X4965Y79019D01*
X4964Y79001D01*
X4963Y78985D01*
X4962Y78972D01*
X4961Y78960D01*
X4960Y78950D01*
Y78942D01*
X4959Y78937D01*
X4958Y78931D01*
X4957Y78928D01*
Y78926D01*
X4953Y78914D01*
X4949Y78901D01*
X4936Y78879D01*
X4922Y78859D01*
X4906Y78842D01*
X4893Y78827D01*
X4881Y78816D01*
X4876Y78813D01*
X4872Y78810D01*
X4870Y78809D01*
X4869Y78808D01*
X4856Y78799D01*
X4841Y78791D01*
X4811Y78778D01*
X4782Y78770D01*
X4754Y78763D01*
X4741Y78761D01*
X4730Y78759D01*
X4719Y78758D01*
X4710D01*
X4703Y78757D01*
X4697D01*
X4694D01*
X4693D01*
X4662Y78759D01*
X4634Y78763D01*
X4609Y78770D01*
X4588Y78777D01*
X4580Y78781D01*
X4571Y78785D01*
X4564Y78788D01*
X4559Y78791D01*
X4554Y78793D01*
X4551Y78795D01*
X4549Y78797D01*
X4548D01*
X4527Y78813D01*
X4509Y78831D01*
X4494Y78849D01*
X4483Y78866D01*
X4474Y78881D01*
X4468Y78893D01*
X4466Y78899D01*
X4464Y78902D01*
X4462Y78904D01*
Y78905D01*
X4451Y78888D01*
X4438Y78872D01*
X4426Y78859D01*
X4412Y78847D01*
X4400Y78838D01*
X4390Y78831D01*
X4383Y78827D01*
X4382Y78826D01*
X4381D01*
X4360Y78815D01*
X4338Y78808D01*
X4317Y78803D01*
X4298Y78799D01*
X4281Y78796D01*
X4274D01*
X4268Y78795D01*
X4263D01*
X4260D01*
X4258D01*
X4256D01*
X4229Y78796D01*
X4204Y78800D01*
X4181Y78807D01*
X4161Y78813D01*
X4144Y78819D01*
X4138Y78823D01*
X4133Y78826D01*
X4129Y78828D01*
X4125Y78830D01*
X4123Y78831D01*
X4122D01*
X4102Y78845D01*
X4084Y78860D01*
X4070Y78874D01*
X4059Y78889D01*
X4050Y78901D01*
X4044Y78911D01*
X4041Y78918D01*
X4040Y78919D01*
Y78920D01*
X4036Y78930D01*
X4031Y78942D01*
X4028Y78956D01*
X4026Y78970D01*
X4022Y78999D01*
X4019Y79029D01*
X4018Y79043D01*
X4017Y79056D01*
Y79068D01*
X4016Y79078D01*
Y79412D01*
X4969D01*
Y79116D01*
D02*
G37*
%LPC*%
G36*
X12435Y79064D02*
X11805D01*
Y78960D01*
X11806Y78945D01*
Y78933D01*
X11807Y78921D01*
Y78910D01*
X11808Y78901D01*
X11809Y78893D01*
X11810Y78886D01*
Y78881D01*
X11813Y78871D01*
X11814Y78866D01*
Y78865D01*
X11819Y78849D01*
X11825Y78834D01*
X11834Y78822D01*
X11841Y78811D01*
X11848Y78801D01*
X11855Y78795D01*
X11859Y78791D01*
X11860Y78790D01*
X11874Y78778D01*
X11890Y78769D01*
X11906Y78761D01*
X11921Y78755D01*
X11935Y78750D01*
X11946Y78747D01*
X11950Y78744D01*
X11953D01*
X11955Y78743D01*
X11956D01*
X11981Y78738D01*
X12008Y78735D01*
X12035Y78732D01*
X12063Y78731D01*
X12075Y78730D01*
X12086D01*
X12097Y78729D01*
X12105D01*
X12113D01*
X12119D01*
X12122D01*
X12123D01*
X12159Y78730D01*
X12192Y78731D01*
X12206Y78732D01*
X12219Y78733D01*
X12232Y78735D01*
X12243Y78736D01*
X12253Y78737D01*
X12262Y78739D01*
X12269Y78740D01*
X12275Y78741D01*
X12281Y78742D01*
X12284D01*
X12286Y78743D01*
X12287D01*
X12309Y78749D01*
X12327Y78755D01*
X12343Y78761D01*
X12356Y78768D01*
X12365Y78773D01*
X12373Y78776D01*
X12377Y78779D01*
X12378Y78780D01*
X12387Y78789D01*
X12397Y78798D01*
X12404Y78807D01*
X12411Y78815D01*
X12415Y78824D01*
X12418Y78830D01*
X12420Y78834D01*
X12421Y78835D01*
X12425Y78850D01*
X12429Y78867D01*
X12432Y78885D01*
X12433Y78903D01*
X12434Y78919D01*
X12435Y78926D01*
Y79064D01*
D02*
G37*
G36*
X9895Y80262D02*
X9265D01*
Y80158D01*
X9266Y80143D01*
Y80131D01*
X9267Y80119D01*
Y80109D01*
X9268Y80099D01*
X9269Y80092D01*
X9270Y80084D01*
Y80079D01*
X9273Y80069D01*
X9274Y80064D01*
Y80063D01*
X9279Y80047D01*
X9285Y80032D01*
X9294Y80020D01*
X9301Y80009D01*
X9308Y80000D01*
X9315Y79993D01*
X9319Y79989D01*
X9320Y79988D01*
X9334Y79976D01*
X9350Y79967D01*
X9366Y79960D01*
X9381Y79953D01*
X9395Y79948D01*
X9406Y79945D01*
X9410Y79943D01*
X9413D01*
X9415Y79942D01*
X9416D01*
X9441Y79936D01*
X9468Y79933D01*
X9495Y79930D01*
X9523Y79929D01*
X9535Y79928D01*
X9546D01*
X9557Y79927D01*
X9565D01*
X9573D01*
X9579D01*
X9582D01*
X9583D01*
X9619Y79928D01*
X9652Y79929D01*
X9666Y79930D01*
X9679Y79931D01*
X9692Y79933D01*
X9703Y79934D01*
X9713Y79935D01*
X9722Y79937D01*
X9729Y79938D01*
X9735Y79939D01*
X9741Y79941D01*
X9744D01*
X9746Y79942D01*
X9747D01*
X9769Y79947D01*
X9787Y79953D01*
X9803Y79960D01*
X9816Y79966D01*
X9825Y79971D01*
X9833Y79974D01*
X9837Y79978D01*
X9838Y79979D01*
X9847Y79987D01*
X9857Y79997D01*
X9864Y80005D01*
X9871Y80013D01*
X9875Y80022D01*
X9878Y80028D01*
X9880Y80032D01*
X9881Y80034D01*
X9885Y80048D01*
X9889Y80065D01*
X9892Y80083D01*
X9893Y80101D01*
X9894Y80117D01*
X9895Y80124D01*
Y80262D01*
D02*
G37*
G36*
X9536Y79472D02*
X9265D01*
Y79363D01*
X9266Y79348D01*
X9267Y79334D01*
X9268Y79322D01*
Y79312D01*
X9269Y79302D01*
X9270Y79294D01*
X9271Y79288D01*
X9273Y79281D01*
X9275Y79273D01*
X9276Y79267D01*
X9277Y79266D01*
X9282Y79256D01*
X9288Y79245D01*
X9295Y79237D01*
X9302Y79229D01*
X9309Y79223D01*
X9315Y79219D01*
X9319Y79216D01*
X9320Y79215D01*
X9333Y79207D01*
X9346Y79202D01*
X9360Y79199D01*
X9373Y79196D01*
X9383Y79195D01*
X9392Y79194D01*
X9398D01*
X9399D01*
X9400D01*
X9417Y79195D01*
X9432Y79197D01*
X9446Y79200D01*
X9457Y79204D01*
X9467Y79208D01*
X9473Y79211D01*
X9479Y79214D01*
X9480Y79215D01*
X9490Y79223D01*
X9500Y79232D01*
X9507Y79240D01*
X9513Y79248D01*
X9519Y79255D01*
X9522Y79261D01*
X9523Y79265D01*
X9524Y79266D01*
X9526Y79273D01*
X9528Y79280D01*
X9530Y79298D01*
X9532Y79318D01*
X9535Y79338D01*
Y79356D01*
X9536Y79365D01*
Y79472D01*
D02*
G37*
G36*
X7355Y80274D02*
X6725D01*
Y80170D01*
X6726Y80156D01*
Y80143D01*
X6727Y80131D01*
Y80121D01*
X6728Y80111D01*
X6729Y80104D01*
X6730Y80096D01*
Y80091D01*
X6733Y80082D01*
X6734Y80076D01*
Y80075D01*
X6739Y80059D01*
X6745Y80045D01*
X6754Y80032D01*
X6761Y80021D01*
X6768Y80012D01*
X6775Y80006D01*
X6779Y80001D01*
X6780Y80000D01*
X6794Y79989D01*
X6810Y79979D01*
X6826Y79972D01*
X6841Y79965D01*
X6855Y79960D01*
X6866Y79957D01*
X6870Y79955D01*
X6873D01*
X6875Y79954D01*
X6876D01*
X6901Y79948D01*
X6928Y79945D01*
X6955Y79942D01*
X6983Y79941D01*
X6995Y79940D01*
X7006D01*
X7017Y79939D01*
X7025D01*
X7033D01*
X7039D01*
X7042D01*
X7043D01*
X7079Y79940D01*
X7112Y79941D01*
X7126Y79942D01*
X7139Y79943D01*
X7152Y79945D01*
X7163Y79946D01*
X7173Y79947D01*
X7182Y79950D01*
X7189Y79951D01*
X7195Y79952D01*
X7201Y79953D01*
X7204D01*
X7206Y79954D01*
X7207D01*
X7229Y79959D01*
X7247Y79965D01*
X7263Y79972D01*
X7276Y79978D01*
X7285Y79983D01*
X7293Y79987D01*
X7297Y79990D01*
X7298Y79991D01*
X7307Y79999D01*
X7317Y80009D01*
X7324Y80017D01*
X7331Y80026D01*
X7335Y80034D01*
X7338Y80040D01*
X7340Y80045D01*
X7341Y80046D01*
X7345Y80060D01*
X7349Y80077D01*
X7352Y80095D01*
X7353Y80113D01*
X7354Y80129D01*
X7355Y80137D01*
Y80274D01*
D02*
G37*
G36*
X4395Y79255D02*
X4174D01*
Y79122D01*
X4175Y79104D01*
Y79088D01*
X4176Y79074D01*
Y79061D01*
X4177Y79051D01*
Y79041D01*
X4178Y79034D01*
X4179Y79028D01*
Y79022D01*
X4180Y79019D01*
X4181Y79014D01*
Y79013D01*
X4185Y79003D01*
X4189Y78995D01*
X4194Y78986D01*
X4200Y78980D01*
X4206Y78975D01*
X4210Y78971D01*
X4213Y78968D01*
X4214Y78967D01*
X4225Y78961D01*
X4236Y78957D01*
X4248Y78953D01*
X4259Y78950D01*
X4268Y78949D01*
X4275Y78948D01*
X4281D01*
X4283D01*
X4300Y78949D01*
X4315Y78952D01*
X4327Y78956D01*
X4338Y78960D01*
X4346Y78964D01*
X4353Y78968D01*
X4357Y78971D01*
X4358Y78972D01*
X4367Y78981D01*
X4375Y78992D01*
X4381Y79002D01*
X4385Y79012D01*
X4389Y79021D01*
X4391Y79029D01*
X4392Y79033D01*
Y79040D01*
X4393Y79047D01*
Y79054D01*
X4394Y79062D01*
Y79082D01*
X4395Y79102D01*
Y79255D01*
D02*
G37*
G36*
X4807D02*
X4553D01*
Y79093D01*
X4554Y79077D01*
X4555Y79064D01*
X4557Y79051D01*
Y79040D01*
X4558Y79031D01*
X4559Y79022D01*
X4560Y79015D01*
X4561Y79009D01*
X4562Y79003D01*
X4563Y78999D01*
X4564Y78994D01*
X4565Y78993D01*
X4570Y78981D01*
X4577Y78971D01*
X4583Y78962D01*
X4590Y78954D01*
X4597Y78948D01*
X4602Y78943D01*
X4606Y78941D01*
X4607Y78940D01*
X4619Y78934D01*
X4632Y78928D01*
X4644Y78925D01*
X4656Y78922D01*
X4667Y78921D01*
X4676Y78920D01*
X4681D01*
X4682D01*
X4683D01*
X4699Y78921D01*
X4714Y78923D01*
X4727Y78926D01*
X4738Y78929D01*
X4747Y78933D01*
X4753Y78936D01*
X4757Y78938D01*
X4758Y78939D01*
X4769Y78946D01*
X4777Y78954D01*
X4784Y78962D01*
X4789Y78970D01*
X4793Y78976D01*
X4795Y78981D01*
X4797Y78984D01*
Y78985D01*
X4800Y78991D01*
X4801Y78998D01*
X4802Y79006D01*
X4803Y79016D01*
X4805Y79036D01*
X4806Y79057D01*
Y79077D01*
X4807Y79086D01*
Y79255D01*
D02*
G37*
%LPD*%
M02*
