G04*
<<<<<<< HEAD
G04 #@! TF.GenerationSoftware,Altium Limited,Altium Designer,24.2.2 (26)*
=======
G04 #@! TF.GenerationSoftware,Altium Limited,Altium Designer,25.1.2 (22)*
>>>>>>> 613e14270cc375eb23a491e7e857863a29f37ea3
G04*
G04 Layer_Color=16711935*
%FSLAX43Y43*%
%MOMM*%
G71*
G04*
<<<<<<< HEAD
G04 #@! TF.SameCoordinates,7AFD8296-B205-43B3-A86C-D23401984E65*
=======
G04 #@! TF.SameCoordinates,67CE9ABA-0E76-4F11-AB49-B23C2CE43B64*
>>>>>>> 613e14270cc375eb23a491e7e857863a29f37ea3
G04*
G04*
G04 #@! TF.FilePolarity,Negative*
G04*
G01*
G75*
%ADD20C,6.100*%
%ADD21C,1.100*%
%ADD35R,2.350X0.950*%
D20*
X41331Y36806D02*
D03*
X42406Y7316D02*
D03*
X38156Y54056D02*
D03*
X4256D02*
D03*
D21*
X31644Y28300D02*
D03*
X31623Y26289D02*
D03*
D35*
X37425Y30300D02*
D03*
Y28300D02*
D03*
Y26300D02*
D03*
Y24300D02*
D03*
X42375Y30300D02*
D03*
Y28300D02*
D03*
Y26300D02*
D03*
Y24300D02*
D03*
Y22300D02*
D03*
X37425D02*
D03*
X42375Y20300D02*
D03*
Y18300D02*
D03*
Y16300D02*
D03*
Y14300D02*
D03*
Y12300D02*
D03*
X37425Y20300D02*
D03*
Y18300D02*
D03*
Y16300D02*
D03*
Y14300D02*
D03*
Y12300D02*
D03*
M02*
