G04*
<<<<<<< HEAD
G04 #@! TF.GenerationSoftware,Altium Limited,Altium Designer,24.2.2 (26)*
=======
G04 #@! TF.GenerationSoftware,Altium Limited,Altium Designer,25.1.2 (22)*
>>>>>>> 613e14270cc375eb23a491e7e857863a29f37ea3
G04*
G04 Layer_Color=16711935*
%FSLAX43Y43*%
%MOMM*%
G71*
G04*
<<<<<<< HEAD
G04 #@! TF.SameCoordinates,7AFD8296-B205-43B3-A86C-D23401984E65*
=======
G04 #@! TF.SameCoordinates,67CE9ABA-0E76-4F11-AB49-B23C2CE43B64*
>>>>>>> 613e14270cc375eb23a491e7e857863a29f37ea3
G04*
G04*
G04 #@! TF.FilePolarity,Positive*
G04*
G01*
G75*
%ADD36C,0.013*%
<<<<<<< HEAD
=======
%ADD37R,6.600X16.700*%
%ADD38R,17.687X33.315*%
%ADD39R,26.000X6.550*%
%ADD40R,26.000X25.600*%
>>>>>>> 613e14270cc375eb23a491e7e857863a29f37ea3
D36*
X39756Y54056D02*
G03*
X39756Y54056I-1600J0D01*
G01*
X5856D02*
G03*
X5856Y54056I-1600J0D01*
G01*
X5772Y49793D02*
G03*
X5731Y49800I-131J-595D01*
G01*
X5946Y49720D02*
G03*
X5929Y49731I-319J-493D01*
G01*
X5959Y49712D02*
G03*
X5946Y49720I-332J-484D01*
G01*
X6090Y49581D02*
G03*
X6077Y49598I-463J-317D01*
G01*
X6097Y49569D02*
G03*
X6090Y49581I-470J-305D01*
G01*
X6168Y49390D02*
G03*
X6160Y49425I-535J-96D01*
G01*
X4256Y58306D02*
G03*
X4256Y49806I0J-4250D01*
G01*
X38156D02*
G03*
X38156Y58306I0J4250D01*
G01*
X36206Y49806D02*
G03*
X33906Y47506I0J-2300D01*
G01*
Y42606D02*
G03*
X36206Y40306I2300J0D01*
G01*
X48156Y38606D02*
G03*
X46456Y40306I-1700J0D01*
G01*
X7206Y11806D02*
G03*
X8206Y12806I0J1000D01*
G01*
Y22806D02*
G03*
X7206Y23806I-1000J0D01*
G01*
X3353Y40006D02*
G03*
X2353Y39006I0J-1000D01*
G01*
X10206Y40006D02*
G03*
X11206Y41006I0J1000D01*
G01*
Y45806D02*
G03*
X10206Y46806I-1000J0D01*
G01*
X6182Y47231D02*
G03*
X6189Y47195I537J88D01*
G01*
X6252Y47046D02*
G03*
X6270Y47020I474J304D01*
G01*
X6270D02*
G03*
X6276Y47012I453J327D01*
G01*
X6390Y46902D02*
G03*
X6413Y46887I334J482D01*
G01*
X6413D02*
G03*
X6423Y46881I310J495D01*
G01*
X6572Y46821D02*
G03*
X6605Y46814I135J586D01*
G01*
X42931Y36806D02*
G03*
X42931Y36806I-1600J0D01*
G01*
X6175Y47306D02*
Y49306D01*
X5654Y49806D02*
X5656Y49806D01*
X5657Y49806D01*
X5659Y49806D01*
X5660Y49806D01*
X5662Y49806D01*
X5663Y49806D01*
X5666Y49806D01*
X5668Y49806D01*
X5670Y49806D01*
X5673Y49806D01*
X5675Y49806D01*
X5677Y49806D01*
X5680Y49806D01*
X5682Y49806D01*
X5684Y49805D01*
X5687Y49805D01*
X5689Y49805D01*
X5691Y49805D01*
X5695Y49805D01*
X5698Y49804D01*
X5701Y49804D01*
X5704Y49804D01*
X5707Y49803D01*
X5712Y49803D01*
X5716Y49802D01*
X5720Y49802D01*
X5725Y49801D01*
X5731Y49800D01*
X5772Y49793D02*
X5780Y49791D01*
X5786Y49790D01*
X5791Y49788D01*
X5795Y49787D01*
X5799Y49786D01*
X5803Y49785D01*
X5806Y49784D01*
X5810Y49783D01*
X5813Y49782D01*
X5816Y49782D01*
X5819Y49781D01*
X5821Y49780D01*
X5823Y49779D01*
X5826Y49778D01*
X5828Y49778D01*
X5830Y49777D01*
X5832Y49776D01*
X5835Y49775D01*
X5837Y49775D01*
X5839Y49774D01*
X5841Y49773D01*
X5843Y49772D01*
X5846Y49772D01*
X5848Y49771D01*
X5849Y49770D01*
X5851Y49770D01*
X5852Y49769D01*
X5853Y49769D01*
X5855Y49768D01*
X5858Y49767D01*
X5860Y49766D01*
X5861Y49765D01*
X5863Y49765D01*
X5864Y49764D01*
X5865Y49764D01*
X5868Y49763D01*
X5870Y49762D01*
X5872Y49761D01*
X5874Y49760D01*
X5876Y49759D01*
X5878Y49758D01*
X5880Y49757D01*
X5882Y49756D01*
X5885Y49755D01*
X5887Y49754D01*
X5889Y49753D01*
X5891Y49752D01*
X5894Y49750D01*
X5897Y49749D01*
X5900Y49747D01*
X5902Y49746D01*
X5906Y49744D01*
X5910Y49742D01*
X5913Y49740D01*
X5917Y49738D01*
X5922Y49735D01*
X5929Y49731D01*
X5959Y49712D02*
X5965Y49708D01*
X5969Y49704D01*
X5973Y49701D01*
X5977Y49699D01*
X5980Y49696D01*
X5983Y49694D01*
X5986Y49692D01*
X5988Y49690D01*
X5991Y49688D01*
X5993Y49686D01*
X5995Y49685D01*
X5997Y49683D01*
X5999Y49681D01*
X6001Y49680D01*
X6003Y49678D01*
X6004Y49677D01*
X6006Y49675D01*
X6008Y49674D01*
X6010Y49672D01*
X6011Y49671D01*
X6013Y49669D01*
X6015Y49668D01*
X6017Y49666D01*
X6018Y49665D01*
X6019Y49664D01*
X6020Y49663D01*
X6021Y49662D01*
X6022Y49661D01*
X6023Y49660D01*
X6024Y49659D01*
X6027Y49656D01*
X6028Y49655D01*
X6029Y49654D01*
X6030Y49653D01*
X6031Y49652D01*
X6033Y49651D01*
X6034Y49649D01*
X6035Y49648D01*
X6037Y49646D01*
X6038Y49644D01*
X6040Y49643D01*
X6042Y49641D01*
X6043Y49639D01*
X6045Y49638D01*
X6046Y49636D01*
X6048Y49634D01*
X6050Y49632D01*
X6051Y49630D01*
X6053Y49629D01*
X6055Y49626D01*
X6057Y49624D01*
X6059Y49621D01*
X6061Y49619D01*
X6064Y49616D01*
X6066Y49612D01*
X6069Y49609D01*
X6073Y49604D01*
X6077Y49598D01*
X6097Y49569D02*
X6101Y49563D01*
X6104Y49558D01*
X6107Y49554D01*
X6109Y49550D01*
X6111Y49547D01*
X6113Y49544D01*
X6114Y49541D01*
X6116Y49538D01*
X6117Y49535D01*
X6119Y49533D01*
X6120Y49530D01*
X6121Y49528D01*
X6122Y49526D01*
X6123Y49524D01*
X6124Y49522D01*
X6126Y49520D01*
X6127Y49518D01*
X6128Y49516D01*
X6129Y49514D01*
X6130Y49511D01*
X6131Y49509D01*
X6132Y49507D01*
X6132Y49506D01*
X6133Y49504D01*
X6134Y49503D01*
X6134Y49502D01*
X6135Y49500D01*
X6135Y49499D01*
X6136Y49497D01*
X6137Y49496D01*
X6137Y49495D01*
X6138Y49493D01*
X6138Y49492D01*
X6139Y49490D01*
X6140Y49489D01*
X6140Y49488D01*
X6141Y49486D01*
X6141Y49485D01*
X6142Y49483D01*
X6143Y49481D01*
X6143Y49479D01*
X6144Y49477D01*
X6145Y49474D01*
X6146Y49472D01*
X6147Y49470D01*
X6147Y49468D01*
X6148Y49466D01*
X6149Y49463D01*
X6150Y49461D01*
X6150Y49459D01*
X6151Y49456D01*
X6152Y49453D01*
X6153Y49449D01*
X6154Y49446D01*
X6155Y49443D01*
X6156Y49439D01*
X6157Y49435D01*
X6159Y49431D01*
X6160Y49425D01*
X6168Y49390D02*
X6169Y49382D01*
X6170Y49376D01*
X6171Y49371D01*
X6171Y49367D01*
X6172Y49363D01*
X6172Y49360D01*
X6173Y49357D01*
X6173Y49353D01*
X6173Y49350D01*
X6174Y49347D01*
X6174Y49345D01*
X6174Y49342D01*
X6174Y49340D01*
X6174Y49337D01*
X6174Y49335D01*
X6175Y49333D01*
X6175Y49330D01*
X6175Y49328D01*
X6175Y49326D01*
X6175Y49323D01*
X6175Y49321D01*
X6175Y49319D01*
X6175Y49318D01*
X6175Y49316D01*
X6175Y49315D01*
X6175Y49313D01*
X6175Y49312D01*
X6175Y49310D01*
X6175Y49309D01*
X6175Y49306D01*
X4256Y49806D02*
X5654D01*
X4256Y58306D02*
X38156D01*
X36206Y49806D02*
X38156D01*
X33906Y42606D02*
Y47506D01*
X36206Y40306D02*
X46456D01*
X48156Y38606D02*
X48156Y6D01*
X6942D02*
X48156D01*
X6942D02*
Y606D01*
X2353D02*
X6942D01*
X2353D02*
Y11806D01*
X7206D01*
X8206Y12806D02*
Y22806D01*
X2353Y23806D02*
X7206D01*
X2353D02*
Y39006D01*
X3353Y40006D02*
X10206D01*
X11206Y41006D02*
Y45806D01*
X6694Y46806D02*
X10206D01*
X6175Y47306D02*
X6175Y47305D01*
X6175Y47303D01*
X6176Y47302D01*
X6176Y47300D01*
X6176Y47299D01*
X6176Y47297D01*
X6176Y47296D01*
X6176Y47294D01*
X6176Y47293D01*
X6176Y47291D01*
X6176Y47289D01*
X6176Y47286D01*
X6176Y47284D01*
X6176Y47282D01*
X6176Y47279D01*
X6177Y47277D01*
X6177Y47275D01*
X6177Y47272D01*
X6177Y47270D01*
X6177Y47268D01*
X6178Y47265D01*
X6178Y47262D01*
X6178Y47259D01*
X6179Y47256D01*
X6179Y47252D01*
X6179Y47249D01*
X6180Y47245D01*
X6180Y47241D01*
X6181Y47236D01*
X6182Y47231D01*
X6189Y47195D02*
X6191Y47187D01*
X6192Y47182D01*
X6194Y47177D01*
X6195Y47173D01*
X6196Y47169D01*
X6197Y47166D01*
X6198Y47163D01*
X6199Y47160D01*
X6200Y47157D01*
X6201Y47154D01*
X6201Y47151D01*
X6202Y47149D01*
X6203Y47147D01*
X6204Y47145D01*
X6204Y47142D01*
X6205Y47140D01*
X6206Y47138D01*
X6207Y47136D01*
X6208Y47134D01*
X6208Y47131D01*
X6209Y47129D01*
X6210Y47128D01*
X6210Y47126D01*
X6211Y47125D01*
X6212Y47124D01*
X6212Y47122D01*
X6213Y47121D01*
X6213Y47119D01*
X6214Y47118D01*
X6214Y47117D01*
X6215Y47115D01*
X6216Y47114D01*
X6216Y47112D01*
X6217Y47111D01*
X6217Y47110D01*
X6218Y47108D01*
X6219Y47107D01*
X6219Y47105D01*
X6220Y47104D01*
X6221Y47102D01*
X6222Y47100D01*
X6223Y47098D01*
X6224Y47096D01*
X6225Y47093D01*
X6226Y47091D01*
X6227Y47089D01*
X6228Y47087D01*
X6229Y47085D01*
X6231Y47083D01*
X6232Y47081D01*
X6233Y47079D01*
X6234Y47076D01*
X6236Y47073D01*
X6238Y47070D01*
X6239Y47067D01*
X6241Y47064D01*
X6243Y47060D01*
X6246Y47056D01*
X6249Y47051D01*
X6252Y47046D01*
X6276Y47012D02*
X6280Y47007D01*
X6283Y47003D01*
X6286Y46999D01*
X6288Y46996D01*
X6291Y46993D01*
X6293Y46990D01*
X6295Y46988D01*
X6297Y46985D01*
X6299Y46983D01*
X6301Y46981D01*
X6302Y46979D01*
X6304Y46978D01*
X6305Y46976D01*
X6307Y46974D01*
X6309Y46972D01*
X6310Y46971D01*
X6312Y46969D01*
X6313Y46967D01*
X6315Y46966D01*
X6317Y46964D01*
X6318Y46962D01*
X6319Y46961D01*
X6320Y46960D01*
X6321Y46959D01*
X6322Y46958D01*
X6326Y46955D01*
X6327Y46954D01*
X6328Y46953D01*
X6329Y46952D01*
X6330Y46951D01*
X6331Y46950D01*
X6332Y46948D01*
X6333Y46947D01*
X6335Y46946D01*
X6337Y46944D01*
X6339Y46943D01*
X6340Y46941D01*
X6342Y46940D01*
X6344Y46938D01*
X6346Y46937D01*
X6347Y46935D01*
X6349Y46933D01*
X6351Y46932D01*
X6353Y46930D01*
X6355Y46929D01*
X6357Y46927D01*
X6359Y46925D01*
X6362Y46923D01*
X6364Y46921D01*
X6367Y46919D01*
X6369Y46917D01*
X6372Y46915D01*
X6376Y46912D01*
X6380Y46910D01*
X6384Y46906D01*
X6390Y46902D01*
X6423Y46881D02*
X6429Y46877D01*
X6434Y46874D01*
X6438Y46872D01*
X6442Y46870D01*
X6445Y46868D01*
X6448Y46867D01*
X6451Y46865D01*
X6454Y46864D01*
X6457Y46862D01*
X6460Y46861D01*
X6462Y46860D01*
X6464Y46859D01*
X6466Y46858D01*
X6468Y46857D01*
X6470Y46856D01*
X6472Y46855D01*
X6475Y46854D01*
X6477Y46853D01*
X6479Y46852D01*
X6481Y46851D01*
X6483Y46850D01*
X6485Y46849D01*
X6487Y46848D01*
X6488Y46848D01*
X6489Y46847D01*
X6491Y46847D01*
X6494Y46845D01*
X6496Y46845D01*
X6497Y46844D01*
X6499Y46843D01*
X6500Y46843D01*
X6501Y46842D01*
X6503Y46842D01*
X6505Y46841D01*
X6507Y46840D01*
X6509Y46839D01*
X6512Y46839D01*
X6514Y46838D01*
X6516Y46837D01*
X6518Y46836D01*
X6520Y46835D01*
X6523Y46835D01*
X6525Y46834D01*
X6527Y46833D01*
X6529Y46833D01*
X6532Y46832D01*
X6535Y46831D01*
X6538Y46830D01*
X6541Y46829D01*
X6544Y46828D01*
X6547Y46827D01*
X6551Y46826D01*
X6555Y46825D01*
X6560Y46824D01*
X6565Y46823D01*
X6572Y46821D01*
X6605Y46814D02*
X6614Y46813D01*
X6621Y46812D01*
X6627Y46811D01*
X6631Y46810D01*
X6635Y46810D01*
X6639Y46810D01*
X6643Y46809D01*
X6646Y46809D01*
X6649Y46809D01*
X6652Y46808D01*
X6655Y46808D01*
X6658Y46808D01*
X6660Y46808D01*
X6663Y46807D01*
X6665Y46807D01*
X6667Y46807D01*
X6670Y46807D01*
X6672Y46807D01*
X6674Y46807D01*
X6677Y46807D01*
X6679Y46807D01*
X6681Y46807D01*
X6684Y46806D01*
X6686Y46806D01*
X6687Y46806D01*
X6689Y46806D01*
X6690Y46806D01*
X6692Y46806D01*
X6694Y46806D01*
<<<<<<< HEAD
=======
D37*
X36450Y17800D02*
D03*
D38*
X39290Y18958D02*
D03*
D39*
X20874Y35990D02*
D03*
D40*
X20901Y45515D02*
D03*
>>>>>>> 613e14270cc375eb23a491e7e857863a29f37ea3
M02*
