M48
;Layer_Color=9474304
;FILE_FORMAT=4:3
METRIC,LZ
;TYPE=PLATED
T01F00S00C0.300
T02F00S00C0.600
T03F00S00C3.200
%
T01
X0010541Y000508
Y000635
X0011176Y0006985
X0011811Y000762
X0012446Y0006985
X0013081Y000635
X0011811
Y000508
X0011176Y0005715
X0010541Y000762
X0013081
X0024257Y0017526
X003302
X003429
X0034671Y0014351
X0032258Y0014859
X0033655Y0024384
X0023241Y0037338
X0045847Y0026289
X0045085Y0024384
X0044704Y0018288
X0044577Y0016383
Y0014351
X002874Y0043053
Y0044323
Y0045593
X002747
Y0044323
X0026835Y0043688
X00262Y0043053
X002747
X0028105Y0043688
Y0044958
X00262Y0044323
X0023241Y0045466
X002286Y0049403
Y00508
X0023876Y0050165
X002747Y0051937
Y0053207
X0026835Y0053842
X00262Y0054477
Y0053207
X0028105Y0053842
Y0052572
X002874Y0051937
Y0053207
Y0054477
X002747
X0015616
X0014981Y0053842
X0015616Y0053207
X0014346
Y0054477
X0013711Y0053842
X0013076Y0054477
Y0053207
Y0051937
X0013711Y0052572
X0014346Y0051937
X0013843Y0047244
X0011938
X0010414Y0048133
X0013076Y0045593
X0013711Y0044958
X0014346Y0045593
X0014346Y0044323
X0014981Y0043688
X0015616Y0043053
Y0044323
X0014346Y0043053
X0013711Y0043688
X0013076Y0044323
Y0043053
X0023241Y0040894
T02
X0031623Y0026289
X0031644Y00283
T03
X0042406Y0007316
X0041331Y0036806
X0038156Y0054056
X0004256
M30
