G04*
<<<<<<< HEAD
G04 #@! TF.GenerationSoftware,Altium Limited,Altium Designer,24.2.2 (26)*
=======
G04 #@! TF.GenerationSoftware,Altium Limited,Altium Designer,25.1.2 (22)*
>>>>>>> 613e14270cc375eb23a491e7e857863a29f37ea3
G04*
G04 Layer_Physical_Order=4*
G04 Layer_Color=6736896*
%FSLAX43Y43*%
%MOMM*%
G71*
G04*
<<<<<<< HEAD
G04 #@! TF.SameCoordinates,ED9163A0-6DB0-4723-8498-66EEF6ED2332*
=======
G04 #@! TF.SameCoordinates,67307762-3149-45A4-8697-BBC3368EA460*
>>>>>>> 613e14270cc375eb23a491e7e857863a29f37ea3
G04*
G04*
G04 #@! TF.FilePolarity,Positive*
G04*
G01*
G75*
%ADD12C,0.250*%
%ADD14C,0.400*%
%ADD15C,0.300*%
%ADD137C,0.500*%
%ADD143C,1.900*%
%ADD145C,1.700*%
%ADD146C,0.850*%
%ADD152C,0.900*%
%ADD158C,0.600*%
%ADD159C,0.800*%
G36*
X88925Y39027D02*
Y37800D01*
X88600Y37475D01*
X86250D01*
X85150Y38575D01*
Y38938D01*
X85562Y39350D01*
X88602D01*
X88925Y39027D01*
D02*
G37*
G36*
X54316Y133348D02*
X54497Y133348D01*
X54854Y133301D01*
X55203Y133207D01*
X55536Y133069D01*
X55848Y132889D01*
X56135Y132669D01*
X56390Y132414D01*
X56609Y132128D01*
X56790Y131816D01*
X56928Y131482D01*
X57021Y131134D01*
X57068Y130776D01*
X57068Y130596D01*
Y129491D01*
X57061Y129474D01*
X56783Y129058D01*
X56606Y128881D01*
X55567Y127842D01*
X55151Y127564D01*
X54689Y127373D01*
X54198Y127275D01*
X53948Y127275D01*
X34473Y127275D01*
X34426Y127355D01*
X34296Y127486D01*
X34136Y127578D01*
X33958Y127625D01*
X33774D01*
X33596Y127578D01*
X33436Y127486D01*
X33312Y127361D01*
X33167Y127400D01*
X32983D01*
X32805Y127352D01*
X32671Y127275D01*
X28192D01*
X28116Y127374D01*
X28125Y127408D01*
Y127592D01*
X28077Y127770D01*
X27985Y127930D01*
X27855Y128060D01*
X27695Y128152D01*
X27517Y128200D01*
X27500D01*
Y128292D01*
X27452Y128470D01*
X27360Y128630D01*
X27230Y128760D01*
X27070Y128852D01*
X26892Y128900D01*
X26708D01*
X26530Y128852D01*
X26370Y128760D01*
X26294Y128684D01*
X26142Y128725D01*
X25958D01*
X25780Y128677D01*
X25620Y128585D01*
X25490Y128455D01*
X25398Y128295D01*
X25350Y128117D01*
Y127933D01*
X25398Y127755D01*
X25490Y127595D01*
X25620Y127465D01*
X25733Y127400D01*
X25699Y127275D01*
X11002Y127275D01*
X11002Y127275D01*
X10753Y127263D01*
X10265Y127166D01*
X9805Y126975D01*
X9391Y126698D01*
X9206Y126531D01*
X5219Y122544D01*
X5052Y122359D01*
X4775Y121945D01*
X4584Y121485D01*
X4487Y120997D01*
X4475Y120748D01*
Y71500D01*
X16997D01*
X17059Y71392D01*
X17048Y71372D01*
X17000Y71194D01*
Y71010D01*
X17048Y70832D01*
X17140Y70672D01*
X17270Y70542D01*
X17430Y70450D01*
X17608Y70402D01*
X17792D01*
X17970Y70450D01*
X18130Y70542D01*
X18260Y70672D01*
X18352Y70832D01*
X18400Y71010D01*
Y71194D01*
X18352Y71372D01*
X18341Y71392D01*
X18403Y71500D01*
X19396D01*
X19459Y71392D01*
X19448Y71372D01*
X19400Y71194D01*
Y71010D01*
X19448Y70832D01*
X19540Y70672D01*
X19670Y70542D01*
X19830Y70450D01*
X20008Y70402D01*
X20192D01*
X20370Y70450D01*
X20530Y70542D01*
X20660Y70672D01*
X20752Y70832D01*
X20800Y71010D01*
Y71194D01*
X20752Y71372D01*
X20741Y71392D01*
X20803Y71500D01*
X34110D01*
X34170Y71440D01*
X34330Y71348D01*
X34508Y71300D01*
X34692D01*
X34870Y71348D01*
X35030Y71440D01*
X35090Y71500D01*
X35362D01*
X35396Y71375D01*
X35370Y71360D01*
X35240Y71230D01*
X35148Y71070D01*
X35100Y70892D01*
Y70708D01*
X35148Y70530D01*
X35240Y70370D01*
X35370Y70240D01*
X35530Y70148D01*
X35708Y70100D01*
X35892D01*
X36070Y70148D01*
X36230Y70240D01*
X36360Y70370D01*
X36452Y70530D01*
X36500Y70708D01*
Y70892D01*
X36452Y71070D01*
X36360Y71230D01*
X36230Y71360D01*
X36204Y71375D01*
X36238Y71500D01*
X36510D01*
X36570Y71440D01*
X36730Y71348D01*
X36908Y71300D01*
X37092D01*
X37270Y71348D01*
X37430Y71440D01*
X37490Y71500D01*
X46455D01*
X46473Y71469D01*
X46724Y71218D01*
X46738Y71110D01*
X46633Y71004D01*
X46514Y70798D01*
X47553D01*
Y69798D01*
X46514D01*
X46633Y69592D01*
X46738Y69486D01*
X46724Y69378D01*
X46473Y69127D01*
X46399Y68999D01*
X39600Y62200D01*
X31100D01*
X30800Y61900D01*
X19300Y50400D01*
Y47908D01*
X18950D01*
X18715Y47877D01*
X18496Y47786D01*
X18308Y47642D01*
X18164Y47454D01*
X18073Y47235D01*
X18042Y47000D01*
X18073Y46765D01*
X18164Y46546D01*
X18308Y46358D01*
X18496Y46214D01*
X18715Y46123D01*
X18950Y46092D01*
X19300D01*
Y38389D01*
X19255Y38377D01*
X19095Y38285D01*
X18965Y38155D01*
X18873Y37995D01*
X18825Y37817D01*
Y37633D01*
X18873Y37455D01*
X18965Y37295D01*
X19095Y37165D01*
X19255Y37073D01*
X19300Y37061D01*
Y34279D01*
X19270Y34262D01*
X19140Y34132D01*
X19048Y33972D01*
X19000Y33794D01*
Y33610D01*
X19048Y33432D01*
X19140Y33272D01*
X19270Y33142D01*
X19300Y33125D01*
Y31879D01*
X19270Y31862D01*
X19140Y31732D01*
X19048Y31572D01*
X19000Y31394D01*
Y31210D01*
X19048Y31032D01*
X19140Y30872D01*
X19270Y30742D01*
X19300Y30725D01*
Y28850D01*
X22794Y26066D01*
X22774Y25922D01*
X22670Y25862D01*
X22540Y25732D01*
X22448Y25572D01*
X22400Y25394D01*
Y25210D01*
X22448Y25032D01*
X22540Y24872D01*
X22670Y24742D01*
X22830Y24650D01*
X23008Y24602D01*
X23192D01*
X23370Y24650D01*
X23530Y24742D01*
X23660Y24872D01*
X23752Y25032D01*
X23777Y25123D01*
X23919Y25170D01*
X24006Y25100D01*
X24829D01*
X24848Y25032D01*
X24940Y24872D01*
X25070Y24742D01*
X25230Y24650D01*
X25408Y24602D01*
X25592D01*
X25770Y24650D01*
X25930Y24742D01*
X26060Y24872D01*
X26152Y25032D01*
X26171Y25100D01*
X53663D01*
Y23158D01*
X53683Y23060D01*
X53738Y22978D01*
X53821Y22922D01*
X53918Y22903D01*
X55317Y22903D01*
X55489Y22903D01*
X55827Y22836D01*
X56146Y22704D01*
X56433Y22512D01*
X56677Y22268D01*
X56869Y21981D01*
X57001Y21662D01*
X57068Y21324D01*
X57068Y21151D01*
X57068Y3006D01*
Y2826D01*
X57021Y2468D01*
X56928Y2120D01*
X56790Y1787D01*
X56609Y1474D01*
X56390Y1188D01*
X56135Y933D01*
X55848Y713D01*
X55536Y533D01*
X55203Y395D01*
X54854Y302D01*
X54497Y255D01*
X24008D01*
X21619Y283D01*
X19117Y389D01*
X16585Y594D01*
X14095Y919D01*
X11712Y1379D01*
X9490Y1982D01*
X7471Y2735D01*
X5688Y3638D01*
X4160Y4687D01*
X3240Y5514D01*
X2453Y6409D01*
X1800Y7365D01*
X1274Y8377D01*
X869Y9441D01*
X577Y10548D01*
X387Y11690D01*
X285Y12858D01*
X255Y14040D01*
X255Y40942D01*
X380Y40993D01*
X731Y40642D01*
X867Y40538D01*
X1025Y40472D01*
X1195Y40450D01*
X1257D01*
X1258Y40325D01*
X1080Y40277D01*
X920Y40185D01*
X790Y40055D01*
X698Y39895D01*
X650Y39717D01*
Y39533D01*
X698Y39355D01*
X790Y39195D01*
X920Y39065D01*
X1080Y38973D01*
X1258Y38925D01*
X1442D01*
X1620Y38973D01*
X1780Y39065D01*
X1910Y39195D01*
X2002Y39355D01*
X2050Y39533D01*
Y39717D01*
X2002Y39895D01*
X1910Y40055D01*
X1780Y40185D01*
X1667Y40250D01*
X1701Y40375D01*
X1717D01*
X1883Y40419D01*
X2900D01*
X3070Y40442D01*
X3228Y40507D01*
X3364Y40611D01*
X7747Y44994D01*
X13250D01*
X13420Y45017D01*
X13578Y45082D01*
X13714Y45186D01*
X13733Y45206D01*
X13845Y45141D01*
X13825Y45067D01*
Y44883D01*
X13873Y44705D01*
X13965Y44545D01*
X14095Y44415D01*
X14255Y44323D01*
X14433Y44275D01*
X14617D01*
X14795Y44323D01*
X14955Y44415D01*
X15085Y44545D01*
X15177Y44705D01*
X15225Y44883D01*
Y45067D01*
X15177Y45245D01*
X15085Y45405D01*
X14990Y45500D01*
X15085Y45595D01*
X15177Y45755D01*
X15225Y45933D01*
Y46117D01*
X15177Y46295D01*
X15085Y46455D01*
X15065Y46475D01*
X15073Y46483D01*
X15165Y46642D01*
X15212Y46820D01*
Y47005D01*
X15165Y47183D01*
X15073Y47342D01*
X14942Y47473D01*
X14783Y47565D01*
X14605Y47612D01*
X14420D01*
X14242Y47565D01*
X14083Y47473D01*
X13952Y47342D01*
X13867Y47194D01*
X12978Y46306D01*
X7475D01*
X7305Y46283D01*
X7147Y46218D01*
X7011Y46114D01*
X2628Y41731D01*
X1883D01*
X1717Y41775D01*
X1533D01*
X1431Y41868D01*
Y45353D01*
X1556Y45404D01*
X1620Y45340D01*
X1780Y45248D01*
X1958Y45200D01*
X2142D01*
X2320Y45248D01*
X2480Y45340D01*
X2610Y45470D01*
X2702Y45630D01*
X2750Y45808D01*
Y45992D01*
X2702Y46170D01*
X2610Y46330D01*
X2480Y46460D01*
X2320Y46552D01*
X2142Y46600D01*
X1958D01*
X1780Y46552D01*
X1620Y46460D01*
X1556Y46396D01*
X1431Y46447D01*
Y95400D01*
X1442D01*
X1620Y95448D01*
X1780Y95540D01*
X1910Y95670D01*
X2002Y95830D01*
X2050Y96008D01*
Y96192D01*
X2002Y96370D01*
X1910Y96530D01*
X1780Y96660D01*
X1620Y96752D01*
X1442Y96800D01*
X1431D01*
Y112703D01*
X1956Y113229D01*
X2105Y113315D01*
X2235Y113445D01*
X2327Y113605D01*
X2375Y113783D01*
Y113967D01*
X2364Y114007D01*
X2374Y114033D01*
X2462Y114125D01*
X2592D01*
X2770Y114173D01*
X2930Y114265D01*
X3060Y114395D01*
X3152Y114555D01*
X3200Y114733D01*
Y114917D01*
X3152Y115095D01*
X3060Y115255D01*
X2930Y115385D01*
X2770Y115477D01*
X2592Y115525D01*
X2408D01*
X2363Y115513D01*
X2327Y115645D01*
X2235Y115805D01*
X2105Y115935D01*
X1945Y116027D01*
X1767Y116075D01*
X1583D01*
X1405Y116027D01*
X1245Y115935D01*
X1115Y115805D01*
X1023Y115645D01*
X975Y115467D01*
Y115283D01*
X1023Y115105D01*
X1115Y114945D01*
X1245Y114815D01*
X1405Y114723D01*
X1528Y114690D01*
Y114560D01*
X1405Y114527D01*
X1245Y114435D01*
X1115Y114305D01*
X1029Y114156D01*
X380Y113507D01*
X255Y113558D01*
Y118150D01*
X380Y118166D01*
X423Y118005D01*
X515Y117845D01*
X645Y117715D01*
X805Y117623D01*
X983Y117575D01*
X1167D01*
X1345Y117623D01*
X1505Y117715D01*
X1635Y117845D01*
X1727Y118005D01*
X1775Y118183D01*
Y118367D01*
X1727Y118545D01*
X1635Y118705D01*
X1505Y118835D01*
X1345Y118927D01*
X1167Y118975D01*
X983D01*
X805Y118927D01*
X645Y118835D01*
X515Y118705D01*
X423Y118545D01*
X380Y118384D01*
X255Y118400D01*
Y119562D01*
X285Y120745D01*
X387Y121913D01*
X577Y123055D01*
X869Y124162D01*
X1274Y125226D01*
X1797Y126232D01*
X3246Y128094D01*
X4161Y128916D01*
X5689Y129965D01*
X7472Y130867D01*
X9491Y131620D01*
X11713Y132224D01*
X14096Y132683D01*
X15379Y132851D01*
X15399Y132820D01*
X15444Y132733D01*
X15400Y132567D01*
Y132383D01*
X15448Y132205D01*
X15540Y132045D01*
X15670Y131915D01*
X15830Y131823D01*
X16008Y131775D01*
X16192D01*
X16370Y131823D01*
X16530Y131915D01*
X16660Y132045D01*
X16752Y132205D01*
X16800Y132383D01*
Y132567D01*
X16752Y132745D01*
X16669Y132889D01*
X16685Y132951D01*
X16723Y133019D01*
X19118Y133213D01*
X21619Y133319D01*
X24008Y133348D01*
X54316Y133348D01*
D02*
G37*
G36*
X26608Y127738D02*
X26701Y127700D01*
X26831D01*
X26921Y127604D01*
X26925Y127585D01*
Y127401D01*
X27001Y127217D01*
X27142Y127076D01*
X27326Y127000D01*
X27524D01*
X27708Y127076D01*
X27837Y127205D01*
X27866Y127216D01*
X27867Y127216D01*
X27983Y127213D01*
X28030Y127151D01*
X28040Y127142D01*
X28048Y127131D01*
X28070Y127116D01*
X28090Y127098D01*
X28103Y127094D01*
X28114Y127087D01*
X28140Y127081D01*
X28165Y127073D01*
X28179Y127074D01*
X28192Y127071D01*
X32563D01*
X32588Y127046D01*
X32636Y126946D01*
X32575Y126799D01*
Y126601D01*
X32651Y126417D01*
X32792Y126276D01*
X32976Y126200D01*
X33174D01*
X33358Y126276D01*
X33499Y126417D01*
X33575Y126601D01*
Y126799D01*
X33499Y126983D01*
X33425Y127057D01*
X33419Y127075D01*
X33431Y127179D01*
X33448Y127211D01*
X33456Y127217D01*
X33562Y127322D01*
X33675Y127388D01*
X33801Y127422D01*
X33932D01*
X34058Y127388D01*
X34171Y127322D01*
X34263Y127230D01*
X34296Y127173D01*
X34314Y127153D01*
X34329Y127131D01*
X34340Y127123D01*
X34349Y127113D01*
X34373Y127101D01*
X34395Y127087D01*
X34408Y127084D01*
X34420Y127078D01*
X34447Y127076D01*
X34473Y127071D01*
X53948Y127071D01*
X54198Y127071D01*
X54218Y127075D01*
X54238D01*
X54729Y127173D01*
X54747Y127180D01*
X54767Y127184D01*
X55229Y127376D01*
X55246Y127387D01*
X55264Y127395D01*
X55529Y127571D01*
X56400Y126700D01*
Y125975D01*
X56285Y125927D01*
X56231Y125980D01*
X55969Y126132D01*
X55676Y126210D01*
X55374D01*
X55081Y126132D01*
X54819Y125980D01*
X54605Y125766D01*
X54453Y125504D01*
X54375Y125211D01*
Y124909D01*
X54453Y124616D01*
X54605Y124354D01*
X54819Y124140D01*
X55081Y123988D01*
X55374Y123910D01*
X55676D01*
X55969Y123988D01*
X56231Y124140D01*
X56285Y124193D01*
X56400Y124145D01*
Y123435D01*
X56285Y123387D01*
X56231Y123440D01*
X55969Y123592D01*
X55676Y123670D01*
X55374D01*
X55081Y123592D01*
X54819Y123440D01*
X54605Y123226D01*
X54453Y122964D01*
X54375Y122671D01*
Y122369D01*
X54453Y122076D01*
X54605Y121814D01*
X54819Y121600D01*
X55081Y121448D01*
X55374Y121370D01*
X55676D01*
X55969Y121448D01*
X56231Y121600D01*
X56285Y121653D01*
X56400Y121605D01*
Y121030D01*
X56275Y120990D01*
X56075Y121106D01*
Y119980D01*
Y118854D01*
X56275Y118970D01*
X56400Y118930D01*
Y118590D01*
X54375D01*
Y116290D01*
X56400D01*
Y115000D01*
X44138Y102738D01*
Y98212D01*
X30650Y84348D01*
X27976Y84350D01*
X27950Y84386D01*
X27594Y84742D01*
X27187Y85038D01*
X26738Y85267D01*
X26259Y85423D01*
X25761Y85502D01*
X25257D01*
X24760Y85423D01*
X24281Y85267D01*
X23832Y85038D01*
X23425Y84742D01*
X23069Y84386D01*
X23045Y84354D01*
X17869Y84357D01*
X17856Y84391D01*
X17848Y84482D01*
X17974Y84555D01*
X18095Y84676D01*
X18181Y84824D01*
X18225Y84989D01*
Y85161D01*
X18181Y85326D01*
X18095Y85474D01*
X17974Y85595D01*
X17826Y85681D01*
X17661Y85725D01*
X17489D01*
X17324Y85681D01*
X17176Y85595D01*
X17055Y85474D01*
X16969Y85326D01*
X16925Y85161D01*
Y84989D01*
X16969Y84824D01*
X17055Y84676D01*
X17176Y84555D01*
X17301Y84483D01*
X17291Y84385D01*
X17280Y84358D01*
X16396Y84358D01*
X16390Y84372D01*
X16375Y84483D01*
X16499Y84555D01*
X16620Y84676D01*
X16706Y84824D01*
X16750Y84989D01*
Y85161D01*
X16706Y85326D01*
X16620Y85474D01*
X16499Y85595D01*
X16351Y85681D01*
X16186Y85725D01*
X16014D01*
X15849Y85681D01*
X15701Y85595D01*
X15580Y85474D01*
X15494Y85326D01*
X15450Y85161D01*
Y84989D01*
X15494Y84824D01*
X15580Y84676D01*
X15701Y84555D01*
X15824Y84484D01*
X15806Y84363D01*
X15804Y84359D01*
X9642Y84363D01*
X9608Y84488D01*
X9724Y84555D01*
X9845Y84676D01*
X9931Y84824D01*
X9975Y84989D01*
Y85161D01*
X9931Y85326D01*
X9845Y85474D01*
X9724Y85595D01*
X9576Y85681D01*
X9411Y85725D01*
X9239D01*
X9074Y85681D01*
X8926Y85595D01*
X8805Y85474D01*
X8719Y85326D01*
X8675Y85161D01*
Y84989D01*
X8719Y84824D01*
X8805Y84676D01*
X8926Y84555D01*
X9041Y84488D01*
X9007Y84363D01*
X5500Y84366D01*
X4679Y84367D01*
Y120743D01*
X4690Y120972D01*
X4780Y121426D01*
X4956Y121849D01*
X5213Y122233D01*
X5367Y122403D01*
X9347Y126383D01*
X9517Y126537D01*
X9901Y126794D01*
X10324Y126970D01*
X10778Y127060D01*
X11007Y127071D01*
X25699Y127071D01*
X25712Y127074D01*
X25726Y127073D01*
X25751Y127081D01*
X25777Y127087D01*
X25788Y127094D01*
X25801Y127098D01*
X25821Y127116D01*
X25843Y127131D01*
X25851Y127142D01*
X25861Y127151D01*
X25873Y127175D01*
X25887Y127197D01*
X25890Y127210D01*
X25896Y127222D01*
X25930Y127347D01*
X25930Y127361D01*
X25935Y127373D01*
X25933Y127400D01*
X25934Y127410D01*
X25936Y127429D01*
X25977Y127482D01*
X25991Y127495D01*
X26033Y127525D01*
X26033Y127525D01*
X26149D01*
X26333Y127601D01*
X26474Y127742D01*
X26608Y127738D01*
D02*
G37*
%LPC*%
G36*
X24650Y132800D02*
X24400D01*
X24158Y132735D01*
X23942Y132610D01*
X23850Y132518D01*
X23758Y132610D01*
X23542Y132735D01*
X23300Y132800D01*
X23050D01*
X22808Y132735D01*
X22592Y132610D01*
X22415Y132433D01*
X22290Y132217D01*
X22225Y131975D01*
Y131725D01*
X22290Y131483D01*
X22415Y131267D01*
X22592Y131090D01*
X22808Y130965D01*
X23050Y130900D01*
X23300D01*
X23542Y130965D01*
X23758Y131090D01*
X23850Y131182D01*
X23942Y131090D01*
X24158Y130965D01*
X24400Y130900D01*
X24650D01*
X24892Y130965D01*
X25108Y131090D01*
X25285Y131267D01*
X25410Y131483D01*
X25442Y131602D01*
X25572Y131602D01*
X25598Y131505D01*
X25690Y131345D01*
X25820Y131215D01*
X25980Y131123D01*
X26158Y131075D01*
X26342D01*
X26520Y131123D01*
X26680Y131215D01*
X26810Y131345D01*
X26818Y131358D01*
X26943D01*
X26965Y131320D01*
X27095Y131190D01*
X27255Y131098D01*
X27433Y131050D01*
X27617D01*
X27795Y131098D01*
X27955Y131190D01*
X28085Y131320D01*
X28171Y131469D01*
X28236Y131480D01*
X28239D01*
X28304Y131469D01*
X28390Y131320D01*
X28520Y131190D01*
X28680Y131098D01*
X28858Y131050D01*
X29042D01*
X29220Y131098D01*
X29375Y131187D01*
X29397Y131182D01*
X29500Y131133D01*
Y131058D01*
X29548Y130880D01*
X29640Y130720D01*
X29770Y130590D01*
X29930Y130498D01*
X30108Y130450D01*
X30292D01*
X30470Y130498D01*
X30630Y130590D01*
X30760Y130720D01*
X30852Y130880D01*
X30885Y131000D01*
X30942D01*
X31120Y131048D01*
X31280Y131140D01*
X31410Y131270D01*
X31502Y131430D01*
X31550Y131608D01*
Y131792D01*
X31502Y131970D01*
X31410Y132130D01*
X31280Y132260D01*
X31120Y132352D01*
X30942Y132400D01*
X30758D01*
X30580Y132352D01*
X30420Y132260D01*
X30290Y132130D01*
X30198Y131970D01*
X30166Y131850D01*
X30108D01*
X29930Y131802D01*
X29775Y131713D01*
X29753Y131718D01*
X29650Y131767D01*
Y131842D01*
X29602Y132020D01*
X29510Y132180D01*
X29380Y132310D01*
X29220Y132402D01*
X29042Y132450D01*
X28858D01*
X28680Y132402D01*
X28520Y132310D01*
X28390Y132180D01*
X28304Y132031D01*
X28239Y132020D01*
X28236D01*
X28171Y132031D01*
X28085Y132180D01*
X27955Y132310D01*
X27795Y132402D01*
X27617Y132450D01*
X27433D01*
X27255Y132402D01*
X27095Y132310D01*
X26965Y132180D01*
X26957Y132167D01*
X26832D01*
X26810Y132205D01*
X26680Y132335D01*
X26520Y132427D01*
X26342Y132475D01*
X26158D01*
X25980Y132427D01*
X25820Y132335D01*
X25690Y132205D01*
X25598Y132045D01*
X25592Y132023D01*
X25462D01*
X25410Y132217D01*
X25285Y132433D01*
X25108Y132610D01*
X24892Y132735D01*
X24650Y132800D01*
D02*
G37*
G36*
X21042Y133000D02*
X20858D01*
X20680Y132952D01*
X20520Y132860D01*
X20390Y132730D01*
X20298Y132570D01*
X20250Y132392D01*
Y132208D01*
X20298Y132030D01*
X20390Y131870D01*
X20520Y131740D01*
X20680Y131648D01*
X20858Y131600D01*
X21042D01*
X21220Y131648D01*
X21380Y131740D01*
X21510Y131870D01*
X21602Y132030D01*
X21650Y132208D01*
Y132392D01*
X21602Y132570D01*
X21510Y132730D01*
X21380Y132860D01*
X21220Y132952D01*
X21042Y133000D01*
D02*
G37*
G36*
X32642Y132725D02*
X32458D01*
X32280Y132677D01*
X32120Y132585D01*
X31990Y132455D01*
X31898Y132295D01*
X31850Y132117D01*
Y131933D01*
X31898Y131755D01*
X31990Y131595D01*
X32120Y131465D01*
X32280Y131373D01*
X32458Y131325D01*
X32642D01*
X32820Y131373D01*
X32980Y131465D01*
X33110Y131595D01*
X33202Y131755D01*
X33250Y131933D01*
Y132117D01*
X33202Y132295D01*
X33110Y132455D01*
X32980Y132585D01*
X32820Y132677D01*
X32642Y132725D01*
D02*
G37*
G36*
X54267Y132000D02*
X54083D01*
X53905Y131952D01*
X53745Y131860D01*
X53615Y131730D01*
X53523Y131570D01*
X53475Y131392D01*
Y131208D01*
X53523Y131030D01*
X53615Y130870D01*
X53745Y130740D01*
X53905Y130648D01*
X54083Y130600D01*
X54267D01*
X54445Y130648D01*
X54605Y130740D01*
X54735Y130870D01*
X54827Y131030D01*
X54875Y131208D01*
Y131392D01*
X54827Y131570D01*
X54735Y131730D01*
X54605Y131860D01*
X54445Y131952D01*
X54267Y132000D01*
D02*
G37*
G36*
X48617D02*
X48433D01*
X48255Y131952D01*
X48095Y131860D01*
X47965Y131730D01*
X47873Y131570D01*
X47825Y131392D01*
Y131208D01*
X47873Y131030D01*
X47965Y130870D01*
X48095Y130740D01*
X48255Y130648D01*
X48433Y130600D01*
X48617D01*
X48795Y130648D01*
X48955Y130740D01*
X49085Y130870D01*
X49177Y131030D01*
X49225Y131208D01*
Y131392D01*
X49177Y131570D01*
X49085Y131730D01*
X48955Y131860D01*
X48795Y131952D01*
X48617Y132000D01*
D02*
G37*
G36*
X42492Y131800D02*
X42308D01*
X42130Y131752D01*
X41970Y131660D01*
X41840Y131530D01*
X41748Y131370D01*
X41700Y131192D01*
Y131008D01*
X41748Y130830D01*
X41840Y130670D01*
X41970Y130540D01*
X42130Y130448D01*
X42308Y130400D01*
X42492D01*
X42670Y130448D01*
X42830Y130540D01*
X42960Y130670D01*
X43052Y130830D01*
X43100Y131008D01*
Y131192D01*
X43052Y131370D01*
X42960Y131530D01*
X42830Y131660D01*
X42670Y131752D01*
X42492Y131800D01*
D02*
G37*
G36*
X19940Y131400D02*
X19710D01*
X19487Y131340D01*
X19288Y131225D01*
X19125Y131062D01*
X19010Y130863D01*
X18950Y130640D01*
Y130410D01*
X19010Y130187D01*
X19125Y129988D01*
X19288Y129825D01*
X19487Y129710D01*
X19710Y129650D01*
X19940D01*
X20163Y129710D01*
X20362Y129825D01*
X20525Y129988D01*
X20640Y130187D01*
X20700Y130410D01*
Y130640D01*
X20640Y130863D01*
X20525Y131062D01*
X20362Y131225D01*
X20163Y131340D01*
X19940Y131400D01*
D02*
G37*
G36*
X10767Y130925D02*
X10583D01*
X10405Y130877D01*
X10245Y130785D01*
X10115Y130655D01*
X10023Y130495D01*
X9975Y130317D01*
Y130133D01*
X10023Y129955D01*
X10115Y129795D01*
X10245Y129665D01*
X10405Y129573D01*
X10583Y129525D01*
X10767D01*
X10945Y129573D01*
X11105Y129665D01*
X11235Y129795D01*
X11327Y129955D01*
X11375Y130133D01*
Y130317D01*
X11327Y130495D01*
X11235Y130655D01*
X11105Y130785D01*
X10945Y130877D01*
X10767Y130925D01*
D02*
G37*
G36*
X36967Y130675D02*
X36783D01*
X36605Y130627D01*
X36445Y130535D01*
X36315Y130405D01*
X36223Y130245D01*
X36175Y130067D01*
Y129883D01*
X36223Y129705D01*
X36315Y129545D01*
X36445Y129415D01*
X36605Y129323D01*
X36783Y129275D01*
X36967D01*
X37145Y129323D01*
X37305Y129415D01*
X37435Y129545D01*
X37527Y129705D01*
X37575Y129883D01*
Y130067D01*
X37527Y130245D01*
X37435Y130405D01*
X37305Y130535D01*
X37145Y130627D01*
X36967Y130675D01*
D02*
G37*
G36*
X55867Y130400D02*
X55683D01*
X55505Y130352D01*
X55345Y130260D01*
X55215Y130130D01*
X55123Y129970D01*
X55075Y129792D01*
Y129608D01*
X55123Y129430D01*
X55215Y129270D01*
X55345Y129140D01*
X55505Y129048D01*
X55683Y129000D01*
X55867D01*
X56045Y129048D01*
X56205Y129140D01*
X56335Y129270D01*
X56427Y129430D01*
X56475Y129608D01*
Y129792D01*
X56427Y129970D01*
X56335Y130130D01*
X56205Y130260D01*
X56045Y130352D01*
X55867Y130400D01*
D02*
G37*
G36*
X45417Y129450D02*
X45233D01*
X45055Y129402D01*
X44895Y129310D01*
X44765Y129180D01*
X44673Y129020D01*
X44625Y128842D01*
Y128658D01*
X44673Y128480D01*
X44765Y128320D01*
X44895Y128190D01*
X45055Y128098D01*
X45233Y128050D01*
X45417D01*
X45595Y128098D01*
X45755Y128190D01*
X45885Y128320D01*
X45977Y128480D01*
X46025Y128658D01*
Y128842D01*
X45977Y129020D01*
X45885Y129180D01*
X45755Y129310D01*
X45595Y129402D01*
X45417Y129450D01*
D02*
G37*
G36*
X33196Y129404D02*
X33012D01*
X32834Y129356D01*
X32674Y129264D01*
X32544Y129134D01*
X32451Y128974D01*
X32404Y128796D01*
Y128612D01*
X32451Y128434D01*
X32544Y128274D01*
X32674Y128144D01*
X32834Y128051D01*
X33012Y128004D01*
X33196D01*
X33374Y128051D01*
X33534Y128144D01*
X33664Y128274D01*
X33756Y128434D01*
X33804Y128612D01*
Y128796D01*
X33756Y128974D01*
X33664Y129134D01*
X33534Y129264D01*
X33374Y129356D01*
X33196Y129404D01*
D02*
G37*
G36*
X5017Y127975D02*
X4833D01*
X4655Y127927D01*
X4495Y127835D01*
X4365Y127705D01*
X4273Y127545D01*
X4225Y127367D01*
Y127183D01*
X4273Y127005D01*
X4365Y126845D01*
X4495Y126715D01*
X4655Y126623D01*
X4833Y126575D01*
X5017D01*
X5195Y126623D01*
X5355Y126715D01*
X5485Y126845D01*
X5577Y127005D01*
X5625Y127183D01*
Y127367D01*
X5577Y127545D01*
X5485Y127705D01*
X5355Y127835D01*
X5195Y127927D01*
X5017Y127975D01*
D02*
G37*
G36*
X2592Y121802D02*
X2408D01*
X2230Y121754D01*
X2070Y121662D01*
X1940Y121532D01*
X1848Y121372D01*
X1800Y121194D01*
Y121010D01*
X1848Y120832D01*
X1940Y120672D01*
X2070Y120542D01*
X2230Y120450D01*
X2408Y120402D01*
X2592D01*
X2770Y120450D01*
X2930Y120542D01*
X3060Y120672D01*
X3152Y120832D01*
X3200Y121010D01*
Y121194D01*
X3152Y121372D01*
X3060Y121532D01*
X2930Y121662D01*
X2770Y121754D01*
X2592Y121802D01*
D02*
G37*
G36*
X2592Y109350D02*
X2408D01*
X2230Y109302D01*
X2070Y109210D01*
X1940Y109080D01*
X1848Y108920D01*
X1800Y108742D01*
Y108558D01*
X1848Y108380D01*
X1940Y108220D01*
X2070Y108090D01*
X2230Y107998D01*
X2408Y107950D01*
X2592D01*
X2770Y107998D01*
X2930Y108090D01*
X3060Y108220D01*
X3152Y108380D01*
X3200Y108558D01*
Y108742D01*
X3152Y108920D01*
X3060Y109080D01*
X2930Y109210D01*
X2770Y109302D01*
X2592Y109350D01*
D02*
G37*
G36*
Y103074D02*
X2408D01*
X2230Y103026D01*
X2070Y102934D01*
X1940Y102804D01*
X1848Y102644D01*
X1800Y102466D01*
Y102282D01*
X1848Y102104D01*
X1940Y101944D01*
X2070Y101814D01*
X2230Y101722D01*
X2408Y101674D01*
X2592D01*
X2770Y101722D01*
X2930Y101814D01*
X3060Y101944D01*
X3152Y102104D01*
X3200Y102282D01*
Y102466D01*
X3152Y102644D01*
X3060Y102804D01*
X2930Y102934D01*
X2770Y103026D01*
X2592Y103074D01*
D02*
G37*
G36*
X2592Y90522D02*
X2408D01*
X2230Y90474D01*
X2070Y90382D01*
X1940Y90252D01*
X1848Y90092D01*
X1800Y89914D01*
Y89730D01*
X1848Y89552D01*
X1940Y89392D01*
X2070Y89262D01*
X2230Y89170D01*
X2408Y89122D01*
X2592D01*
X2770Y89170D01*
X2930Y89262D01*
X3060Y89392D01*
X3152Y89552D01*
X3200Y89730D01*
Y89914D01*
X3152Y90092D01*
X3060Y90252D01*
X2930Y90382D01*
X2770Y90474D01*
X2592Y90522D01*
D02*
G37*
G36*
Y84246D02*
X2408D01*
X2230Y84198D01*
X2070Y84106D01*
X1940Y83976D01*
X1848Y83816D01*
X1800Y83638D01*
Y83454D01*
X1848Y83276D01*
X1940Y83116D01*
X2070Y82986D01*
X2230Y82894D01*
X2408Y82846D01*
X2592D01*
X2770Y82894D01*
X2930Y82986D01*
X3060Y83116D01*
X3152Y83276D01*
X3200Y83454D01*
Y83638D01*
X3152Y83816D01*
X3060Y83976D01*
X2930Y84106D01*
X2770Y84198D01*
X2592Y84246D01*
D02*
G37*
G36*
Y77970D02*
X2408D01*
X2230Y77922D01*
X2070Y77830D01*
X1940Y77700D01*
X1848Y77540D01*
X1800Y77362D01*
Y77178D01*
X1848Y77000D01*
X1940Y76840D01*
X2070Y76710D01*
X2230Y76618D01*
X2408Y76570D01*
X2592D01*
X2770Y76618D01*
X2930Y76710D01*
X3060Y76840D01*
X3152Y77000D01*
X3200Y77178D01*
Y77362D01*
X3152Y77540D01*
X3060Y77700D01*
X2930Y77830D01*
X2770Y77922D01*
X2592Y77970D01*
D02*
G37*
G36*
Y71694D02*
X2408D01*
X2230Y71646D01*
X2070Y71554D01*
X1940Y71424D01*
X1848Y71264D01*
X1800Y71086D01*
Y70902D01*
X1848Y70724D01*
X1940Y70564D01*
X2070Y70434D01*
X2230Y70342D01*
X2408Y70294D01*
X2592D01*
X2770Y70342D01*
X2930Y70434D01*
X3060Y70564D01*
X3152Y70724D01*
X3200Y70902D01*
Y71086D01*
X3152Y71264D01*
X3060Y71424D01*
X2930Y71554D01*
X2770Y71646D01*
X2592Y71694D01*
D02*
G37*
G36*
X18992Y70602D02*
X18808D01*
X18630Y70554D01*
X18470Y70462D01*
X18340Y70332D01*
X18248Y70172D01*
X18200Y69994D01*
Y69810D01*
X18248Y69632D01*
X18340Y69472D01*
X18470Y69342D01*
X18630Y69250D01*
X18808Y69202D01*
X18992D01*
X19170Y69250D01*
X19330Y69342D01*
X19460Y69472D01*
X19552Y69632D01*
X19600Y69810D01*
Y69994D01*
X19552Y70172D01*
X19460Y70332D01*
X19330Y70462D01*
X19170Y70554D01*
X18992Y70602D01*
D02*
G37*
G36*
X16592D02*
X16408D01*
X16230Y70554D01*
X16070Y70462D01*
X15940Y70332D01*
X15848Y70172D01*
X15800Y69994D01*
Y69810D01*
X15848Y69632D01*
X15940Y69472D01*
X16070Y69342D01*
X16230Y69250D01*
X16408Y69202D01*
X16592D01*
X16770Y69250D01*
X16930Y69342D01*
X17060Y69472D01*
X17152Y69632D01*
X17200Y69810D01*
Y69994D01*
X17152Y70172D01*
X17060Y70332D01*
X16930Y70462D01*
X16770Y70554D01*
X16592Y70602D01*
D02*
G37*
G36*
X37092Y70300D02*
X36908D01*
X36730Y70252D01*
X36570Y70160D01*
X36440Y70030D01*
X36348Y69870D01*
X36300Y69692D01*
Y69508D01*
X36348Y69330D01*
X36440Y69170D01*
X36570Y69040D01*
X36730Y68948D01*
X36908Y68900D01*
X37092D01*
X37270Y68948D01*
X37430Y69040D01*
X37560Y69170D01*
X37652Y69330D01*
X37700Y69508D01*
Y69692D01*
X37652Y69870D01*
X37560Y70030D01*
X37430Y70160D01*
X37270Y70252D01*
X37092Y70300D01*
D02*
G37*
G36*
X34692D02*
X34508D01*
X34330Y70252D01*
X34170Y70160D01*
X34040Y70030D01*
X33948Y69870D01*
X33900Y69692D01*
Y69508D01*
X33948Y69330D01*
X34040Y69170D01*
X34170Y69040D01*
X34330Y68948D01*
X34508Y68900D01*
X34692D01*
X34870Y68948D01*
X35030Y69040D01*
X35160Y69170D01*
X35252Y69330D01*
X35300Y69508D01*
Y69692D01*
X35252Y69870D01*
X35160Y70030D01*
X35030Y70160D01*
X34870Y70252D01*
X34692Y70300D01*
D02*
G37*
G36*
X20292Y69002D02*
X20108D01*
X19930Y68954D01*
X19770Y68862D01*
X19640Y68732D01*
X19548Y68572D01*
X19500Y68394D01*
Y68210D01*
X19548Y68032D01*
X19640Y67872D01*
X19770Y67742D01*
X19930Y67650D01*
X20108Y67602D01*
X20292D01*
X20470Y67650D01*
X20630Y67742D01*
X20760Y67872D01*
X20852Y68032D01*
X20900Y68210D01*
Y68394D01*
X20852Y68572D01*
X20760Y68732D01*
X20630Y68862D01*
X20470Y68954D01*
X20292Y69002D01*
D02*
G37*
G36*
X17892D02*
X17708D01*
X17530Y68954D01*
X17370Y68862D01*
X17240Y68732D01*
X17148Y68572D01*
X17100Y68394D01*
Y68210D01*
X17148Y68032D01*
X17240Y67872D01*
X17370Y67742D01*
X17530Y67650D01*
X17708Y67602D01*
X17892D01*
X18070Y67650D01*
X18230Y67742D01*
X18360Y67872D01*
X18452Y68032D01*
X18500Y68210D01*
Y68394D01*
X18452Y68572D01*
X18360Y68732D01*
X18230Y68862D01*
X18070Y68954D01*
X17892Y69002D01*
D02*
G37*
G36*
X35792Y68700D02*
X35608D01*
X35430Y68652D01*
X35270Y68560D01*
X35140Y68430D01*
X35048Y68270D01*
X35000Y68092D01*
Y67908D01*
X35048Y67730D01*
X35140Y67570D01*
X35270Y67440D01*
X35430Y67348D01*
X35608Y67300D01*
X35792D01*
X35970Y67348D01*
X36130Y67440D01*
X36260Y67570D01*
X36352Y67730D01*
X36400Y67908D01*
Y68092D01*
X36352Y68270D01*
X36260Y68430D01*
X36130Y68560D01*
X35970Y68652D01*
X35792Y68700D01*
D02*
G37*
G36*
X21492Y67802D02*
X21308D01*
X21130Y67754D01*
X20970Y67662D01*
X20840Y67532D01*
X20748Y67372D01*
X20700Y67194D01*
Y67010D01*
X20748Y66832D01*
X20840Y66672D01*
X20970Y66542D01*
X21130Y66450D01*
X21308Y66402D01*
X21492D01*
X21670Y66450D01*
X21830Y66542D01*
X21960Y66672D01*
X22052Y66832D01*
X22100Y67010D01*
Y67194D01*
X22052Y67372D01*
X21960Y67532D01*
X21830Y67662D01*
X21670Y67754D01*
X21492Y67802D01*
D02*
G37*
G36*
X19092D02*
X18908D01*
X18730Y67754D01*
X18570Y67662D01*
X18440Y67532D01*
X18348Y67372D01*
X18300Y67194D01*
Y67010D01*
X18348Y66832D01*
X18440Y66672D01*
X18570Y66542D01*
X18730Y66450D01*
X18908Y66402D01*
X19092D01*
X19270Y66450D01*
X19430Y66542D01*
X19560Y66672D01*
X19652Y66832D01*
X19700Y67010D01*
Y67194D01*
X19652Y67372D01*
X19560Y67532D01*
X19430Y67662D01*
X19270Y67754D01*
X19092Y67802D01*
D02*
G37*
G36*
X36992Y67500D02*
X36808D01*
X36630Y67452D01*
X36470Y67360D01*
X36340Y67230D01*
X36248Y67070D01*
X36200Y66892D01*
Y66708D01*
X36248Y66530D01*
X36340Y66370D01*
X36470Y66240D01*
X36630Y66148D01*
X36808Y66100D01*
X36992D01*
X37170Y66148D01*
X37330Y66240D01*
X37460Y66370D01*
X37552Y66530D01*
X37600Y66708D01*
Y66892D01*
X37552Y67070D01*
X37460Y67230D01*
X37330Y67360D01*
X37170Y67452D01*
X36992Y67500D01*
D02*
G37*
G36*
X34592D02*
X34408D01*
X34230Y67452D01*
X34070Y67360D01*
X33940Y67230D01*
X33848Y67070D01*
X33800Y66892D01*
Y66708D01*
X33848Y66530D01*
X33940Y66370D01*
X34070Y66240D01*
X34230Y66148D01*
X34408Y66100D01*
X34592D01*
X34770Y66148D01*
X34930Y66240D01*
X35060Y66370D01*
X35152Y66530D01*
X35200Y66708D01*
Y66892D01*
X35152Y67070D01*
X35060Y67230D01*
X34930Y67360D01*
X34770Y67452D01*
X34592Y67500D01*
D02*
G37*
G36*
X20292Y66602D02*
X20108D01*
X19930Y66554D01*
X19770Y66462D01*
X19640Y66332D01*
X19548Y66172D01*
X19500Y65994D01*
Y65810D01*
X19548Y65632D01*
X19640Y65472D01*
X19770Y65342D01*
X19930Y65250D01*
X20108Y65202D01*
X20292D01*
X20470Y65250D01*
X20630Y65342D01*
X20760Y65472D01*
X20852Y65632D01*
X20900Y65810D01*
Y65994D01*
X20852Y66172D01*
X20760Y66332D01*
X20630Y66462D01*
X20470Y66554D01*
X20292Y66602D01*
D02*
G37*
G36*
X17892D02*
X17708D01*
X17530Y66554D01*
X17370Y66462D01*
X17240Y66332D01*
X17148Y66172D01*
X17100Y65994D01*
Y65810D01*
X17148Y65632D01*
X17240Y65472D01*
X17370Y65342D01*
X17530Y65250D01*
X17708Y65202D01*
X17892D01*
X18070Y65250D01*
X18230Y65342D01*
X18360Y65472D01*
X18452Y65632D01*
X18500Y65810D01*
Y65994D01*
X18452Y66172D01*
X18360Y66332D01*
X18230Y66462D01*
X18070Y66554D01*
X17892Y66602D01*
D02*
G37*
G36*
X2592Y65418D02*
X2408D01*
X2230Y65370D01*
X2070Y65278D01*
X1940Y65148D01*
X1848Y64988D01*
X1800Y64810D01*
Y64626D01*
X1848Y64448D01*
X1940Y64288D01*
X2070Y64158D01*
X2230Y64066D01*
X2408Y64018D01*
X2592D01*
X2770Y64066D01*
X2930Y64158D01*
X3060Y64288D01*
X3152Y64448D01*
X3200Y64626D01*
Y64810D01*
X3152Y64988D01*
X3060Y65148D01*
X2930Y65278D01*
X2770Y65370D01*
X2592Y65418D01*
D02*
G37*
G36*
X19925Y62920D02*
X19741D01*
X19562Y62872D01*
X19403Y62780D01*
X19273Y62650D01*
X19180Y62490D01*
X19133Y62312D01*
Y62128D01*
X19180Y61950D01*
X19273Y61790D01*
X19403Y61660D01*
X19562Y61567D01*
X19741Y61520D01*
X19925D01*
X20103Y61567D01*
X20263Y61660D01*
X20393Y61790D01*
X20485Y61950D01*
X20533Y62128D01*
Y62312D01*
X20485Y62490D01*
X20393Y62650D01*
X20263Y62780D01*
X20103Y62872D01*
X19925Y62920D01*
D02*
G37*
G36*
X8592Y63600D02*
X8408D01*
X8230Y63552D01*
X8070Y63460D01*
X7940Y63330D01*
X7848Y63170D01*
X7800Y62992D01*
Y62808D01*
X7848Y62630D01*
X7940Y62470D01*
X8070Y62340D01*
X8118Y62312D01*
Y62188D01*
X8070Y62160D01*
X7940Y62030D01*
X7848Y61870D01*
X7800Y61692D01*
Y61508D01*
X7848Y61330D01*
X7940Y61170D01*
X8070Y61040D01*
X8193Y60969D01*
X8200Y60945D01*
Y60855D01*
X8193Y60831D01*
X8070Y60760D01*
X7940Y60630D01*
X7848Y60470D01*
X7800Y60292D01*
Y60108D01*
X7848Y59930D01*
X7940Y59770D01*
X8070Y59640D01*
X8230Y59548D01*
X8408Y59500D01*
X8592D01*
X8770Y59548D01*
X8930Y59640D01*
X9060Y59770D01*
X9152Y59930D01*
X9200Y60108D01*
Y60292D01*
X9152Y60470D01*
X9060Y60630D01*
X8930Y60760D01*
X8807Y60831D01*
X8800Y60855D01*
Y60945D01*
X8807Y60969D01*
X8930Y61040D01*
X9060Y61170D01*
X9152Y61330D01*
X9200Y61508D01*
Y61692D01*
X9152Y61870D01*
X9060Y62030D01*
X8930Y62160D01*
X8882Y62188D01*
Y62312D01*
X8930Y62340D01*
X9060Y62470D01*
X9152Y62630D01*
X9200Y62808D01*
Y62992D01*
X9152Y63170D01*
X9060Y63330D01*
X8930Y63460D01*
X8770Y63552D01*
X8592Y63600D01*
D02*
G37*
G36*
X5867Y60350D02*
X5683D01*
X5505Y60302D01*
X5345Y60210D01*
X5215Y60080D01*
X5123Y59920D01*
X5075Y59742D01*
Y59558D01*
X5123Y59380D01*
X5215Y59220D01*
X5345Y59090D01*
X5505Y58998D01*
X5683Y58950D01*
X5867D01*
X6045Y58998D01*
X6205Y59090D01*
X6335Y59220D01*
X6427Y59380D01*
X6475Y59558D01*
Y59742D01*
X6427Y59920D01*
X6335Y60080D01*
X6205Y60210D01*
X6045Y60302D01*
X5867Y60350D01*
D02*
G37*
G36*
X12842Y59725D02*
X12658D01*
X12480Y59677D01*
X12320Y59585D01*
X12190Y59455D01*
X12098Y59295D01*
X12050Y59117D01*
Y59100D01*
X11883D01*
X11705Y59052D01*
X11545Y58960D01*
X11415Y58830D01*
X11404Y58811D01*
X11245Y58902D01*
X11067Y58950D01*
X10883D01*
X10705Y58902D01*
X10545Y58810D01*
X10415Y58680D01*
X10323Y58520D01*
X10275Y58342D01*
Y58158D01*
X10323Y57980D01*
X10415Y57820D01*
X10545Y57690D01*
X10705Y57598D01*
X10883Y57550D01*
X11067D01*
X11245Y57598D01*
X11405Y57690D01*
X11535Y57820D01*
X11546Y57839D01*
X11705Y57748D01*
X11883Y57700D01*
X12067D01*
X12245Y57748D01*
X12405Y57840D01*
X12535Y57970D01*
X12627Y58130D01*
X12675Y58308D01*
Y58325D01*
X12842D01*
X13020Y58373D01*
X13180Y58465D01*
X13310Y58595D01*
X13402Y58755D01*
X13450Y58933D01*
Y59117D01*
X13402Y59295D01*
X13310Y59455D01*
X13180Y59585D01*
X13020Y59677D01*
X12842Y59725D01*
D02*
G37*
G36*
X2592Y59142D02*
X2408D01*
X2230Y59094D01*
X2070Y59002D01*
X1940Y58872D01*
X1848Y58712D01*
X1800Y58534D01*
Y58350D01*
X1848Y58172D01*
X1940Y58012D01*
X2070Y57882D01*
X2230Y57790D01*
X2408Y57742D01*
X2592D01*
X2770Y57790D01*
X2930Y57882D01*
X3060Y58012D01*
X3152Y58172D01*
X3200Y58350D01*
Y58534D01*
X3152Y58712D01*
X3060Y58872D01*
X2930Y59002D01*
X2770Y59094D01*
X2592Y59142D01*
D02*
G37*
G36*
X8592Y58900D02*
X8408D01*
X8230Y58852D01*
X8070Y58760D01*
X7940Y58630D01*
X7848Y58470D01*
X7800Y58292D01*
Y58108D01*
X7848Y57930D01*
X7940Y57770D01*
X8070Y57640D01*
X8230Y57548D01*
X8408Y57500D01*
X8592D01*
X8770Y57548D01*
X8930Y57640D01*
X9060Y57770D01*
X9152Y57930D01*
X9200Y58108D01*
Y58292D01*
X9152Y58470D01*
X9060Y58630D01*
X8930Y58760D01*
X8770Y58852D01*
X8592Y58900D01*
D02*
G37*
G36*
X6068Y56699D02*
X5884D01*
X5706Y56651D01*
X5546Y56559D01*
X5416Y56429D01*
X5324Y56269D01*
X5276Y56091D01*
Y55975D01*
X5208D01*
X5030Y55927D01*
X4870Y55835D01*
X4740Y55705D01*
X4648Y55545D01*
X4600Y55367D01*
Y55183D01*
X4648Y55005D01*
X4740Y54845D01*
X4870Y54715D01*
X5030Y54623D01*
X5208Y54575D01*
X5392D01*
X5570Y54623D01*
X5730Y54715D01*
X5860Y54845D01*
X5952Y55005D01*
X6000Y55183D01*
Y55299D01*
X6068D01*
X6246Y55346D01*
X6406Y55439D01*
X6536Y55569D01*
X6629Y55729D01*
X6676Y55907D01*
Y56091D01*
X6629Y56269D01*
X6536Y56429D01*
X6406Y56559D01*
X6246Y56651D01*
X6068Y56699D01*
D02*
G37*
G36*
X8592Y55800D02*
X8408D01*
X8230Y55752D01*
X8070Y55660D01*
X7940Y55530D01*
X7848Y55370D01*
X7800Y55192D01*
Y55008D01*
X7848Y54830D01*
X7940Y54670D01*
X8070Y54540D01*
X8230Y54448D01*
X8408Y54400D01*
X8592D01*
X8770Y54448D01*
X8930Y54540D01*
X9060Y54670D01*
X9152Y54830D01*
X9200Y55008D01*
Y55192D01*
X9152Y55370D01*
X9060Y55530D01*
X8930Y55660D01*
X8770Y55752D01*
X8592Y55800D01*
D02*
G37*
G36*
X11867Y57425D02*
X11683D01*
X11505Y57377D01*
X11345Y57285D01*
X11215Y57155D01*
X11123Y56995D01*
X11075Y56817D01*
Y56633D01*
X11123Y56455D01*
X11189Y56341D01*
X11148Y56270D01*
X11100Y56092D01*
Y55908D01*
X11148Y55730D01*
X11240Y55570D01*
X11260Y55550D01*
X11259Y55514D01*
X11219Y55415D01*
X11080Y55377D01*
X10920Y55285D01*
X10790Y55155D01*
X10698Y54995D01*
X10650Y54817D01*
Y54633D01*
X10698Y54455D01*
X10750Y54365D01*
X10690Y54305D01*
X10598Y54145D01*
X10550Y53967D01*
Y53783D01*
X10598Y53605D01*
X10690Y53445D01*
X10820Y53315D01*
X10980Y53223D01*
X11158Y53175D01*
X11342D01*
X11520Y53223D01*
X11680Y53315D01*
X11689Y53325D01*
X11719Y53321D01*
X11811Y53185D01*
X11800Y53142D01*
Y52958D01*
X11848Y52780D01*
X11940Y52620D01*
X12070Y52490D01*
X12230Y52398D01*
X12408Y52350D01*
X12592D01*
X12770Y52398D01*
X12930Y52490D01*
X13060Y52620D01*
X13152Y52780D01*
X13200Y52958D01*
Y53142D01*
X13152Y53320D01*
X13060Y53480D01*
X12930Y53610D01*
X12770Y53702D01*
X12592Y53750D01*
X12408D01*
X12230Y53702D01*
X12070Y53610D01*
X12061Y53600D01*
X12031Y53604D01*
X11939Y53740D01*
X11950Y53783D01*
Y53967D01*
X11902Y54145D01*
X11850Y54235D01*
X11910Y54295D01*
X12002Y54455D01*
X12050Y54633D01*
Y54817D01*
X12002Y54995D01*
X11910Y55155D01*
X11890Y55175D01*
X11891Y55211D01*
X11931Y55310D01*
X12070Y55348D01*
X12230Y55440D01*
X12360Y55570D01*
X12452Y55730D01*
X12500Y55908D01*
Y56092D01*
X12452Y56270D01*
X12387Y56384D01*
X12427Y56455D01*
X12475Y56633D01*
Y56817D01*
X12427Y56995D01*
X12335Y57155D01*
X12205Y57285D01*
X12045Y57377D01*
X11867Y57425D01*
D02*
G37*
G36*
X13917Y52375D02*
X13733D01*
X13555Y52327D01*
X13395Y52235D01*
X13265Y52105D01*
X13173Y51945D01*
X13171Y51939D01*
X13026Y51881D01*
X12945Y51927D01*
X12767Y51975D01*
X12583D01*
X12405Y51927D01*
X12245Y51835D01*
X12115Y51705D01*
X12023Y51545D01*
X11975Y51367D01*
Y51183D01*
X12023Y51005D01*
X12115Y50845D01*
X12245Y50715D01*
X12405Y50623D01*
X12583Y50575D01*
X12767D01*
X12945Y50623D01*
X13105Y50715D01*
X13235Y50845D01*
X13327Y51005D01*
X13329Y51011D01*
X13474Y51069D01*
X13555Y51023D01*
X13733Y50975D01*
X13917D01*
X14095Y51023D01*
X14255Y51115D01*
X14385Y51245D01*
X14477Y51405D01*
X14525Y51583D01*
Y51767D01*
X14477Y51945D01*
X14385Y52105D01*
X14255Y52235D01*
X14095Y52327D01*
X13917Y52375D01*
D02*
G37*
G36*
X2592Y52866D02*
X2408D01*
X2230Y52818D01*
X2070Y52726D01*
X1940Y52596D01*
X1848Y52436D01*
X1800Y52258D01*
Y52074D01*
X1848Y51896D01*
X1940Y51736D01*
X2070Y51606D01*
X2230Y51514D01*
X2408Y51466D01*
X2592D01*
X2770Y51514D01*
X2930Y51606D01*
X3060Y51736D01*
X3152Y51896D01*
X3200Y52074D01*
Y52258D01*
X3152Y52436D01*
X3060Y52596D01*
X2930Y52726D01*
X2770Y52818D01*
X2592Y52866D01*
D02*
G37*
G36*
X11392Y50800D02*
X11208D01*
X11030Y50752D01*
X10870Y50660D01*
X10740Y50530D01*
X10648Y50370D01*
X10600Y50192D01*
Y50008D01*
X10648Y49830D01*
X10740Y49670D01*
X10870Y49540D01*
X11030Y49448D01*
X11208Y49400D01*
X11392D01*
X11570Y49448D01*
X11730Y49540D01*
X11860Y49670D01*
X11952Y49830D01*
X12000Y50008D01*
Y50192D01*
X11952Y50370D01*
X11860Y50530D01*
X11730Y50660D01*
X11570Y50752D01*
X11392Y50800D01*
D02*
G37*
G36*
X12992Y49700D02*
X12808D01*
X12630Y49652D01*
X12470Y49560D01*
X12340Y49430D01*
X12248Y49270D01*
X12200Y49092D01*
Y48908D01*
X12248Y48730D01*
X12340Y48570D01*
X12470Y48440D01*
X12630Y48348D01*
X12808Y48300D01*
X12992D01*
X13170Y48348D01*
X13330Y48440D01*
X13460Y48570D01*
X13552Y48730D01*
X13600Y48908D01*
Y49092D01*
X13552Y49270D01*
X13460Y49430D01*
X13330Y49560D01*
X13170Y49652D01*
X12992Y49700D01*
D02*
G37*
G36*
X11367Y48750D02*
X11183D01*
X11005Y48702D01*
X10845Y48610D01*
X10715Y48480D01*
X10623Y48320D01*
X10575Y48142D01*
Y47958D01*
X10623Y47780D01*
X10680Y47681D01*
X10623Y47583D01*
X10575Y47405D01*
Y47220D01*
X10623Y47042D01*
X10715Y46883D01*
X10845Y46752D01*
X11005Y46660D01*
X11183Y46613D01*
X11367D01*
X11545Y46660D01*
X11705Y46752D01*
X11835Y46883D01*
X11928Y47042D01*
X11975Y47220D01*
Y47405D01*
X11928Y47583D01*
X11871Y47681D01*
X11927Y47780D01*
X11975Y47958D01*
Y48142D01*
X11927Y48320D01*
X11835Y48480D01*
X11705Y48610D01*
X11545Y48702D01*
X11367Y48750D01*
D02*
G37*
G36*
X11142Y44725D02*
X10958D01*
X10780Y44677D01*
X10620Y44585D01*
X10490Y44455D01*
X10398Y44295D01*
X10350Y44117D01*
Y43933D01*
X10398Y43755D01*
X10490Y43595D01*
X10620Y43465D01*
X10780Y43373D01*
X10950Y43327D01*
Y43308D01*
X10998Y43130D01*
X11090Y42970D01*
X11220Y42840D01*
X11380Y42748D01*
X11558Y42700D01*
X11742D01*
X11920Y42748D01*
X12080Y42840D01*
X12210Y42970D01*
X12302Y43130D01*
X12350Y43308D01*
Y43492D01*
X12302Y43670D01*
X12210Y43830D01*
X12080Y43960D01*
X11920Y44052D01*
X11750Y44098D01*
Y44117D01*
X11702Y44295D01*
X11610Y44455D01*
X11480Y44585D01*
X11320Y44677D01*
X11142Y44725D01*
D02*
G37*
G36*
X8942Y43175D02*
X8758D01*
X8580Y43127D01*
X8420Y43035D01*
X8290Y42905D01*
X8198Y42745D01*
X8150Y42567D01*
Y42383D01*
X8198Y42205D01*
X8290Y42045D01*
X8420Y41915D01*
X8580Y41823D01*
X8758Y41775D01*
X8942D01*
X9120Y41823D01*
X9280Y41915D01*
X9410Y42045D01*
X9502Y42205D01*
X9550Y42383D01*
Y42567D01*
X9502Y42745D01*
X9410Y42905D01*
X9280Y43035D01*
X9120Y43127D01*
X8942Y43175D01*
D02*
G37*
G36*
X16596Y42457D02*
X16264D01*
X15943Y42371D01*
X15655Y42205D01*
X15420Y41970D01*
X15254Y41682D01*
X15168Y41361D01*
Y41029D01*
X15254Y40708D01*
X15420Y40420D01*
X15655Y40185D01*
X15943Y40019D01*
X16264Y39933D01*
X16596D01*
X16917Y40019D01*
X17205Y40185D01*
X17440Y40420D01*
X17606Y40708D01*
X17692Y41029D01*
Y41361D01*
X17606Y41682D01*
X17440Y41970D01*
X17205Y42205D01*
X16917Y42371D01*
X16596Y42457D01*
D02*
G37*
G36*
X11516D02*
X11184D01*
X10863Y42371D01*
X10575Y42205D01*
X10340Y41970D01*
X10174Y41682D01*
X10088Y41361D01*
Y41029D01*
X10174Y40708D01*
X10340Y40420D01*
X10575Y40185D01*
X10863Y40019D01*
X11184Y39933D01*
X11516D01*
X11837Y40019D01*
X12125Y40185D01*
X12360Y40420D01*
X12526Y40708D01*
X12612Y41029D01*
Y41361D01*
X12526Y41682D01*
X12360Y41970D01*
X12125Y42205D01*
X11837Y42371D01*
X11516Y42457D01*
D02*
G37*
G36*
X7192Y43475D02*
X7008D01*
X6830Y43427D01*
X6670Y43335D01*
X6540Y43205D01*
X6448Y43045D01*
X6400Y42867D01*
Y42683D01*
X6427Y42582D01*
X6339Y42458D01*
X6338Y42457D01*
X6104D01*
X5783Y42371D01*
X5495Y42205D01*
X5260Y41970D01*
X5094Y41682D01*
X5008Y41361D01*
Y41029D01*
X5094Y40708D01*
X5260Y40420D01*
X5495Y40185D01*
X5783Y40019D01*
X6104Y39933D01*
X6436D01*
X6757Y40019D01*
X7045Y40185D01*
X7280Y40420D01*
X7446Y40708D01*
X7532Y41029D01*
Y41361D01*
X7446Y41682D01*
X7280Y41970D01*
X7318Y42109D01*
X7370Y42123D01*
X7530Y42215D01*
X7660Y42345D01*
X7752Y42505D01*
X7800Y42683D01*
Y42867D01*
X7752Y43045D01*
X7660Y43205D01*
X7530Y43335D01*
X7370Y43427D01*
X7192Y43475D01*
D02*
G37*
G36*
X8267Y40100D02*
X8083D01*
X7905Y40052D01*
X7745Y39960D01*
X7615Y39830D01*
X7523Y39670D01*
X7475Y39492D01*
Y39308D01*
X7523Y39130D01*
X7615Y38970D01*
X7745Y38840D01*
X7905Y38748D01*
X8083Y38700D01*
X8267D01*
X8445Y38748D01*
X8605Y38840D01*
X8735Y38970D01*
X8827Y39130D01*
X8875Y39308D01*
Y39492D01*
X8827Y39670D01*
X8735Y39830D01*
X8605Y39960D01*
X8445Y40052D01*
X8267Y40100D01*
D02*
G37*
G36*
X9842Y39150D02*
X9658D01*
X9480Y39102D01*
X9320Y39010D01*
X9190Y38880D01*
X9098Y38720D01*
X9050Y38542D01*
Y38358D01*
X9098Y38180D01*
X9190Y38020D01*
X9320Y37890D01*
X9480Y37798D01*
X9658Y37750D01*
X9842D01*
X10020Y37798D01*
X10180Y37890D01*
X10310Y38020D01*
X10402Y38180D01*
X10450Y38358D01*
Y38542D01*
X10402Y38720D01*
X10310Y38880D01*
X10180Y39010D01*
X10020Y39102D01*
X9842Y39150D01*
D02*
G37*
G36*
X2042Y35600D02*
X1858D01*
X1680Y35552D01*
X1520Y35460D01*
X1390Y35330D01*
X1298Y35170D01*
X1250Y34992D01*
Y34808D01*
X1298Y34630D01*
X1390Y34470D01*
X1520Y34340D01*
X1680Y34248D01*
X1858Y34200D01*
X2042D01*
X2220Y34248D01*
X2380Y34340D01*
X2510Y34470D01*
X2602Y34630D01*
X2650Y34808D01*
Y34992D01*
X2602Y35170D01*
X2510Y35330D01*
X2380Y35460D01*
X2220Y35552D01*
X2042Y35600D01*
D02*
G37*
G36*
X2592Y34038D02*
X2408D01*
X2230Y33990D01*
X2070Y33898D01*
X1940Y33768D01*
X1848Y33608D01*
X1800Y33430D01*
Y33246D01*
X1848Y33068D01*
X1940Y32908D01*
X2070Y32778D01*
X2230Y32686D01*
X2408Y32638D01*
X2592D01*
X2770Y32686D01*
X2930Y32778D01*
X3060Y32908D01*
X3152Y33068D01*
X3200Y33246D01*
Y33430D01*
X3152Y33608D01*
X3060Y33768D01*
X2930Y33898D01*
X2770Y33990D01*
X2592Y34038D01*
D02*
G37*
G36*
X9325Y36150D02*
X8711D01*
X8105Y36054D01*
X7521Y35864D01*
X6974Y35586D01*
X6477Y35225D01*
X6043Y34791D01*
X5682Y34294D01*
X5404Y33747D01*
X5214Y33163D01*
X5118Y32557D01*
Y31943D01*
X5214Y31337D01*
X5404Y30753D01*
X5682Y30206D01*
X6043Y29709D01*
X6477Y29275D01*
X6974Y28914D01*
X7521Y28636D01*
X8105Y28446D01*
X8711Y28350D01*
X9325D01*
X9931Y28446D01*
X10515Y28636D01*
X11062Y28914D01*
X11559Y29275D01*
X11993Y29709D01*
X12354Y30206D01*
X12632Y30753D01*
X12822Y31337D01*
X12918Y31943D01*
Y32557D01*
X12822Y33163D01*
X12632Y33747D01*
X12354Y34294D01*
X11993Y34791D01*
X11559Y35225D01*
X11062Y35586D01*
X10515Y35864D01*
X9931Y36054D01*
X9325Y36150D01*
D02*
G37*
G36*
X2592Y27762D02*
X2408D01*
X2230Y27714D01*
X2070Y27622D01*
X1940Y27492D01*
X1848Y27332D01*
X1800Y27154D01*
Y26970D01*
X1848Y26792D01*
X1940Y26632D01*
X2070Y26502D01*
X2230Y26410D01*
X2408Y26362D01*
X2592D01*
X2770Y26410D01*
X2930Y26502D01*
X3060Y26632D01*
X3152Y26792D01*
X3200Y26970D01*
Y27154D01*
X3152Y27332D01*
X3060Y27492D01*
X2930Y27622D01*
X2770Y27714D01*
X2592Y27762D01*
D02*
G37*
G36*
X17667Y26900D02*
X17483D01*
X17305Y26852D01*
X17145Y26760D01*
X17015Y26630D01*
X16923Y26470D01*
X16875Y26292D01*
Y26108D01*
X16923Y25930D01*
X17015Y25770D01*
X17145Y25640D01*
X17305Y25548D01*
X17483Y25500D01*
X17667D01*
X17845Y25548D01*
X18005Y25640D01*
X18135Y25770D01*
X18227Y25930D01*
X18275Y26108D01*
Y26292D01*
X18227Y26470D01*
X18135Y26630D01*
X18005Y26760D01*
X17845Y26852D01*
X17667Y26900D01*
D02*
G37*
G36*
X24392Y24802D02*
X24208D01*
X24030Y24754D01*
X23870Y24662D01*
X23740Y24532D01*
X23648Y24372D01*
X23600Y24194D01*
Y24010D01*
X23648Y23832D01*
X23740Y23672D01*
X23870Y23542D01*
X24030Y23450D01*
X24208Y23402D01*
X24392D01*
X24570Y23450D01*
X24730Y23542D01*
X24860Y23672D01*
X24952Y23832D01*
X25000Y24010D01*
Y24194D01*
X24952Y24372D01*
X24860Y24532D01*
X24730Y24662D01*
X24570Y24754D01*
X24392Y24802D01*
D02*
G37*
G36*
X9890Y25185D02*
Y25185D01*
X7770D01*
Y23065D01*
X9890D01*
Y23065D01*
X9908Y23079D01*
X9960Y23065D01*
X10240D01*
X10509Y23137D01*
X10751Y23277D01*
X10948Y23474D01*
X11088Y23716D01*
X11160Y23985D01*
Y24265D01*
X11088Y24534D01*
X10948Y24776D01*
X10751Y24973D01*
X10509Y25113D01*
X10240Y25185D01*
X9960D01*
X9908Y25171D01*
X9890Y25185D01*
D02*
G37*
G36*
X25592Y23602D02*
X25408D01*
X25230Y23554D01*
X25070Y23462D01*
X24940Y23332D01*
X24848Y23172D01*
X24800Y22994D01*
Y22810D01*
X24848Y22632D01*
X24940Y22472D01*
X25070Y22342D01*
X25230Y22250D01*
X25408Y22202D01*
X25592D01*
X25770Y22250D01*
X25930Y22342D01*
X26060Y22472D01*
X26152Y22632D01*
X26200Y22810D01*
Y22994D01*
X26152Y23172D01*
X26060Y23332D01*
X25930Y23462D01*
X25770Y23554D01*
X25592Y23602D01*
D02*
G37*
G36*
X23192D02*
X23008D01*
X22830Y23554D01*
X22670Y23462D01*
X22540Y23332D01*
X22448Y23172D01*
X22400Y22994D01*
Y22810D01*
X22448Y22632D01*
X22540Y22472D01*
X22670Y22342D01*
X22830Y22250D01*
X23008Y22202D01*
X23192D01*
X23370Y22250D01*
X23530Y22342D01*
X23660Y22472D01*
X23752Y22632D01*
X23800Y22810D01*
Y22994D01*
X23752Y23172D01*
X23660Y23332D01*
X23530Y23462D01*
X23370Y23554D01*
X23192Y23602D01*
D02*
G37*
G36*
X39330Y23633D02*
X39082Y23601D01*
X38851Y23505D01*
X38652Y23353D01*
X38500Y23154D01*
X38404Y22923D01*
X38372Y22675D01*
Y22425D01*
X38404Y22177D01*
X38500Y21946D01*
X38652Y21747D01*
X38851Y21595D01*
X39082Y21499D01*
X39330Y21467D01*
X39578Y21499D01*
X39809Y21595D01*
X40008Y21747D01*
X40160Y21946D01*
X40256Y22177D01*
X40288Y22425D01*
Y22675D01*
X40256Y22923D01*
X40160Y23154D01*
X40008Y23353D01*
X39809Y23505D01*
X39578Y23601D01*
X39330Y23633D01*
D02*
G37*
G36*
X29655D02*
X29407Y23601D01*
X29176Y23505D01*
X28977Y23353D01*
X28825Y23154D01*
X28729Y22923D01*
X28697Y22675D01*
Y22425D01*
X28729Y22177D01*
X28825Y21946D01*
X28977Y21747D01*
X29176Y21595D01*
X29407Y21499D01*
X29655Y21467D01*
X29903Y21499D01*
X30134Y21595D01*
X30333Y21747D01*
X30485Y21946D01*
X30581Y22177D01*
X30613Y22425D01*
Y22675D01*
X30581Y22923D01*
X30485Y23154D01*
X30333Y23353D01*
X30134Y23505D01*
X29903Y23601D01*
X29655Y23633D01*
D02*
G37*
G36*
X20425Y22950D02*
X20175D01*
X19933Y22885D01*
X19717Y22760D01*
X19540Y22583D01*
X19415Y22367D01*
X19350Y22125D01*
Y21875D01*
X19415Y21633D01*
X19540Y21417D01*
X19717Y21240D01*
X19933Y21115D01*
X20175Y21050D01*
X20425D01*
X20667Y21115D01*
X20883Y21240D01*
X21060Y21417D01*
X21185Y21633D01*
X21250Y21875D01*
Y22125D01*
X21185Y22367D01*
X21060Y22583D01*
X20883Y22760D01*
X20667Y22885D01*
X20425Y22950D01*
D02*
G37*
G36*
X41480Y23109D02*
X41219Y23074D01*
X40976Y22973D01*
X40767Y22813D01*
X40607Y22604D01*
X40506Y22361D01*
X40471Y22100D01*
Y21700D01*
X40506Y21439D01*
X40607Y21196D01*
X40767Y20987D01*
X40976Y20827D01*
X41219Y20726D01*
X41480Y20691D01*
X41741Y20726D01*
X41984Y20827D01*
X42193Y20987D01*
X42354Y21196D01*
X42454Y21439D01*
X42489Y21700D01*
Y22100D01*
X42454Y22361D01*
X42354Y22604D01*
X42193Y22813D01*
X41984Y22973D01*
X41741Y23074D01*
X41480Y23109D01*
D02*
G37*
G36*
X37180D02*
X36919Y23074D01*
X36676Y22973D01*
X36467Y22813D01*
X36307Y22604D01*
X36206Y22361D01*
X36171Y22100D01*
Y21700D01*
X36206Y21439D01*
X36307Y21196D01*
X36467Y20987D01*
X36676Y20827D01*
X36919Y20726D01*
X37180Y20691D01*
X37441Y20726D01*
X37684Y20827D01*
X37893Y20987D01*
X38054Y21196D01*
X38154Y21439D01*
X38189Y21700D01*
Y22100D01*
X38154Y22361D01*
X38054Y22604D01*
X37893Y22813D01*
X37684Y22973D01*
X37441Y23074D01*
X37180Y23109D01*
D02*
G37*
G36*
X31805D02*
X31544Y23074D01*
X31301Y22973D01*
X31092Y22813D01*
X30932Y22604D01*
X30831Y22361D01*
X30796Y22100D01*
Y21700D01*
X30831Y21439D01*
X30932Y21196D01*
X31092Y20987D01*
X31301Y20827D01*
X31544Y20726D01*
X31805Y20691D01*
X32066Y20726D01*
X32309Y20827D01*
X32518Y20987D01*
X32679Y21196D01*
X32779Y21439D01*
X32814Y21700D01*
Y22100D01*
X32779Y22361D01*
X32679Y22604D01*
X32518Y22813D01*
X32309Y22973D01*
X32066Y23074D01*
X31805Y23109D01*
D02*
G37*
G36*
X27505D02*
X27244Y23074D01*
X27001Y22973D01*
X26792Y22813D01*
X26632Y22604D01*
X26531Y22361D01*
X26496Y22100D01*
Y21700D01*
X26531Y21439D01*
X26632Y21196D01*
X26792Y20987D01*
X27001Y20827D01*
X27244Y20726D01*
X27505Y20691D01*
X27766Y20726D01*
X28009Y20827D01*
X28218Y20987D01*
X28379Y21196D01*
X28479Y21439D01*
X28514Y21700D01*
Y22100D01*
X28479Y22361D01*
X28379Y22604D01*
X28218Y22813D01*
X28009Y22973D01*
X27766Y23074D01*
X27505Y23109D01*
D02*
G37*
G36*
X9915Y22635D02*
Y22635D01*
X7795D01*
Y20515D01*
X9915D01*
Y20515D01*
X9933Y20529D01*
X9985Y20515D01*
X10265D01*
X10534Y20587D01*
X10776Y20727D01*
X10973Y20924D01*
X11113Y21166D01*
X11185Y21435D01*
Y21715D01*
X11113Y21984D01*
X10973Y22226D01*
X10776Y22423D01*
X10534Y22563D01*
X10265Y22635D01*
X9985D01*
X9933Y22621D01*
X9915Y22635D01*
D02*
G37*
G36*
X2592Y21486D02*
X2408D01*
X2230Y21438D01*
X2070Y21346D01*
X1940Y21216D01*
X1848Y21056D01*
X1800Y20878D01*
Y20694D01*
X1848Y20516D01*
X1940Y20356D01*
X2070Y20226D01*
X2230Y20134D01*
X2408Y20086D01*
X2592D01*
X2770Y20134D01*
X2930Y20226D01*
X3060Y20356D01*
X3152Y20516D01*
X3200Y20694D01*
Y20878D01*
X3152Y21056D01*
X3060Y21216D01*
X2930Y21346D01*
X2770Y21438D01*
X2592Y21486D01*
D02*
G37*
G36*
X43667Y22250D02*
X43483D01*
X43305Y22202D01*
X43145Y22110D01*
X43015Y21980D01*
X42923Y21820D01*
X42875Y21642D01*
Y21458D01*
X42923Y21280D01*
X43012Y21125D01*
X42923Y20970D01*
X42875Y20792D01*
Y20608D01*
X42923Y20430D01*
X43015Y20270D01*
X43145Y20140D01*
X43305Y20048D01*
X43483Y20000D01*
X43667D01*
X43845Y20048D01*
X44005Y20140D01*
X44135Y20270D01*
X44227Y20430D01*
X44275Y20608D01*
Y20686D01*
X44331Y20796D01*
X44393Y20800D01*
X44517D01*
X44695Y20848D01*
X44855Y20940D01*
X44985Y21070D01*
X45077Y21230D01*
X45125Y21408D01*
Y21592D01*
X45077Y21770D01*
X44985Y21930D01*
X44855Y22060D01*
X44695Y22152D01*
X44517Y22200D01*
X44333D01*
X44155Y22152D01*
X44033Y22082D01*
X44005Y22110D01*
X43845Y22202D01*
X43667Y22250D01*
D02*
G37*
G36*
X50192Y21125D02*
X50008D01*
X49830Y21077D01*
X49670Y20985D01*
X49540Y20855D01*
X49448Y20695D01*
X49400Y20517D01*
Y20333D01*
X49448Y20155D01*
X49540Y19995D01*
X49670Y19865D01*
X49830Y19773D01*
X50008Y19725D01*
X50192D01*
X50370Y19773D01*
X50530Y19865D01*
X50660Y19995D01*
X50752Y20155D01*
X50800Y20333D01*
Y20517D01*
X50752Y20695D01*
X50660Y20855D01*
X50530Y20985D01*
X50370Y21077D01*
X50192Y21125D01*
D02*
G37*
G36*
X18055Y21075D02*
X17870D01*
X17692Y21027D01*
X17533Y20935D01*
X17402Y20805D01*
X17310Y20645D01*
X17263Y20467D01*
Y20283D01*
X17310Y20105D01*
X17402Y19945D01*
X17533Y19815D01*
X17692Y19723D01*
X17870Y19675D01*
X18055D01*
X18233Y19723D01*
X18392Y19815D01*
X18523Y19945D01*
X18615Y20105D01*
X18663Y20283D01*
Y20467D01*
X18615Y20645D01*
X18523Y20805D01*
X18392Y20935D01*
X18233Y21027D01*
X18055Y21075D01*
D02*
G37*
G36*
X35242Y22400D02*
X35058D01*
X34880Y22352D01*
X34720Y22260D01*
X34590Y22130D01*
X34498Y21970D01*
X34472Y21875D01*
X34458D01*
X34280Y21827D01*
X34120Y21735D01*
X33990Y21605D01*
X33898Y21445D01*
X33850Y21267D01*
Y21083D01*
X33898Y20905D01*
X33987Y20750D01*
X33898Y20595D01*
X33850Y20417D01*
Y20233D01*
X33898Y20055D01*
X33990Y19895D01*
X34120Y19765D01*
X34280Y19673D01*
X34458Y19625D01*
X34642D01*
X34820Y19673D01*
X34980Y19765D01*
X35110Y19895D01*
X35202Y20055D01*
X35250Y20233D01*
Y20417D01*
X35202Y20595D01*
X35113Y20750D01*
X35202Y20905D01*
X35228Y21000D01*
X35242D01*
X35420Y21048D01*
X35580Y21140D01*
X35710Y21270D01*
X35802Y21430D01*
X35850Y21608D01*
Y21792D01*
X35802Y21970D01*
X35710Y22130D01*
X35580Y22260D01*
X35420Y22352D01*
X35242Y22400D01*
D02*
G37*
G36*
X45035Y19700D02*
X44850D01*
X44672Y19652D01*
X44513Y19560D01*
X44382Y19430D01*
X44290Y19270D01*
X44243Y19092D01*
Y18908D01*
X44290Y18730D01*
X44382Y18570D01*
X44513Y18440D01*
X44672Y18348D01*
X44850Y18300D01*
X45035D01*
X45213Y18348D01*
X45372Y18440D01*
X45503Y18570D01*
X45595Y18730D01*
X45643Y18908D01*
Y19092D01*
X45595Y19270D01*
X45503Y19430D01*
X45372Y19560D01*
X45213Y19652D01*
X45035Y19700D01*
D02*
G37*
G36*
X34442Y19500D02*
X34258D01*
X34080Y19452D01*
X33920Y19360D01*
X33790Y19230D01*
X33698Y19070D01*
X33650Y18892D01*
Y18708D01*
X33698Y18530D01*
X33790Y18370D01*
X33920Y18240D01*
X34080Y18148D01*
X34258Y18100D01*
X34442D01*
X34620Y18148D01*
X34780Y18240D01*
X34910Y18370D01*
X35002Y18530D01*
X35050Y18708D01*
Y18892D01*
X35002Y19070D01*
X34910Y19230D01*
X34780Y19360D01*
X34620Y19452D01*
X34442Y19500D01*
D02*
G37*
G36*
X27492Y19875D02*
X27308D01*
X27130Y19827D01*
X26970Y19735D01*
X26840Y19605D01*
X26748Y19445D01*
X26700Y19267D01*
Y19083D01*
X26748Y18905D01*
X26801Y18813D01*
X26748Y18720D01*
X26700Y18542D01*
Y18358D01*
X26748Y18180D01*
X26840Y18020D01*
X26970Y17890D01*
X27130Y17798D01*
X27308Y17750D01*
X27492D01*
X27670Y17798D01*
X27830Y17890D01*
X27960Y18020D01*
X28052Y18180D01*
X28100Y18358D01*
Y18542D01*
X28052Y18720D01*
X27999Y18813D01*
X28052Y18905D01*
X28100Y19083D01*
Y19267D01*
X28052Y19445D01*
X27960Y19605D01*
X27830Y19735D01*
X27670Y19827D01*
X27492Y19875D01*
D02*
G37*
G36*
X37617Y19863D02*
X37433D01*
X37255Y19815D01*
X37095Y19723D01*
X36965Y19592D01*
X36873Y19433D01*
X36825Y19255D01*
Y19070D01*
X36873Y18892D01*
X36926Y18800D01*
X36873Y18708D01*
X36825Y18530D01*
Y18345D01*
X36873Y18167D01*
X36965Y18008D01*
X37095Y17877D01*
X37255Y17785D01*
X37433Y17738D01*
X37617D01*
X37795Y17785D01*
X37955Y17877D01*
X38085Y18008D01*
X38177Y18167D01*
X38225Y18345D01*
Y18530D01*
X38177Y18708D01*
X38124Y18800D01*
X38177Y18892D01*
X38225Y19070D01*
Y19255D01*
X38177Y19433D01*
X38085Y19592D01*
X37955Y19723D01*
X37795Y19815D01*
X37617Y19863D01*
D02*
G37*
G36*
X41267D02*
X41083D01*
X40905Y19815D01*
X40745Y19723D01*
X40615Y19592D01*
X40523Y19433D01*
X40475Y19255D01*
Y19070D01*
X40523Y18892D01*
X40575Y18801D01*
X40520Y18705D01*
X40472Y18527D01*
Y18342D01*
X40520Y18164D01*
X40612Y18005D01*
X40742Y17874D01*
X40902Y17782D01*
X41080Y17734D01*
X41264D01*
X41442Y17782D01*
X41602Y17874D01*
X41732Y18005D01*
X41824Y18164D01*
X41872Y18342D01*
Y18527D01*
X41824Y18705D01*
X41772Y18796D01*
X41827Y18892D01*
X41875Y19070D01*
Y19255D01*
X41827Y19433D01*
X41735Y19592D01*
X41605Y19723D01*
X41445Y19815D01*
X41267Y19863D01*
D02*
G37*
G36*
X31792Y19850D02*
X31608D01*
X31430Y19802D01*
X31270Y19710D01*
X31140Y19580D01*
X31048Y19420D01*
X31000Y19242D01*
Y19058D01*
X31048Y18880D01*
X31101Y18788D01*
X31048Y18695D01*
X31000Y18517D01*
Y18333D01*
X31048Y18155D01*
X31140Y17995D01*
X31270Y17865D01*
X31430Y17773D01*
X31569Y17735D01*
X31598Y17630D01*
X31690Y17470D01*
X31820Y17340D01*
X31980Y17248D01*
X32158Y17200D01*
X32342D01*
X32520Y17248D01*
X32680Y17340D01*
X32810Y17470D01*
X32902Y17630D01*
X32950Y17808D01*
Y17992D01*
X32902Y18170D01*
X32810Y18330D01*
X32680Y18460D01*
X32520Y18552D01*
X32381Y18590D01*
X32352Y18695D01*
X32299Y18788D01*
X32352Y18880D01*
X32400Y19058D01*
Y19242D01*
X32352Y19420D01*
X32260Y19580D01*
X32130Y19710D01*
X31970Y19802D01*
X31792Y19850D01*
D02*
G37*
G36*
X24992Y18300D02*
X24808D01*
X24630Y18252D01*
X24470Y18160D01*
X24340Y18030D01*
X24248Y17870D01*
X24200Y17692D01*
Y17508D01*
X24248Y17330D01*
X24340Y17170D01*
X24470Y17040D01*
X24630Y16948D01*
X24808Y16900D01*
X24992D01*
X25170Y16948D01*
X25330Y17040D01*
X25460Y17170D01*
X25552Y17330D01*
X25600Y17508D01*
Y17692D01*
X25552Y17870D01*
X25460Y18030D01*
X25330Y18160D01*
X25170Y18252D01*
X24992Y18300D01*
D02*
G37*
G36*
X18055Y18225D02*
X17870D01*
X17692Y18177D01*
X17533Y18085D01*
X17402Y17955D01*
X17310Y17795D01*
X17263Y17617D01*
Y17433D01*
X17310Y17255D01*
X17402Y17095D01*
X17533Y16965D01*
X17692Y16873D01*
X17870Y16825D01*
X18055D01*
X18233Y16873D01*
X18392Y16965D01*
X18523Y17095D01*
X18615Y17255D01*
X18663Y17433D01*
Y17617D01*
X18615Y17795D01*
X18523Y17955D01*
X18392Y18085D01*
X18233Y18177D01*
X18055Y18225D01*
D02*
G37*
G36*
X14525Y17400D02*
X14275D01*
X14033Y17335D01*
X13817Y17210D01*
X13640Y17033D01*
X13515Y16817D01*
X13486Y16708D01*
X13356D01*
X13327Y16817D01*
X13202Y17033D01*
X13025Y17210D01*
X12808Y17335D01*
X12567Y17400D01*
X12317D01*
X12075Y17335D01*
X11858Y17210D01*
X11681Y17033D01*
X11556Y16817D01*
X11527Y16708D01*
X11398D01*
X11369Y16817D01*
X11244Y17033D01*
X11067Y17210D01*
X10850Y17335D01*
X10608Y17400D01*
X10358D01*
X10117Y17335D01*
X9900Y17210D01*
X9723Y17033D01*
X9598Y16817D01*
X9569Y16708D01*
X9439D01*
X9410Y16817D01*
X9285Y17033D01*
X9108Y17210D01*
X8892Y17335D01*
X8650Y17400D01*
X8400D01*
X8158Y17335D01*
X7942Y17210D01*
X7765Y17033D01*
X7640Y16817D01*
X7575Y16575D01*
Y16325D01*
X7640Y16083D01*
X7765Y15867D01*
X7942Y15690D01*
X8037Y15635D01*
Y15490D01*
X7942Y15435D01*
X7765Y15258D01*
X7640Y15042D01*
X7575Y14800D01*
Y14550D01*
X7640Y14308D01*
X7765Y14092D01*
X7942Y13915D01*
X8158Y13790D01*
X8400Y13725D01*
X8650D01*
X8892Y13790D01*
X9108Y13915D01*
X9285Y14092D01*
X9410Y14308D01*
X9439Y14417D01*
X9569D01*
X9598Y14308D01*
X9723Y14092D01*
X9900Y13915D01*
X10117Y13790D01*
X10358Y13725D01*
X10608D01*
X10850Y13790D01*
X11067Y13915D01*
X11244Y14092D01*
X11369Y14308D01*
X11398Y14417D01*
X11527D01*
X11556Y14308D01*
X11681Y14092D01*
X11858Y13915D01*
X12075Y13790D01*
X12317Y13725D01*
X12567D01*
X12808Y13790D01*
X13025Y13915D01*
X13202Y14092D01*
X13327Y14308D01*
X13356Y14417D01*
X13486D01*
X13515Y14308D01*
X13640Y14092D01*
X13817Y13915D01*
X14004Y13807D01*
X14016Y13755D01*
Y13720D01*
X14004Y13668D01*
X13817Y13560D01*
X13640Y13383D01*
X13515Y13167D01*
X13450Y12925D01*
Y12675D01*
X13515Y12433D01*
X13640Y12217D01*
X13817Y12040D01*
X14033Y11915D01*
X14275Y11850D01*
X14525D01*
X14767Y11915D01*
X14983Y12040D01*
X15160Y12217D01*
X15285Y12433D01*
X15350Y12675D01*
Y12925D01*
X15285Y13167D01*
X15160Y13383D01*
X14983Y13560D01*
X14796Y13668D01*
X14784Y13720D01*
Y13755D01*
X14796Y13807D01*
X14983Y13915D01*
X15160Y14092D01*
X15285Y14308D01*
X15350Y14550D01*
Y14800D01*
X15285Y15042D01*
X15160Y15258D01*
X14983Y15435D01*
X14888Y15490D01*
Y15635D01*
X14983Y15690D01*
X15160Y15867D01*
X15285Y16083D01*
X15350Y16325D01*
Y16575D01*
X15285Y16817D01*
X15160Y17033D01*
X14983Y17210D01*
X14767Y17335D01*
X14525Y17400D01*
D02*
G37*
G36*
X43317Y18000D02*
X43133D01*
X42955Y17952D01*
X42795Y17860D01*
X42665Y17730D01*
X42573Y17570D01*
X42525Y17392D01*
Y17208D01*
X42573Y17030D01*
X42665Y16870D01*
X42682Y16853D01*
X42606Y16720D01*
X42558Y16542D01*
Y16358D01*
X42606Y16180D01*
X42698Y16020D01*
X42828Y15890D01*
X42988Y15798D01*
X43166Y15750D01*
X43350D01*
X43528Y15798D01*
X43688Y15890D01*
X43818Y16020D01*
X43910Y16180D01*
X43958Y16358D01*
Y16434D01*
X44006Y16545D01*
X44075Y16550D01*
X44192D01*
X44370Y16598D01*
X44530Y16690D01*
X44660Y16820D01*
X44752Y16980D01*
X44800Y17158D01*
Y17342D01*
X44752Y17520D01*
X44660Y17680D01*
X44530Y17810D01*
X44370Y17902D01*
X44192Y17950D01*
X44008D01*
X43830Y17902D01*
X43692Y17823D01*
X43655Y17860D01*
X43495Y17952D01*
X43317Y18000D01*
D02*
G37*
G36*
X52092Y17075D02*
X51908D01*
X51730Y17027D01*
X51570Y16935D01*
X51440Y16805D01*
X51348Y16645D01*
X51300Y16467D01*
Y16283D01*
X51348Y16105D01*
X51440Y15945D01*
X51570Y15815D01*
X51730Y15723D01*
X51908Y15675D01*
X52092D01*
X52270Y15723D01*
X52430Y15815D01*
X52560Y15945D01*
X52652Y16105D01*
X52700Y16283D01*
Y16467D01*
X52652Y16645D01*
X52560Y16805D01*
X52430Y16935D01*
X52270Y17027D01*
X52092Y17075D01*
D02*
G37*
G36*
X20425Y16850D02*
X20175D01*
X19933Y16785D01*
X19717Y16660D01*
X19540Y16483D01*
X19415Y16267D01*
X19350Y16025D01*
Y15775D01*
X19415Y15533D01*
X19540Y15317D01*
X19717Y15140D01*
X19933Y15015D01*
X20175Y14950D01*
X20425D01*
X20667Y15015D01*
X20883Y15140D01*
X21060Y15317D01*
X21185Y15533D01*
X21250Y15775D01*
Y16025D01*
X21185Y16267D01*
X21060Y16483D01*
X20883Y16660D01*
X20667Y16785D01*
X20425Y16850D01*
D02*
G37*
G36*
X41480Y16909D02*
X41219Y16874D01*
X40976Y16774D01*
X40767Y16613D01*
X40607Y16404D01*
X40506Y16161D01*
X40471Y15900D01*
Y15500D01*
X40506Y15239D01*
X40607Y14996D01*
X40767Y14787D01*
X40976Y14627D01*
X41219Y14526D01*
X41480Y14491D01*
X41741Y14526D01*
X41984Y14627D01*
X42193Y14787D01*
X42354Y14996D01*
X42454Y15239D01*
X42489Y15500D01*
Y15900D01*
X42454Y16161D01*
X42354Y16404D01*
X42193Y16613D01*
X41984Y16774D01*
X41741Y16874D01*
X41480Y16909D01*
D02*
G37*
G36*
X36216Y17950D02*
X36032D01*
X35854Y17902D01*
X35695Y17810D01*
X35564Y17679D01*
X35472Y17520D01*
X35424Y17342D01*
Y17157D01*
X35472Y16979D01*
X35513Y16908D01*
X35448Y16795D01*
X35400Y16617D01*
Y16433D01*
X35448Y16255D01*
X35540Y16095D01*
X35670Y15965D01*
X35830Y15873D01*
X36008Y15825D01*
X36171D01*
Y15500D01*
X36206Y15239D01*
X36307Y14996D01*
X36467Y14787D01*
X36676Y14627D01*
X36919Y14526D01*
X37180Y14491D01*
X37441Y14526D01*
X37684Y14627D01*
X37893Y14787D01*
X38054Y14996D01*
X38154Y15239D01*
X38189Y15500D01*
Y15900D01*
X38154Y16161D01*
X38054Y16404D01*
X37893Y16613D01*
X37684Y16774D01*
X37441Y16874D01*
X37180Y16909D01*
X36919Y16874D01*
X36842Y16842D01*
X36755Y16942D01*
X36777Y16979D01*
X36824Y17157D01*
Y17342D01*
X36777Y17520D01*
X36684Y17679D01*
X36554Y17810D01*
X36395Y17902D01*
X36216Y17950D01*
D02*
G37*
G36*
X31805Y16909D02*
X31544Y16874D01*
X31301Y16774D01*
X31092Y16613D01*
X30932Y16404D01*
X30831Y16161D01*
X30796Y15900D01*
Y15500D01*
X30831Y15239D01*
X30932Y14996D01*
X31092Y14787D01*
X31301Y14627D01*
X31544Y14526D01*
X31805Y14491D01*
X32066Y14526D01*
X32309Y14627D01*
X32518Y14787D01*
X32679Y14996D01*
X32779Y15239D01*
X32814Y15500D01*
Y15900D01*
X32779Y16161D01*
X32679Y16404D01*
X32518Y16613D01*
X32309Y16774D01*
X32066Y16874D01*
X31805Y16909D01*
D02*
G37*
G36*
X27505D02*
X27244Y16874D01*
X27001Y16774D01*
X26792Y16613D01*
X26632Y16404D01*
X26531Y16161D01*
X26496Y15900D01*
Y15500D01*
X26531Y15239D01*
X26632Y14996D01*
X26792Y14787D01*
X27001Y14627D01*
X27244Y14526D01*
X27505Y14491D01*
X27766Y14526D01*
X28009Y14627D01*
X28218Y14787D01*
X28379Y14996D01*
X28479Y15239D01*
X28514Y15500D01*
Y15900D01*
X28479Y16161D01*
X28379Y16404D01*
X28218Y16613D01*
X28009Y16774D01*
X27766Y16874D01*
X27505Y16909D01*
D02*
G37*
G36*
X39330Y16133D02*
X39082Y16101D01*
X38851Y16005D01*
X38652Y15853D01*
X38500Y15654D01*
X38404Y15423D01*
X38372Y15175D01*
Y14925D01*
X38404Y14677D01*
X38500Y14446D01*
X38652Y14247D01*
X38851Y14095D01*
X39082Y13999D01*
X39330Y13967D01*
X39578Y13999D01*
X39809Y14095D01*
X40008Y14247D01*
X40160Y14446D01*
X40256Y14677D01*
X40288Y14925D01*
Y15175D01*
X40256Y15423D01*
X40160Y15654D01*
X40008Y15853D01*
X39809Y16005D01*
X39578Y16101D01*
X39330Y16133D01*
D02*
G37*
G36*
X29655D02*
X29407Y16101D01*
X29176Y16005D01*
X28977Y15853D01*
X28825Y15654D01*
X28729Y15423D01*
X28697Y15175D01*
Y14925D01*
X28729Y14677D01*
X28825Y14446D01*
X28977Y14247D01*
X29176Y14095D01*
X29407Y13999D01*
X29655Y13967D01*
X29903Y13999D01*
X30134Y14095D01*
X30333Y14247D01*
X30485Y14446D01*
X30581Y14677D01*
X30613Y14925D01*
Y15175D01*
X30581Y15423D01*
X30485Y15654D01*
X30333Y15853D01*
X30134Y16005D01*
X29903Y16101D01*
X29655Y16133D01*
D02*
G37*
G36*
X2592Y15310D02*
X2408D01*
X2230Y15262D01*
X2070Y15170D01*
X1940Y15040D01*
X1848Y14880D01*
X1800Y14702D01*
Y14518D01*
X1848Y14340D01*
X1940Y14180D01*
X2070Y14050D01*
X2230Y13958D01*
X2408Y13910D01*
X2592D01*
X2770Y13958D01*
X2930Y14050D01*
X3060Y14180D01*
X3152Y14340D01*
X3200Y14518D01*
Y14702D01*
X3152Y14880D01*
X3060Y15040D01*
X2930Y15170D01*
X2770Y15262D01*
X2592Y15310D01*
D02*
G37*
G36*
X37775Y13625D02*
X37525D01*
X37283Y13560D01*
X37067Y13435D01*
X36890Y13258D01*
X36765Y13042D01*
X36700Y12800D01*
Y12550D01*
X36765Y12308D01*
X36890Y12092D01*
X37067Y11915D01*
X37283Y11790D01*
X37525Y11725D01*
X37775D01*
X38017Y11790D01*
X38233Y11915D01*
X38410Y12092D01*
X38535Y12308D01*
X38600Y12550D01*
Y12800D01*
X38535Y13042D01*
X38410Y13258D01*
X38233Y13435D01*
X38017Y13560D01*
X37775Y13625D01*
D02*
G37*
G36*
X41942Y13025D02*
X41758D01*
X41580Y12977D01*
X41420Y12885D01*
X41290Y12755D01*
X41198Y12595D01*
X41150Y12417D01*
Y12233D01*
X41198Y12055D01*
X41290Y11895D01*
X41420Y11765D01*
X41580Y11673D01*
X41758Y11625D01*
X41942D01*
X42120Y11673D01*
X42280Y11765D01*
X42410Y11895D01*
X42502Y12055D01*
X42550Y12233D01*
Y12417D01*
X42502Y12595D01*
X42410Y12755D01*
X42280Y12885D01*
X42120Y12977D01*
X41942Y13025D01*
D02*
G37*
G36*
X47317Y11611D02*
X47133D01*
X46955Y11563D01*
X46795Y11471D01*
X46665Y11341D01*
X46573Y11181D01*
X46525Y11003D01*
Y10819D01*
X46573Y10641D01*
X46665Y10481D01*
X46795Y10351D01*
X46955Y10259D01*
X47133Y10211D01*
X47317D01*
X47495Y10259D01*
X47655Y10351D01*
X47785Y10481D01*
X47877Y10641D01*
X47925Y10819D01*
Y11003D01*
X47877Y11181D01*
X47785Y11341D01*
X47655Y11471D01*
X47495Y11563D01*
X47317Y11611D01*
D02*
G37*
G36*
X36242Y10238D02*
X36058D01*
X35880Y10190D01*
X35720Y10098D01*
X35590Y9967D01*
X35498Y9808D01*
X35450Y9630D01*
Y9445D01*
X35498Y9267D01*
X35590Y9108D01*
X35720Y8977D01*
X35880Y8885D01*
X36058Y8837D01*
X36242D01*
X36420Y8885D01*
X36580Y8977D01*
X36710Y9108D01*
X36802Y9267D01*
X36850Y9445D01*
Y9630D01*
X36802Y9808D01*
X36710Y9967D01*
X36580Y10098D01*
X36420Y10190D01*
X36242Y10238D01*
D02*
G37*
G36*
X3292Y8975D02*
X3108D01*
X2930Y8927D01*
X2770Y8835D01*
X2640Y8705D01*
X2548Y8545D01*
X2500Y8367D01*
Y8183D01*
X2548Y8005D01*
X2640Y7845D01*
X2770Y7715D01*
X2930Y7623D01*
X3108Y7575D01*
X3292D01*
X3470Y7623D01*
X3630Y7715D01*
X3760Y7845D01*
X3852Y8005D01*
X3900Y8183D01*
Y8367D01*
X3852Y8545D01*
X3760Y8705D01*
X3630Y8835D01*
X3470Y8927D01*
X3292Y8975D01*
D02*
G37*
G36*
X43100Y9150D02*
X42850D01*
X42608Y9085D01*
X42392Y8960D01*
X42215Y8783D01*
X42090Y8567D01*
X42025Y8325D01*
Y8075D01*
X42090Y7833D01*
X42215Y7617D01*
X42392Y7440D01*
X42608Y7315D01*
X42850Y7250D01*
X43100D01*
X43342Y7315D01*
X43558Y7440D01*
X43735Y7617D01*
X43860Y7833D01*
X43925Y8075D01*
Y8325D01*
X43860Y8567D01*
X43735Y8783D01*
X43558Y8960D01*
X43342Y9085D01*
X43100Y9150D01*
D02*
G37*
G36*
X40217Y7825D02*
X40033D01*
X39855Y7777D01*
X39695Y7685D01*
X39565Y7555D01*
X39473Y7395D01*
X39425Y7217D01*
Y7033D01*
X39473Y6855D01*
X39565Y6695D01*
X39695Y6565D01*
X39855Y6473D01*
X40033Y6425D01*
X40217D01*
X40395Y6473D01*
X40555Y6565D01*
X40685Y6695D01*
X40777Y6855D01*
X40825Y7033D01*
Y7217D01*
X40777Y7395D01*
X40685Y7555D01*
X40555Y7685D01*
X40395Y7777D01*
X40217Y7825D01*
D02*
G37*
G36*
X8267Y4950D02*
X8083D01*
X7905Y4902D01*
X7745Y4810D01*
X7615Y4680D01*
X7523Y4520D01*
X7475Y4342D01*
Y4158D01*
X7523Y3980D01*
X7615Y3820D01*
X7745Y3690D01*
X7905Y3598D01*
X8083Y3550D01*
X8267D01*
X8445Y3598D01*
X8605Y3690D01*
X8735Y3820D01*
X8827Y3980D01*
X8875Y4158D01*
Y4342D01*
X8827Y4520D01*
X8735Y4680D01*
X8605Y4810D01*
X8445Y4902D01*
X8267Y4950D01*
D02*
G37*
G36*
X51787Y3200D02*
X51603D01*
X51425Y3152D01*
X51265Y3060D01*
X51135Y2930D01*
X51043Y2770D01*
X50995Y2592D01*
Y2408D01*
X51043Y2230D01*
X51135Y2070D01*
X51265Y1940D01*
X51425Y1848D01*
X51603Y1800D01*
X51787D01*
X51965Y1848D01*
X52125Y1940D01*
X52255Y2070D01*
X52347Y2230D01*
X52395Y2408D01*
Y2592D01*
X52347Y2770D01*
X52255Y2930D01*
X52125Y3060D01*
X51965Y3152D01*
X51787Y3200D01*
D02*
G37*
G36*
X45787Y3200D02*
X45603D01*
X45425Y3152D01*
X45265Y3060D01*
X45135Y2930D01*
X45043Y2770D01*
X44995Y2592D01*
Y2408D01*
X45043Y2230D01*
X45135Y2070D01*
X45265Y1940D01*
X45425Y1848D01*
X45603Y1800D01*
X45787D01*
X45965Y1848D01*
X46125Y1940D01*
X46255Y2070D01*
X46347Y2230D01*
X46395Y2408D01*
Y2592D01*
X46347Y2770D01*
X46255Y2930D01*
X46125Y3060D01*
X45965Y3152D01*
X45787Y3200D01*
D02*
G37*
G36*
X39787D02*
X39603D01*
X39425Y3152D01*
X39265Y3060D01*
X39135Y2930D01*
X39043Y2770D01*
X38995Y2592D01*
Y2408D01*
X39043Y2230D01*
X39135Y2070D01*
X39265Y1940D01*
X39425Y1848D01*
X39603Y1800D01*
X39787D01*
X39965Y1848D01*
X40125Y1940D01*
X40255Y2070D01*
X40347Y2230D01*
X40395Y2408D01*
Y2592D01*
X40347Y2770D01*
X40255Y2930D01*
X40125Y3060D01*
X39965Y3152D01*
X39787Y3200D01*
D02*
G37*
G36*
X33787D02*
X33603D01*
X33425Y3152D01*
X33265Y3060D01*
X33135Y2930D01*
X33043Y2770D01*
X32995Y2592D01*
Y2408D01*
X33043Y2230D01*
X33135Y2070D01*
X33265Y1940D01*
X33425Y1848D01*
X33603Y1800D01*
X33787D01*
X33965Y1848D01*
X34125Y1940D01*
X34255Y2070D01*
X34347Y2230D01*
X34395Y2408D01*
Y2592D01*
X34347Y2770D01*
X34255Y2930D01*
X34125Y3060D01*
X33965Y3152D01*
X33787Y3200D01*
D02*
G37*
G36*
X27787D02*
X27603D01*
X27425Y3152D01*
X27265Y3060D01*
X27135Y2930D01*
X27043Y2770D01*
X26995Y2592D01*
Y2408D01*
X27043Y2230D01*
X27135Y2070D01*
X27265Y1940D01*
X27425Y1848D01*
X27603Y1800D01*
X27787D01*
X27965Y1848D01*
X28125Y1940D01*
X28255Y2070D01*
X28347Y2230D01*
X28395Y2408D01*
Y2592D01*
X28347Y2770D01*
X28255Y2930D01*
X28125Y3060D01*
X27965Y3152D01*
X27787Y3200D01*
D02*
G37*
G36*
X21787D02*
X21603D01*
X21425Y3152D01*
X21265Y3060D01*
X21135Y2930D01*
X21043Y2770D01*
X20995Y2592D01*
Y2408D01*
X21043Y2230D01*
X21135Y2070D01*
X21265Y1940D01*
X21425Y1848D01*
X21603Y1800D01*
X21787D01*
X21965Y1848D01*
X22125Y1940D01*
X22255Y2070D01*
X22347Y2230D01*
X22395Y2408D01*
Y2592D01*
X22347Y2770D01*
X22255Y2930D01*
X22125Y3060D01*
X21965Y3152D01*
X21787Y3200D01*
D02*
G37*
G36*
X14892Y3125D02*
X14708D01*
X14530Y3077D01*
X14370Y2985D01*
X14240Y2855D01*
X14148Y2695D01*
X14100Y2517D01*
Y2333D01*
X14148Y2155D01*
X14240Y1995D01*
X14370Y1865D01*
X14530Y1773D01*
X14708Y1725D01*
X14892D01*
X15070Y1773D01*
X15230Y1865D01*
X15360Y1995D01*
X15452Y2155D01*
X15500Y2333D01*
Y2517D01*
X15452Y2695D01*
X15360Y2855D01*
X15230Y2985D01*
X15070Y3077D01*
X14892Y3125D01*
D02*
G37*
G36*
X34224Y126100D02*
X34026D01*
X33842Y126024D01*
X33701Y125883D01*
X33625Y125699D01*
Y125501D01*
X33701Y125317D01*
X33842Y125176D01*
X34026Y125100D01*
X34224D01*
X34408Y125176D01*
X34549Y125317D01*
X34625Y125501D01*
Y125699D01*
X34549Y125883D01*
X34408Y126024D01*
X34224Y126100D01*
D02*
G37*
G36*
X30999Y125875D02*
X30801D01*
X30617Y125799D01*
X30476Y125658D01*
X30400Y125474D01*
Y125276D01*
X30476Y125092D01*
X30617Y124951D01*
X30801Y124875D01*
X30999D01*
X31183Y124951D01*
X31324Y125092D01*
X31400Y125276D01*
Y125474D01*
X31324Y125658D01*
X31183Y125799D01*
X30999Y125875D01*
D02*
G37*
G36*
X28799D02*
X28601D01*
X28417Y125799D01*
X28276Y125658D01*
X28200Y125474D01*
Y125276D01*
X28276Y125092D01*
X28417Y124951D01*
X28601Y124875D01*
X28799D01*
X28983Y124951D01*
X29124Y125092D01*
X29200Y125276D01*
Y125474D01*
X29124Y125658D01*
X28983Y125799D01*
X28799Y125875D01*
D02*
G37*
G36*
X26599D02*
X26401D01*
X26217Y125799D01*
X26076Y125658D01*
X26000Y125474D01*
Y125276D01*
X26076Y125092D01*
X26217Y124951D01*
X26401Y124875D01*
X26599D01*
X26783Y124951D01*
X26924Y125092D01*
X27000Y125276D01*
Y125474D01*
X26924Y125658D01*
X26783Y125799D01*
X26599Y125875D01*
D02*
G37*
G36*
X15049Y125775D02*
X14851D01*
X14667Y125699D01*
X14526Y125558D01*
X14450Y125374D01*
Y125176D01*
X14526Y124992D01*
X14667Y124851D01*
X14851Y124775D01*
X15049D01*
X15233Y124851D01*
X15374Y124992D01*
X15450Y125176D01*
Y125374D01*
X15374Y125558D01*
X15233Y125699D01*
X15049Y125775D01*
D02*
G37*
G36*
X11849Y125900D02*
X11601D01*
X11371Y125805D01*
X11195Y125629D01*
X11100Y125399D01*
Y125151D01*
X11195Y124921D01*
X11371Y124745D01*
X11601Y124650D01*
X11849D01*
X12079Y124745D01*
X12255Y124921D01*
X12350Y125151D01*
Y125399D01*
X12255Y125629D01*
X12079Y125805D01*
X11849Y125900D01*
D02*
G37*
G36*
X51699Y125200D02*
X51501D01*
X51317Y125124D01*
X51176Y124983D01*
X51100Y124799D01*
Y124601D01*
X51176Y124417D01*
X51317Y124276D01*
X51501Y124200D01*
X51699D01*
X51883Y124276D01*
X52024Y124417D01*
X52100Y124601D01*
Y124799D01*
X52024Y124983D01*
X51883Y125124D01*
X51699Y125200D01*
D02*
G37*
G36*
X29899Y124775D02*
X29701D01*
X29517Y124699D01*
X29376Y124558D01*
X29300Y124374D01*
Y124176D01*
X29376Y123992D01*
X29517Y123851D01*
X29701Y123775D01*
X29899D01*
X30083Y123851D01*
X30224Y123992D01*
X30300Y124176D01*
Y124374D01*
X30224Y124558D01*
X30083Y124699D01*
X29899Y124775D01*
D02*
G37*
G36*
X27699D02*
X27501D01*
X27317Y124699D01*
X27176Y124558D01*
X27100Y124374D01*
Y124176D01*
X27176Y123992D01*
X27317Y123851D01*
X27501Y123775D01*
X27699D01*
X27883Y123851D01*
X28024Y123992D01*
X28100Y124176D01*
Y124374D01*
X28024Y124558D01*
X27883Y124699D01*
X27699Y124775D01*
D02*
G37*
G36*
X15099Y124400D02*
X14901D01*
X14717Y124324D01*
X14576Y124183D01*
X14500Y123999D01*
Y123801D01*
X14576Y123617D01*
X14717Y123476D01*
X14901Y123400D01*
X15099D01*
X15283Y123476D01*
X15424Y123617D01*
X15500Y123801D01*
Y123999D01*
X15424Y124183D01*
X15283Y124324D01*
X15099Y124400D01*
D02*
G37*
G36*
X39799Y124300D02*
X39601D01*
X39417Y124224D01*
X39276Y124083D01*
X39200Y123899D01*
Y123701D01*
X39276Y123517D01*
X39417Y123376D01*
X39601Y123300D01*
X39799D01*
X39983Y123376D01*
X40124Y123517D01*
X40200Y123701D01*
Y123899D01*
X40124Y124083D01*
X39983Y124224D01*
X39799Y124300D01*
D02*
G37*
G36*
X24056Y123725D02*
X23857D01*
X23673Y123649D01*
X23532Y123508D01*
X23456Y123324D01*
Y123126D01*
X23532Y122942D01*
X23673Y122801D01*
X23857Y122725D01*
X24056D01*
X24239Y122801D01*
X24380Y122942D01*
X24456Y123126D01*
Y123324D01*
X24380Y123508D01*
X24239Y123649D01*
X24056Y123725D01*
D02*
G37*
G36*
X30999Y123675D02*
X30801D01*
X30617Y123599D01*
X30476Y123458D01*
X30400Y123274D01*
Y123076D01*
X30476Y122892D01*
X30617Y122751D01*
X30801Y122675D01*
X30999D01*
X31183Y122751D01*
X31324Y122892D01*
X31400Y123076D01*
Y123274D01*
X31324Y123458D01*
X31183Y123599D01*
X30999Y123675D01*
D02*
G37*
G36*
X28799D02*
X28601D01*
X28417Y123599D01*
X28276Y123458D01*
X28200Y123274D01*
Y123076D01*
X28276Y122892D01*
X28417Y122751D01*
X28601Y122675D01*
X28799D01*
X28983Y122751D01*
X29124Y122892D01*
X29200Y123076D01*
Y123274D01*
X29124Y123458D01*
X28983Y123599D01*
X28799Y123675D01*
D02*
G37*
G36*
X26599D02*
X26401D01*
X26217Y123599D01*
X26076Y123458D01*
X26000Y123274D01*
Y123076D01*
X26076Y122892D01*
X26217Y122751D01*
X26401Y122675D01*
X26599D01*
X26783Y122751D01*
X26924Y122892D01*
X27000Y123076D01*
Y123274D01*
X26924Y123458D01*
X26783Y123599D01*
X26599Y123675D01*
D02*
G37*
G36*
X37274Y123800D02*
X37076D01*
X36892Y123724D01*
X36751Y123583D01*
X36675Y123399D01*
Y123201D01*
X36751Y123017D01*
X36868Y122900D01*
X36751Y122783D01*
X36675Y122599D01*
Y122585D01*
X36550Y122560D01*
X36499Y122683D01*
X36358Y122824D01*
X36174Y122900D01*
X35976D01*
X35792Y122824D01*
X35651Y122683D01*
X35575Y122499D01*
Y122301D01*
X35651Y122117D01*
X35792Y121976D01*
X35976Y121900D01*
X36174D01*
X36358Y121976D01*
X36499Y122117D01*
X36575Y122301D01*
Y122315D01*
X36700Y122340D01*
X36751Y122217D01*
X36892Y122076D01*
X37076Y122000D01*
X37274D01*
X37458Y122076D01*
X37599Y122217D01*
X37675Y122401D01*
Y122599D01*
X37599Y122783D01*
X37482Y122900D01*
X37599Y123017D01*
X37675Y123201D01*
Y123399D01*
X37599Y123583D01*
X37458Y123724D01*
X37274Y123800D01*
D02*
G37*
G36*
X46374Y123150D02*
X46176D01*
X45992Y123074D01*
X45851Y122933D01*
X45775Y122749D01*
Y122551D01*
X45851Y122367D01*
X45992Y122226D01*
X46176Y122150D01*
X46374D01*
X46558Y122226D01*
X46699Y122367D01*
X46775Y122551D01*
Y122749D01*
X46699Y122933D01*
X46558Y123074D01*
X46374Y123150D01*
D02*
G37*
G36*
X40974Y123125D02*
X40776D01*
X40592Y123049D01*
X40451Y122908D01*
X40375Y122724D01*
Y122526D01*
X40451Y122342D01*
X40592Y122201D01*
X40776Y122125D01*
X40974D01*
X41158Y122201D01*
X41299Y122342D01*
X41375Y122526D01*
Y122724D01*
X41299Y122908D01*
X41158Y123049D01*
X40974Y123125D01*
D02*
G37*
G36*
X22224Y122925D02*
X22026D01*
X21842Y122849D01*
X21701Y122708D01*
X21625Y122524D01*
Y122326D01*
X21701Y122142D01*
X21842Y122001D01*
X22026Y121925D01*
X22224D01*
X22408Y122001D01*
X22549Y122142D01*
X22625Y122326D01*
Y122524D01*
X22549Y122708D01*
X22408Y122849D01*
X22224Y122925D01*
D02*
G37*
G36*
X29899Y122575D02*
X29701D01*
X29517Y122499D01*
X29376Y122358D01*
X29300Y122174D01*
Y121976D01*
X29376Y121792D01*
X29517Y121651D01*
X29701Y121575D01*
X29899D01*
X30083Y121651D01*
X30224Y121792D01*
X30300Y121976D01*
Y122174D01*
X30224Y122358D01*
X30083Y122499D01*
X29899Y122575D01*
D02*
G37*
G36*
X27699D02*
X27501D01*
X27317Y122499D01*
X27176Y122358D01*
X27100Y122174D01*
Y121976D01*
X27176Y121792D01*
X27317Y121651D01*
X27501Y121575D01*
X27699D01*
X27883Y121651D01*
X28024Y121792D01*
X28100Y121976D01*
Y122174D01*
X28024Y122358D01*
X27883Y122499D01*
X27699Y122575D01*
D02*
G37*
G36*
X7974Y121725D02*
X7776D01*
X7592Y121649D01*
X7451Y121508D01*
X7375Y121324D01*
Y121126D01*
X7451Y120942D01*
X7592Y120801D01*
X7776Y120725D01*
X7974D01*
X8158Y120801D01*
X8299Y120942D01*
X8375Y121126D01*
Y121324D01*
X8299Y121508D01*
X8158Y121649D01*
X7974Y121725D01*
D02*
G37*
G36*
X51099Y121700D02*
X50901D01*
X50717Y121624D01*
X50576Y121483D01*
X50500Y121299D01*
Y121101D01*
X50576Y120917D01*
X50717Y120776D01*
X50901Y120700D01*
X51099D01*
X51283Y120776D01*
X51424Y120917D01*
X51500Y121101D01*
Y121299D01*
X51424Y121483D01*
X51283Y121624D01*
X51099Y121700D01*
D02*
G37*
G36*
X49899D02*
X49701D01*
X49517Y121624D01*
X49376Y121483D01*
X49300Y121299D01*
Y121101D01*
X49376Y120917D01*
X49517Y120776D01*
X49701Y120700D01*
X49899D01*
X50083Y120776D01*
X50224Y120917D01*
X50300Y121101D01*
Y121299D01*
X50224Y121483D01*
X50083Y121624D01*
X49899Y121700D01*
D02*
G37*
G36*
X54975Y121106D02*
X54757Y120980D01*
X54525Y120748D01*
X54399Y120530D01*
X54975D01*
Y121106D01*
D02*
G37*
G36*
X30999Y121475D02*
X30801D01*
X30617Y121399D01*
X30476Y121258D01*
X30400Y121074D01*
Y120876D01*
X30476Y120692D01*
X30617Y120551D01*
X30801Y120475D01*
X30999D01*
X31183Y120551D01*
X31324Y120692D01*
X31400Y120876D01*
Y121074D01*
X31324Y121258D01*
X31183Y121399D01*
X30999Y121475D01*
D02*
G37*
G36*
X28799D02*
X28601D01*
X28417Y121399D01*
X28276Y121258D01*
X28200Y121074D01*
Y120876D01*
X28276Y120692D01*
X28417Y120551D01*
X28601Y120475D01*
X28799D01*
X28983Y120551D01*
X29124Y120692D01*
X29200Y120876D01*
Y121074D01*
X29124Y121258D01*
X28983Y121399D01*
X28799Y121475D01*
D02*
G37*
G36*
X26599D02*
X26401D01*
X26217Y121399D01*
X26076Y121258D01*
X26000Y121074D01*
Y120876D01*
X26076Y120692D01*
X26217Y120551D01*
X26401Y120475D01*
X26599D01*
X26783Y120551D01*
X26924Y120692D01*
X27000Y120876D01*
Y121074D01*
X26924Y121258D01*
X26783Y121399D01*
X26599Y121475D01*
D02*
G37*
G36*
X19649Y121200D02*
X19451D01*
X19267Y121124D01*
X19126Y120983D01*
X19050Y120799D01*
Y120601D01*
X19126Y120417D01*
X19267Y120276D01*
X19451Y120200D01*
X19649D01*
X19833Y120276D01*
X19974Y120417D01*
X20050Y120601D01*
Y120799D01*
X19974Y120983D01*
X19833Y121124D01*
X19649Y121200D01*
D02*
G37*
G36*
X16951Y122430D02*
X16649D01*
X16356Y122352D01*
X16094Y122200D01*
X15880Y121986D01*
X15728Y121724D01*
X15650Y121431D01*
Y121129D01*
X15728Y120836D01*
X15880Y120574D01*
X16094Y120360D01*
X16356Y120208D01*
X16649Y120130D01*
X16951D01*
X17244Y120208D01*
X17506Y120360D01*
X17720Y120574D01*
X17872Y120836D01*
X17950Y121129D01*
Y121431D01*
X17872Y121724D01*
X17720Y121986D01*
X17506Y122200D01*
X17244Y122352D01*
X16951Y122430D01*
D02*
G37*
G36*
X51099Y120000D02*
X50901D01*
X50717Y119924D01*
X50576Y119783D01*
X50500Y119599D01*
Y119401D01*
X50576Y119217D01*
X50717Y119076D01*
X50901Y119000D01*
X51099D01*
X51283Y119076D01*
X51424Y119217D01*
X51500Y119401D01*
Y119599D01*
X51424Y119783D01*
X51283Y119924D01*
X51099Y120000D01*
D02*
G37*
G36*
X54975Y119430D02*
X54399D01*
X54525Y119212D01*
X54757Y118980D01*
X54975Y118854D01*
Y119430D01*
D02*
G37*
G36*
X25424Y119700D02*
X25226D01*
X25042Y119624D01*
X24901Y119483D01*
X24825Y119299D01*
Y119101D01*
X24901Y118917D01*
X25042Y118776D01*
X25226Y118700D01*
X25424D01*
X25608Y118776D01*
X25749Y118917D01*
X25825Y119101D01*
Y119299D01*
X25749Y119483D01*
X25608Y119624D01*
X25424Y119700D01*
D02*
G37*
G36*
X22199Y119298D02*
X22001D01*
X21817Y119222D01*
X21676Y119081D01*
X21600Y118898D01*
Y118699D01*
X21676Y118515D01*
X21817Y118374D01*
X22001Y118298D01*
X22199D01*
X22383Y118374D01*
X22524Y118515D01*
X22600Y118699D01*
Y118898D01*
X22524Y119081D01*
X22383Y119222D01*
X22199Y119298D01*
D02*
G37*
G36*
X10349Y119275D02*
X10151D01*
X9967Y119199D01*
X9826Y119058D01*
X9750Y118874D01*
Y118676D01*
X9826Y118492D01*
X9967Y118351D01*
X10151Y118275D01*
X10349D01*
X10533Y118351D01*
X10674Y118492D01*
X10750Y118676D01*
Y118874D01*
X10674Y119058D01*
X10533Y119199D01*
X10349Y119275D01*
D02*
G37*
G36*
X20506Y119268D02*
X20307D01*
X20123Y119192D01*
X19983Y119052D01*
X19907Y118868D01*
Y118669D01*
X19983Y118485D01*
X20123Y118345D01*
X20307Y118268D01*
X20506D01*
X20690Y118345D01*
X20830Y118485D01*
X20907Y118669D01*
Y118868D01*
X20830Y119052D01*
X20690Y119192D01*
X20506Y119268D01*
D02*
G37*
G36*
X16951Y119890D02*
X16649D01*
X16356Y119812D01*
X16094Y119660D01*
X15880Y119446D01*
X15728Y119184D01*
X15650Y118891D01*
Y118589D01*
X15728Y118296D01*
X15880Y118034D01*
X16094Y117820D01*
X16356Y117668D01*
X16649Y117590D01*
X16951D01*
X17244Y117668D01*
X17506Y117820D01*
X17720Y118034D01*
X17872Y118296D01*
X17950Y118589D01*
Y118891D01*
X17872Y119184D01*
X17720Y119446D01*
X17506Y119660D01*
X17244Y119812D01*
X16951Y119890D01*
D02*
G37*
G36*
X24545Y117863D02*
X24346D01*
X24162Y117786D01*
X24021Y117646D01*
X23979Y117545D01*
X23849Y117533D01*
X23708Y117674D01*
X23524Y117750D01*
X23326D01*
X23142Y117674D01*
X23001Y117533D01*
X22925Y117349D01*
Y117151D01*
X23001Y116967D01*
X23142Y116826D01*
X23326Y116750D01*
X23524D01*
X23600Y116700D01*
Y116626D01*
X23676Y116442D01*
X23817Y116301D01*
X24001Y116225D01*
X24199D01*
X24383Y116301D01*
X24524Y116442D01*
X24600Y116626D01*
Y116824D01*
X24578Y116877D01*
X24728Y116939D01*
X24869Y117079D01*
X24945Y117263D01*
Y117462D01*
X24869Y117646D01*
X24728Y117786D01*
X24545Y117863D01*
D02*
G37*
G36*
X32674Y117175D02*
X32476D01*
X32292Y117099D01*
X32238Y117046D01*
X32062Y117045D01*
X32033Y117074D01*
X31849Y117150D01*
X31651D01*
X31467Y117074D01*
X31342Y116949D01*
X31299Y116934D01*
X31193Y116939D01*
X31083Y117049D01*
X30899Y117125D01*
X30701D01*
X30517Y117049D01*
X30376Y116908D01*
X30375Y116906D01*
X30250D01*
X30249Y116908D01*
X30108Y117049D01*
X29924Y117125D01*
X29726D01*
X29542Y117049D01*
X29469Y116976D01*
X29388Y116918D01*
X29306Y116976D01*
X29233Y117049D01*
X29049Y117125D01*
X28851D01*
X28667Y117049D01*
X28526Y116908D01*
X28525Y116906D01*
X28400D01*
X28399Y116908D01*
X28258Y117049D01*
X28074Y117125D01*
X27876D01*
X27692Y117049D01*
X27551Y116908D01*
X27475Y116724D01*
Y116526D01*
X27551Y116342D01*
X27692Y116201D01*
X27876Y116125D01*
X28074D01*
X28258Y116201D01*
X28399Y116342D01*
X28400Y116344D01*
X28525D01*
X28526Y116342D01*
X28667Y116201D01*
X28851Y116125D01*
X29049D01*
X29233Y116201D01*
X29306Y116274D01*
X29388Y116332D01*
X29469Y116274D01*
X29542Y116201D01*
X29726Y116125D01*
X29924D01*
X30108Y116201D01*
X30249Y116342D01*
X30250Y116344D01*
X30375D01*
X30376Y116342D01*
X30517Y116201D01*
X30701Y116125D01*
X30899D01*
X31083Y116201D01*
X31208Y116326D01*
X31251Y116341D01*
X31357Y116336D01*
X31467Y116226D01*
X31651Y116150D01*
X31849D01*
X32033Y116226D01*
X32087Y116280D01*
X32263Y116280D01*
X32292Y116251D01*
X32476Y116175D01*
X32674D01*
X32858Y116251D01*
X32999Y116392D01*
X33075Y116576D01*
Y116774D01*
X32999Y116958D01*
X32858Y117099D01*
X32674Y117175D01*
D02*
G37*
G36*
X52037Y118037D02*
X51838D01*
X51654Y117961D01*
X51514Y117821D01*
X51438Y117637D01*
Y117438D01*
X51514Y117254D01*
X51654Y117114D01*
X51838Y117037D01*
X52037D01*
X52221Y117114D01*
X52361Y117254D01*
X52438Y117438D01*
Y117637D01*
X52361Y117821D01*
X52221Y117961D01*
X52037Y118037D01*
D02*
G37*
G36*
X48099Y118000D02*
X47901D01*
X47717Y117924D01*
X47576Y117783D01*
X47500Y117599D01*
Y117401D01*
X47576Y117217D01*
X47717Y117076D01*
X47901Y117000D01*
X48099D01*
X48283Y117076D01*
X48424Y117217D01*
X48500Y117401D01*
Y117599D01*
X48424Y117783D01*
X48283Y117924D01*
X48099Y118000D01*
D02*
G37*
G36*
X19649Y117900D02*
X19451D01*
X19267Y117824D01*
X19126Y117683D01*
X19050Y117499D01*
Y117301D01*
X19126Y117117D01*
X19267Y116976D01*
X19451Y116900D01*
X19649D01*
X19833Y116976D01*
X19974Y117117D01*
X20050Y117301D01*
Y117499D01*
X19974Y117683D01*
X19833Y117824D01*
X19649Y117900D01*
D02*
G37*
G36*
X34299Y118500D02*
X34101D01*
X33917Y118424D01*
X33776Y118283D01*
X33700Y118099D01*
Y117901D01*
X33776Y117717D01*
X33917Y117576D01*
X34101Y117500D01*
X34299D01*
X34483Y117576D01*
X34568Y117661D01*
X34694Y117666D01*
X34719Y117649D01*
X34842Y117526D01*
X35026Y117450D01*
X35224D01*
X35408Y117526D01*
X35549Y117667D01*
X35550Y117669D01*
X35675Y117645D01*
Y117526D01*
X35751Y117342D01*
X35892Y117201D01*
X36076Y117125D01*
X36274D01*
X36458Y117201D01*
X36525Y117268D01*
X36650Y117216D01*
Y117201D01*
X36726Y117017D01*
X36867Y116876D01*
X37051Y116800D01*
X37249D01*
X37433Y116876D01*
X37574Y117017D01*
X37650Y117201D01*
Y117399D01*
X37574Y117583D01*
X37433Y117724D01*
X37249Y117800D01*
X37051D01*
X36867Y117724D01*
X36800Y117657D01*
X36675Y117709D01*
Y117724D01*
X36599Y117908D01*
X36458Y118049D01*
X36274Y118125D01*
X36076D01*
X35892Y118049D01*
X35751Y117908D01*
X35750Y117906D01*
X35625Y117930D01*
Y118049D01*
X35549Y118233D01*
X35408Y118374D01*
X35224Y118450D01*
X35026D01*
X34842Y118374D01*
X34757Y118289D01*
X34631Y118284D01*
X34606Y118301D01*
X34483Y118424D01*
X34299Y118500D01*
D02*
G37*
G36*
X10349Y116325D02*
X10151D01*
X9967Y116249D01*
X9826Y116108D01*
X9750Y115924D01*
Y115726D01*
X9826Y115542D01*
X9967Y115401D01*
X10151Y115325D01*
X10349D01*
X10533Y115401D01*
X10674Y115542D01*
X10750Y115726D01*
Y115924D01*
X10674Y116108D01*
X10533Y116249D01*
X10349Y116325D01*
D02*
G37*
G36*
X25574Y116775D02*
X25376D01*
X25192Y116699D01*
X25051Y116558D01*
X24975Y116374D01*
Y116265D01*
X24975Y116175D01*
X24860Y116150D01*
X24776D01*
X24592Y116074D01*
X24451Y115933D01*
X24375Y115749D01*
Y115551D01*
X24451Y115367D01*
X24592Y115226D01*
X24776Y115150D01*
X24974D01*
X25158Y115226D01*
X25299Y115367D01*
X25375Y115551D01*
Y115660D01*
X25375Y115750D01*
X25490Y115775D01*
X25574D01*
X25758Y115851D01*
X25899Y115992D01*
X25975Y116176D01*
Y116374D01*
X25899Y116558D01*
X25758Y116699D01*
X25574Y116775D01*
D02*
G37*
G36*
X16951Y117350D02*
X16649D01*
X16356Y117272D01*
X16094Y117120D01*
X15880Y116906D01*
X15728Y116644D01*
X15650Y116351D01*
Y116049D01*
X15728Y115756D01*
X15880Y115494D01*
X16094Y115280D01*
X16356Y115128D01*
X16649Y115050D01*
X16951D01*
X17244Y115128D01*
X17506Y115280D01*
X17720Y115494D01*
X17872Y115756D01*
X17950Y116049D01*
Y116351D01*
X17872Y116644D01*
X17720Y116906D01*
X17506Y117120D01*
X17244Y117272D01*
X16951Y117350D01*
D02*
G37*
G36*
X49274Y114400D02*
X49076D01*
X48892Y114324D01*
X48751Y114183D01*
X48675Y113999D01*
Y113801D01*
X48751Y113617D01*
X48892Y113476D01*
X49076Y113400D01*
X49274D01*
X49458Y113476D01*
X49599Y113617D01*
X49675Y113801D01*
Y113999D01*
X49599Y114183D01*
X49458Y114324D01*
X49274Y114400D01*
D02*
G37*
G36*
X16951Y114810D02*
X16649D01*
X16356Y114732D01*
X16094Y114580D01*
X15880Y114366D01*
X15728Y114104D01*
X15650Y113811D01*
Y113509D01*
X15728Y113216D01*
X15880Y112954D01*
X16094Y112740D01*
X16356Y112588D01*
X16649Y112510D01*
X16951D01*
X17244Y112588D01*
X17506Y112740D01*
X17720Y112954D01*
X17872Y113216D01*
X17950Y113509D01*
Y113811D01*
X17872Y114104D01*
X17720Y114366D01*
X17506Y114580D01*
X17244Y114732D01*
X16951Y114810D01*
D02*
G37*
G36*
X21624Y114875D02*
X21426D01*
X21242Y114799D01*
X21101Y114658D01*
X21025Y114474D01*
Y114276D01*
X21101Y114092D01*
X21186Y114007D01*
X21228Y113925D01*
X21186Y113843D01*
X21101Y113758D01*
X21025Y113574D01*
Y113376D01*
X21101Y113192D01*
X21186Y113107D01*
X21228Y113025D01*
X21186Y112943D01*
X21101Y112858D01*
X21025Y112674D01*
Y112476D01*
X21101Y112292D01*
X21242Y112151D01*
X21426Y112075D01*
X21624D01*
X21808Y112151D01*
X21949Y112292D01*
X21997Y112408D01*
X22101Y112500D01*
X22299D01*
X22483Y112576D01*
X22624Y112717D01*
X22700Y112901D01*
Y113099D01*
X22624Y113283D01*
X22539Y113368D01*
X22497Y113450D01*
X22539Y113532D01*
X22624Y113617D01*
X22700Y113801D01*
Y113999D01*
X22624Y114183D01*
X22483Y114324D01*
X22299Y114400D01*
X22101D01*
X22015Y114500D01*
X21949Y114658D01*
X21808Y114799D01*
X21624Y114875D01*
D02*
G37*
G36*
X37099Y112700D02*
X36901D01*
X36717Y112624D01*
X36576Y112483D01*
X36500Y112299D01*
Y112101D01*
X36576Y111917D01*
X36717Y111776D01*
X36901Y111700D01*
X37099D01*
X37283Y111776D01*
X37424Y111917D01*
X37500Y112101D01*
Y112299D01*
X37424Y112483D01*
X37283Y112624D01*
X37099Y112700D01*
D02*
G37*
G36*
X10374Y112425D02*
X10176D01*
X9992Y112349D01*
X9851Y112208D01*
X9775Y112024D01*
Y111826D01*
X9851Y111642D01*
X9992Y111501D01*
X10176Y111425D01*
X10374D01*
X10558Y111501D01*
X10699Y111642D01*
X10775Y111826D01*
Y112024D01*
X10699Y112208D01*
X10558Y112349D01*
X10374Y112425D01*
D02*
G37*
G36*
X17950Y112270D02*
X15650D01*
Y109970D01*
X17950D01*
Y112270D01*
D02*
G37*
G36*
X13660Y109035D02*
X12140D01*
Y109002D01*
X12015Y108930D01*
X11923Y108983D01*
X11730Y109035D01*
X11530D01*
X11337Y108983D01*
X11163Y108883D01*
X11022Y108742D01*
X10922Y108568D01*
X10870Y108375D01*
Y108175D01*
X10922Y107982D01*
X11022Y107808D01*
X11163Y107667D01*
X11337Y107567D01*
X11530Y107515D01*
X11730D01*
X11923Y107567D01*
X12015Y107620D01*
X12140Y107548D01*
Y107515D01*
X13660D01*
Y109035D01*
D02*
G37*
G36*
X39699Y109702D02*
X39501D01*
X39317Y109626D01*
X39176Y109485D01*
X39100Y109301D01*
Y109103D01*
X39176Y108919D01*
X39317Y108778D01*
X39501Y108702D01*
X39699D01*
X39883Y108778D01*
X40024Y108919D01*
X40100Y109103D01*
Y109301D01*
X40024Y109485D01*
X39883Y109626D01*
X39699Y109702D01*
D02*
G37*
G36*
X37299D02*
X37101D01*
X36917Y109626D01*
X36776Y109485D01*
X36700Y109301D01*
Y109103D01*
X36776Y108919D01*
X36917Y108778D01*
X37101Y108702D01*
X37299D01*
X37483Y108778D01*
X37624Y108919D01*
X37700Y109103D01*
Y109301D01*
X37624Y109485D01*
X37483Y109626D01*
X37299Y109702D01*
D02*
G37*
G36*
X21649Y111400D02*
X21451D01*
X21267Y111324D01*
X21126Y111183D01*
X21050Y110999D01*
Y110801D01*
X21126Y110617D01*
X21211Y110532D01*
X21253Y110450D01*
X21211Y110368D01*
X21126Y110283D01*
X21050Y110099D01*
Y109901D01*
X21126Y109717D01*
X21211Y109632D01*
X21253Y109550D01*
X21211Y109468D01*
X21126Y109383D01*
X21050Y109199D01*
Y109001D01*
X21126Y108817D01*
X21267Y108676D01*
X21451Y108600D01*
X21649D01*
X21833Y108676D01*
X21974Y108817D01*
X22022Y108933D01*
X22126Y109025D01*
X22324D01*
X22508Y109101D01*
X22649Y109242D01*
X22725Y109426D01*
Y109624D01*
X22649Y109808D01*
X22564Y109893D01*
X22522Y109975D01*
X22564Y110057D01*
X22649Y110142D01*
X22725Y110326D01*
Y110524D01*
X22649Y110708D01*
X22508Y110849D01*
X22324Y110925D01*
X22126D01*
X22040Y111025D01*
X21974Y111183D01*
X21833Y111324D01*
X21649Y111400D01*
D02*
G37*
G36*
X16886Y109500D02*
X16714D01*
X16549Y109456D01*
X16401Y109370D01*
X16280Y109249D01*
X16194Y109101D01*
X16150Y108936D01*
Y108764D01*
X16194Y108599D01*
X16280Y108451D01*
X16401Y108330D01*
X16549Y108244D01*
X16714Y108200D01*
X16886D01*
X17051Y108244D01*
X17199Y108330D01*
X17320Y108451D01*
X17406Y108599D01*
X17450Y108764D01*
Y108936D01*
X17406Y109101D01*
X17320Y109249D01*
X17199Y109370D01*
X17051Y109456D01*
X16886Y109500D01*
D02*
G37*
G36*
X38499Y108502D02*
X38301D01*
X38117Y108426D01*
X37976Y108285D01*
X37900Y108101D01*
Y107903D01*
X37976Y107719D01*
X38117Y107578D01*
X38301Y107502D01*
X38499D01*
X38683Y107578D01*
X38824Y107719D01*
X38900Y107903D01*
Y108101D01*
X38824Y108285D01*
X38683Y108426D01*
X38499Y108502D01*
D02*
G37*
G36*
X14349Y106950D02*
X14151D01*
X13967Y106874D01*
X13826Y106733D01*
X13750Y106549D01*
Y106351D01*
X13826Y106167D01*
X13967Y106026D01*
X14151Y105950D01*
X14349D01*
X14533Y106026D01*
X14674Y106167D01*
X14750Y106351D01*
Y106549D01*
X14674Y106733D01*
X14533Y106874D01*
X14349Y106950D01*
D02*
G37*
G36*
X6349Y106300D02*
X6151D01*
X5967Y106224D01*
X5826Y106083D01*
X5750Y105899D01*
Y105701D01*
X5826Y105517D01*
X5967Y105376D01*
X6060Y105337D01*
Y105202D01*
X5992Y105174D01*
X5851Y105033D01*
X5775Y104849D01*
Y104651D01*
X5851Y104467D01*
X5992Y104326D01*
X6176Y104250D01*
X6374D01*
X6558Y104326D01*
X6699Y104467D01*
X6775Y104651D01*
Y104849D01*
X6699Y105033D01*
X6558Y105174D01*
X6465Y105213D01*
Y105348D01*
X6533Y105376D01*
X6674Y105517D01*
X6750Y105701D01*
Y105899D01*
X6674Y106083D01*
X6533Y106224D01*
X6349Y106300D01*
D02*
G37*
G36*
X13711Y104250D02*
X13539D01*
X13374Y104206D01*
X13226Y104120D01*
X13105Y103999D01*
X13019Y103851D01*
X12975Y103686D01*
Y103514D01*
X13019Y103349D01*
X13105Y103201D01*
X13226Y103080D01*
X13374Y102994D01*
X13539Y102950D01*
X13711D01*
X13876Y102994D01*
X14024Y103080D01*
X14145Y103201D01*
X14231Y103349D01*
X14275Y103514D01*
Y103686D01*
X14231Y103851D01*
X14145Y103999D01*
X14024Y104120D01*
X13876Y104206D01*
X13711Y104250D01*
D02*
G37*
G36*
X12036Y104250D02*
X11864D01*
X11699Y104206D01*
X11551Y104120D01*
X11430Y103999D01*
X11344Y103851D01*
X11300Y103686D01*
Y103514D01*
X11344Y103349D01*
X11430Y103201D01*
X11551Y103080D01*
X11699Y102994D01*
X11864Y102950D01*
X12036D01*
X12201Y102994D01*
X12349Y103080D01*
X12470Y103201D01*
X12556Y103349D01*
X12600Y103514D01*
Y103686D01*
X12556Y103851D01*
X12470Y103999D01*
X12349Y104120D01*
X12201Y104206D01*
X12036Y104250D01*
D02*
G37*
G36*
X9736Y103487D02*
X9564D01*
X9399Y103443D01*
X9251Y103358D01*
X9130Y103237D01*
X9044Y103088D01*
X9000Y102923D01*
Y102752D01*
X9044Y102587D01*
X9130Y102438D01*
X9251Y102317D01*
X9399Y102232D01*
X9564Y102187D01*
X9736D01*
X9901Y102232D01*
X10049Y102317D01*
X10170Y102438D01*
X10256Y102587D01*
X10300Y102752D01*
Y102923D01*
X10256Y103088D01*
X10170Y103237D01*
X10049Y103358D01*
X9901Y103443D01*
X9736Y103487D01*
D02*
G37*
G36*
X28899Y103099D02*
X28701D01*
X28517Y103023D01*
X28376Y102883D01*
X28300Y102699D01*
Y102500D01*
X28376Y102316D01*
X28517Y102176D01*
X28701Y102099D01*
X28899D01*
X29083Y102176D01*
X29224Y102316D01*
X29300Y102500D01*
Y102699D01*
X29224Y102883D01*
X29083Y103023D01*
X28899Y103099D01*
D02*
G37*
G36*
X13711Y102725D02*
X13539D01*
X13374Y102681D01*
X13226Y102595D01*
X13105Y102474D01*
X13019Y102326D01*
X12975Y102161D01*
Y101989D01*
X13019Y101824D01*
X13105Y101676D01*
X13226Y101555D01*
X13374Y101469D01*
X13539Y101425D01*
X13711D01*
X13876Y101469D01*
X14024Y101555D01*
X14145Y101676D01*
X14231Y101824D01*
X14275Y101989D01*
Y102161D01*
X14231Y102326D01*
X14145Y102474D01*
X14024Y102595D01*
X13876Y102681D01*
X13711Y102725D01*
D02*
G37*
G36*
X12036D02*
X11864D01*
X11699Y102681D01*
X11551Y102595D01*
X11430Y102474D01*
X11344Y102326D01*
X11300Y102161D01*
Y101989D01*
X11344Y101824D01*
X11430Y101676D01*
X11551Y101555D01*
X11699Y101469D01*
X11864Y101425D01*
X12036D01*
X12201Y101469D01*
X12349Y101555D01*
X12470Y101676D01*
X12556Y101824D01*
X12600Y101989D01*
Y102161D01*
X12556Y102326D01*
X12470Y102474D01*
X12349Y102595D01*
X12201Y102681D01*
X12036Y102725D01*
D02*
G37*
G36*
X23799Y101100D02*
X23601D01*
X23417Y101024D01*
X23276Y100883D01*
X23274Y100883D01*
X23183Y100974D01*
X22999Y101050D01*
X22801D01*
X22617Y100974D01*
X22476Y100833D01*
X22400Y100649D01*
Y100451D01*
X22476Y100267D01*
X22617Y100126D01*
X22801Y100050D01*
X22999D01*
X23183Y100126D01*
X23324Y100267D01*
X23326Y100267D01*
X23417Y100176D01*
X23601Y100100D01*
X23799D01*
X23983Y100176D01*
X24124Y100317D01*
X24200Y100501D01*
Y100699D01*
X24124Y100883D01*
X23983Y101024D01*
X23799Y101100D01*
D02*
G37*
G36*
X39624Y101125D02*
X39426D01*
X39242Y101049D01*
X39101Y100908D01*
X39025Y100724D01*
Y100526D01*
X39101Y100342D01*
X39242Y100201D01*
X39426Y100125D01*
X39624D01*
X39808Y100201D01*
X39949Y100342D01*
X40025Y100526D01*
Y100724D01*
X39949Y100908D01*
X39808Y101049D01*
X39624Y101125D01*
D02*
G37*
G36*
X38324D02*
X38126D01*
X37942Y101049D01*
X37801Y100908D01*
X37725Y100724D01*
Y100526D01*
X37801Y100342D01*
X37942Y100201D01*
X38126Y100125D01*
X38324D01*
X38508Y100201D01*
X38649Y100342D01*
X38725Y100526D01*
Y100724D01*
X38649Y100908D01*
X38508Y101049D01*
X38324Y101125D01*
D02*
G37*
G36*
X36974D02*
X36776D01*
X36592Y101049D01*
X36451Y100908D01*
X36375Y100724D01*
Y100526D01*
X36451Y100342D01*
X36592Y100201D01*
X36776Y100125D01*
X36974D01*
X37158Y100201D01*
X37299Y100342D01*
X37375Y100526D01*
Y100724D01*
X37299Y100908D01*
X37158Y101049D01*
X36974Y101125D01*
D02*
G37*
G36*
X25799Y98200D02*
X25601D01*
X25417Y98124D01*
X25276Y97983D01*
X25268Y97963D01*
X25132D01*
X25124Y97983D01*
X24983Y98124D01*
X24799Y98200D01*
X24601D01*
X24417Y98124D01*
X24276Y97983D01*
X24263Y97950D01*
X24138D01*
X24124Y97983D01*
X23983Y98124D01*
X23799Y98200D01*
X23601D01*
X23417Y98124D01*
X23276Y97983D01*
X23268Y97963D01*
X23132D01*
X23124Y97983D01*
X22983Y98124D01*
X22799Y98200D01*
X22601D01*
X22417Y98124D01*
X22276Y97983D01*
X22200Y97799D01*
Y97601D01*
X22276Y97417D01*
X22417Y97276D01*
X22601Y97200D01*
X22799D01*
X22983Y97276D01*
X23124Y97417D01*
X23132Y97437D01*
X23268D01*
X23276Y97417D01*
X23417Y97276D01*
X23601Y97200D01*
X23799D01*
X23983Y97276D01*
X24124Y97417D01*
X24138Y97450D01*
X24263D01*
X24276Y97417D01*
X24417Y97276D01*
X24601Y97200D01*
X24799D01*
X24983Y97276D01*
X25124Y97417D01*
X25132Y97437D01*
X25268D01*
X25276Y97417D01*
X25417Y97276D01*
X25601Y97200D01*
X25799D01*
X25983Y97276D01*
X26124Y97417D01*
X26200Y97601D01*
Y97799D01*
X26124Y97983D01*
X25983Y98124D01*
X25799Y98200D01*
D02*
G37*
G36*
X19299Y98225D02*
X19101D01*
X18917Y98149D01*
X18776Y98008D01*
X18700Y97824D01*
Y97626D01*
X18776Y97442D01*
X18917Y97301D01*
X19101Y97225D01*
X19299D01*
X19483Y97301D01*
X19624Y97442D01*
X19700Y97626D01*
Y97824D01*
X19624Y98008D01*
X19483Y98149D01*
X19299Y98225D01*
D02*
G37*
G36*
X38324Y99575D02*
X38126D01*
X37942Y99499D01*
X37801Y99358D01*
X37725Y99174D01*
Y98976D01*
X37801Y98792D01*
X37942Y98651D01*
X38023Y98618D01*
Y98482D01*
X37942Y98449D01*
X37801Y98308D01*
X37725Y98124D01*
Y97926D01*
X37801Y97742D01*
X37942Y97601D01*
X37962Y97593D01*
Y97457D01*
X37942Y97449D01*
X37801Y97308D01*
X37725Y97124D01*
Y96926D01*
X37801Y96742D01*
X37942Y96601D01*
X38126Y96525D01*
X38324D01*
X38508Y96601D01*
X38649Y96742D01*
X38725Y96926D01*
Y97124D01*
X38649Y97308D01*
X38508Y97449D01*
X38488Y97457D01*
Y97593D01*
X38508Y97601D01*
X38649Y97742D01*
X38725Y97926D01*
Y98124D01*
X38649Y98308D01*
X38508Y98449D01*
X38427Y98482D01*
Y98618D01*
X38508Y98651D01*
X38649Y98792D01*
X38725Y98976D01*
Y99174D01*
X38649Y99358D01*
X38508Y99499D01*
X38324Y99575D01*
D02*
G37*
G36*
X16199Y96150D02*
X16001D01*
X15817Y96074D01*
X15676Y95933D01*
X15600Y95749D01*
Y95551D01*
X15676Y95367D01*
X15817Y95226D01*
X16001Y95150D01*
X16199D01*
X16383Y95226D01*
X16468Y95311D01*
X16594Y95316D01*
X16619Y95299D01*
X16742Y95176D01*
X16926Y95100D01*
X17124D01*
X17308Y95176D01*
X17449Y95317D01*
X17525Y95501D01*
Y95699D01*
X17449Y95883D01*
X17308Y96024D01*
X17124Y96100D01*
X16926D01*
X16742Y96024D01*
X16657Y95939D01*
X16531Y95934D01*
X16506Y95951D01*
X16383Y96074D01*
X16199Y96150D01*
D02*
G37*
G36*
X39749Y96000D02*
X39551D01*
X39367Y95924D01*
X39226Y95783D01*
X39150Y95599D01*
Y95401D01*
X39226Y95217D01*
X39367Y95076D01*
X39551Y95000D01*
X39749D01*
X39933Y95076D01*
X40074Y95217D01*
X40150Y95401D01*
Y95599D01*
X40074Y95783D01*
X39933Y95924D01*
X39749Y96000D01*
D02*
G37*
G36*
X38324Y95975D02*
X38126D01*
X37942Y95899D01*
X37801Y95758D01*
X37725Y95574D01*
Y95376D01*
X37801Y95192D01*
X37942Y95051D01*
X38126Y94975D01*
X38324D01*
X38508Y95051D01*
X38649Y95192D01*
X38725Y95376D01*
Y95574D01*
X38649Y95758D01*
X38508Y95899D01*
X38324Y95975D01*
D02*
G37*
G36*
X36899Y95950D02*
X36701D01*
X36517Y95874D01*
X36376Y95733D01*
X36300Y95549D01*
Y95351D01*
X36376Y95167D01*
X36517Y95026D01*
X36701Y94950D01*
X36899D01*
X37083Y95026D01*
X37224Y95167D01*
X37300Y95351D01*
Y95549D01*
X37224Y95733D01*
X37083Y95874D01*
X36899Y95950D01*
D02*
G37*
G36*
X12360Y97700D02*
X10840D01*
Y96180D01*
X10873D01*
X10945Y96055D01*
X10892Y95963D01*
X10840Y95770D01*
Y95570D01*
X10892Y95377D01*
X10992Y95203D01*
X11133Y95062D01*
X11307Y94962D01*
X11500Y94910D01*
X11700D01*
X11893Y94962D01*
X12067Y95062D01*
X12208Y95203D01*
X12308Y95377D01*
X12360Y95570D01*
Y95770D01*
X12308Y95963D01*
X12255Y96055D01*
X12327Y96180D01*
X12360D01*
Y97700D01*
D02*
G37*
G36*
X21886Y106600D02*
X21714D01*
X21549Y106556D01*
X21401Y106470D01*
X21280Y106349D01*
X21194Y106201D01*
X21150Y106036D01*
Y105864D01*
X21194Y105699D01*
X21280Y105551D01*
X21401Y105430D01*
X21549Y105344D01*
X21714Y105300D01*
X21886D01*
X21961Y105320D01*
X28469Y98813D01*
Y95251D01*
X28376Y95158D01*
X28300Y94974D01*
Y94776D01*
X28376Y94592D01*
X28517Y94451D01*
X28701Y94375D01*
X28899D01*
X29083Y94451D01*
X29224Y94592D01*
X29300Y94776D01*
Y94974D01*
X29224Y95158D01*
X29131Y95251D01*
Y98950D01*
X29106Y99077D01*
X29034Y99184D01*
X22430Y105789D01*
X22450Y105864D01*
Y106036D01*
X22406Y106201D01*
X22320Y106349D01*
X22199Y106470D01*
X22051Y106556D01*
X21886Y106600D01*
D02*
G37*
G36*
X16557Y94357D02*
X16303D01*
X16059Y94291D01*
X15839Y94165D01*
X15660Y93986D01*
X15534Y93766D01*
X15468Y93522D01*
Y93268D01*
X15534Y93024D01*
X15660Y92804D01*
X15839Y92625D01*
X16059Y92499D01*
X16303Y92433D01*
X16557D01*
X16801Y92499D01*
X17021Y92625D01*
X17200Y92804D01*
X17326Y93024D01*
X17392Y93268D01*
Y93522D01*
X17326Y93766D01*
X17200Y93986D01*
X17021Y94165D01*
X16801Y94291D01*
X16557Y94357D01*
D02*
G37*
G36*
X11477D02*
X11223D01*
X10979Y94291D01*
X10759Y94165D01*
X10580Y93986D01*
X10454Y93766D01*
X10388Y93522D01*
Y93268D01*
X10454Y93024D01*
X10580Y92804D01*
X10759Y92625D01*
X10979Y92499D01*
X11223Y92433D01*
X11477D01*
X11721Y92499D01*
X11941Y92625D01*
X12120Y92804D01*
X12246Y93024D01*
X12312Y93268D01*
Y93522D01*
X12246Y93766D01*
X12120Y93986D01*
X11941Y94165D01*
X11721Y94291D01*
X11477Y94357D01*
D02*
G37*
G36*
X6397D02*
X6143D01*
X5899Y94291D01*
X5679Y94165D01*
X5500Y93986D01*
X5374Y93766D01*
X5308Y93522D01*
Y93268D01*
X5374Y93024D01*
X5500Y92804D01*
X5679Y92625D01*
X5899Y92499D01*
X6143Y92433D01*
X6397D01*
X6641Y92499D01*
X6861Y92625D01*
X7040Y92804D01*
X7166Y93024D01*
X7232Y93268D01*
Y93522D01*
X7166Y93766D01*
X7040Y93986D01*
X6861Y94165D01*
X6641Y94291D01*
X6397Y94357D01*
D02*
G37*
G36*
X8699Y91950D02*
X8501D01*
X8317Y91874D01*
X8176Y91733D01*
X8100Y91549D01*
Y91351D01*
X8176Y91167D01*
X8317Y91026D01*
X8501Y90950D01*
X8699D01*
X8883Y91026D01*
X9024Y91167D01*
X9100Y91351D01*
Y91549D01*
X9024Y91733D01*
X8883Y91874D01*
X8699Y91950D01*
D02*
G37*
G36*
X12600Y90543D02*
Y90150D01*
X12993D01*
X12900Y90311D01*
X12760Y90450D01*
X12600Y90543D01*
D02*
G37*
G36*
X12000D02*
X11839Y90450D01*
X11700Y90311D01*
X11607Y90150D01*
X12000D01*
Y90543D01*
D02*
G37*
G36*
X24430Y91625D02*
X24220D01*
X24016Y91570D01*
X23834Y91465D01*
X23685Y91316D01*
X23580Y91134D01*
X23525Y90930D01*
Y90720D01*
X23580Y90516D01*
X23685Y90334D01*
X23834Y90185D01*
X24016Y90080D01*
X24220Y90025D01*
X24430D01*
X24634Y90080D01*
X24816Y90185D01*
X24965Y90334D01*
X25070Y90516D01*
X25125Y90720D01*
Y90930D01*
X25070Y91134D01*
X24965Y91316D01*
X24816Y91465D01*
X24634Y91570D01*
X24430Y91625D01*
D02*
G37*
G36*
X12993Y89550D02*
X12600D01*
Y89157D01*
X12760Y89250D01*
X12900Y89389D01*
X12993Y89550D01*
D02*
G37*
G36*
X12000D02*
X11607D01*
X11700Y89389D01*
X11839Y89250D01*
X12000Y89157D01*
Y89550D01*
D02*
G37*
G36*
X25125Y89625D02*
X23525D01*
Y88025D01*
X25125D01*
Y89625D01*
D02*
G37*
G36*
X23099Y88125D02*
X22901D01*
X22717Y88049D01*
X22576Y87908D01*
X22500Y87724D01*
Y87526D01*
X22576Y87342D01*
X22717Y87201D01*
X22901Y87125D01*
X23099D01*
X23283Y87201D01*
X23424Y87342D01*
X23500Y87526D01*
Y87724D01*
X23424Y87908D01*
X23283Y88049D01*
X23099Y88125D01*
D02*
G37*
G36*
X10399Y87975D02*
X10201D01*
X10017Y87899D01*
X9876Y87758D01*
X9800Y87574D01*
Y87376D01*
X9876Y87192D01*
X10017Y87051D01*
X10201Y86975D01*
X10399D01*
X10583Y87051D01*
X10724Y87192D01*
X10800Y87376D01*
Y87574D01*
X10724Y87758D01*
X10583Y87899D01*
X10399Y87975D01*
D02*
G37*
G36*
X28249Y87575D02*
X28051D01*
X27867Y87499D01*
X27726Y87358D01*
X27650Y87174D01*
Y86976D01*
X27726Y86792D01*
X27867Y86651D01*
X28051Y86575D01*
X28249D01*
X28433Y86651D01*
X28574Y86792D01*
X28650Y86976D01*
Y87174D01*
X28574Y87358D01*
X28433Y87499D01*
X28249Y87575D01*
D02*
G37*
G36*
X23185Y86410D02*
X21665D01*
Y86377D01*
X21540Y86305D01*
X21448Y86358D01*
X21255Y86410D01*
X21055D01*
X20862Y86358D01*
X20688Y86258D01*
X20547Y86117D01*
X20447Y85943D01*
X20395Y85750D01*
Y85550D01*
X20447Y85357D01*
X20547Y85183D01*
X20688Y85042D01*
X20862Y84942D01*
X21055Y84890D01*
X21255D01*
X21448Y84942D01*
X21540Y84995D01*
X21665Y84923D01*
Y84890D01*
X23185D01*
Y86410D01*
D02*
G37*
G36*
X28599Y86000D02*
X28401D01*
X28217Y85924D01*
X28076Y85783D01*
X28000Y85599D01*
Y85401D01*
X28076Y85217D01*
X28217Y85076D01*
X28401Y85000D01*
X28599D01*
X28783Y85076D01*
X28924Y85217D01*
X29000Y85401D01*
Y85599D01*
X28924Y85783D01*
X28783Y85924D01*
X28599Y86000D01*
D02*
G37*
%LPD*%
D12*
X28800Y94875D02*
Y98950D01*
X21800Y105950D02*
X28800Y98950D01*
D14*
X64550Y105850D02*
X64900Y105500D01*
Y88200D02*
Y105500D01*
X59300Y82600D02*
X64900Y88200D01*
X43050Y78850D02*
X46800Y82600D01*
X59300D01*
X43050Y75100D02*
Y78850D01*
Y70532D02*
Y71257D01*
X43284Y70298D02*
X47553D01*
X43050Y70532D02*
X43284Y70298D01*
X60430Y105850D02*
X64550D01*
X59080Y104500D02*
X60430Y105850D01*
D15*
X775Y41525D02*
Y112975D01*
X1195Y41105D02*
X1595D01*
X775Y41525D02*
X1195Y41105D01*
X1595D02*
X1625Y41075D01*
X2900D01*
X7475Y45650D01*
X13250D02*
X14512Y46912D01*
X7475Y45650D02*
X13250D01*
X775Y112975D02*
X1675Y113875D01*
D137*
X52000Y75100D02*
X53375Y73725D01*
X43050Y75100D02*
X52000D01*
X43050Y71257D02*
Y75100D01*
X53375Y73725D02*
X54800Y72300D01*
Y62675D02*
Y72300D01*
X53225Y61100D02*
X54800Y62675D01*
D143*
X55525Y119980D02*
D03*
X59080Y104500D02*
D03*
D145*
X47553Y70298D02*
D03*
D146*
X72000Y33500D02*
D03*
X86000Y100096D02*
D03*
D152*
X21800Y105950D02*
D03*
X12300Y89850D02*
D03*
D158*
X87925Y38425D02*
D03*
X86850D02*
D03*
X22500Y129200D02*
D03*
X44100Y118400D02*
D03*
X47525Y125775D02*
D03*
X43800Y125800D02*
D03*
X24700Y20800D02*
D03*
X53375Y73725D02*
D03*
X53225Y61100D02*
D03*
X18950Y47000D02*
D03*
X1350Y98975D02*
D03*
Y93000D02*
D03*
Y43225D02*
D03*
X2150Y53426D02*
D03*
X2500Y59875D02*
D03*
X2150Y65978D02*
D03*
Y78530D02*
D03*
Y84806D02*
D03*
X2500Y103626D02*
D03*
Y109902D02*
D03*
X18600Y127825D02*
D03*
X13350Y131250D02*
D03*
X1625Y41075D02*
D03*
X1850Y35775D02*
D03*
X6288Y128105D02*
D03*
X2325Y123850D02*
D03*
X49500Y131300D02*
D03*
X55475D02*
D03*
X37475Y131450D02*
D03*
X33866Y126925D02*
D03*
X43475Y131430D02*
D03*
X2150Y72254D02*
D03*
X24775Y126550D02*
D03*
X33475Y117100D02*
D03*
X2500Y116178D02*
D03*
X1750Y48575D02*
D03*
X5821Y25711D02*
D03*
X5922Y19379D02*
D03*
X5821Y13259D02*
D03*
X7271Y9364D02*
D03*
X11393Y7357D02*
D03*
X17150Y6125D02*
D03*
X23046Y5821D02*
D03*
X29046D02*
D03*
X35046D02*
D03*
X41039Y5788D02*
D03*
X47036Y5896D02*
D03*
X53050Y5825D02*
D03*
X8450Y124275D02*
D03*
X37650Y6825D02*
D03*
X17925Y87450D02*
D03*
X17900Y91675D02*
D03*
X13225Y91275D02*
D03*
Y88400D02*
D03*
X15375Y87450D02*
D03*
X14512Y46912D02*
D03*
X1675Y113875D02*
D03*
X31450Y17550D02*
D03*
X19300Y107775D02*
D03*
X22125Y121425D02*
D03*
X28800Y94875D02*
D03*
D159*
X88675Y35775D02*
X89850Y36950D01*
X72000Y34475D02*
X73300Y35775D01*
X88675D01*
X89850Y36950D02*
Y42925D01*
X85775Y47000D02*
X89850Y42925D01*
X75825Y94350D02*
X84100D01*
X69150Y50233D02*
Y87675D01*
X75825Y94350D01*
X65917Y47000D02*
X69150Y50233D01*
X18950Y47000D02*
X65917D01*
X85775D01*
X18001Y38151D02*
X18800Y38950D01*
X86325D02*
X86850Y38425D01*
X18800Y38950D02*
X86325D01*
X72000Y33514D02*
Y34475D01*
X86000Y96250D02*
Y100096D01*
X84100Y94350D02*
X86000Y96250D01*
M02*
