G04*
<<<<<<< HEAD
G04 #@! TF.GenerationSoftware,Altium Limited,Altium Designer,24.2.2 (26)*
=======
G04 #@! TF.GenerationSoftware,Altium Limited,Altium Designer,25.1.2 (22)*
>>>>>>> 613e14270cc375eb23a491e7e857863a29f37ea3
G04*
G04 Layer_Color=16711935*
%FSLAX43Y43*%
%MOMM*%
G71*
G04*
<<<<<<< HEAD
G04 #@! TF.SameCoordinates,ED9163A0-6DB0-4723-8498-66EEF6ED2332*
=======
G04 #@! TF.SameCoordinates,67307762-3149-45A4-8697-BBC3368EA460*
>>>>>>> 613e14270cc375eb23a491e7e857863a29f37ea3
G04*
G04*
G04 #@! TF.FilePolarity,Negative*
G04*
G01*
G75*
%ADD20R,3.100X1.700*%
G04:AMPARAMS|DCode=30|XSize=0.6mm|YSize=0.7mm|CornerRadius=0.175mm|HoleSize=0mm|Usage=FLASHONLY|Rotation=180.000|XOffset=0mm|YOffset=0mm|HoleType=Round|Shape=RoundedRectangle|*
%AMROUNDEDRECTD30*
21,1,0.600,0.350,0,0,180.0*
21,1,0.250,0.700,0,0,180.0*
1,1,0.350,-0.125,0.175*
1,1,0.350,0.125,0.175*
1,1,0.350,0.125,-0.175*
1,1,0.350,-0.125,-0.175*
%
%ADD30ROUNDEDRECTD30*%
G04:AMPARAMS|DCode=32|XSize=0.6mm|YSize=0.7mm|CornerRadius=0.175mm|HoleSize=0mm|Usage=FLASHONLY|Rotation=90.000|XOffset=0mm|YOffset=0mm|HoleType=Round|Shape=RoundedRectangle|*
%AMROUNDEDRECTD32*
21,1,0.600,0.350,0,0,90.0*
21,1,0.250,0.700,0,0,90.0*
1,1,0.350,0.175,0.125*
1,1,0.350,0.175,-0.125*
1,1,0.350,-0.175,-0.125*
1,1,0.350,-0.175,0.125*
%
%ADD32ROUNDEDRECTD32*%
%ADD40R,1.200X1.700*%
%ADD41R,0.350X1.600*%
%ADD42R,0.550X1.600*%
%ADD50R,0.600X0.700*%
%ADD51R,0.700X0.600*%
%ADD76C,6.900*%
%ADD77C,2.000*%
%ADD78R,2.000X2.000*%
%ADD79C,1.800*%
%ADD80C,0.950*%
%ADD81R,0.950X0.950*%
%ADD82C,1.300*%
%ADD83R,1.300X1.300*%
%ADD84O,1.000X1.250*%
%ADD85O,1.100X1.500*%
%ADD86C,1.000*%
%ADD87C,1.220*%
%ADD88R,1.220X1.220*%
%ADD89C,0.100*%
%ADD90C,1.624*%
%ADD91R,1.220X1.220*%
%ADD92C,6.100*%
%ADD93C,0.700*%
%ADD184R,1.125X1.125*%
%ADD185R,3.625X3.650*%
%ADD186R,3.200X3.175*%
%ADD187R,1.300X2.375*%
%ADD188R,2.375X1.300*%
%ADD189R,14.950X0.950*%
G04:AMPARAMS|DCode=190|XSize=0.6mm|YSize=0.7mm|CornerRadius=0.175mm|HoleSize=0mm|Usage=FLASHONLY|Rotation=230.000|XOffset=0mm|YOffset=0mm|HoleType=Round|Shape=RoundedRectangle|*
%AMROUNDEDRECTD190*
21,1,0.600,0.350,0,0,230.0*
21,1,0.250,0.700,0,0,230.0*
1,1,0.350,-0.214,0.017*
1,1,0.350,-0.054,0.208*
1,1,0.350,0.214,-0.017*
1,1,0.350,0.054,-0.208*
%
%ADD190ROUNDEDRECTD190*%
G04:AMPARAMS|DCode=191|XSize=0.6mm|YSize=0.7mm|CornerRadius=0.175mm|HoleSize=0mm|Usage=FLASHONLY|Rotation=290.000|XOffset=0mm|YOffset=0mm|HoleType=Round|Shape=RoundedRectangle|*
%AMROUNDEDRECTD191*
21,1,0.600,0.350,0,0,290.0*
21,1,0.250,0.700,0,0,290.0*
1,1,0.350,-0.122,-0.177*
1,1,0.350,-0.207,0.058*
1,1,0.350,0.122,0.177*
1,1,0.350,0.207,-0.058*
%
%ADD191ROUNDEDRECTD191*%
G04:AMPARAMS|DCode=192|XSize=0.6mm|YSize=0.7mm|CornerRadius=0.175mm|HoleSize=0mm|Usage=FLASHONLY|Rotation=187.000|XOffset=0mm|YOffset=0mm|HoleType=Round|Shape=RoundedRectangle|*
%AMROUNDEDRECTD192*
21,1,0.600,0.350,0,0,187.0*
21,1,0.250,0.700,0,0,187.0*
1,1,0.350,-0.145,0.158*
1,1,0.350,0.103,0.189*
1,1,0.350,0.145,-0.158*
1,1,0.350,-0.103,-0.189*
%
%ADD192ROUNDEDRECTD192*%
G04:AMPARAMS|DCode=193|XSize=0.6mm|YSize=0.7mm|CornerRadius=0.175mm|HoleSize=0mm|Usage=FLASHONLY|Rotation=353.000|XOffset=0mm|YOffset=0mm|HoleType=Round|Shape=RoundedRectangle|*
%AMROUNDEDRECTD193*
21,1,0.600,0.350,0,0,353.0*
21,1,0.250,0.700,0,0,353.0*
1,1,0.350,0.103,-0.189*
1,1,0.350,-0.145,-0.158*
1,1,0.350,-0.103,0.189*
1,1,0.350,0.145,0.158*
%
%ADD193ROUNDEDRECTD193*%
G04:AMPARAMS|DCode=194|XSize=0.6mm|YSize=0.7mm|CornerRadius=0.175mm|HoleSize=0mm|Usage=FLASHONLY|Rotation=340.000|XOffset=0mm|YOffset=0mm|HoleType=Round|Shape=RoundedRectangle|*
%AMROUNDEDRECTD194*
21,1,0.600,0.350,0,0,340.0*
21,1,0.250,0.700,0,0,340.0*
1,1,0.350,0.058,-0.207*
1,1,0.350,-0.177,-0.122*
1,1,0.350,-0.058,0.207*
1,1,0.350,0.177,0.122*
%
%ADD194ROUNDEDRECTD194*%
G04:AMPARAMS|DCode=195|XSize=0.6mm|YSize=0.7mm|CornerRadius=0.175mm|HoleSize=0mm|Usage=FLASHONLY|Rotation=310.000|XOffset=0mm|YOffset=0mm|HoleType=Round|Shape=RoundedRectangle|*
%AMROUNDEDRECTD195*
21,1,0.600,0.350,0,0,310.0*
21,1,0.250,0.700,0,0,310.0*
1,1,0.350,-0.054,-0.208*
1,1,0.350,-0.214,-0.017*
1,1,0.350,0.054,0.208*
1,1,0.350,0.214,0.017*
%
%ADD195ROUNDEDRECTD195*%
G04:AMPARAMS|DCode=196|XSize=1.19mm|YSize=0.5mm|CornerRadius=0mm|HoleSize=0mm|Usage=FLASHONLY|Rotation=320.000|XOffset=0mm|YOffset=0mm|HoleType=Round|Shape=Rectangle|*
%AMROTATEDRECTD196*
4,1,4,-0.616,0.191,-0.295,0.574,0.616,-0.191,0.295,-0.574,-0.616,0.191,0.0*
%
%ADD196ROTATEDRECTD196*%

G04:AMPARAMS|DCode=197|XSize=1.19mm|YSize=0.5mm|CornerRadius=0.15mm|HoleSize=0mm|Usage=FLASHONLY|Rotation=320.000|XOffset=0mm|YOffset=0mm|HoleType=Round|Shape=RoundedRectangle|*
%AMROUNDEDRECTD197*
21,1,1.190,0.200,0,0,320.0*
21,1,0.890,0.500,0,0,320.0*
1,1,0.300,0.277,-0.363*
1,1,0.300,-0.405,0.209*
1,1,0.300,-0.277,0.363*
1,1,0.300,0.405,-0.209*
%
%ADD197ROUNDEDRECTD197*%
%ADD198R,0.500X1.190*%
G04:AMPARAMS|DCode=199|XSize=1.19mm|YSize=0.5mm|CornerRadius=0.15mm|HoleSize=0mm|Usage=FLASHONLY|Rotation=90.000|XOffset=0mm|YOffset=0mm|HoleType=Round|Shape=RoundedRectangle|*
%AMROUNDEDRECTD199*
21,1,1.190,0.200,0,0,90.0*
21,1,0.890,0.500,0,0,90.0*
1,1,0.300,0.100,0.445*
1,1,0.300,0.100,-0.445*
1,1,0.300,-0.100,-0.445*
1,1,0.300,-0.100,0.445*
%
%ADD199ROUNDEDRECTD199*%
%ADD200R,1.190X0.500*%
G04:AMPARAMS|DCode=201|XSize=1.19mm|YSize=0.5mm|CornerRadius=0.15mm|HoleSize=0mm|Usage=FLASHONLY|Rotation=0.000|XOffset=0mm|YOffset=0mm|HoleType=Round|Shape=RoundedRectangle|*
%AMROUNDEDRECTD201*
21,1,1.190,0.200,0,0,0.0*
21,1,0.890,0.500,0,0,0.0*
1,1,0.300,0.445,-0.100*
1,1,0.300,-0.445,-0.100*
1,1,0.300,-0.445,0.100*
1,1,0.300,0.445,0.100*
%
%ADD201ROUNDEDRECTD201*%
G04:AMPARAMS|DCode=202|XSize=1.19mm|YSize=0.5mm|CornerRadius=0mm|HoleSize=0mm|Usage=FLASHONLY|Rotation=290.000|XOffset=0mm|YOffset=0mm|HoleType=Round|Shape=Rectangle|*
%AMROTATEDRECTD202*
4,1,4,-0.438,0.474,0.031,0.645,0.438,-0.474,-0.031,-0.645,-0.438,0.474,0.0*
%
%ADD202ROTATEDRECTD202*%

G04:AMPARAMS|DCode=203|XSize=1.19mm|YSize=0.5mm|CornerRadius=0.15mm|HoleSize=0mm|Usage=FLASHONLY|Rotation=290.000|XOffset=0mm|YOffset=0mm|HoleType=Round|Shape=RoundedRectangle|*
%AMROUNDEDRECTD203*
21,1,1.190,0.200,0,0,290.0*
21,1,0.890,0.500,0,0,290.0*
1,1,0.300,0.058,-0.452*
1,1,0.300,-0.246,0.384*
1,1,0.300,-0.058,0.452*
1,1,0.300,0.246,-0.384*
%
%ADD203ROUNDEDRECTD203*%
G04:AMPARAMS|DCode=204|XSize=1.19mm|YSize=0.5mm|CornerRadius=0mm|HoleSize=0mm|Usage=FLASHONLY|Rotation=277.000|XOffset=0mm|YOffset=0mm|HoleType=Round|Shape=Rectangle|*
%AMROTATEDRECTD204*
4,1,4,-0.321,0.560,0.176,0.621,0.321,-0.560,-0.176,-0.621,-0.321,0.560,0.0*
%
%ADD204ROTATEDRECTD204*%

G04:AMPARAMS|DCode=205|XSize=1.19mm|YSize=0.5mm|CornerRadius=0.15mm|HoleSize=0mm|Usage=FLASHONLY|Rotation=277.000|XOffset=0mm|YOffset=0mm|HoleType=Round|Shape=RoundedRectangle|*
%AMROUNDEDRECTD205*
21,1,1.190,0.200,0,0,277.0*
21,1,0.890,0.500,0,0,277.0*
1,1,0.300,-0.045,-0.454*
1,1,0.300,-0.153,0.430*
1,1,0.300,0.045,0.454*
1,1,0.300,0.153,-0.430*
%
%ADD205ROUNDEDRECTD205*%
G04:AMPARAMS|DCode=206|XSize=1.19mm|YSize=0.5mm|CornerRadius=0mm|HoleSize=0mm|Usage=FLASHONLY|Rotation=83.000|XOffset=0mm|YOffset=0mm|HoleType=Round|Shape=Rectangle|*
%AMROTATEDRECTD206*
4,1,4,0.176,-0.621,-0.321,-0.560,-0.176,0.621,0.321,0.560,0.176,-0.621,0.0*
%
%ADD206ROTATEDRECTD206*%

G04:AMPARAMS|DCode=207|XSize=1.19mm|YSize=0.5mm|CornerRadius=0.15mm|HoleSize=0mm|Usage=FLASHONLY|Rotation=83.000|XOffset=0mm|YOffset=0mm|HoleType=Round|Shape=RoundedRectangle|*
%AMROUNDEDRECTD207*
21,1,1.190,0.200,0,0,83.0*
21,1,0.890,0.500,0,0,83.0*
1,1,0.300,0.153,0.430*
1,1,0.300,0.045,-0.454*
1,1,0.300,-0.153,-0.430*
1,1,0.300,-0.045,0.454*
%
%ADD207ROUNDEDRECTD207*%
G04:AMPARAMS|DCode=208|XSize=1.19mm|YSize=0.5mm|CornerRadius=0mm|HoleSize=0mm|Usage=FLASHONLY|Rotation=70.000|XOffset=0mm|YOffset=0mm|HoleType=Round|Shape=Rectangle|*
%AMROTATEDRECTD208*
4,1,4,0.031,-0.645,-0.438,-0.474,-0.031,0.645,0.438,0.474,0.031,-0.645,0.0*
%
%ADD208ROTATEDRECTD208*%

G04:AMPARAMS|DCode=209|XSize=1.19mm|YSize=0.5mm|CornerRadius=0.15mm|HoleSize=0mm|Usage=FLASHONLY|Rotation=70.000|XOffset=0mm|YOffset=0mm|HoleType=Round|Shape=RoundedRectangle|*
%AMROUNDEDRECTD209*
21,1,1.190,0.200,0,0,70.0*
21,1,0.890,0.500,0,0,70.0*
1,1,0.300,0.246,0.384*
1,1,0.300,-0.058,-0.452*
1,1,0.300,-0.246,-0.384*
1,1,0.300,0.058,0.452*
%
%ADD209ROUNDEDRECTD209*%
G04:AMPARAMS|DCode=210|XSize=1.19mm|YSize=0.5mm|CornerRadius=0mm|HoleSize=0mm|Usage=FLASHONLY|Rotation=40.000|XOffset=0mm|YOffset=0mm|HoleType=Round|Shape=Rectangle|*
%AMROTATEDRECTD210*
4,1,4,-0.295,-0.574,-0.616,-0.191,0.295,0.574,0.616,0.191,-0.295,-0.574,0.0*
%
%ADD210ROTATEDRECTD210*%

G04:AMPARAMS|DCode=211|XSize=1.19mm|YSize=0.5mm|CornerRadius=0.15mm|HoleSize=0mm|Usage=FLASHONLY|Rotation=40.000|XOffset=0mm|YOffset=0mm|HoleType=Round|Shape=RoundedRectangle|*
%AMROUNDEDRECTD211*
21,1,1.190,0.200,0,0,40.0*
21,1,0.890,0.500,0,0,40.0*
1,1,0.300,0.405,0.209*
1,1,0.300,-0.277,-0.363*
1,1,0.300,-0.405,-0.209*
1,1,0.300,0.277,0.363*
%
%ADD211ROUNDEDRECTD211*%
D20*
X48300Y118800D02*
D03*
Y116200D02*
D03*
D30*
X53035Y5025D02*
D03*
X52035D02*
D03*
X47035D02*
D03*
X46035D02*
D03*
X41035D02*
D03*
X40035D02*
D03*
X35035D02*
D03*
X34035D02*
D03*
X3775Y91475D02*
D03*
X2775D02*
D03*
X22875Y128575D02*
D03*
X23875D02*
D03*
X29035Y5025D02*
D03*
X28035D02*
D03*
X3775Y97725D02*
D03*
X2775D02*
D03*
X28875Y128575D02*
D03*
X29875D02*
D03*
X23035Y5025D02*
D03*
X22035D02*
D03*
X34875Y128575D02*
D03*
X35875D02*
D03*
X3775Y47570D02*
D03*
X2775D02*
D03*
X40875Y128555D02*
D03*
X41875D02*
D03*
X3775Y41200D02*
D03*
X2775D02*
D03*
X46900Y128425D02*
D03*
X47900D02*
D03*
X3775Y34925D02*
D03*
X2775D02*
D03*
X52875Y128575D02*
D03*
X53875D02*
D03*
D32*
X5025Y13270D02*
D03*
Y14270D02*
D03*
Y69654D02*
D03*
Y70654D02*
D03*
Y19446D02*
D03*
Y20446D02*
D03*
Y75930D02*
D03*
Y76930D02*
D03*
Y25722D02*
D03*
Y26722D02*
D03*
Y82206D02*
D03*
Y83206D02*
D03*
Y63378D02*
D03*
Y64378D02*
D03*
X5050Y57450D02*
D03*
Y58450D02*
D03*
X5025Y50826D02*
D03*
Y51826D02*
D03*
Y101034D02*
D03*
Y102034D02*
D03*
Y107310D02*
D03*
Y108310D02*
D03*
Y113586D02*
D03*
Y114586D02*
D03*
Y119762D02*
D03*
Y120762D02*
D03*
D40*
X46250Y118800D02*
D03*
Y116200D02*
D03*
D41*
X48000Y118800D02*
D03*
Y116200D02*
D03*
D42*
X49500Y118800D02*
D03*
Y116200D02*
D03*
D50*
X74475Y31950D02*
D03*
X73475D02*
D03*
X65200Y51400D02*
D03*
X66200D02*
D03*
X64900Y65100D02*
D03*
X65900D02*
D03*
X65200Y54700D02*
D03*
X66200D02*
D03*
X64900Y68400D02*
D03*
X65900D02*
D03*
X61100Y57900D02*
D03*
X62100D02*
D03*
X61100Y71900D02*
D03*
X62100D02*
D03*
X61400Y54700D02*
D03*
X62400D02*
D03*
X54000Y61100D02*
D03*
X55000D02*
D03*
X61400Y68700D02*
D03*
X62400D02*
D03*
X54000Y75100D02*
D03*
X55000D02*
D03*
X54000Y62300D02*
D03*
X55000D02*
D03*
X66200Y53600D02*
D03*
X65200D02*
D03*
X66200Y52500D02*
D03*
X65200D02*
D03*
X54000Y76300D02*
D03*
X55000D02*
D03*
X65900Y67300D02*
D03*
X64900D02*
D03*
X65900Y66200D02*
D03*
X64900D02*
D03*
X61100Y59200D02*
D03*
X62100D02*
D03*
X61100Y73100D02*
D03*
X62100D02*
D03*
X55600Y56300D02*
D03*
X54600D02*
D03*
X55600Y70300D02*
D03*
X54600D02*
D03*
D51*
X25850Y94975D02*
D03*
Y93975D02*
D03*
X27025Y94975D02*
D03*
Y93975D02*
D03*
D76*
X9018Y80250D02*
D03*
Y32250D02*
D03*
X42000D02*
D03*
D77*
X55525Y125060D02*
D03*
Y122520D02*
D03*
Y119980D02*
D03*
X61620Y101960D02*
D03*
Y104500D02*
D03*
X54000Y101960D02*
D03*
X56540D02*
D03*
X59080D02*
D03*
Y104500D02*
D03*
X56540D02*
D03*
X54000D02*
D03*
X16800Y113660D02*
D03*
Y116200D02*
D03*
Y118740D02*
D03*
Y121280D02*
D03*
D78*
X55525Y117440D02*
D03*
X16800Y111120D02*
D03*
D79*
X90120Y49775D02*
D03*
X87580D02*
D03*
X85040D02*
D03*
X79960D02*
D03*
X82500D02*
D03*
X77420D02*
D03*
X74880D02*
D03*
X47553Y54298D02*
D03*
X49553D02*
D03*
X47553Y56298D02*
D03*
X49553D02*
D03*
X47553Y58298D02*
D03*
X49553D02*
D03*
X47553Y60298D02*
D03*
X49553D02*
D03*
X47553Y62298D02*
D03*
X49553D02*
D03*
X47553Y64298D02*
D03*
X49553D02*
D03*
X47553Y66298D02*
D03*
X49553D02*
D03*
X47553Y68298D02*
D03*
X49553D02*
D03*
X47553Y70298D02*
D03*
X49553D02*
D03*
X47553Y72298D02*
D03*
X49553D02*
D03*
D80*
X76000Y33500D02*
D03*
X75000D02*
D03*
X74000D02*
D03*
X73000D02*
D03*
X72000D02*
D03*
X77000D02*
D03*
X85000D02*
D03*
X84000D02*
D03*
X83000D02*
D03*
X82000D02*
D03*
X81000D02*
D03*
X80000D02*
D03*
X79000D02*
D03*
X78000D02*
D03*
X82000Y100096D02*
D03*
X83000D02*
D03*
X84000D02*
D03*
X85000D02*
D03*
X86000D02*
D03*
X81000D02*
D03*
X73000D02*
D03*
X74000D02*
D03*
X75000D02*
D03*
X76000D02*
D03*
X77000D02*
D03*
X78000D02*
D03*
X79000D02*
D03*
X80000D02*
D03*
D81*
X86000Y33500D02*
D03*
X72000Y100096D02*
D03*
D82*
X24325Y90825D02*
D03*
D83*
Y88825D02*
D03*
D84*
X29655Y22550D02*
D03*
Y15050D02*
D03*
X39330Y22550D02*
D03*
Y15050D02*
D03*
D85*
X31805Y15700D02*
D03*
Y21900D02*
D03*
X27505D02*
D03*
Y15700D02*
D03*
X41480D02*
D03*
Y21900D02*
D03*
X37180D02*
D03*
Y15700D02*
D03*
D86*
X24525Y131850D02*
D03*
X23175D02*
D03*
X11950Y103600D02*
D03*
X13625Y103600D02*
D03*
X11950Y102075D02*
D03*
X13625D02*
D03*
X9325Y85075D02*
D03*
X9650Y102837D02*
D03*
X14400Y16450D02*
D03*
Y14675D02*
D03*
X51325Y103250D02*
D03*
X21800Y105950D02*
D03*
X12300Y89850D02*
D03*
X14400Y12800D02*
D03*
X16800Y108850D02*
D03*
X20300Y15900D02*
D03*
Y22000D02*
D03*
X37650Y12675D02*
D03*
X42975Y8200D02*
D03*
X12442Y14675D02*
D03*
Y16450D02*
D03*
X10483Y14675D02*
D03*
Y16450D02*
D03*
X8525Y14675D02*
D03*
Y16450D02*
D03*
X37300Y87125D02*
D03*
X39075D02*
D03*
X16100Y85075D02*
D03*
X17575D02*
D03*
D87*
X11630Y108275D02*
D03*
X10100Y24125D02*
D03*
X10125Y21575D02*
D03*
X21155Y85650D02*
D03*
X11600Y95670D02*
D03*
D88*
X12900Y108275D02*
D03*
X8830Y24125D02*
D03*
X8855Y21575D02*
D03*
X22425Y85650D02*
D03*
D89*
X19825Y130525D02*
D03*
X11725Y125275D02*
D03*
D90*
X6270Y41195D02*
D03*
X16430D02*
D03*
X11350D02*
D03*
X6270Y93395D02*
D03*
X16430D02*
D03*
X11350D02*
D03*
D91*
X11600Y96940D02*
D03*
D92*
X25509Y51302D02*
D03*
X25509Y82302D02*
D03*
D93*
X26500Y125375D02*
D03*
X28700D02*
D03*
X30900D02*
D03*
X27600Y124275D02*
D03*
X29800D02*
D03*
X26500Y123175D02*
D03*
X28700D02*
D03*
X30900D02*
D03*
X27600Y122075D02*
D03*
X29800D02*
D03*
X26500Y120975D02*
D03*
X28700D02*
D03*
X30900D02*
D03*
X10975Y58250D02*
D03*
X46275Y122650D02*
D03*
D184*
X46263Y122662D02*
D03*
D185*
X58188Y56300D02*
D03*
Y70300D02*
D03*
D186*
X28700Y123162D02*
D03*
D187*
X11875Y96518D02*
D03*
D188*
X12262Y108275D02*
D03*
X9488Y21575D02*
D03*
X9462Y24125D02*
D03*
D189*
X79000Y100096D02*
D03*
X79000Y33500D02*
D03*
D190*
X6482Y124234D02*
D03*
X7125Y125000D02*
D03*
D191*
X12875Y129025D02*
D03*
X12533Y129965D02*
D03*
D192*
X16510Y128233D02*
D03*
X17502Y128355D02*
D03*
D193*
X16720Y5323D02*
D03*
X15727Y5445D02*
D03*
D194*
X10822Y6802D02*
D03*
X9882Y7144D02*
D03*
D195*
X6475Y9375D02*
D03*
X5832Y10141D02*
D03*
D196*
X6085Y126265D02*
D03*
X5545Y125622D02*
D03*
X5005Y124978D02*
D03*
D197*
X4465Y124335D02*
D03*
D198*
X51695Y3500D02*
D03*
X52535Y3500D02*
D03*
X53375Y3500D02*
D03*
X45695Y3500D02*
D03*
X46535Y3500D02*
D03*
X47375Y3500D02*
D03*
X39695Y3500D02*
D03*
X40535Y3500D02*
D03*
X41375Y3500D02*
D03*
X33695Y3500D02*
D03*
X34535Y3500D02*
D03*
X35375Y3500D02*
D03*
X24215Y130100D02*
D03*
X23375Y130100D02*
D03*
X22535Y130100D02*
D03*
X27695Y3500D02*
D03*
X28535Y3500D02*
D03*
X29375Y3500D02*
D03*
X30215Y130100D02*
D03*
X29375Y130100D02*
D03*
X28535Y130100D02*
D03*
X21695Y3500D02*
D03*
X22535Y3500D02*
D03*
X23375Y3500D02*
D03*
X36215Y130100D02*
D03*
X35375Y130100D02*
D03*
X34535Y130100D02*
D03*
X42215Y130100D02*
D03*
X41375Y130100D02*
D03*
X40535Y130100D02*
D03*
X48215Y130100D02*
D03*
X47375Y130100D02*
D03*
X46535Y130100D02*
D03*
X54215Y130100D02*
D03*
X53375Y130100D02*
D03*
X52535Y130100D02*
D03*
D199*
X54215Y3500D02*
D03*
X48215D02*
D03*
X42215D02*
D03*
X36215D02*
D03*
X21695Y130100D02*
D03*
X30215Y3500D02*
D03*
X27695Y130100D02*
D03*
X24215Y3500D02*
D03*
X33695Y130100D02*
D03*
X39695D02*
D03*
X45695D02*
D03*
X51695D02*
D03*
D200*
X3500Y14610D02*
D03*
X3500Y13770D02*
D03*
X3500Y12930D02*
D03*
X3500Y70994D02*
D03*
X3500Y70154D02*
D03*
X3500Y69314D02*
D03*
X3500Y20786D02*
D03*
X3500Y19946D02*
D03*
X3500Y19106D02*
D03*
X3500Y77270D02*
D03*
X3500Y76430D02*
D03*
X3500Y75590D02*
D03*
X3500Y27062D02*
D03*
X3500Y26222D02*
D03*
X3500Y25382D02*
D03*
X3500Y83546D02*
D03*
X3500Y82706D02*
D03*
X3500Y81866D02*
D03*
X3500Y33338D02*
D03*
X3500Y32498D02*
D03*
X3500Y31658D02*
D03*
X3500Y89822D02*
D03*
X3500Y88982D02*
D03*
X3500Y88142D02*
D03*
X3500Y39614D02*
D03*
X3500Y38774D02*
D03*
X3500Y37934D02*
D03*
X3500Y96098D02*
D03*
X3500Y95258D02*
D03*
X3500Y94418D02*
D03*
X3500Y45890D02*
D03*
X3500Y45050D02*
D03*
X3500Y44210D02*
D03*
X3500Y102374D02*
D03*
X3500Y101534D02*
D03*
X3500Y100694D02*
D03*
X3500Y52166D02*
D03*
X3500Y51326D02*
D03*
X3500Y50486D02*
D03*
X3500Y108650D02*
D03*
X3500Y107810D02*
D03*
X3500Y106970D02*
D03*
X3500Y58442D02*
D03*
X3500Y57602D02*
D03*
X3500Y56762D02*
D03*
X3500Y114926D02*
D03*
X3500Y114086D02*
D03*
X3500Y113246D02*
D03*
X3500Y64718D02*
D03*
X3500Y63878D02*
D03*
X3500Y63038D02*
D03*
X3500Y121102D02*
D03*
X3500Y120262D02*
D03*
X3500Y119422D02*
D03*
D201*
X3500Y12090D02*
D03*
Y68474D02*
D03*
Y18266D02*
D03*
Y74750D02*
D03*
Y24542D02*
D03*
Y81026D02*
D03*
Y30818D02*
D03*
Y87302D02*
D03*
Y37094D02*
D03*
Y93578D02*
D03*
Y43370D02*
D03*
Y99854D02*
D03*
Y49646D02*
D03*
Y106130D02*
D03*
Y55922D02*
D03*
Y112406D02*
D03*
Y62198D02*
D03*
Y118582D02*
D03*
D202*
X11234Y128731D02*
D03*
X10445Y128444D02*
D03*
X9655Y128156D02*
D03*
D203*
X8866Y127869D02*
D03*
D204*
X17534Y129953D02*
D03*
X16700Y129850D02*
D03*
X15866Y129748D02*
D03*
D205*
X15032Y129645D02*
D03*
D206*
X15033Y3955D02*
D03*
X15866Y3852D02*
D03*
X16700Y3750D02*
D03*
D207*
X17534Y3648D02*
D03*
D208*
X8866Y5731D02*
D03*
X9655Y5444D02*
D03*
X10445Y5156D02*
D03*
D209*
X11234Y4869D02*
D03*
D210*
X4465Y9265D02*
D03*
X5005Y8622D02*
D03*
X5545Y7978D02*
D03*
D211*
X6085Y7335D02*
D03*
M02*
