M48
;Layer_Color=9474304
;FILE_FORMAT=4:3
METRIC,LZ
;TYPE=PLATED
T01F00S00C0.300
T02F00S00C0.500
T05F00S00C0.700
T06F00S00C0.762
T07F00S00C1.000
T08F00S00C1.200
T09F00S00C3.800
T10F00S00C4.200
;TYPE=NON_PLATED
T11F00S00C0.750
%
T01
X00032Y0008275
X0007271Y0009364
X0005821Y0013259
X00025Y001461
X00025Y0020786
X0005922Y0019379
X0005821Y0025711
X00025Y0027062
X00025Y0033338
X000195Y00349
X000185Y0035775
X000135Y0039625
X0008175Y00394
X000975Y003845
X0019525Y0037725
X00197Y0033702
X00209Y0032502
X00221Y0033702
Y0031302
X00197
X0017575Y00262
X0017962Y0020375
Y0017525
X00249Y00176
X00274Y001845
Y0019175
X00317Y001915
Y0018425
X003225Y00179
X003145Y001755
X003435Y00188
X003455Y0020325
Y0021175
X003515Y00217
X0037525Y0019163
Y0018438
X0036124Y001725
X00361Y0016525
X003615Y0009538
X003765Y0006825
X0035046Y0005821
X0033695Y00025
X0027695
X0029046Y0005821
X0023046
X0021695Y00025
X00148Y0002425
X001715Y0006125
X0011393Y0007357
X0008175Y000425
X00247Y00208
X00255Y0022902
X00243Y0024102
X00255Y0025302
X00231
Y0022902
X00238Y0035002
X0025Y0036202
X00262Y0037402
Y0035002
X00238Y0037402
X0047Y00313
Y00299
Y00285
X0044425Y00215
X0043575Y002155
X0043575Y00207
X0044943Y0019
X00441Y001725
X0043225Y00173
X0043258Y001645
X0041172Y0018434
X0041175Y0019163
X004185Y0012325
X0047225Y0010911
X0047036Y0005896
X0045695Y00025
X0039695
X0041039Y0005788
X0040125Y0007125
X005305Y0005825
X0051695Y00025
X0052Y0016375
X00501Y0020425
X008685Y0038425
X0087925
X0083911Y0040396
X0083932Y0041124
X0083367Y0042083
X0083939Y0042875
X00844Y00553
Y00577
X00832Y00565
Y00589
X00816Y00578
X00804Y0059
Y00566
X00816Y00554
X00858Y00566
Y0059
X0087Y00578
Y00554
X00886Y00565
X00898Y00553
Y00577
X00886Y00589
X00789Y00578
Y00554
X00777Y00566
Y0059
X00761Y00579
X00749Y00591
X00708Y00592
Y00567
Y00617
Y00642
Y00667
Y00692
Y00717
Y00741
X00631Y00727
Y00719
Y00703
Y00687
Y00679
Y00671
X0064924Y00703
X00594Y00715
X0057
Y00691
X00594
X00582Y00703
X00534
X00529Y00695
Y00687
Y00679
Y00711
Y00719
Y00727
X0053375Y0073725
X00558Y00751
X00606
Y00611
X00558
X0053225
X00529Y00587
Y00579
Y00571
X00534Y00563
X00529Y00555
Y00547
Y00539
X0057Y00551
X00582Y00563
X00594Y00551
Y00575
X0057
X00631Y00579
Y00587
Y00563
Y00547
Y00539
Y00531
X0064875Y004995
X00647Y00446
X00635Y00434
X00647Y00422
X00623
X00611Y00434
Y00458
X00623Y00446
X00595Y00447
X00571
Y00423
X00595
X00583Y00435
Y00459
X00558Y00515
X00649Y0056275
X0064875Y0063625
X00558Y00655
X00426Y00508
Y00496
Y00485
X003985Y004928
Y0050005
X0039775Y005168
Y0052405
X00426Y00447
Y00437
X00663Y00433
X00687
X00699Y00421
Y00445
X00675
Y00421
X00715Y00432
X00739
X00751Y0042
Y00444
X00727
Y0042
X00767Y00431
X00779Y00419
Y00443
X0038672Y004988
X0039175Y005048
Y0051205
X003915Y00529
X00381Y005563
X00365Y00559
X00354Y00572
X00366Y00583
X0038098Y005803
X003875Y00584
X0038773Y0057675
X0039Y0056825
X0039Y005923
X003885Y0060075
Y00608
X0038098Y006043
X0039675Y00596
Y0058875
X00346Y00543
X0037766Y0050434
X00369Y00668
X00345
X00357Y0068
X00346Y00696
X00358Y00708
X0037Y00696
Y0072
X00346
X00358Y00732
X00347Y00748
X00359Y0076
X00383
X00371Y00748
X00269Y00749
X0027975Y0076925
X0025575Y00768
X002Y0076302
X00188Y0075102
X00164
X00176Y0076302
Y0073902
X002
X00189Y0072302
X00201Y0071102
X00177
X00189Y0069902
X00165
Y0072302
X00178Y0068302
Y0065902
X00202
Y0068302
X0019Y0067102
X00214
X0019833Y006222
X001275Y0059025
X0011975Y00584
X0010975Y005825
X0011775Y0056725
X00118Y0056
X001135Y0054725
X001125Y0053875
X00125Y005305
X0012675Y0051275
X0013825Y0051675
X00129Y0049
X0011275Y004805
X0011275Y0047313
X00113Y00501
X001105Y0044025
X001165Y00434
X000885Y0042475
X00071Y0042775
X000135Y0043225
X0001625Y0041075
X000205Y00459
X000175Y0048575
X00025Y0052166
X000215Y0053426
X00053Y0055275
X0005976Y0055999
X00085Y00551
Y00582
Y00602
Y00616
Y00629
X0005775Y005965
X00025Y0059875
X00025Y0058442
X00025Y0064718
X000215Y0065978
X00025Y0070994
X000215Y0072254
X00025Y007727
X000215Y007853
X0014512Y0046912
X0014525Y0046025
Y0044975
X001895Y0047
X0019588Y007984
X0019Y00826
X0017925Y008745
X0015375
X0013225Y00884
Y0091275
X00086Y009145
X00103Y0087475
X00025Y0089822
X000135Y0093
Y00961
Y0098975
X00025Y0102374
X00025Y0103626
X0006275Y010475
X000625Y01058
X00025Y010865
X00025Y0109902
X0001675Y0113875
Y0115375
X00025Y0114825
X00025Y0116178
X0001075Y0118275
X001025Y0118775
Y0115825
X0010275Y0111925
X001425Y010645
X00193Y0107775
X002155Y01091
Y011
Y01109
X0022225Y0110425
Y0109525
X00222Y0113
Y01139
X0021525Y0113475
Y0112575
Y0114375
X0024875Y011565
X0025475Y0116275
X00241Y0116725
X0024445Y0117363
X0023425Y011725
X00221Y0118798
X0020407Y0118768
X001955Y01174
X0027975Y0116625
X002895
X0029825
X00308
X003175Y011665
X0032575Y0116675
X0033475Y01171
X00342Y0118
X0035125Y011795
X0036175Y0117625
X003715Y01173
X0037Y01122
X00372Y0109202
X00384Y0108002
X00396Y0109202
X0039525Y0100625
X0038225
X0036875
X0038225Y0099075
Y0098025
Y0097025
Y0095475
X003965Y00955
X00368Y009545
X00288Y0094875
X00257Y00977
X00247
X00237
X00227
X00229Y010055
X00237Y01006
X00288Y0102599
X00192Y0097725
X0017025Y00956
X00161Y009565
X00179Y0091675
X0023Y0087625
X002815Y0087075
X00285Y00855
X000215Y0084806
X00025Y0083546
X0049025Y0097275
X0050025
X0051Y00973
X00501Y01008
X00492
X00604Y0100575
X0049175Y01139
X0048Y01175
X0051938Y0117537
X00441Y01184
X00884Y00892
Y00868
X00896Y00856
Y0088
X00912Y00891
X00936
Y00867
X00948Y00855
Y00879
X00924
Y00855
X00912Y00867
X00964Y00866
X00976Y00878
Y00902
X00952
X0094Y00914
X00964
Y0089
X00975Y0093
X00963Y00942
X00939
X00951Y0093
X0051Y01195
Y01212
X00498
X0046275Y012265
X0047525Y0125775
X00438Y01258
X0045325Y012875
X0043475Y013143
X00424Y01311
X0048525Y01313
X00495
X0054175
X0055475
X0055775Y01297
X00516Y01247
X00397Y01238
X0040875Y0122625
X0037175Y01225
Y01233
X0036075Y01224
X0034125Y01256
X0033866Y0126925
X0033075Y01267
X0033104Y0128704
X003255Y0132025
X003085Y01317
X00302Y013115
X002895Y013175
X0027525
X002625Y0131775
X002605Y0128025
X00268Y01282
X0027425Y01275
X00265Y0125375
X00287
X00309
X00298Y0124275
X00276
X00265Y0123175
X00287
X00309
X00298Y0122075
X00276
X00265Y0120975
X00287
X00309
X0025325Y01192
X0023956Y0123225
X0022125Y0122425
Y0121425
X001955Y01207
X0015Y01239
X001495Y0125275
X00186Y0127825
X00225Y01292
X002095Y01323
X00161Y0132475
X001335Y013125
X0010675Y0130225
X0006288Y0128105
X0004925Y0127275
X0002325Y012385
X00025Y0121102
X0007875Y0121225
X000845Y0124275
X0024775Y012655
X0036875Y0129975
X0037475Y013145
T02
X0008525Y0014675
Y001645
X0010483
Y0014675
X0012442
Y001645
X00144
Y0014675
Y00128
X00203Y00159
Y0022
X003765Y0012675
X0042975Y00082
X0072Y00335
X0073
X0074
X0075
X0076
X0077
X0078
X0079
X008
X0081
X0082
X0083
X0084
X0085
X0086
X0039075Y0087125
X00373
X0017575Y0085075
X00161
X0009325
X00123Y008985
X001195Y0102075
Y01036
X0013625Y01036
Y0102075
X000965Y0102837
X00168Y010885
X00218Y010595
X0051325Y010325
X0072Y0100096
X0073
X0074
X0075
X0076
X0077
X0078
X0079
X008
X0081
X0082
X0083
X0084
X0085
X0086
X0024525Y013185
X0023175
T05
X0008855Y0021575
X0010125
X00101Y0024125
X000883
X0021155Y008565
X0022425
X0024325Y0088825
Y0090825
X00116Y009567
Y009694
X001163Y0108275
X00129
T06
X000627Y0041195
X001135
X001643
Y0093395
X001135
X000627
T07
X0047553Y0054298
Y0056298
X0049553
Y0054298
Y0058298
X0047553
Y0060298
Y0062298
X0049553
Y0060298
Y0064298
Y0066298
X0047553
Y0064298
Y0068298
X0049553
Y0070298
Y0072298
X0047553
Y0070298
X00168Y011112
Y011366
Y01162
Y011874
X0055525Y011744
X005654Y01045
Y010196
X0054
Y01045
X005908
X006162
Y010196
X005908
X0055525Y011998
Y012252
Y012506
X00168Y012128
T08
X007996Y0049775
X00825
X008504
X008758
X009012
X007742
X007488
T09
X0025509Y0051302
X0025509Y0082302
T10
X0009018Y003225
X0042
X0009018Y008025
T11
X0011725Y0125275
X0019825Y0130525
M30
