M48
;Layer_Color=9474304
;FILE_FORMAT=4:3
METRIC,LZ
;TYPE=PLATED
T03F00S00C0.500
T04F00S00C0.600
;TYPE=NON_PLATED
%
G90
G05
T03
G00X0029655Y0015175
M15
G01Y0014925
M16
G00X0029655Y0022425
M15
G01Y0022675
M16
G00X003933Y0022425
M15
G01Y0022675
M16
G00X003933Y0015175
M15
G01Y0014925
M16
T04
G00X0027505Y00159
M15
G01Y00155
M16
G00X0031805Y00159
M15
G01Y00155
M16
G00X003718Y00159
M15
G01Y00155
M16
G00X003718Y00221
M15
G01Y00217
M16
G00X0031805Y00221
M15
G01Y00217
M16
G00X0027505Y00221
M15
G01Y00217
M16
G00X004148Y00221
M15
G01Y00217
M16
G00X004148Y00159
M15
G01Y00155
M16
M17
M30
