G04*
G04 #@! TF.GenerationSoftware,Altium Limited,Altium Designer,25.1.2 (22)*
G04*
G04 Layer_Color=16711935*
%FSLAX43Y43*%
%MOMM*%
G71*
G04*
G04 #@! TF.SameCoordinates,FE0FC84B-2BDE-4B71-9310-8470CE254BFF*
G04*
G04*
G04 #@! TF.FilePolarity,Positive*
G04*
G01*
G75*
%ADD49C,0.013*%
D49*
X6Y1006D02*
G03*
X1006Y6I1000J0D01*
G01*
X9305D02*
G03*
X10305Y1006I0J1000D01*
G01*
X19005Y17706D02*
G03*
X24005Y22706I0J5000D01*
G01*
Y57706D02*
G03*
X19005Y62706I-5000J0D01*
G01*
X10305Y79406D02*
G03*
X9305Y80406I-1000J0D01*
G01*
X1006D02*
G03*
X6Y79406I0J-1000D01*
G01*
X10305Y65706D02*
G03*
X13305Y62706I3000J0D01*
G01*
Y17706D02*
G03*
X10305Y14706I0J-3000D01*
G01*
X13305Y17706D02*
G03*
X10305Y14706I0J-3000D01*
G01*
Y65706D02*
G03*
X13305Y62706I3000J0D01*
G01*
X20605Y57706D02*
G03*
X20605Y57706I-1600J0D01*
G01*
Y22706D02*
G03*
X20605Y22706I-1600J0D01*
G01*
X1006Y80406D02*
G03*
X6Y79406I0J-1000D01*
G01*
X10305D02*
G03*
X9305Y80406I-1000J0D01*
G01*
X24005Y57706D02*
G03*
X19005Y62706I-5000J0D01*
G01*
Y17706D02*
G03*
X24005Y22706I0J5000D01*
G01*
X9305Y6D02*
G03*
X10305Y1006I0J1000D01*
G01*
X6D02*
G03*
X1006Y6I1000J0D01*
G01*
X9305D01*
X24005Y22706D02*
Y57706D01*
X1006Y80406D02*
X9305D01*
X10305Y1006D02*
Y14706D01*
X6Y1006D02*
Y79406D01*
X10305Y65706D02*
Y79406D01*
X13305Y17706D02*
X19005D01*
X13305Y62706D02*
X19005D01*
X13305D02*
X19005D01*
X13305Y17706D02*
X19005D01*
X10305Y65706D02*
Y79406D01*
X6Y1006D02*
Y79406D01*
X10305Y1006D02*
Y14706D01*
X1006Y80406D02*
X9305D01*
X24005Y22706D02*
Y57706D01*
X1006Y6D02*
X9305D01*
M02*
