M48
;Layer_Color=9474304
;FILE_FORMAT=4:3
METRIC,LZ
;TYPE=PLATED
T01F00S00C0.300
T02F00S00C0.762
T03F00S00C3.200
%
T01
X0002825Y0011557
X0007095Y0013316
X0008001Y0016891
X0007785Y0020206
X0005887Y0018395
X0004322Y0018395
X0008595Y0010325
X0007785Y0007666
X0011875Y002485
X0013574Y0025055
X0012827Y0025908
X0018542Y0028956
X0019177Y0029972
X0021082Y0035941
X0020112Y0038608
X0008595Y0037865
X0007785Y0035206
X0002825Y0039116
X0007095Y0040856
X0005883Y0045815
X0004318Y0045815
X0016421Y0048387
X0007785Y0060206
X0008595Y0063373
X0007095Y0066364
X0002825Y0064643
X0004318Y0071358
X0005883Y0071358
X0007785Y0073254
T02
X0013296Y0035958
Y0038498
X0013296Y0042054
X0013296Y0044594
T03
X0019005Y0022706
Y0057706
M30
