G04*
<<<<<<< HEAD
G04 #@! TF.GenerationSoftware,Altium Limited,Altium Designer,24.2.2 (26)*
=======
G04 #@! TF.GenerationSoftware,Altium Limited,Altium Designer,25.1.2 (22)*
>>>>>>> 613e14270cc375eb23a491e7e857863a29f37ea3
G04*
G04 Layer_Physical_Order=1*
G04 Layer_Color=255*
%FSLAX43Y43*%
%MOMM*%
G71*
G04*
<<<<<<< HEAD
G04 #@! TF.SameCoordinates,18943E8E-3CEA-4A4F-804B-3BF1B2EDC90A*
=======
G04 #@! TF.SameCoordinates,424D808E-97C2-44CC-9905-EB33B72B0B61*
>>>>>>> 613e14270cc375eb23a491e7e857863a29f37ea3
G04*
G04*
G04 #@! TF.FilePolarity,Positive*
G04*
G01*
G75*
%ADD27R,0.700X1.000*%
%ADD28R,1.000X1.000*%
%ADD29R,2.060X1.800*%
%ADD30R,0.990X1.800*%
%ADD31R,1.500X1.600*%
%ADD32R,1.200X1.200*%
%ADD33R,2.150X3.300*%
%ADD34R,2.150X1.000*%
G04:AMPARAMS|DCode=35|XSize=0.7mm|YSize=1mm|CornerRadius=0.175mm|HoleSize=0mm|Usage=FLASHONLY|Rotation=180.000|XOffset=0mm|YOffset=0mm|HoleType=Round|Shape=RoundedRectangle|*
%AMROUNDEDRECTD35*
21,1,0.700,0.650,0,0,180.0*
21,1,0.350,1.000,0,0,180.0*
1,1,0.350,-0.175,0.325*
1,1,0.350,0.175,0.325*
1,1,0.350,0.175,-0.325*
1,1,0.350,-0.175,-0.325*
%
%ADD35ROUNDEDRECTD35*%
%ADD36R,1.000X0.400*%
%ADD37O,1.000X0.400*%
G04:AMPARAMS|DCode=38|XSize=0.7mm|YSize=1mm|CornerRadius=0mm|HoleSize=0mm|Usage=FLASHONLY|Rotation=225.000|XOffset=0mm|YOffset=0mm|HoleType=Round|Shape=Rectangle|*
%AMROTATEDRECTD38*
4,1,4,-0.106,0.601,0.601,-0.106,0.106,-0.601,-0.601,0.106,-0.106,0.601,0.0*
%
%ADD38ROTATEDRECTD38*%

%ADD39C,0.300*%
%ADD40C,0.500*%
%ADD41C,0.700*%
%ADD42C,1.524*%
%ADD43C,6.000*%
%ADD44C,0.600*%
G36*
X6469Y69388D02*
X5969Y68888D01*
X5469Y69388D01*
Y70588D01*
X6469D01*
Y69388D01*
D02*
G37*
G36*
X4818D02*
X4318Y68888D01*
X3818Y69388D01*
Y70588D01*
X4818D01*
Y69388D01*
D02*
G37*
G36*
Y67588D02*
X3818D01*
X3818Y69088D01*
X4318Y68588D01*
X4818Y69088D01*
Y67588D01*
D02*
G37*
G36*
X6469D02*
X5469D01*
Y69088D01*
X5969Y68588D01*
X6469Y69088D01*
Y67588D01*
D02*
G37*
G36*
X6858Y64624D02*
X6230Y63996D01*
X6146Y64051D01*
X6055Y64069D01*
Y63373D01*
X5825D01*
Y63143D01*
X5268D01*
Y63048D01*
X5281Y62979D01*
X5190Y62854D01*
X4875D01*
Y63143D01*
X4325D01*
Y63603D01*
X4875D01*
Y64038D01*
X5334Y64497D01*
Y64572D01*
X5459Y64669D01*
X5525Y64656D01*
X5695D01*
Y65064D01*
X5825D01*
Y65194D01*
X6565D01*
X6615Y65259D01*
X6858D01*
X6858Y64624D01*
D02*
G37*
G36*
X9523Y80123D02*
X9658Y80067D01*
X9780Y79985D01*
X9884Y79881D01*
X9965Y79759D01*
X10022Y79624D01*
X10050Y79480D01*
Y79406D01*
Y65706D01*
X10051Y65702D01*
X10050Y65698D01*
X10057Y65502D01*
X10060Y65489D01*
X10059Y65477D01*
X10110Y65088D01*
X10116Y65072D01*
X10117Y65055D01*
X10218Y64676D01*
X10226Y64661D01*
X10229Y64644D01*
X10379Y64282D01*
X10388Y64268D01*
X10394Y64252D01*
X10590Y63912D01*
X10601Y63900D01*
X10609Y63884D01*
X10847Y63573D01*
X10860Y63562D01*
X10869Y63548D01*
X11147Y63271D01*
X11161Y63261D01*
X11172Y63249D01*
X11483Y63010D01*
X11498Y63002D01*
X11511Y62991D01*
X11851Y62795D01*
X11867Y62790D01*
X11881Y62780D01*
X12243Y62630D01*
X12260Y62627D01*
X12275Y62619D01*
X12654Y62518D01*
X12671Y62517D01*
X12687Y62511D01*
X13076Y62460D01*
X13088Y62461D01*
X13101Y62458D01*
X13297Y62452D01*
X13301Y62452D01*
X13305Y62451D01*
X19316D01*
X19933Y62370D01*
X20534Y62209D01*
X21108Y61971D01*
X21647Y61660D01*
X22141Y61282D01*
X22580Y60842D01*
X22959Y60348D01*
X23270Y59810D01*
X23508Y59235D01*
X23669Y58634D01*
X23750Y58017D01*
Y57706D01*
Y22706D01*
Y22395D01*
X23669Y21779D01*
X23508Y21178D01*
X23270Y20603D01*
X22959Y20064D01*
X22580Y19571D01*
X22141Y19131D01*
X21647Y18752D01*
X21108Y18441D01*
X20534Y18203D01*
X19933Y18042D01*
X19316Y17961D01*
X13305D01*
X13301Y17960D01*
X13297Y17961D01*
X13101Y17955D01*
X13088Y17952D01*
X13076Y17953D01*
X12687Y17901D01*
X12671Y17896D01*
X12654Y17895D01*
X12275Y17793D01*
X12260Y17786D01*
X12243Y17783D01*
X11881Y17632D01*
X11867Y17623D01*
X11851Y17618D01*
X11511Y17421D01*
X11498Y17410D01*
X11483Y17403D01*
X11172Y17164D01*
X11161Y17151D01*
X11147Y17142D01*
X10869Y16865D01*
X10860Y16851D01*
X10847Y16840D01*
X10609Y16528D01*
X10601Y16513D01*
X10590Y16500D01*
X10394Y16161D01*
X10388Y16145D01*
X10379Y16131D01*
X10229Y15768D01*
X10226Y15752D01*
X10218Y15737D01*
X10117Y15358D01*
X10116Y15341D01*
X10110Y15325D01*
X10059Y14936D01*
X10060Y14923D01*
X10057Y14911D01*
X10050Y14715D01*
X10051Y14711D01*
X10050Y14706D01*
Y1006D01*
Y933D01*
X10022Y789D01*
X9965Y653D01*
X9884Y531D01*
X9780Y428D01*
X9658Y346D01*
X9523Y290D01*
X9379Y261D01*
X9305Y261D01*
X933D01*
X789Y290D01*
X653Y346D01*
X531Y428D01*
X428Y531D01*
X346Y653D01*
X290Y789D01*
X261Y933D01*
Y5584D01*
X388Y5627D01*
X410Y5599D01*
X1555Y4454D01*
Y3666D01*
X4755D01*
Y4610D01*
X4762Y4666D01*
Y6266D01*
X4900D01*
Y6566D01*
X5280D01*
Y7666D01*
Y8766D01*
X4900D01*
Y9066D01*
X2910D01*
Y6266D01*
X3048D01*
Y5666D01*
X2767D01*
X1873Y6560D01*
Y9226D01*
X1975Y9287D01*
X5175D01*
X5175Y9287D01*
X5221Y9299D01*
X5293Y9320D01*
X5366Y9335D01*
X5379Y9344D01*
X5474Y9304D01*
X5650Y9281D01*
X6000D01*
X6176Y9304D01*
X6340Y9372D01*
X6481Y9481D01*
X6590Y9622D01*
X6658Y9786D01*
X6658Y9787D01*
X6816D01*
X6880Y9692D01*
X7004Y9609D01*
X7095Y9591D01*
Y10287D01*
X7325D01*
Y10517D01*
X7882D01*
Y10612D01*
X7853Y10758D01*
X7770Y10882D01*
X7646Y10965D01*
X7500Y10994D01*
X7177D01*
X7135Y11059D01*
X7121Y11118D01*
X7218Y11216D01*
X7329Y11381D01*
X7368Y11576D01*
X7368Y12010D01*
X7713D01*
X7883Y12033D01*
X8041Y12098D01*
X8177Y12202D01*
X8592Y12617D01*
X8696Y12753D01*
X8761Y12911D01*
X8784Y13081D01*
Y14224D01*
X8761Y14394D01*
X8696Y14552D01*
X8592Y14688D01*
X7691Y15589D01*
X7555Y15693D01*
X7397Y15758D01*
X7227Y15781D01*
X6897D01*
Y16125D01*
X6887Y16174D01*
Y16376D01*
X6897Y16425D01*
Y16655D01*
X6971Y16711D01*
X7088Y16829D01*
X7206Y16767D01*
X7256Y16582D01*
X7361Y16400D01*
X7510Y16251D01*
X7692Y16146D01*
X7896Y16091D01*
X8106D01*
X8310Y16146D01*
X8492Y16251D01*
X8534Y16293D01*
X8693D01*
X8863Y16315D01*
X9021Y16381D01*
X9157Y16485D01*
X10826Y18154D01*
X11006Y17974D01*
X12066Y19034D01*
X13268Y20236D01*
X13025Y20480D01*
X13291Y20745D01*
X13395Y20881D01*
X13460Y21039D01*
X13483Y21209D01*
Y22334D01*
X17228Y26079D01*
X17332Y26215D01*
X17397Y26373D01*
X17420Y26543D01*
Y28300D01*
X18078D01*
X18233Y28211D01*
X18437Y28156D01*
X18647D01*
X18851Y28211D01*
X19033Y28316D01*
X19182Y28465D01*
X19287Y28647D01*
X19342Y28851D01*
Y29061D01*
X19310Y29180D01*
X19486Y29227D01*
X19668Y29332D01*
X19817Y29481D01*
X19922Y29663D01*
X19977Y29867D01*
Y30077D01*
X19922Y30281D01*
X19817Y30463D01*
X19668Y30612D01*
X19486Y30717D01*
X19282Y30772D01*
X19072D01*
X18868Y30717D01*
X18713Y30628D01*
X17145D01*
X16975Y30605D01*
X16817Y30540D01*
X16681Y30436D01*
X16248Y30002D01*
X16131Y30051D01*
Y30226D01*
X16092Y30421D01*
X15981Y30586D01*
X15237Y31331D01*
X15263Y31465D01*
X15680Y31883D01*
X21209D01*
X21405Y31908D01*
X21587Y31984D01*
X21744Y32104D01*
X22506Y32866D01*
X22626Y33023D01*
X22702Y33205D01*
X22727Y33401D01*
Y48768D01*
X22727Y48768D01*
X22702Y48964D01*
X22626Y49146D01*
X22506Y49303D01*
X22506Y49303D01*
X17309Y54500D01*
X17384Y54604D01*
X17662Y54463D01*
X18186Y54293D01*
X18730Y54206D01*
X19281D01*
X19825Y54293D01*
X20349Y54463D01*
X20840Y54713D01*
X21285Y55037D01*
X21675Y55426D01*
X21999Y55872D01*
X22249Y56363D01*
X22419Y56887D01*
X22505Y57431D01*
Y57982D01*
X22419Y58526D01*
X22249Y59050D01*
X21999Y59541D01*
X21675Y59986D01*
X21285Y60376D01*
X20840Y60700D01*
X20349Y60950D01*
X19825Y61120D01*
X19281Y61206D01*
X18730D01*
X18186Y61120D01*
X17662Y60950D01*
X17171Y60700D01*
X16725Y60376D01*
X16336Y59986D01*
X16012Y59541D01*
X15762Y59050D01*
X15591Y58526D01*
X15505Y57982D01*
Y57431D01*
X15591Y56887D01*
X15762Y56363D01*
X16012Y55872D01*
X16336Y55426D01*
X16415Y55347D01*
X16356Y55226D01*
X16256Y55239D01*
X15951D01*
Y55483D01*
X12751D01*
Y55239D01*
X12192D01*
X11996Y55214D01*
X11814Y55138D01*
X11657Y55018D01*
X10941Y54302D01*
X10821Y54145D01*
X10745Y53963D01*
X10720Y53767D01*
Y53535D01*
X10376D01*
Y51335D01*
Y49335D01*
X10720D01*
Y47476D01*
X10260Y47017D01*
X10140Y46860D01*
X10064Y46678D01*
X10039Y46482D01*
Y32571D01*
X9318Y31851D01*
X9191Y31903D01*
Y32002D01*
X6041D01*
Y30482D01*
X5842D01*
X5647Y30443D01*
X5482Y30332D01*
X5101Y29951D01*
X4990Y29786D01*
X4951Y29591D01*
Y27940D01*
X4990Y27745D01*
X5101Y27580D01*
X5303Y27377D01*
X5255Y27259D01*
X1873D01*
Y31206D01*
X4755D01*
Y32150D01*
X4762Y32206D01*
Y33546D01*
X4815Y33806D01*
X4900D01*
Y34106D01*
X5280D01*
Y35206D01*
Y36306D01*
X4900D01*
Y36606D01*
X2910D01*
Y34343D01*
X2903Y34309D01*
X2910Y34275D01*
Y33806D01*
X2995D01*
X3048Y33546D01*
Y33206D01*
X1873D01*
Y36785D01*
X1975Y36846D01*
X4826D01*
X4875Y36836D01*
X5177D01*
X5204Y36842D01*
X5232Y36839D01*
X5301Y36861D01*
X5372Y36875D01*
X5395Y36890D01*
X5403Y36893D01*
X5474Y36863D01*
X5650Y36840D01*
X6000D01*
X6176Y36863D01*
X6340Y36931D01*
X6481Y37040D01*
X6590Y37181D01*
X6658Y37345D01*
X6658Y37346D01*
X6816D01*
X6880Y37251D01*
X7004Y37168D01*
X7095Y37150D01*
Y37846D01*
X7325D01*
Y38076D01*
X7882D01*
Y38171D01*
X7853Y38317D01*
X7770Y38441D01*
X7646Y38524D01*
X7500Y38553D01*
X7196D01*
X7139Y38676D01*
X7218Y38756D01*
X7329Y38921D01*
X7368Y39116D01*
X7368Y39550D01*
X7713D01*
X7883Y39573D01*
X8041Y39638D01*
X8177Y39742D01*
X8592Y40157D01*
X8696Y40293D01*
X8761Y40451D01*
X8784Y40621D01*
Y41764D01*
X8761Y41934D01*
X8696Y42092D01*
X8592Y42228D01*
X7691Y43129D01*
X7555Y43233D01*
X7397Y43298D01*
X7227Y43321D01*
X6979D01*
Y43545D01*
X6969Y43594D01*
Y43796D01*
X6979Y43845D01*
Y45045D01*
X6969Y45094D01*
Y45545D01*
X6744D01*
X6666Y45646D01*
X6683Y45710D01*
Y45920D01*
X6629Y46124D01*
X6524Y46306D01*
X6375Y46455D01*
X6264Y46519D01*
X6298Y46646D01*
X7110D01*
Y47146D01*
X5880D01*
Y47746D01*
X5280D01*
Y48846D01*
X4900D01*
Y49146D01*
X4762D01*
Y50746D01*
X4755Y50802D01*
Y51746D01*
X1873D01*
Y56206D01*
X4755D01*
Y57150D01*
X4762Y57206D01*
Y58546D01*
X4815Y58806D01*
X4900D01*
Y59106D01*
X5280D01*
Y60206D01*
Y61306D01*
X4900D01*
Y61606D01*
X2910D01*
Y59343D01*
X2903Y59309D01*
X2910Y59275D01*
Y58806D01*
X2995D01*
X3048Y58546D01*
Y58206D01*
X1873D01*
Y62312D01*
X1975Y62373D01*
X4730D01*
X4875Y62344D01*
X5190D01*
X5228Y62352D01*
X5267Y62350D01*
X5325Y62371D01*
X5385Y62383D01*
X5417Y62405D01*
X5429Y62409D01*
X5474Y62390D01*
X5650Y62367D01*
X6000D01*
X6176Y62390D01*
X6340Y62458D01*
X6481Y62567D01*
X6590Y62708D01*
X6658Y62872D01*
X6658Y62873D01*
X6816D01*
X6880Y62778D01*
X7004Y62695D01*
X7095Y62677D01*
Y63373D01*
X7325D01*
Y63603D01*
X7882D01*
Y63698D01*
X7853Y63844D01*
X7770Y63968D01*
X7646Y64051D01*
X7500Y64080D01*
X7215D01*
X7162Y64207D01*
X7218Y64264D01*
X7329Y64429D01*
X7368Y64624D01*
X7368Y65058D01*
X7713D01*
X7883Y65081D01*
X8041Y65146D01*
X8177Y65250D01*
X8592Y65665D01*
X8696Y65801D01*
X8761Y65959D01*
X8784Y66129D01*
Y67272D01*
X8761Y67442D01*
X8696Y67600D01*
X8592Y67736D01*
X7691Y68637D01*
X7555Y68741D01*
X7397Y68806D01*
X7227Y68829D01*
X6979D01*
Y69088D01*
X6969Y69137D01*
Y69339D01*
X6979Y69388D01*
Y70588D01*
X6969Y70637D01*
Y71088D01*
X6744D01*
X6666Y71189D01*
X6683Y71253D01*
Y71463D01*
X6629Y71667D01*
X6524Y71849D01*
X6375Y71998D01*
X6325Y72027D01*
X6359Y72154D01*
X7110D01*
Y72654D01*
X5880D01*
Y73254D01*
X5280D01*
Y74354D01*
X4900D01*
Y74654D01*
X4762D01*
Y76254D01*
X4755Y76310D01*
Y77254D01*
X1555D01*
Y76362D01*
X410Y75217D01*
X388Y75189D01*
X261Y75232D01*
Y79480D01*
X290Y79624D01*
X346Y79759D01*
X428Y79881D01*
X531Y79985D01*
X653Y80067D01*
X789Y80123D01*
X933Y80151D01*
X9379D01*
X9523Y80123D01*
D02*
G37*
G36*
X4255Y58609D02*
X3555D01*
X3413Y59309D01*
X4397D01*
X4255Y58609D01*
D02*
G37*
G36*
X6469Y43845D02*
X5969Y43345D01*
X5469Y43845D01*
Y45045D01*
X6469D01*
Y43845D01*
D02*
G37*
G36*
X4818D02*
X4318Y43345D01*
X3818Y43845D01*
Y45045D01*
X4818D01*
Y43845D01*
D02*
G37*
G36*
X6469Y42045D02*
X5469Y42045D01*
X5469Y43545D01*
X5969Y43045D01*
X6469Y43545D01*
Y42045D01*
D02*
G37*
G36*
X4818D02*
X3818Y42045D01*
X3818Y43545D01*
X4318Y43045D01*
X4818Y43545D01*
Y42045D01*
D02*
G37*
G36*
X6858Y39116D02*
X6218Y38476D01*
X6146Y38524D01*
X6055Y38542D01*
Y37846D01*
X5825D01*
Y37616D01*
X5268D01*
Y37521D01*
X5278Y37471D01*
X5177Y37346D01*
X4875D01*
Y37616D01*
X4325D01*
Y38076D01*
X4875D01*
Y38530D01*
X5334Y38989D01*
Y39064D01*
X5459Y39161D01*
X5525Y39148D01*
X5695D01*
Y39556D01*
X5825D01*
Y39686D01*
X6565D01*
X6615Y39751D01*
X6858D01*
X6858Y39116D01*
D02*
G37*
G36*
X3024Y38889D02*
X3013Y38874D01*
X3004Y38857D01*
X2997Y38837D01*
X2990Y38816D01*
X2985Y38792D01*
X2980Y38767D01*
X2977Y38739D01*
X2975Y38676D01*
X2675D01*
X2674Y38708D01*
X2670Y38767D01*
X2665Y38792D01*
X2660Y38816D01*
X2653Y38837D01*
X2646Y38857D01*
X2637Y38874D01*
X2626Y38889D01*
X2615Y38902D01*
X3035D01*
X3024Y38889D01*
D02*
G37*
G36*
X2977Y38586D02*
X2981Y38535D01*
X2989Y38490D01*
X2999Y38451D01*
X3013Y38418D01*
X3029Y38391D01*
X3049Y38370D01*
X3071Y38355D01*
X3096Y38346D01*
X3125Y38343D01*
X2525D01*
X2553Y38346D01*
X2579Y38355D01*
X2602Y38370D01*
X2621Y38391D01*
X2638Y38418D01*
X2651Y38451D01*
X2661Y38490D01*
X2669Y38535D01*
X2674Y38586D01*
X2675Y38643D01*
X2975D01*
X2977Y38586D01*
D02*
G37*
G36*
X12751Y53483D02*
X15951D01*
Y53552D01*
X16068Y53601D01*
X21215Y48455D01*
Y36762D01*
X21187Y36741D01*
X20977D01*
X20773Y36686D01*
X20618Y36597D01*
X19742D01*
Y37761D01*
X19869Y37845D01*
X20007Y37808D01*
X20217D01*
X20421Y37863D01*
X20603Y37968D01*
X20752Y38117D01*
X20857Y38299D01*
X20912Y38503D01*
Y38713D01*
X20857Y38917D01*
X20752Y39099D01*
X20603Y39248D01*
X20421Y39353D01*
X20217Y39408D01*
X20007D01*
X19876Y39373D01*
X19749Y39460D01*
Y40497D01*
X16631D01*
Y41529D01*
X16631Y41529D01*
X16606Y41725D01*
X16530Y41907D01*
X16410Y42064D01*
X16410Y42064D01*
X15885Y42589D01*
X15728Y42709D01*
X15546Y42785D01*
X15350Y42811D01*
X14316D01*
X14306Y42829D01*
X14071Y43064D01*
X13783Y43230D01*
X13462Y43316D01*
X13130D01*
X12809Y43230D01*
X12521Y43064D01*
X12286Y42829D01*
X12120Y42541D01*
X12034Y42220D01*
Y41888D01*
X12120Y41567D01*
X12286Y41279D01*
X12521Y41044D01*
X12809Y40878D01*
X13130Y40792D01*
X13462D01*
X13783Y40878D01*
X14071Y41044D01*
X14306Y41279D01*
X14316Y41298D01*
X15037D01*
X15119Y41216D01*
Y39790D01*
X15144Y39594D01*
X15220Y39412D01*
X15340Y39255D01*
X15633Y38962D01*
X15790Y38842D01*
X15972Y38766D01*
X16168Y38741D01*
X16549D01*
Y38584D01*
X16542D01*
Y38240D01*
X16375D01*
X16205Y38217D01*
X16047Y38152D01*
X15911Y38048D01*
X15665Y37802D01*
X15561Y37666D01*
X15496Y37508D01*
X15473Y37338D01*
Y36614D01*
X14375D01*
X14306Y36733D01*
X14071Y36968D01*
X13783Y37134D01*
X13462Y37220D01*
X13130D01*
X12809Y37134D01*
X12521Y36968D01*
X12286Y36733D01*
X12120Y36445D01*
X12034Y36124D01*
Y35792D01*
X12120Y35471D01*
X12286Y35183D01*
X12521Y34948D01*
X12809Y34782D01*
X13130Y34696D01*
X13462D01*
X13783Y34782D01*
X14071Y34948D01*
X14306Y35183D01*
X14375Y35302D01*
X16542D01*
Y34933D01*
X19742D01*
Y35285D01*
X20618D01*
X20773Y35196D01*
X20977Y35141D01*
X21187D01*
X21215Y35120D01*
Y33714D01*
X20896Y33395D01*
X15367D01*
X15171Y33370D01*
X14989Y33294D01*
X14832Y33174D01*
X13756Y32098D01*
X13636Y31941D01*
X13560Y31759D01*
X13535Y31563D01*
Y31498D01*
X11938D01*
X11743Y31459D01*
X11578Y31348D01*
X10711Y30482D01*
X10255D01*
X10206Y30599D01*
X11330Y31723D01*
X11330Y31723D01*
X11450Y31880D01*
X11526Y32062D01*
X11551Y32258D01*
X11551Y32258D01*
Y46169D01*
X12011Y46628D01*
X12011Y46628D01*
X12131Y46785D01*
X12207Y46967D01*
X12232Y47163D01*
Y49335D01*
X12576D01*
Y51335D01*
Y53535D01*
X12521D01*
X12467Y53657D01*
X12523Y53727D01*
X12751D01*
Y53483D01*
D02*
G37*
G36*
X4255Y33609D02*
X3555D01*
X3413Y34309D01*
X4397D01*
X4255Y33609D01*
D02*
G37*
G36*
X13832Y30552D02*
X12191D01*
Y29402D01*
X13466D01*
X14741D01*
Y29483D01*
X14750Y29527D01*
Y30945D01*
X14877Y30970D01*
X15621Y30226D01*
Y26794D01*
X12322Y23495D01*
X10986D01*
X9779Y24701D01*
Y26924D01*
X9271Y27432D01*
X5969D01*
X5461Y27940D01*
Y29591D01*
X5842Y29972D01*
X10922D01*
X11938Y30988D01*
X13832D01*
Y30552D01*
D02*
G37*
G36*
X6041Y25402D02*
X9191D01*
X9269Y25307D01*
Y24701D01*
X9308Y24506D01*
X9419Y24341D01*
X10625Y23135D01*
X10790Y23024D01*
X10986Y22985D01*
X11224D01*
X11273Y22868D01*
X10955Y22550D01*
X10711Y22793D01*
X9509Y21591D01*
X8449Y20531D01*
X8692Y20287D01*
X6814Y18410D01*
X6687Y18462D01*
Y18500D01*
X6633Y18704D01*
X6528Y18886D01*
X6435Y18979D01*
X6487Y19106D01*
X7110D01*
Y19606D01*
X5880D01*
Y20206D01*
X5280D01*
Y21306D01*
X4900D01*
Y21606D01*
X4762D01*
Y23206D01*
X4755Y23262D01*
Y24206D01*
X1873D01*
Y25545D01*
X6041D01*
Y25402D01*
D02*
G37*
G36*
X4818Y16425D02*
X4318Y15925D01*
X3818Y16425D01*
Y17625D01*
X4818D01*
Y16425D01*
D02*
G37*
G36*
X6387Y16425D02*
X5887Y15925D01*
X5387Y16425D01*
Y17625D01*
X6387Y17625D01*
X6387Y16425D01*
D02*
G37*
G36*
Y14625D02*
X5387D01*
Y16125D01*
X5887Y15625D01*
X6387Y16125D01*
Y14625D01*
D02*
G37*
G36*
X4818Y14625D02*
X3818Y14625D01*
Y16125D01*
X4318Y15625D01*
X4818Y16125D01*
X4818Y14625D01*
D02*
G37*
G36*
X6858Y11576D02*
X6207Y10925D01*
X6146Y10965D01*
X6055Y10983D01*
Y10287D01*
X5825D01*
Y10057D01*
X5268D01*
Y9962D01*
X5274Y9931D01*
X5171Y9806D01*
X4875D01*
Y10057D01*
X4325D01*
Y10517D01*
X4875D01*
Y10987D01*
X4875Y10987D01*
X4875D01*
X4957Y11072D01*
X5334Y11449D01*
Y11524D01*
X5459Y11621D01*
X5525Y11608D01*
X5695D01*
Y12016D01*
X5825D01*
Y12146D01*
X6565D01*
X6615Y12211D01*
X6858D01*
X6858Y11576D01*
D02*
G37*
%LPC*%
G36*
X6507Y64934D02*
X5955D01*
Y64656D01*
X6125D01*
X6281Y64687D01*
X6413Y64776D01*
X6502Y64908D01*
X6507Y64934D01*
D02*
G37*
G36*
X5595Y64069D02*
X5504Y64051D01*
X5380Y63968D01*
X5297Y63844D01*
X5268Y63698D01*
Y63603D01*
X5595D01*
Y64069D01*
D02*
G37*
G36*
X7110Y74354D02*
X6480D01*
Y73854D01*
X7110D01*
Y74354D01*
D02*
G37*
G36*
X7882Y63143D02*
X7555D01*
Y62677D01*
X7646Y62695D01*
X7770Y62778D01*
X7853Y62902D01*
X7882Y63048D01*
Y63143D01*
D02*
G37*
G36*
X7110Y61306D02*
X6480D01*
Y60806D01*
X7110D01*
Y61306D01*
D02*
G37*
G36*
Y59606D02*
X6480D01*
Y59106D01*
X7110D01*
Y59606D01*
D02*
G37*
G36*
Y48846D02*
X6480D01*
Y48346D01*
X7110D01*
Y48846D01*
D02*
G37*
G36*
X7882Y37616D02*
X7555D01*
Y37150D01*
X7646Y37168D01*
X7770Y37251D01*
X7853Y37375D01*
X7882Y37521D01*
Y37616D01*
D02*
G37*
G36*
X7110Y36306D02*
X6480D01*
Y35806D01*
X7110D01*
Y36306D01*
D02*
G37*
G36*
Y34606D02*
X6480D01*
Y34106D01*
X7110D01*
Y34606D01*
D02*
G37*
G36*
X19281Y26206D02*
X18730D01*
X18186Y26120D01*
X17662Y25950D01*
X17171Y25700D01*
X16725Y25376D01*
X16336Y24986D01*
X16012Y24541D01*
X15762Y24050D01*
X15591Y23526D01*
X15505Y22982D01*
Y22431D01*
X15591Y21887D01*
X15762Y21363D01*
X16012Y20872D01*
X16336Y20426D01*
X16725Y20037D01*
X17171Y19713D01*
X17662Y19463D01*
X18186Y19293D01*
X18730Y19206D01*
X19281D01*
X19825Y19293D01*
X20349Y19463D01*
X20840Y19713D01*
X21285Y20037D01*
X21675Y20426D01*
X21999Y20872D01*
X22249Y21363D01*
X22419Y21887D01*
X22505Y22431D01*
Y22982D01*
X22419Y23526D01*
X22249Y24050D01*
X21999Y24541D01*
X21675Y24986D01*
X21285Y25376D01*
X20840Y25700D01*
X20349Y25950D01*
X19825Y26120D01*
X19281Y26206D01*
D02*
G37*
G36*
X7882Y10057D02*
X7555D01*
Y9591D01*
X7646Y9609D01*
X7770Y9692D01*
X7853Y9816D01*
X7882Y9962D01*
Y10057D01*
D02*
G37*
G36*
X7110Y8766D02*
X6480D01*
Y8266D01*
X7110D01*
Y8766D01*
D02*
G37*
G36*
Y7066D02*
X6480D01*
Y6566D01*
X7110D01*
Y7066D01*
D02*
G37*
G36*
X6507Y39426D02*
X5955D01*
Y39148D01*
X6125D01*
X6281Y39179D01*
X6413Y39268D01*
X6502Y39400D01*
X6507Y39426D01*
D02*
G37*
G36*
X5595Y38542D02*
X5504Y38524D01*
X5380Y38441D01*
X5297Y38317D01*
X5268Y38171D01*
Y38076D01*
X5595D01*
Y38542D01*
D02*
G37*
G36*
X15331Y49087D02*
Y48617D01*
X15651D01*
Y49087D01*
X15331D01*
D02*
G37*
G36*
X15651Y48157D02*
X15331D01*
Y47687D01*
X15651D01*
Y48157D01*
D02*
G37*
G36*
X15976Y52735D02*
X13476D01*
Y50984D01*
X13470Y50935D01*
Y50353D01*
X13066Y49950D01*
X12946Y49793D01*
X12870Y49611D01*
X12845Y49415D01*
Y49387D01*
X12751D01*
Y47387D01*
X14451D01*
Y47622D01*
X14551Y47687D01*
X14578Y47687D01*
X14871D01*
Y48387D01*
Y49087D01*
X14578D01*
X14551Y49087D01*
X14530Y49101D01*
X14515Y49260D01*
X14761Y49505D01*
X14881Y49662D01*
X14957Y49844D01*
X14982Y50040D01*
X15063Y50135D01*
X15976D01*
Y52735D01*
D02*
G37*
G36*
X13696Y45586D02*
Y44994D01*
X14288D01*
X14285Y45004D01*
X14146Y45246D01*
X13948Y45444D01*
X13706Y45584D01*
X13696Y45586D01*
D02*
G37*
G36*
X12896D02*
X12886Y45584D01*
X12644Y45444D01*
X12446Y45246D01*
X12306Y45004D01*
X12304Y44994D01*
X12896D01*
Y45586D01*
D02*
G37*
G36*
X14288Y44194D02*
X13696D01*
Y43602D01*
X13706Y43604D01*
X13948Y43744D01*
X14146Y43942D01*
X14285Y44184D01*
X14288Y44194D01*
D02*
G37*
G36*
X12896D02*
X12304D01*
X12306Y44184D01*
X12446Y43942D01*
X12644Y43744D01*
X12886Y43604D01*
X12896Y43602D01*
Y44194D01*
D02*
G37*
G36*
X13696Y39490D02*
Y38898D01*
X14288D01*
X14285Y38908D01*
X14146Y39150D01*
X13948Y39348D01*
X13706Y39488D01*
X13696Y39490D01*
D02*
G37*
G36*
X12896D02*
X12886Y39488D01*
X12644Y39348D01*
X12446Y39150D01*
X12306Y38908D01*
X12304Y38898D01*
X12896D01*
Y39490D01*
D02*
G37*
G36*
X14288Y38098D02*
X13696D01*
Y37506D01*
X13706Y37508D01*
X13948Y37648D01*
X14146Y37846D01*
X14285Y38088D01*
X14288Y38098D01*
D02*
G37*
G36*
X12896D02*
X12304D01*
X12306Y38088D01*
X12446Y37846D01*
X12644Y37648D01*
X12886Y37508D01*
X12896Y37506D01*
Y38098D01*
D02*
G37*
G36*
X8891Y29402D02*
X7916D01*
Y29002D01*
X8891D01*
Y29402D01*
D02*
G37*
G36*
X7316D02*
X6341D01*
Y29002D01*
X7316D01*
Y29402D01*
D02*
G37*
G36*
X8891Y28402D02*
X7916D01*
Y28002D01*
X8891D01*
Y28402D01*
D02*
G37*
G36*
X7316D02*
X6341D01*
Y28002D01*
X7316D01*
Y28402D01*
D02*
G37*
G36*
X14741Y28002D02*
X14166D01*
Y26852D01*
X14741D01*
Y28002D01*
D02*
G37*
G36*
X12766D02*
X12191D01*
Y26852D01*
X12766D01*
Y28002D01*
D02*
G37*
G36*
X7110Y21306D02*
X6480D01*
Y20806D01*
X7110D01*
Y21306D01*
D02*
G37*
G36*
X6507Y11886D02*
X5955D01*
Y11608D01*
X6125D01*
X6281Y11639D01*
X6413Y11728D01*
X6502Y11860D01*
X6507Y11886D01*
D02*
G37*
G36*
X5595Y10983D02*
X5504Y10965D01*
X5380Y10882D01*
X5297Y10758D01*
X5268Y10612D01*
Y10517D01*
X5595D01*
Y10983D01*
D02*
G37*
%LPD*%
D27*
X15101Y54483D02*
D03*
X13601D02*
D03*
Y48387D02*
D03*
X15101D02*
D03*
X2405Y76254D02*
D03*
X3905D02*
D03*
X17399Y39497D02*
D03*
X18899D02*
D03*
X17392Y37584D02*
D03*
X18892D02*
D03*
X18892Y35933D02*
D03*
X17392D02*
D03*
X3905Y4666D02*
D03*
X2405D02*
D03*
X2825Y10287D02*
D03*
X4325D02*
D03*
X3905Y23206D02*
D03*
X2405D02*
D03*
X3905Y32206D02*
D03*
X2405D02*
D03*
X3905Y50746D02*
D03*
X2405D02*
D03*
X2825Y37846D02*
D03*
X4325D02*
D03*
X3905Y57206D02*
D03*
X2405D02*
D03*
X2825Y63373D02*
D03*
X4325D02*
D03*
D28*
X4318Y42545D02*
D03*
X4318Y44545D02*
D03*
X5969Y42545D02*
D03*
X5969Y44545D02*
D03*
X4318Y15125D02*
D03*
X4318Y17125D02*
D03*
X5969Y68088D02*
D03*
X5969Y70088D02*
D03*
X4318Y68088D02*
D03*
X4318Y70088D02*
D03*
X5887Y15125D02*
D03*
X5887Y17125D02*
D03*
D29*
X5880Y73254D02*
D03*
Y7666D02*
D03*
Y20206D02*
D03*
Y35206D02*
D03*
Y47746D02*
D03*
Y60206D02*
D03*
D30*
X3905Y73254D02*
D03*
Y7666D02*
D03*
Y20206D02*
D03*
Y35206D02*
D03*
Y47746D02*
D03*
Y60206D02*
D03*
D31*
X14726Y51435D02*
D03*
D32*
X11476Y50435D02*
D03*
Y52435D02*
D03*
D33*
X13466Y28702D02*
D03*
D34*
X7616Y26402D02*
D03*
X7616Y28702D02*
D03*
X7616Y31002D02*
D03*
D35*
X5825Y10287D02*
D03*
X7325D02*
D03*
X5825Y37846D02*
D03*
X7325D02*
D03*
X5825Y63373D02*
D03*
X7325D02*
D03*
D36*
X4325Y13316D02*
D03*
Y12666D02*
D03*
Y12016D02*
D03*
X5825Y13316D02*
D03*
Y12666D02*
D03*
X4325Y40856D02*
D03*
Y40206D02*
D03*
Y39556D02*
D03*
X5825Y40856D02*
D03*
Y40206D02*
D03*
X4325Y66364D02*
D03*
Y65714D02*
D03*
Y65064D02*
D03*
X5825Y66364D02*
D03*
Y65714D02*
D03*
D37*
Y12016D02*
D03*
Y39556D02*
D03*
Y65064D02*
D03*
D38*
X10900Y19282D02*
D03*
X11960Y20342D02*
D03*
X9757Y20425D02*
D03*
X10817Y21485D02*
D03*
D39*
X12052Y20434D02*
X12827Y21209D01*
Y22606D02*
X16764Y26543D01*
X12827Y21209D02*
Y22606D01*
X16764Y26543D02*
Y28702D01*
X17018Y28956D02*
X18542D01*
X16764Y28702D02*
X17018Y28956D01*
X10678Y21346D02*
X16129Y26797D01*
Y28956D01*
X8058Y16948D02*
X8693D01*
X10926Y19181D01*
X5937Y17175D02*
X6507D01*
X5887Y17125D02*
X5937Y17175D01*
X6507D02*
X9757Y20425D01*
X5883Y70088D02*
Y71358D01*
X5883Y44545D02*
Y45815D01*
X4318Y17125D02*
Y18391D01*
X4322Y18395D01*
X4318Y13323D02*
Y15125D01*
Y13323D02*
X4325Y13316D01*
X8001Y16891D02*
X8058Y16948D01*
X4318Y70088D02*
Y71358D01*
X4318Y44545D02*
Y45815D01*
X5825Y13316D02*
X7095D01*
X7713Y12666D02*
X8128Y13081D01*
X5825Y12666D02*
X7713D01*
X18900Y35941D02*
X21082D01*
X18892Y35933D02*
X18900Y35941D01*
X16129Y28956D02*
X17145Y29972D01*
X19177D01*
X18896Y38608D02*
X20112D01*
X18896Y37588D02*
Y38608D01*
Y39493D01*
X5887Y17125D02*
Y18395D01*
X18892Y37584D02*
X18896Y37588D01*
Y39493D02*
X18899Y39497D01*
X16129Y35958D02*
X17367D01*
X13296D02*
X16129D01*
Y37338D01*
X16375Y37584D01*
X17392D01*
X17367Y35958D02*
X17392Y35933D01*
X2825Y63373D02*
Y64643D01*
X5887Y68173D02*
X7227D01*
X8128Y67272D01*
Y66129D02*
Y67272D01*
X5825Y65714D02*
X7713D01*
X8128Y66129D01*
X5887Y42665D02*
X7227D01*
X8128Y41764D01*
Y40621D02*
Y41764D01*
X5825Y40206D02*
X7713D01*
X8128Y40621D01*
Y13081D02*
Y14224D01*
X7227Y15125D02*
X8128Y14224D01*
X5887Y15125D02*
X7227D01*
X7325Y10325D02*
X8595D01*
X4325Y40856D02*
Y42580D01*
X5825Y40856D02*
X7095D01*
X7325Y37865D02*
X8595D01*
X7325Y63373D02*
X8595D01*
X5825Y66364D02*
X7095D01*
X4325D02*
Y68088D01*
X4318D02*
X4325D01*
X2825Y37846D02*
Y39116D01*
Y10287D02*
Y11557D01*
X4318Y40863D02*
X4325Y40856D01*
D40*
X21209Y32639D02*
X21971Y33401D01*
X15367Y32639D02*
X21209D01*
X21971Y33401D02*
Y48768D01*
X16256Y54483D02*
X21971Y48768D01*
X15101Y54483D02*
X16256D01*
X13466Y28702D02*
X14291Y29527D01*
Y31563D01*
X15367Y32639D01*
X15875Y39790D02*
X16168Y39497D01*
X17399D01*
X15875Y39790D02*
Y41529D01*
X15350Y42054D02*
X15875Y41529D01*
X13296Y42054D02*
X15350D01*
X14226Y50040D02*
Y50935D01*
X14726Y51435D01*
X13601Y49415D02*
X14226Y50040D01*
X13601Y48387D02*
Y49415D01*
X15101Y48387D02*
X16421D01*
X11476Y53767D02*
X12192Y54483D01*
X13601D01*
X11476Y52435D02*
Y53767D01*
X10795Y46482D02*
X11476Y47163D01*
Y50435D01*
X10795Y32258D02*
Y46482D01*
X9539Y31002D02*
X10795Y32258D01*
X7616Y31002D02*
X9539D01*
D41*
X2405Y76000D02*
Y76104D01*
X1016Y57277D02*
Y74611D01*
X2405Y76000D01*
X1016Y26289D02*
Y32131D01*
Y23114D02*
Y26289D01*
X1129Y26402D01*
X7616D01*
X5880Y73254D02*
X7785D01*
X5880Y60206D02*
X7785D01*
X5880Y35206D02*
X7785D01*
X5880Y20206D02*
X7785D01*
X5880Y7666D02*
X7785D01*
X1016Y6205D02*
Y23114D01*
X1108Y23206D01*
X2405D01*
X1016Y32131D02*
Y50546D01*
Y32131D02*
X1091Y32206D01*
X2405D01*
X1016Y50546D02*
Y57277D01*
X1197Y50746D02*
X2405D01*
X1087Y57206D02*
X2405D01*
X1016Y57277D02*
X1087Y57206D01*
X2405Y4666D02*
Y4816D01*
X1016Y6205D02*
X2405Y4816D01*
X3905Y73254D02*
Y76254D01*
Y4666D02*
Y7666D01*
Y20206D02*
Y23206D01*
Y57206D02*
Y60206D01*
Y47746D02*
Y50746D01*
Y32206D02*
Y35206D01*
D42*
X13296Y42054D02*
D03*
X13296Y44594D02*
D03*
Y35958D02*
D03*
Y38498D02*
D03*
D43*
X19005Y57706D02*
D03*
Y22706D02*
D03*
D44*
X13574Y25055D02*
D03*
X8001Y16891D02*
D03*
X4318Y71358D02*
D03*
X4318Y45815D02*
D03*
X4322Y18395D02*
D03*
X7095Y13316D02*
D03*
X21082Y35941D02*
D03*
X18542Y28956D02*
D03*
X19177Y29972D02*
D03*
X20112Y38608D02*
D03*
X11875Y24850D02*
D03*
X12827Y25908D02*
D03*
X5883Y45815D02*
D03*
X5883Y71358D02*
D03*
X5887Y18395D02*
D03*
X16421Y48387D02*
D03*
X7785Y73254D02*
D03*
Y60206D02*
D03*
Y35206D02*
D03*
Y20206D02*
D03*
Y7666D02*
D03*
X2825Y64643D02*
D03*
X8595Y10325D02*
D03*
X7095Y40856D02*
D03*
X8595Y37865D02*
D03*
Y63373D02*
D03*
X7095Y66364D02*
D03*
X2825Y11557D02*
D03*
Y39116D02*
D03*
M02*
